M48
; DRILL file {KiCad (5.1.8)-1} date 07/11/21 12:48:15
; FORMAT={-:-/ absolute / inch / decimal}
; #@! TF.CreationDate,2021-07-11T12:48:15+05:30
; #@! TF.GenerationSoftware,Kicad,Pcbnew,(5.1.8)-1
; #@! TF.FileFunction,Plated,1,2,PTH
FMAT,2
INCH
T1C0.0157
T2C0.0394
%
G90
G05
T1
X2.8896Y-3.685
X2.9299Y-3.4301
X2.9683Y-3.0764
X2.9895Y-2.7057
X3.1296Y-2.7015
X3.2755Y-3.596
X3.295Y-3.7304
X3.3921Y-2.6883
X3.5234Y-3.3813
X3.7378Y-3.5684
X3.7399Y-3.7434
X3.8426Y-3.8825
X3.8734Y-2.9766
X4.023Y-3.2631
X4.0559Y-3.0538
X4.059Y-4.05
X4.0617Y-4.1314
X4.1644Y-3.8425
X4.1877Y-2.6958
X4.189Y-2.8982
X4.3431Y-3.6638
X4.3562Y-4.1965
X4.3798Y-3.4545
X4.475Y-2.6324
X4.5639Y-4.0286
X4.601Y-2.6412
X4.6022Y-3.9287
X4.6073Y-4.2653
X4.6134Y-3.5457
X4.8445Y-3.5664
X4.858Y-3.5197
X4.86Y-5.0284
X4.8686Y-2.9418
X4.904Y-3.9838
X4.995Y-2.6432
X5.047Y-2.9823
X5.1825Y-3.4346
X5.2058Y-3.7922
X5.3794Y-2.6834
X5.3794Y-2.9229
X5.3807Y-2.8206
X5.3809Y-3.0081
T2
X4.1692Y-4.5404
X4.1692Y-4.6404
X4.6544Y-4.5408
X4.6544Y-4.6408
X4.3272Y-4.5404
X4.3272Y-4.6404
X3.5175Y-4.5404
X3.5175Y-4.6404
X3.86Y-5.055
X3.96Y-5.055
X4.06Y-5.055
X4.16Y-5.055
X4.26Y-5.055
X4.36Y-5.055
X4.33Y-3.255
X4.43Y-3.255
X4.4908Y-4.5404
X4.4908Y-4.6404
X3.11Y-3.295
X3.21Y-3.295
X4.002Y-4.5404
X4.002Y-4.6404
X3.6745Y-4.5408
X3.6745Y-4.6408
X3.844Y-4.5408
X3.844Y-4.6408
T0
M30
