%TF.GenerationSoftware,KiCad,Pcbnew,(5.1.8)-1*%
%TF.CreationDate,2021-07-11T12:48:12+05:30*%
%TF.ProjectId,AC_RMS_ESP32_ATM90E26,41435f52-4d53-45f4-9553-5033325f4154,V2*%
%TF.SameCoordinates,Original*%
%TF.FileFunction,Legend,Top*%
%TF.FilePolarity,Positive*%
%FSLAX46Y46*%
G04 Gerber Fmt 4.6, Leading zero omitted, Abs format (unit mm)*
G04 Created by KiCad (PCBNEW (5.1.8)-1) date 2021-07-11 12:48:12*
%MOMM*%
%LPD*%
G01*
G04 APERTURE LIST*
%TA.AperFunction,Profile*%
%ADD10C,0.050000*%
%TD*%
%ADD11C,0.300000*%
%ADD12C,0.150000*%
%ADD13C,0.200000*%
%ADD14C,0.120000*%
%ADD15C,0.152400*%
%ADD16C,0.152000*%
%ADD17O,1.700000X1.700000*%
%ADD18R,1.700000X1.700000*%
%ADD19R,1.900000X1.900000*%
%ADD20C,0.550000*%
%ADD21R,1.800000X0.400000*%
%ADD22R,1.500000X1.500000*%
%ADD23O,1.500000X2.000000*%
%ADD24C,2.000000*%
%ADD25R,2.000000X3.000000*%
%ADD26C,0.100000*%
%ADD27R,1.500000X1.000000*%
%ADD28R,5.000000X5.000000*%
%ADD29R,2.000000X0.900000*%
%ADD30R,0.900000X2.000000*%
%ADD31R,7.875000X2.000000*%
%ADD32R,2.000000X3.800000*%
%ADD33R,2.000000X1.500000*%
%ADD34R,1.397000X0.348000*%
%ADD35R,1.200000X2.500000*%
%ADD36C,1.500000*%
G04 APERTURE END LIST*
D10*
X137795000Y-66040000D02*
X137795000Y-133858000D01*
X69977000Y-66040000D02*
X69977000Y-133858000D01*
D11*
X71035365Y-132123571D02*
X71035365Y-130623571D01*
X71592508Y-132123571D02*
X71592508Y-131337857D01*
X71530603Y-131195000D01*
X71406794Y-131123571D01*
X71221080Y-131123571D01*
X71097270Y-131195000D01*
X71035365Y-131266428D01*
X72025841Y-131123571D02*
X72521080Y-131123571D01*
X72211556Y-130623571D02*
X72211556Y-131909285D01*
X72273460Y-132052142D01*
X72397270Y-132123571D01*
X72521080Y-132123571D01*
X72768699Y-131123571D02*
X73263937Y-131123571D01*
X72954413Y-130623571D02*
X72954413Y-131909285D01*
X73016318Y-132052142D01*
X73140127Y-132123571D01*
X73263937Y-132123571D01*
X73697270Y-131123571D02*
X73697270Y-132623571D01*
X73697270Y-131195000D02*
X73821080Y-131123571D01*
X74068699Y-131123571D01*
X74192508Y-131195000D01*
X74254413Y-131266428D01*
X74316318Y-131409285D01*
X74316318Y-131837857D01*
X74254413Y-131980714D01*
X74192508Y-132052142D01*
X74068699Y-132123571D01*
X73821080Y-132123571D01*
X73697270Y-132052142D01*
X74811556Y-132052142D02*
X74935365Y-132123571D01*
X75182984Y-132123571D01*
X75306794Y-132052142D01*
X75368699Y-131909285D01*
X75368699Y-131837857D01*
X75306794Y-131695000D01*
X75182984Y-131623571D01*
X74997270Y-131623571D01*
X74873460Y-131552142D01*
X74811556Y-131409285D01*
X74811556Y-131337857D01*
X74873460Y-131195000D01*
X74997270Y-131123571D01*
X75182984Y-131123571D01*
X75306794Y-131195000D01*
X75925841Y-131980714D02*
X75987746Y-132052142D01*
X75925841Y-132123571D01*
X75863937Y-132052142D01*
X75925841Y-131980714D01*
X75925841Y-132123571D01*
X75925841Y-131195000D02*
X75987746Y-131266428D01*
X75925841Y-131337857D01*
X75863937Y-131266428D01*
X75925841Y-131195000D01*
X75925841Y-131337857D01*
X77473460Y-130552142D02*
X76359175Y-132480714D01*
X78835365Y-130552142D02*
X77721080Y-132480714D01*
X79206794Y-132052142D02*
X79330603Y-132123571D01*
X79578222Y-132123571D01*
X79702032Y-132052142D01*
X79763937Y-131909285D01*
X79763937Y-131837857D01*
X79702032Y-131695000D01*
X79578222Y-131623571D01*
X79392508Y-131623571D01*
X79268699Y-131552142D01*
X79206794Y-131409285D01*
X79206794Y-131337857D01*
X79268699Y-131195000D01*
X79392508Y-131123571D01*
X79578222Y-131123571D01*
X79702032Y-131195000D01*
X80506794Y-132123571D02*
X80382984Y-132052142D01*
X80321080Y-131980714D01*
X80259175Y-131837857D01*
X80259175Y-131409285D01*
X80321080Y-131266428D01*
X80382984Y-131195000D01*
X80506794Y-131123571D01*
X80692508Y-131123571D01*
X80816318Y-131195000D01*
X80878222Y-131266428D01*
X80940127Y-131409285D01*
X80940127Y-131837857D01*
X80878222Y-131980714D01*
X80816318Y-132052142D01*
X80692508Y-132123571D01*
X80506794Y-132123571D01*
X81682984Y-132123571D02*
X81559175Y-132052142D01*
X81497270Y-131909285D01*
X81497270Y-130623571D01*
X82735365Y-132123571D02*
X82735365Y-131337857D01*
X82673460Y-131195000D01*
X82549651Y-131123571D01*
X82302032Y-131123571D01*
X82178222Y-131195000D01*
X82735365Y-132052142D02*
X82611556Y-132123571D01*
X82302032Y-132123571D01*
X82178222Y-132052142D01*
X82116318Y-131909285D01*
X82116318Y-131766428D01*
X82178222Y-131623571D01*
X82302032Y-131552142D01*
X82611556Y-131552142D01*
X82735365Y-131480714D01*
X83354413Y-132123571D02*
X83354413Y-131123571D01*
X83354413Y-131409285D02*
X83416318Y-131266428D01*
X83478222Y-131195000D01*
X83602032Y-131123571D01*
X83725841Y-131123571D01*
X84097270Y-132052142D02*
X84221080Y-132123571D01*
X84468699Y-132123571D01*
X84592508Y-132052142D01*
X84654413Y-131909285D01*
X84654413Y-131837857D01*
X84592508Y-131695000D01*
X84468699Y-131623571D01*
X84282984Y-131623571D01*
X84159175Y-131552142D01*
X84097270Y-131409285D01*
X84097270Y-131337857D01*
X84159175Y-131195000D01*
X84282984Y-131123571D01*
X84468699Y-131123571D01*
X84592508Y-131195000D01*
X85768699Y-131123571D02*
X85768699Y-132123571D01*
X85211556Y-131123571D02*
X85211556Y-131909285D01*
X85273460Y-132052142D01*
X85397270Y-132123571D01*
X85582984Y-132123571D01*
X85706794Y-132052142D01*
X85768699Y-131980714D01*
X86387746Y-132123571D02*
X86387746Y-131123571D01*
X86387746Y-131409285D02*
X86449651Y-131266428D01*
X86511556Y-131195000D01*
X86635365Y-131123571D01*
X86759175Y-131123571D01*
X87068699Y-131123571D02*
X87378222Y-132123571D01*
X87687746Y-131123571D01*
X88678222Y-132052142D02*
X88554413Y-132123571D01*
X88306794Y-132123571D01*
X88182984Y-132052142D01*
X88121080Y-131909285D01*
X88121080Y-131337857D01*
X88182984Y-131195000D01*
X88306794Y-131123571D01*
X88554413Y-131123571D01*
X88678222Y-131195000D01*
X88740127Y-131337857D01*
X88740127Y-131480714D01*
X88121080Y-131623571D01*
X89297270Y-132123571D02*
X89297270Y-131123571D01*
X89297270Y-130623571D02*
X89235365Y-130695000D01*
X89297270Y-130766428D01*
X89359175Y-130695000D01*
X89297270Y-130623571D01*
X89297270Y-130766428D01*
X90102032Y-132123571D02*
X89978222Y-132052142D01*
X89916318Y-131909285D01*
X89916318Y-130623571D01*
X91154413Y-132123571D02*
X91154413Y-130623571D01*
X91154413Y-132052142D02*
X91030603Y-132123571D01*
X90782984Y-132123571D01*
X90659175Y-132052142D01*
X90597270Y-131980714D01*
X90535365Y-131837857D01*
X90535365Y-131409285D01*
X90597270Y-131266428D01*
X90659175Y-131195000D01*
X90782984Y-131123571D01*
X91030603Y-131123571D01*
X91154413Y-131195000D01*
X91773460Y-132123571D02*
X91773460Y-130623571D01*
X91773460Y-131195000D02*
X91897270Y-131123571D01*
X92144889Y-131123571D01*
X92268699Y-131195000D01*
X92330603Y-131266428D01*
X92392508Y-131409285D01*
X92392508Y-131837857D01*
X92330603Y-131980714D01*
X92268699Y-132052142D01*
X92144889Y-132123571D01*
X91897270Y-132123571D01*
X91773460Y-132052142D01*
X92949651Y-132123571D02*
X92949651Y-131123571D01*
X92949651Y-130623571D02*
X92887746Y-130695000D01*
X92949651Y-130766428D01*
X93011556Y-130695000D01*
X92949651Y-130623571D01*
X92949651Y-130766428D01*
X93382984Y-131123571D02*
X93878222Y-131123571D01*
X93568699Y-130623571D02*
X93568699Y-131909285D01*
X93630603Y-132052142D01*
X93754413Y-132123571D01*
X93878222Y-132123571D01*
X94311556Y-131980714D02*
X94373460Y-132052142D01*
X94311556Y-132123571D01*
X94249651Y-132052142D01*
X94311556Y-131980714D01*
X94311556Y-132123571D01*
X94930603Y-132123571D02*
X94930603Y-131123571D01*
X94930603Y-130623571D02*
X94868699Y-130695000D01*
X94930603Y-130766428D01*
X94992508Y-130695000D01*
X94930603Y-130623571D01*
X94930603Y-130766428D01*
X95549651Y-131123571D02*
X95549651Y-132123571D01*
X95549651Y-131266428D02*
X95611556Y-131195000D01*
X95735365Y-131123571D01*
X95921080Y-131123571D01*
X96044889Y-131195000D01*
X96106794Y-131337857D01*
X96106794Y-132123571D01*
D12*
X101885904Y-130897380D02*
X102504952Y-130897380D01*
X102171619Y-131278333D01*
X102314476Y-131278333D01*
X102409714Y-131325952D01*
X102457333Y-131373571D01*
X102504952Y-131468809D01*
X102504952Y-131706904D01*
X102457333Y-131802142D01*
X102409714Y-131849761D01*
X102314476Y-131897380D01*
X102028761Y-131897380D01*
X101933523Y-131849761D01*
X101885904Y-131802142D01*
X102790666Y-130897380D02*
X103124000Y-131897380D01*
X103457333Y-130897380D01*
X103695428Y-130897380D02*
X104314476Y-130897380D01*
X103981142Y-131278333D01*
X104124000Y-131278333D01*
X104219238Y-131325952D01*
X104266857Y-131373571D01*
X104314476Y-131468809D01*
X104314476Y-131706904D01*
X104266857Y-131802142D01*
X104219238Y-131849761D01*
X104124000Y-131897380D01*
X103838285Y-131897380D01*
X103743047Y-131849761D01*
X103695428Y-131802142D01*
X97155095Y-131072000D02*
X97059857Y-131024380D01*
X96917000Y-131024380D01*
X96774142Y-131072000D01*
X96678904Y-131167238D01*
X96631285Y-131262476D01*
X96583666Y-131452952D01*
X96583666Y-131595809D01*
X96631285Y-131786285D01*
X96678904Y-131881523D01*
X96774142Y-131976761D01*
X96917000Y-132024380D01*
X97012238Y-132024380D01*
X97155095Y-131976761D01*
X97202714Y-131929142D01*
X97202714Y-131595809D01*
X97012238Y-131595809D01*
X97631285Y-132024380D02*
X97631285Y-131024380D01*
X98202714Y-132024380D01*
X98202714Y-131024380D01*
X98678904Y-132024380D02*
X98678904Y-131024380D01*
X98917000Y-131024380D01*
X99059857Y-131072000D01*
X99155095Y-131167238D01*
X99202714Y-131262476D01*
X99250333Y-131452952D01*
X99250333Y-131595809D01*
X99202714Y-131786285D01*
X99155095Y-131881523D01*
X99059857Y-131976761D01*
X98917000Y-132024380D01*
X98678904Y-132024380D01*
X104902095Y-130897380D02*
X105473523Y-130897380D01*
X105187809Y-131897380D02*
X105187809Y-130897380D01*
X105711619Y-130897380D02*
X106378285Y-131897380D01*
X106378285Y-130897380D02*
X105711619Y-131897380D01*
X108037333Y-131897380D02*
X107704000Y-131421190D01*
X107465904Y-131897380D02*
X107465904Y-130897380D01*
X107846857Y-130897380D01*
X107942095Y-130945000D01*
X107989714Y-130992619D01*
X108037333Y-131087857D01*
X108037333Y-131230714D01*
X107989714Y-131325952D01*
X107942095Y-131373571D01*
X107846857Y-131421190D01*
X107465904Y-131421190D01*
X108370666Y-130897380D02*
X109037333Y-131897380D01*
X109037333Y-130897380D02*
X108370666Y-131897380D01*
X108458380Y-85050380D02*
X109077428Y-85050380D01*
X108744095Y-85431333D01*
X108886952Y-85431333D01*
X108982190Y-85478952D01*
X109029809Y-85526571D01*
X109077428Y-85621809D01*
X109077428Y-85859904D01*
X109029809Y-85955142D01*
X108982190Y-86002761D01*
X108886952Y-86050380D01*
X108601238Y-86050380D01*
X108506000Y-86002761D01*
X108458380Y-85955142D01*
X109363142Y-85050380D02*
X109696476Y-86050380D01*
X110029809Y-85050380D01*
X110267904Y-85050380D02*
X110886952Y-85050380D01*
X110553619Y-85431333D01*
X110696476Y-85431333D01*
X110791714Y-85478952D01*
X110839333Y-85526571D01*
X110886952Y-85621809D01*
X110886952Y-85859904D01*
X110839333Y-85955142D01*
X110791714Y-86002761D01*
X110696476Y-86050380D01*
X110410761Y-86050380D01*
X110315523Y-86002761D01*
X110267904Y-85955142D01*
X111077428Y-86145619D02*
X111839333Y-86145619D01*
X112077428Y-85526571D02*
X112410761Y-85526571D01*
X112553619Y-86050380D02*
X112077428Y-86050380D01*
X112077428Y-85050380D01*
X112553619Y-85050380D01*
X112934571Y-86002761D02*
X113077428Y-86050380D01*
X113315523Y-86050380D01*
X113410761Y-86002761D01*
X113458380Y-85955142D01*
X113506000Y-85859904D01*
X113506000Y-85764666D01*
X113458380Y-85669428D01*
X113410761Y-85621809D01*
X113315523Y-85574190D01*
X113125047Y-85526571D01*
X113029809Y-85478952D01*
X112982190Y-85431333D01*
X112934571Y-85336095D01*
X112934571Y-85240857D01*
X112982190Y-85145619D01*
X113029809Y-85098000D01*
X113125047Y-85050380D01*
X113363142Y-85050380D01*
X113506000Y-85098000D01*
X113934571Y-86050380D02*
X113934571Y-85050380D01*
X114315523Y-85050380D01*
X114410761Y-85098000D01*
X114458380Y-85145619D01*
X114506000Y-85240857D01*
X114506000Y-85383714D01*
X114458380Y-85478952D01*
X114410761Y-85526571D01*
X114315523Y-85574190D01*
X113934571Y-85574190D01*
X77645000Y-86320380D02*
X78264047Y-86320380D01*
X77930714Y-86701333D01*
X78073571Y-86701333D01*
X78168809Y-86748952D01*
X78216428Y-86796571D01*
X78264047Y-86891809D01*
X78264047Y-87129904D01*
X78216428Y-87225142D01*
X78168809Y-87272761D01*
X78073571Y-87320380D01*
X77787857Y-87320380D01*
X77692619Y-87272761D01*
X77645000Y-87225142D01*
X78549761Y-86320380D02*
X78883095Y-87320380D01*
X79216428Y-86320380D01*
X79454523Y-86320380D02*
X80073571Y-86320380D01*
X79740238Y-86701333D01*
X79883095Y-86701333D01*
X79978333Y-86748952D01*
X80025952Y-86796571D01*
X80073571Y-86891809D01*
X80073571Y-87129904D01*
X80025952Y-87225142D01*
X79978333Y-87272761D01*
X79883095Y-87320380D01*
X79597380Y-87320380D01*
X79502142Y-87272761D01*
X79454523Y-87225142D01*
X80264047Y-87415619D02*
X81025952Y-87415619D01*
X81216428Y-87034666D02*
X81692619Y-87034666D01*
X81121190Y-87320380D02*
X81454523Y-86320380D01*
X81787857Y-87320380D01*
X81978333Y-86320380D02*
X82549761Y-86320380D01*
X82264047Y-87320380D02*
X82264047Y-86320380D01*
X82883095Y-87320380D02*
X82883095Y-86320380D01*
X83216428Y-87034666D01*
X83549761Y-86320380D01*
X83549761Y-87320380D01*
X114275146Y-121322102D02*
X114227527Y-121369721D01*
X114084670Y-121417340D01*
X113989432Y-121417340D01*
X113846575Y-121369721D01*
X113751337Y-121274483D01*
X113703718Y-121179245D01*
X113656099Y-120988769D01*
X113656099Y-120845912D01*
X113703718Y-120655436D01*
X113751337Y-120560198D01*
X113846575Y-120464960D01*
X113989432Y-120417340D01*
X114084670Y-120417340D01*
X114227527Y-120464960D01*
X114275146Y-120512579D01*
X114560860Y-120417340D02*
X115132289Y-120417340D01*
X114846575Y-121417340D02*
X114846575Y-120417340D01*
X115227527Y-121512579D02*
X115989432Y-121512579D01*
X116179908Y-121131626D02*
X116656099Y-121131626D01*
X116084670Y-121417340D02*
X116418003Y-120417340D01*
X116751337Y-121417340D01*
X116941813Y-120417340D02*
X117513241Y-120417340D01*
X117227527Y-121417340D02*
X117227527Y-120417340D01*
X117846575Y-121417340D02*
X117846575Y-120417340D01*
X118179908Y-121131626D01*
X118513241Y-120417340D01*
X118513241Y-121417340D01*
X106333207Y-121322102D02*
X106285588Y-121369721D01*
X106142731Y-121417340D01*
X106047493Y-121417340D01*
X105904636Y-121369721D01*
X105809398Y-121274483D01*
X105761779Y-121179245D01*
X105714160Y-120988769D01*
X105714160Y-120845912D01*
X105761779Y-120655436D01*
X105809398Y-120560198D01*
X105904636Y-120464960D01*
X106047493Y-120417340D01*
X106142731Y-120417340D01*
X106285588Y-120464960D01*
X106333207Y-120512579D01*
X106618921Y-120417340D02*
X107190350Y-120417340D01*
X106904636Y-121417340D02*
X106904636Y-120417340D01*
X107285588Y-121512579D02*
X108047493Y-121512579D01*
X108285588Y-120893531D02*
X108618921Y-120893531D01*
X108761779Y-121417340D02*
X108285588Y-121417340D01*
X108285588Y-120417340D01*
X108761779Y-120417340D01*
X109142731Y-121369721D02*
X109285588Y-121417340D01*
X109523683Y-121417340D01*
X109618921Y-121369721D01*
X109666540Y-121322102D01*
X109714160Y-121226864D01*
X109714160Y-121131626D01*
X109666540Y-121036388D01*
X109618921Y-120988769D01*
X109523683Y-120941150D01*
X109333207Y-120893531D01*
X109237969Y-120845912D01*
X109190350Y-120798293D01*
X109142731Y-120703055D01*
X109142731Y-120607817D01*
X109190350Y-120512579D01*
X109237969Y-120464960D01*
X109333207Y-120417340D01*
X109571302Y-120417340D01*
X109714160Y-120464960D01*
X110142731Y-121417340D02*
X110142731Y-120417340D01*
X110523683Y-120417340D01*
X110618921Y-120464960D01*
X110666540Y-120512579D01*
X110714160Y-120607817D01*
X110714160Y-120750674D01*
X110666540Y-120845912D01*
X110618921Y-120893531D01*
X110523683Y-120941150D01*
X110142731Y-120941150D01*
X97362022Y-120417340D02*
X97695356Y-121417340D01*
X98028689Y-120417340D01*
X98362022Y-121417340D02*
X98362022Y-120417340D01*
X98742975Y-120417340D01*
X98838213Y-120464960D01*
X98885832Y-120512579D01*
X98933451Y-120607817D01*
X98933451Y-120750674D01*
X98885832Y-120845912D01*
X98838213Y-120893531D01*
X98742975Y-120941150D01*
X98362022Y-120941150D01*
X99123927Y-121512579D02*
X99885832Y-121512579D01*
X100123927Y-120893531D02*
X100457260Y-120893531D01*
X100600118Y-121417340D02*
X100123927Y-121417340D01*
X100123927Y-120417340D01*
X100600118Y-120417340D01*
X100981070Y-121369721D02*
X101123927Y-121417340D01*
X101362022Y-121417340D01*
X101457260Y-121369721D01*
X101504880Y-121322102D01*
X101552499Y-121226864D01*
X101552499Y-121131626D01*
X101504880Y-121036388D01*
X101457260Y-120988769D01*
X101362022Y-120941150D01*
X101171546Y-120893531D01*
X101076308Y-120845912D01*
X101028689Y-120798293D01*
X100981070Y-120703055D01*
X100981070Y-120607817D01*
X101028689Y-120512579D01*
X101076308Y-120464960D01*
X101171546Y-120417340D01*
X101409641Y-120417340D01*
X101552499Y-120464960D01*
X101981070Y-121417340D02*
X101981070Y-120417340D01*
X102362022Y-120417340D01*
X102457260Y-120464960D01*
X102504880Y-120512579D01*
X102552499Y-120607817D01*
X102552499Y-120750674D01*
X102504880Y-120845912D01*
X102457260Y-120893531D01*
X102362022Y-120941150D01*
X101981070Y-120941150D01*
X89042881Y-120417340D02*
X89376215Y-121417340D01*
X89709548Y-120417340D01*
X90042881Y-121417340D02*
X90042881Y-120417340D01*
X90423834Y-120417340D01*
X90519072Y-120464960D01*
X90566691Y-120512579D01*
X90614310Y-120607817D01*
X90614310Y-120750674D01*
X90566691Y-120845912D01*
X90519072Y-120893531D01*
X90423834Y-120941150D01*
X90042881Y-120941150D01*
X90804786Y-121512579D02*
X91566691Y-121512579D01*
X91757167Y-121131626D02*
X92233358Y-121131626D01*
X91661929Y-121417340D02*
X91995262Y-120417340D01*
X92328596Y-121417340D01*
X92519072Y-120417340D02*
X93090500Y-120417340D01*
X92804786Y-121417340D02*
X92804786Y-120417340D01*
X93423834Y-121417340D02*
X93423834Y-120417340D01*
X93757167Y-121131626D01*
X94090500Y-120417340D01*
X94090500Y-121417340D01*
D10*
X134620000Y-102997000D02*
G75*
G03*
X134620000Y-102997000I-1778000J0D01*
G01*
X76585530Y-103124000D02*
G75*
G03*
X76585530Y-103124000I-1782530J0D01*
G01*
D13*
X72622020Y-124196860D02*
X72955354Y-125196860D01*
X73288687Y-124196860D01*
X73812497Y-124196860D02*
X74002973Y-124196860D01*
X74098211Y-124244480D01*
X74193449Y-124339718D01*
X74241068Y-124530194D01*
X74241068Y-124863527D01*
X74193449Y-125054003D01*
X74098211Y-125149241D01*
X74002973Y-125196860D01*
X73812497Y-125196860D01*
X73717259Y-125149241D01*
X73622020Y-125054003D01*
X73574401Y-124863527D01*
X73574401Y-124530194D01*
X73622020Y-124339718D01*
X73717259Y-124244480D01*
X73812497Y-124196860D01*
X75145830Y-125196860D02*
X74669640Y-125196860D01*
X74669640Y-124196860D01*
X75336306Y-124196860D02*
X75907735Y-124196860D01*
X75622020Y-125196860D02*
X75622020Y-124196860D01*
X76193449Y-124911146D02*
X76669640Y-124911146D01*
X76098211Y-125196860D02*
X76431544Y-124196860D01*
X76764878Y-125196860D01*
X77622020Y-124244480D02*
X77526782Y-124196860D01*
X77383925Y-124196860D01*
X77241068Y-124244480D01*
X77145830Y-124339718D01*
X77098211Y-124434956D01*
X77050592Y-124625432D01*
X77050592Y-124768289D01*
X77098211Y-124958765D01*
X77145830Y-125054003D01*
X77241068Y-125149241D01*
X77383925Y-125196860D01*
X77479163Y-125196860D01*
X77622020Y-125149241D01*
X77669640Y-125101622D01*
X77669640Y-124768289D01*
X77479163Y-124768289D01*
X78098211Y-124673051D02*
X78431544Y-124673051D01*
X78574401Y-125196860D02*
X78098211Y-125196860D01*
X78098211Y-124196860D01*
X78574401Y-124196860D01*
X79717259Y-125149241D02*
X79860116Y-125196860D01*
X80098211Y-125196860D01*
X80193449Y-125149241D01*
X80241068Y-125101622D01*
X80288687Y-125006384D01*
X80288687Y-124911146D01*
X80241068Y-124815908D01*
X80193449Y-124768289D01*
X80098211Y-124720670D01*
X79907735Y-124673051D01*
X79812497Y-124625432D01*
X79764878Y-124577813D01*
X79717259Y-124482575D01*
X79717259Y-124387337D01*
X79764878Y-124292099D01*
X79812497Y-124244480D01*
X79907735Y-124196860D01*
X80145830Y-124196860D01*
X80288687Y-124244480D01*
X80669640Y-124911146D02*
X81145830Y-124911146D01*
X80574401Y-125196860D02*
X80907735Y-124196860D01*
X81241068Y-125196860D01*
X81574401Y-125196860D02*
X81574401Y-124196860D01*
X81907735Y-124911146D01*
X82241068Y-124196860D01*
X82241068Y-125196860D01*
X82717259Y-125196860D02*
X82717259Y-124196860D01*
X83098211Y-124196860D01*
X83193449Y-124244480D01*
X83241068Y-124292099D01*
X83288687Y-124387337D01*
X83288687Y-124530194D01*
X83241068Y-124625432D01*
X83193449Y-124673051D01*
X83098211Y-124720670D01*
X82717259Y-124720670D01*
X84193449Y-125196860D02*
X83717259Y-125196860D01*
X83717259Y-124196860D01*
X84526782Y-125196860D02*
X84526782Y-124196860D01*
X85002973Y-125196860D02*
X85002973Y-124196860D01*
X85574401Y-125196860D01*
X85574401Y-124196860D01*
X86574401Y-124244480D02*
X86479163Y-124196860D01*
X86336306Y-124196860D01*
X86193449Y-124244480D01*
X86098211Y-124339718D01*
X86050592Y-124434956D01*
X86002973Y-124625432D01*
X86002973Y-124768289D01*
X86050592Y-124958765D01*
X86098211Y-125054003D01*
X86193449Y-125149241D01*
X86336306Y-125196860D01*
X86431544Y-125196860D01*
X86574401Y-125149241D01*
X86622020Y-125101622D01*
X86622020Y-124768289D01*
X86431544Y-124768289D01*
D10*
X137795000Y-66040000D02*
X122301000Y-66040000D01*
X122301000Y-66040000D02*
X85471000Y-66040000D01*
X85471000Y-66040000D02*
X69977000Y-66040000D01*
X122301000Y-133858000D02*
X137795000Y-133858000D01*
X85471000Y-133858000D02*
X122301000Y-133858000D01*
X69977000Y-133858000D02*
X85471000Y-133858000D01*
D14*
%TO.C,J11*%
X112736000Y-119196000D02*
X115396000Y-119196000D01*
X112736000Y-116596000D02*
X112736000Y-119196000D01*
X115396000Y-116596000D02*
X115396000Y-119196000D01*
X112736000Y-116596000D02*
X115396000Y-116596000D01*
X112736000Y-115326000D02*
X112736000Y-113996000D01*
X112736000Y-113996000D02*
X114066000Y-113996000D01*
%TO.C,J4*%
X136185000Y-76295000D02*
X136535000Y-76295000D01*
X136185000Y-68775000D02*
X136535000Y-68775000D01*
X132175000Y-68775000D02*
X132175000Y-70335000D01*
X133985000Y-68775000D02*
X132175000Y-68775000D01*
X132175000Y-76295000D02*
X132175000Y-74735000D01*
X133985000Y-76295000D02*
X132175000Y-76295000D01*
%TO.C,D2*%
X124634000Y-75065000D02*
X120574000Y-75065000D01*
X124634000Y-77335000D02*
X124634000Y-75065000D01*
X120574000Y-77335000D02*
X124634000Y-77335000D01*
%TO.C,J3*%
X108581000Y-113996000D02*
X109911000Y-113996000D01*
X108581000Y-115326000D02*
X108581000Y-113996000D01*
X108581000Y-116596000D02*
X111241000Y-116596000D01*
X111241000Y-116596000D02*
X111241000Y-119196000D01*
X108581000Y-116596000D02*
X108581000Y-119196000D01*
X108581000Y-119196000D02*
X111241000Y-119196000D01*
%TO.C,J2*%
X104568000Y-113996000D02*
X105898000Y-113996000D01*
X104568000Y-115326000D02*
X104568000Y-113996000D01*
X104568000Y-116596000D02*
X107228000Y-116596000D01*
X107228000Y-116596000D02*
X107228000Y-119196000D01*
X104568000Y-116596000D02*
X104568000Y-119196000D01*
X104568000Y-119196000D02*
X107228000Y-119196000D01*
%TO.C,J5*%
X98967600Y-119206000D02*
X97637600Y-119206000D01*
X98967600Y-117876000D02*
X98967600Y-119206000D01*
X98967600Y-116606000D02*
X96307600Y-116606000D01*
X96307600Y-116606000D02*
X96307600Y-114006000D01*
X98967600Y-116606000D02*
X98967600Y-114006000D01*
X98967600Y-114006000D02*
X96307600Y-114006000D01*
%TO.C,J6*%
X100321000Y-119196000D02*
X102981000Y-119196000D01*
X100321000Y-116596000D02*
X100321000Y-119196000D01*
X102981000Y-116596000D02*
X102981000Y-119196000D01*
X100321000Y-116596000D02*
X102981000Y-116596000D01*
X100321000Y-115326000D02*
X100321000Y-113996000D01*
X100321000Y-113996000D02*
X101651000Y-113996000D01*
%TO.C,J10*%
X77664000Y-85023000D02*
X77664000Y-83693000D01*
X78994000Y-85023000D02*
X77664000Y-85023000D01*
X80264000Y-85023000D02*
X80264000Y-82363000D01*
X80264000Y-82363000D02*
X82864000Y-82363000D01*
X80264000Y-85023000D02*
X82864000Y-85023000D01*
X82864000Y-85023000D02*
X82864000Y-82363000D01*
%TO.C,J7*%
X113852000Y-84007000D02*
X113852000Y-81347000D01*
X111252000Y-84007000D02*
X113852000Y-84007000D01*
X111252000Y-81347000D02*
X113852000Y-81347000D01*
X111252000Y-84007000D02*
X111252000Y-81347000D01*
X109982000Y-84007000D02*
X108652000Y-84007000D01*
X108652000Y-84007000D02*
X108652000Y-82677000D01*
%TO.C,J8*%
X75623000Y-108945000D02*
X75623000Y-110845000D01*
X76963000Y-108945000D02*
X75623000Y-108945000D01*
X71773000Y-111645000D02*
X75383000Y-111645000D01*
X86693000Y-120765000D02*
X86693000Y-111645000D01*
X78383000Y-111645000D02*
X81383000Y-111645000D01*
X84383000Y-111645000D02*
X86693000Y-111645000D01*
X84383000Y-120765000D02*
X86693000Y-120765000D01*
X78383000Y-120765000D02*
X81383000Y-120765000D01*
X71773000Y-120765000D02*
X75383000Y-120765000D01*
X71773000Y-120765000D02*
X71773000Y-111645000D01*
X75083000Y-120765000D02*
X75083000Y-111645000D01*
X75083000Y-113205000D02*
X79883000Y-113205000D01*
X75083000Y-119205000D02*
X79883000Y-119205000D01*
X79883000Y-113205000D02*
G75*
G02*
X79883000Y-119205000I0J-3000000D01*
G01*
%TO.C,J9*%
X112074000Y-127067000D02*
X112074000Y-128397000D01*
X110744000Y-127067000D02*
X112074000Y-127067000D01*
X109474000Y-127067000D02*
X109474000Y-129727000D01*
X109474000Y-129727000D02*
X96714000Y-129727000D01*
X109474000Y-127067000D02*
X96714000Y-127067000D01*
X96714000Y-127067000D02*
X96714000Y-129727000D01*
%TO.C,J12*%
X119552000Y-114006000D02*
X116892000Y-114006000D01*
X119552000Y-116606000D02*
X119552000Y-114006000D01*
X116892000Y-116606000D02*
X116892000Y-114006000D01*
X119552000Y-116606000D02*
X116892000Y-116606000D01*
X119552000Y-117876000D02*
X119552000Y-119206000D01*
X119552000Y-119206000D02*
X118222000Y-119206000D01*
%TO.C,J13*%
X88014500Y-113996000D02*
X89344500Y-113996000D01*
X88014500Y-115326000D02*
X88014500Y-113996000D01*
X88014500Y-116596000D02*
X90674500Y-116596000D01*
X90674500Y-116596000D02*
X90674500Y-119196000D01*
X88014500Y-116596000D02*
X88014500Y-119196000D01*
X88014500Y-119196000D02*
X90674500Y-119196000D01*
%TO.C,J14*%
X94662300Y-119206000D02*
X93332300Y-119206000D01*
X94662300Y-117876000D02*
X94662300Y-119206000D01*
X94662300Y-116606000D02*
X92002300Y-116606000D01*
X92002300Y-116606000D02*
X92002300Y-114006000D01*
X94662300Y-116606000D02*
X94662300Y-114006000D01*
X94662300Y-114006000D02*
X92002300Y-114006000D01*
%TO.C,R1*%
X130777064Y-126471000D02*
X129572936Y-126471000D01*
X130777064Y-128291000D02*
X129572936Y-128291000D01*
%TO.C,R4*%
X94975000Y-105442936D02*
X94975000Y-106647064D01*
X96795000Y-105442936D02*
X96795000Y-106647064D01*
%TO.C,R9*%
X83968000Y-70136936D02*
X83968000Y-71341064D01*
X82148000Y-70136936D02*
X82148000Y-71341064D01*
%TO.C,R10*%
X112755000Y-73819936D02*
X112755000Y-75024064D01*
X114575000Y-73819936D02*
X114575000Y-75024064D01*
%TO.C,R13*%
X122460936Y-94848000D02*
X123665064Y-94848000D01*
X122460936Y-96668000D02*
X123665064Y-96668000D01*
%TO.C,R14*%
X122576000Y-90456936D02*
X122576000Y-91661064D01*
X120756000Y-90456936D02*
X120756000Y-91661064D01*
%TO.C,R15*%
X126005000Y-90329936D02*
X126005000Y-91534064D01*
X124185000Y-90329936D02*
X124185000Y-91534064D01*
%TO.C,R16*%
X84984000Y-104488064D02*
X84984000Y-103283936D01*
X83164000Y-104488064D02*
X83164000Y-103283936D01*
%TO.C,R17*%
X87651000Y-103283936D02*
X87651000Y-104488064D01*
X85831000Y-103283936D02*
X85831000Y-104488064D01*
%TO.C,SJ1*%
X127746000Y-101089000D02*
X127746000Y-103889000D01*
X127046000Y-104539000D02*
X126446000Y-104539000D01*
X125746000Y-103889000D02*
X125746000Y-101089000D01*
X126446000Y-100439000D02*
X127046000Y-100439000D01*
X125546000Y-101289000D02*
X125246000Y-100989000D01*
X125246000Y-100989000D02*
X125246000Y-101589000D01*
X125546000Y-101289000D02*
X125246000Y-101589000D01*
X127746000Y-103839000D02*
G75*
G02*
X127046000Y-104539000I-700000J0D01*
G01*
X126446000Y-104539000D02*
G75*
G02*
X125746000Y-103839000I0J700000D01*
G01*
X125746000Y-101139000D02*
G75*
G02*
X126446000Y-100439000I700000J0D01*
G01*
X127046000Y-100439000D02*
G75*
G02*
X127746000Y-101139000I0J-700000D01*
G01*
%TO.C,SJ2*%
X122190000Y-103889000D02*
X122190000Y-101089000D01*
X122890000Y-100439000D02*
X123490000Y-100439000D01*
X124190000Y-101089000D02*
X124190000Y-103889000D01*
X123490000Y-104539000D02*
X122890000Y-104539000D01*
X124390000Y-103689000D02*
X124690000Y-103989000D01*
X124690000Y-103989000D02*
X124690000Y-103389000D01*
X124390000Y-103689000D02*
X124690000Y-103389000D01*
X122190000Y-101139000D02*
G75*
G02*
X122890000Y-100439000I700000J0D01*
G01*
X123490000Y-100439000D02*
G75*
G02*
X124190000Y-101139000I0J-700000D01*
G01*
X124190000Y-103839000D02*
G75*
G02*
X123490000Y-104539000I-700000J0D01*
G01*
X122890000Y-104539000D02*
G75*
G02*
X122190000Y-103839000I0J700000D01*
G01*
%TO.C,SJ3*%
X82493000Y-95955000D02*
X82193000Y-96255000D01*
X82193000Y-95655000D02*
X82193000Y-96255000D01*
X82493000Y-95955000D02*
X82193000Y-95655000D01*
X83393000Y-95105000D02*
X83993000Y-95105000D01*
X82693000Y-98555000D02*
X82693000Y-95755000D01*
X83993000Y-99205000D02*
X83393000Y-99205000D01*
X84693000Y-95755000D02*
X84693000Y-98555000D01*
X83993000Y-95105000D02*
G75*
G02*
X84693000Y-95805000I0J-700000D01*
G01*
X82693000Y-95805000D02*
G75*
G02*
X83393000Y-95105000I700000J0D01*
G01*
X83393000Y-99205000D02*
G75*
G02*
X82693000Y-98505000I0J700000D01*
G01*
X84693000Y-98505000D02*
G75*
G02*
X83993000Y-99205000I-700000J0D01*
G01*
%TO.C,TP1*%
X74479000Y-88265000D02*
G75*
G03*
X74479000Y-88265000I-1200000J0D01*
G01*
%TO.C,TP2*%
X74479000Y-83439000D02*
G75*
G03*
X74479000Y-83439000I-1200000J0D01*
G01*
%TO.C,U1*%
X87146000Y-67009000D02*
X86766000Y-67009000D01*
X87146000Y-60589000D02*
X87146000Y-67009000D01*
X105386000Y-60589000D02*
X105386000Y-67009000D01*
X87146000Y-60589000D02*
X105386000Y-60589000D01*
X105386000Y-86334000D02*
X104386000Y-86334000D01*
X105386000Y-85554000D02*
X105386000Y-86334000D01*
X87146000Y-86334000D02*
X88146000Y-86334000D01*
X87146000Y-85554000D02*
X87146000Y-86334000D01*
%TO.C,Y1*%
X136694000Y-78857000D02*
X120719000Y-78857000D01*
X136694000Y-83957000D02*
X136694000Y-78857000D01*
X120719000Y-83957000D02*
X136694000Y-83957000D01*
%TO.C,U3*%
X115915000Y-67329000D02*
X121925000Y-67329000D01*
X118165000Y-74149000D02*
X121925000Y-74149000D01*
X121925000Y-67329000D02*
X121925000Y-68589000D01*
X121925000Y-74149000D02*
X121925000Y-72889000D01*
D15*
%TO.C,U2*%
X98458600Y-89882000D02*
G75*
G03*
X98458600Y-89882000I-459600J0D01*
G01*
X97024000Y-88907000D02*
X102874000Y-88907000D01*
X97024000Y-99307000D02*
X97024000Y-88907000D01*
X102874000Y-99307000D02*
X97024000Y-99307000D01*
X102874000Y-88907000D02*
X102874000Y-99307000D01*
D14*
%TO.C,J1*%
X135153000Y-111419000D02*
X137153000Y-111419000D01*
X135153000Y-116419000D02*
X137153000Y-116419000D01*
X137153000Y-116419000D02*
X137153000Y-111419000D01*
X135153000Y-111419000D02*
X135153000Y-110819000D01*
X135153000Y-117019000D02*
X135153000Y-116419000D01*
X123053000Y-110819000D02*
X123053000Y-117019000D01*
X135153000Y-117019000D02*
X132778000Y-117019000D01*
X131128000Y-117019000D02*
X129778000Y-117019000D01*
X128128000Y-117019000D02*
X125728000Y-117019000D01*
X124178000Y-117019000D02*
X123053000Y-117019000D01*
X124628000Y-110819000D02*
X135153000Y-110819000D01*
X124178000Y-117019000D02*
X124178000Y-118419000D01*
X125728000Y-117019000D02*
X125728000Y-118419000D01*
%TO.C,C1*%
X122534000Y-131158064D02*
X122534000Y-129953936D01*
X124354000Y-131158064D02*
X124354000Y-129953936D01*
%TO.C,C2*%
X107220936Y-107463000D02*
X108425064Y-107463000D01*
X107220936Y-105643000D02*
X108425064Y-105643000D01*
%TO.C,C3*%
X77335748Y-78815000D02*
X77858252Y-78815000D01*
X77335748Y-77395000D02*
X77858252Y-77395000D01*
%TO.C,C4*%
X114375000Y-69349252D02*
X114375000Y-68826748D01*
X112955000Y-69349252D02*
X112955000Y-68826748D01*
%TO.C,C5*%
X127583000Y-69603252D02*
X127583000Y-69080748D01*
X126163000Y-69603252D02*
X126163000Y-69080748D01*
%TO.C,C6*%
X127583000Y-74414748D02*
X127583000Y-74937252D01*
X126163000Y-74414748D02*
X126163000Y-74937252D01*
%TO.C,C7*%
X74683252Y-95706000D02*
X74160748Y-95706000D01*
X74683252Y-94286000D02*
X74160748Y-94286000D01*
%TO.C,C8*%
X119074000Y-107830252D02*
X119074000Y-107307748D01*
X117654000Y-107830252D02*
X117654000Y-107307748D01*
%TO.C,C9*%
X130885000Y-88003748D02*
X130885000Y-88526252D01*
X129465000Y-88003748D02*
X129465000Y-88526252D01*
%TO.C,C10*%
X133806000Y-88003748D02*
X133806000Y-88526252D01*
X132386000Y-88003748D02*
X132386000Y-88526252D01*
%TO.C,C11*%
X117781000Y-90797748D02*
X117781000Y-91320252D01*
X119201000Y-90797748D02*
X119201000Y-91320252D01*
%TO.C,C12*%
X112978000Y-89527748D02*
X112978000Y-90050252D01*
X111558000Y-89527748D02*
X111558000Y-90050252D01*
%TO.C,C13*%
X74160748Y-92912000D02*
X74683252Y-92912000D01*
X74160748Y-91492000D02*
X74683252Y-91492000D01*
%TO.C,C15*%
X74683252Y-97080000D02*
X74160748Y-97080000D01*
X74683252Y-98500000D02*
X74160748Y-98500000D01*
%TO.C,C16*%
X82752000Y-90924748D02*
X82752000Y-91447252D01*
X81332000Y-90924748D02*
X81332000Y-91447252D01*
%TO.C,C17*%
X84888000Y-90924748D02*
X84888000Y-91447252D01*
X86308000Y-90924748D02*
X86308000Y-91447252D01*
%TO.C,C18*%
X115899000Y-107307748D02*
X115899000Y-107830252D01*
X114479000Y-107307748D02*
X114479000Y-107830252D01*
%TO.C,R2*%
X130436252Y-125424000D02*
X129913748Y-125424000D01*
X130436252Y-124004000D02*
X129913748Y-124004000D01*
%TO.C,R3*%
X124848252Y-124004000D02*
X124325748Y-124004000D01*
X124848252Y-125424000D02*
X124325748Y-125424000D01*
%TO.C,R5*%
X93928000Y-106306252D02*
X93928000Y-105783748D01*
X92508000Y-106306252D02*
X92508000Y-105783748D01*
%TO.C,R6*%
X101226252Y-108025000D02*
X100703748Y-108025000D01*
X101226252Y-106605000D02*
X100703748Y-106605000D01*
%TO.C,R7*%
X100703748Y-105358000D02*
X101226252Y-105358000D01*
X100703748Y-103938000D02*
X101226252Y-103938000D01*
%TO.C,R8*%
X82475000Y-76969252D02*
X82475000Y-76446748D01*
X83895000Y-76969252D02*
X83895000Y-76446748D01*
%TO.C,R11*%
X133552000Y-94368252D02*
X133552000Y-93845748D01*
X132132000Y-94368252D02*
X132132000Y-93845748D01*
%TO.C,R12*%
X129592000Y-94368252D02*
X129592000Y-93845748D01*
X131012000Y-94368252D02*
X131012000Y-93845748D01*
%TD*%
%TO.C,J11*%
D12*
X113236156Y-112253620D02*
X113236156Y-112967906D01*
X113188537Y-113110763D01*
X113093299Y-113206001D01*
X112950441Y-113253620D01*
X112855203Y-113253620D01*
X114236156Y-113253620D02*
X113664727Y-113253620D01*
X113950441Y-113253620D02*
X113950441Y-112253620D01*
X113855203Y-112396478D01*
X113759965Y-112491716D01*
X113664727Y-112539335D01*
X115188537Y-113253620D02*
X114617108Y-113253620D01*
X114902822Y-113253620D02*
X114902822Y-112253620D01*
X114807584Y-112396478D01*
X114712346Y-112491716D01*
X114617108Y-112539335D01*
%TO.C,J4*%
X131996666Y-67422380D02*
X131996666Y-68136666D01*
X131949047Y-68279523D01*
X131853809Y-68374761D01*
X131710952Y-68422380D01*
X131615714Y-68422380D01*
X132901428Y-67755714D02*
X132901428Y-68422380D01*
X132663333Y-67374761D02*
X132425238Y-68089047D01*
X133044285Y-68089047D01*
%TO.C,sw1*%
X80541761Y-72715285D02*
X80589380Y-72620047D01*
X80589380Y-72429571D01*
X80541761Y-72334333D01*
X80446523Y-72286714D01*
X80398904Y-72286714D01*
X80303666Y-72334333D01*
X80256047Y-72429571D01*
X80256047Y-72572428D01*
X80208428Y-72667666D01*
X80113190Y-72715285D01*
X80065571Y-72715285D01*
X79970333Y-72667666D01*
X79922714Y-72572428D01*
X79922714Y-72429571D01*
X79970333Y-72334333D01*
X79922714Y-71953380D02*
X80589380Y-71762904D01*
X80113190Y-71572428D01*
X80589380Y-71381952D01*
X79922714Y-71191476D01*
X80589380Y-70286714D02*
X80589380Y-70858142D01*
X80589380Y-70572428D02*
X79589380Y-70572428D01*
X79732238Y-70667666D01*
X79827476Y-70762904D01*
X79875095Y-70858142D01*
%TO.C,sw2*%
X72159761Y-72715285D02*
X72207380Y-72620047D01*
X72207380Y-72429571D01*
X72159761Y-72334333D01*
X72064523Y-72286714D01*
X72016904Y-72286714D01*
X71921666Y-72334333D01*
X71874047Y-72429571D01*
X71874047Y-72572428D01*
X71826428Y-72667666D01*
X71731190Y-72715285D01*
X71683571Y-72715285D01*
X71588333Y-72667666D01*
X71540714Y-72572428D01*
X71540714Y-72429571D01*
X71588333Y-72334333D01*
X71540714Y-71953380D02*
X72207380Y-71762904D01*
X71731190Y-71572428D01*
X72207380Y-71381952D01*
X71540714Y-71191476D01*
X71302619Y-70858142D02*
X71255000Y-70810523D01*
X71207380Y-70715285D01*
X71207380Y-70477190D01*
X71255000Y-70381952D01*
X71302619Y-70334333D01*
X71397857Y-70286714D01*
X71493095Y-70286714D01*
X71635952Y-70334333D01*
X72207380Y-70905761D01*
X72207380Y-70286714D01*
%TO.C,D2*%
X121435904Y-78472380D02*
X121435904Y-77472380D01*
X121674000Y-77472380D01*
X121816857Y-77520000D01*
X121912095Y-77615238D01*
X121959714Y-77710476D01*
X122007333Y-77900952D01*
X122007333Y-78043809D01*
X121959714Y-78234285D01*
X121912095Y-78329523D01*
X121816857Y-78424761D01*
X121674000Y-78472380D01*
X121435904Y-78472380D01*
X122388285Y-77567619D02*
X122435904Y-77520000D01*
X122531142Y-77472380D01*
X122769238Y-77472380D01*
X122864476Y-77520000D01*
X122912095Y-77567619D01*
X122959714Y-77662857D01*
X122959714Y-77758095D01*
X122912095Y-77900952D01*
X122340666Y-78472380D01*
X122959714Y-78472380D01*
%TO.C,J3*%
X109318586Y-112162180D02*
X109318586Y-112876466D01*
X109270967Y-113019323D01*
X109175729Y-113114561D01*
X109032872Y-113162180D01*
X108937634Y-113162180D01*
X109699539Y-112162180D02*
X110318586Y-112162180D01*
X109985253Y-112543133D01*
X110128110Y-112543133D01*
X110223348Y-112590752D01*
X110270967Y-112638371D01*
X110318586Y-112733609D01*
X110318586Y-112971704D01*
X110270967Y-113066942D01*
X110223348Y-113114561D01*
X110128110Y-113162180D01*
X109842396Y-113162180D01*
X109747158Y-113114561D01*
X109699539Y-113066942D01*
%TO.C,J2*%
X105536726Y-112324740D02*
X105536726Y-113039026D01*
X105489107Y-113181883D01*
X105393869Y-113277121D01*
X105251012Y-113324740D01*
X105155774Y-113324740D01*
X105965298Y-112419979D02*
X106012917Y-112372360D01*
X106108155Y-112324740D01*
X106346250Y-112324740D01*
X106441488Y-112372360D01*
X106489107Y-112419979D01*
X106536726Y-112515217D01*
X106536726Y-112610455D01*
X106489107Y-112753312D01*
X105917679Y-113324740D01*
X106536726Y-113324740D01*
%TO.C,J5*%
X97316966Y-112222980D02*
X97316966Y-112937266D01*
X97269347Y-113080123D01*
X97174109Y-113175361D01*
X97031252Y-113222980D01*
X96936014Y-113222980D01*
X98269347Y-112222980D02*
X97793157Y-112222980D01*
X97745538Y-112699171D01*
X97793157Y-112651552D01*
X97888395Y-112603933D01*
X98126490Y-112603933D01*
X98221728Y-112651552D01*
X98269347Y-112699171D01*
X98316966Y-112794409D01*
X98316966Y-113032504D01*
X98269347Y-113127742D01*
X98221728Y-113175361D01*
X98126490Y-113222980D01*
X97888395Y-113222980D01*
X97793157Y-113175361D01*
X97745538Y-113127742D01*
%TO.C,J6*%
X101152566Y-112263780D02*
X101152566Y-112978066D01*
X101104947Y-113120923D01*
X101009709Y-113216161D01*
X100866852Y-113263780D01*
X100771614Y-113263780D01*
X102057328Y-112263780D02*
X101866852Y-112263780D01*
X101771614Y-112311400D01*
X101723995Y-112359019D01*
X101628757Y-112501876D01*
X101581138Y-112692352D01*
X101581138Y-113073304D01*
X101628757Y-113168542D01*
X101676376Y-113216161D01*
X101771614Y-113263780D01*
X101962090Y-113263780D01*
X102057328Y-113216161D01*
X102104947Y-113168542D01*
X102152566Y-113073304D01*
X102152566Y-112835209D01*
X102104947Y-112739971D01*
X102057328Y-112692352D01*
X101962090Y-112644733D01*
X101771614Y-112644733D01*
X101676376Y-112692352D01*
X101628757Y-112739971D01*
X101581138Y-112835209D01*
%TO.C,J10*%
X75263476Y-83399380D02*
X75263476Y-84113666D01*
X75215857Y-84256523D01*
X75120619Y-84351761D01*
X74977761Y-84399380D01*
X74882523Y-84399380D01*
X76263476Y-84399380D02*
X75692047Y-84399380D01*
X75977761Y-84399380D02*
X75977761Y-83399380D01*
X75882523Y-83542238D01*
X75787285Y-83637476D01*
X75692047Y-83685095D01*
X76882523Y-83399380D02*
X76977761Y-83399380D01*
X77073000Y-83447000D01*
X77120619Y-83494619D01*
X77168238Y-83589857D01*
X77215857Y-83780333D01*
X77215857Y-84018428D01*
X77168238Y-84208904D01*
X77120619Y-84304142D01*
X77073000Y-84351761D01*
X76977761Y-84399380D01*
X76882523Y-84399380D01*
X76787285Y-84351761D01*
X76739666Y-84304142D01*
X76692047Y-84208904D01*
X76644428Y-84018428D01*
X76644428Y-83780333D01*
X76692047Y-83589857D01*
X76739666Y-83494619D01*
X76787285Y-83447000D01*
X76882523Y-83399380D01*
%TO.C,J7*%
X111934666Y-79208380D02*
X111934666Y-79922666D01*
X111887047Y-80065523D01*
X111791809Y-80160761D01*
X111648952Y-80208380D01*
X111553714Y-80208380D01*
X112315619Y-79208380D02*
X112982285Y-79208380D01*
X112553714Y-80208380D01*
%TO.C,J8*%
X73049666Y-122157380D02*
X73049666Y-122871666D01*
X73002047Y-123014523D01*
X72906809Y-123109761D01*
X72763952Y-123157380D01*
X72668714Y-123157380D01*
X73668714Y-122585952D02*
X73573476Y-122538333D01*
X73525857Y-122490714D01*
X73478238Y-122395476D01*
X73478238Y-122347857D01*
X73525857Y-122252619D01*
X73573476Y-122205000D01*
X73668714Y-122157380D01*
X73859190Y-122157380D01*
X73954428Y-122205000D01*
X74002047Y-122252619D01*
X74049666Y-122347857D01*
X74049666Y-122395476D01*
X74002047Y-122490714D01*
X73954428Y-122538333D01*
X73859190Y-122585952D01*
X73668714Y-122585952D01*
X73573476Y-122633571D01*
X73525857Y-122681190D01*
X73478238Y-122776428D01*
X73478238Y-122966904D01*
X73525857Y-123062142D01*
X73573476Y-123109761D01*
X73668714Y-123157380D01*
X73859190Y-123157380D01*
X73954428Y-123109761D01*
X74002047Y-123062142D01*
X74049666Y-122966904D01*
X74049666Y-122776428D01*
X74002047Y-122681190D01*
X73954428Y-122633571D01*
X73859190Y-122585952D01*
%TO.C,J9*%
X112526380Y-128730333D02*
X113240666Y-128730333D01*
X113383523Y-128777952D01*
X113478761Y-128873190D01*
X113526380Y-129016047D01*
X113526380Y-129111285D01*
X113526380Y-128206523D02*
X113526380Y-128016047D01*
X113478761Y-127920809D01*
X113431142Y-127873190D01*
X113288285Y-127777952D01*
X113097809Y-127730333D01*
X112716857Y-127730333D01*
X112621619Y-127777952D01*
X112574000Y-127825571D01*
X112526380Y-127920809D01*
X112526380Y-128111285D01*
X112574000Y-128206523D01*
X112621619Y-128254142D01*
X112716857Y-128301761D01*
X112954952Y-128301761D01*
X113050190Y-128254142D01*
X113097809Y-128206523D01*
X113145428Y-128111285D01*
X113145428Y-127920809D01*
X113097809Y-127825571D01*
X113050190Y-127777952D01*
X112954952Y-127730333D01*
%TO.C,J12*%
X117346436Y-112167100D02*
X117346436Y-112881386D01*
X117298817Y-113024243D01*
X117203579Y-113119481D01*
X117060721Y-113167100D01*
X116965483Y-113167100D01*
X118346436Y-113167100D02*
X117775007Y-113167100D01*
X118060721Y-113167100D02*
X118060721Y-112167100D01*
X117965483Y-112309958D01*
X117870245Y-112405196D01*
X117775007Y-112452815D01*
X118727388Y-112262339D02*
X118775007Y-112214720D01*
X118870245Y-112167100D01*
X119108340Y-112167100D01*
X119203579Y-112214720D01*
X119251198Y-112262339D01*
X119298817Y-112357577D01*
X119298817Y-112452815D01*
X119251198Y-112595672D01*
X118679769Y-113167100D01*
X119298817Y-113167100D01*
%TO.C,J13*%
X88522276Y-112174880D02*
X88522276Y-112889166D01*
X88474657Y-113032023D01*
X88379419Y-113127261D01*
X88236561Y-113174880D01*
X88141323Y-113174880D01*
X89522276Y-113174880D02*
X88950847Y-113174880D01*
X89236561Y-113174880D02*
X89236561Y-112174880D01*
X89141323Y-112317738D01*
X89046085Y-112412976D01*
X88950847Y-112460595D01*
X89855609Y-112174880D02*
X90474657Y-112174880D01*
X90141323Y-112555833D01*
X90284180Y-112555833D01*
X90379419Y-112603452D01*
X90427038Y-112651071D01*
X90474657Y-112746309D01*
X90474657Y-112984404D01*
X90427038Y-113079642D01*
X90379419Y-113127261D01*
X90284180Y-113174880D01*
X89998466Y-113174880D01*
X89903228Y-113127261D01*
X89855609Y-113079642D01*
%TO.C,J14*%
X92484676Y-112375380D02*
X92484676Y-113089666D01*
X92437057Y-113232523D01*
X92341819Y-113327761D01*
X92198961Y-113375380D01*
X92103723Y-113375380D01*
X93484676Y-113375380D02*
X92913247Y-113375380D01*
X93198961Y-113375380D02*
X93198961Y-112375380D01*
X93103723Y-112518238D01*
X93008485Y-112613476D01*
X92913247Y-112661095D01*
X94341819Y-112708714D02*
X94341819Y-113375380D01*
X94103723Y-112327761D02*
X93865628Y-113042047D01*
X94484676Y-113042047D01*
%TO.C,R1*%
X133945333Y-127833380D02*
X133612000Y-127357190D01*
X133373904Y-127833380D02*
X133373904Y-126833380D01*
X133754857Y-126833380D01*
X133850095Y-126881000D01*
X133897714Y-126928619D01*
X133945333Y-127023857D01*
X133945333Y-127166714D01*
X133897714Y-127261952D01*
X133850095Y-127309571D01*
X133754857Y-127357190D01*
X133373904Y-127357190D01*
X134897714Y-127833380D02*
X134326285Y-127833380D01*
X134612000Y-127833380D02*
X134612000Y-126833380D01*
X134516761Y-126976238D01*
X134421523Y-127071476D01*
X134326285Y-127119095D01*
%TO.C,R4*%
X95718333Y-109799380D02*
X95385000Y-109323190D01*
X95146904Y-109799380D02*
X95146904Y-108799380D01*
X95527857Y-108799380D01*
X95623095Y-108847000D01*
X95670714Y-108894619D01*
X95718333Y-108989857D01*
X95718333Y-109132714D01*
X95670714Y-109227952D01*
X95623095Y-109275571D01*
X95527857Y-109323190D01*
X95146904Y-109323190D01*
X96575476Y-109132714D02*
X96575476Y-109799380D01*
X96337380Y-108751761D02*
X96099285Y-109466047D01*
X96718333Y-109466047D01*
%TO.C,R9*%
X85330380Y-70905666D02*
X84854190Y-71239000D01*
X85330380Y-71477095D02*
X84330380Y-71477095D01*
X84330380Y-71096142D01*
X84378000Y-71000904D01*
X84425619Y-70953285D01*
X84520857Y-70905666D01*
X84663714Y-70905666D01*
X84758952Y-70953285D01*
X84806571Y-71000904D01*
X84854190Y-71096142D01*
X84854190Y-71477095D01*
X85330380Y-70429476D02*
X85330380Y-70239000D01*
X85282761Y-70143761D01*
X85235142Y-70096142D01*
X85092285Y-70000904D01*
X84901809Y-69953285D01*
X84520857Y-69953285D01*
X84425619Y-70000904D01*
X84378000Y-70048523D01*
X84330380Y-70143761D01*
X84330380Y-70334238D01*
X84378000Y-70429476D01*
X84425619Y-70477095D01*
X84520857Y-70524714D01*
X84758952Y-70524714D01*
X84854190Y-70477095D01*
X84901809Y-70429476D01*
X84949428Y-70334238D01*
X84949428Y-70143761D01*
X84901809Y-70048523D01*
X84854190Y-70000904D01*
X84758952Y-69953285D01*
%TO.C,R10*%
X116530380Y-76207857D02*
X116054190Y-76541190D01*
X116530380Y-76779285D02*
X115530380Y-76779285D01*
X115530380Y-76398333D01*
X115578000Y-76303095D01*
X115625619Y-76255476D01*
X115720857Y-76207857D01*
X115863714Y-76207857D01*
X115958952Y-76255476D01*
X116006571Y-76303095D01*
X116054190Y-76398333D01*
X116054190Y-76779285D01*
X116530380Y-75255476D02*
X116530380Y-75826904D01*
X116530380Y-75541190D02*
X115530380Y-75541190D01*
X115673238Y-75636428D01*
X115768476Y-75731666D01*
X115816095Y-75826904D01*
X115530380Y-74636428D02*
X115530380Y-74541190D01*
X115578000Y-74445952D01*
X115625619Y-74398333D01*
X115720857Y-74350714D01*
X115911333Y-74303095D01*
X116149428Y-74303095D01*
X116339904Y-74350714D01*
X116435142Y-74398333D01*
X116482761Y-74445952D01*
X116530380Y-74541190D01*
X116530380Y-74636428D01*
X116482761Y-74731666D01*
X116435142Y-74779285D01*
X116339904Y-74826904D01*
X116149428Y-74874523D01*
X115911333Y-74874523D01*
X115720857Y-74826904D01*
X115625619Y-74779285D01*
X115578000Y-74731666D01*
X115530380Y-74636428D01*
%TO.C,R13*%
X122547142Y-98496380D02*
X122213809Y-98020190D01*
X121975714Y-98496380D02*
X121975714Y-97496380D01*
X122356666Y-97496380D01*
X122451904Y-97544000D01*
X122499523Y-97591619D01*
X122547142Y-97686857D01*
X122547142Y-97829714D01*
X122499523Y-97924952D01*
X122451904Y-97972571D01*
X122356666Y-98020190D01*
X121975714Y-98020190D01*
X123499523Y-98496380D02*
X122928095Y-98496380D01*
X123213809Y-98496380D02*
X123213809Y-97496380D01*
X123118571Y-97639238D01*
X123023333Y-97734476D01*
X122928095Y-97782095D01*
X123832857Y-97496380D02*
X124451904Y-97496380D01*
X124118571Y-97877333D01*
X124261428Y-97877333D01*
X124356666Y-97924952D01*
X124404285Y-97972571D01*
X124451904Y-98067809D01*
X124451904Y-98305904D01*
X124404285Y-98401142D01*
X124356666Y-98448761D01*
X124261428Y-98496380D01*
X123975714Y-98496380D01*
X123880476Y-98448761D01*
X123832857Y-98401142D01*
%TO.C,R14*%
X120515142Y-88209380D02*
X120181809Y-87733190D01*
X119943714Y-88209380D02*
X119943714Y-87209380D01*
X120324666Y-87209380D01*
X120419904Y-87257000D01*
X120467523Y-87304619D01*
X120515142Y-87399857D01*
X120515142Y-87542714D01*
X120467523Y-87637952D01*
X120419904Y-87685571D01*
X120324666Y-87733190D01*
X119943714Y-87733190D01*
X121467523Y-88209380D02*
X120896095Y-88209380D01*
X121181809Y-88209380D02*
X121181809Y-87209380D01*
X121086571Y-87352238D01*
X120991333Y-87447476D01*
X120896095Y-87495095D01*
X122324666Y-87542714D02*
X122324666Y-88209380D01*
X122086571Y-87161761D02*
X121848476Y-87876047D01*
X122467523Y-87876047D01*
%TO.C,R15*%
X127367380Y-91574857D02*
X126891190Y-91908190D01*
X127367380Y-92146285D02*
X126367380Y-92146285D01*
X126367380Y-91765333D01*
X126415000Y-91670095D01*
X126462619Y-91622476D01*
X126557857Y-91574857D01*
X126700714Y-91574857D01*
X126795952Y-91622476D01*
X126843571Y-91670095D01*
X126891190Y-91765333D01*
X126891190Y-92146285D01*
X127367380Y-90622476D02*
X127367380Y-91193904D01*
X127367380Y-90908190D02*
X126367380Y-90908190D01*
X126510238Y-91003428D01*
X126605476Y-91098666D01*
X126653095Y-91193904D01*
X126367380Y-89717714D02*
X126367380Y-90193904D01*
X126843571Y-90241523D01*
X126795952Y-90193904D01*
X126748333Y-90098666D01*
X126748333Y-89860571D01*
X126795952Y-89765333D01*
X126843571Y-89717714D01*
X126938809Y-89670095D01*
X127176904Y-89670095D01*
X127272142Y-89717714D01*
X127319761Y-89765333D01*
X127367380Y-89860571D01*
X127367380Y-90098666D01*
X127319761Y-90193904D01*
X127272142Y-90241523D01*
%TO.C,R16*%
X82706380Y-104528857D02*
X82230190Y-104862190D01*
X82706380Y-105100285D02*
X81706380Y-105100285D01*
X81706380Y-104719333D01*
X81754000Y-104624095D01*
X81801619Y-104576476D01*
X81896857Y-104528857D01*
X82039714Y-104528857D01*
X82134952Y-104576476D01*
X82182571Y-104624095D01*
X82230190Y-104719333D01*
X82230190Y-105100285D01*
X82706380Y-103576476D02*
X82706380Y-104147904D01*
X82706380Y-103862190D02*
X81706380Y-103862190D01*
X81849238Y-103957428D01*
X81944476Y-104052666D01*
X81992095Y-104147904D01*
X81706380Y-102719333D02*
X81706380Y-102909809D01*
X81754000Y-103005047D01*
X81801619Y-103052666D01*
X81944476Y-103147904D01*
X82134952Y-103195523D01*
X82515904Y-103195523D01*
X82611142Y-103147904D01*
X82658761Y-103100285D01*
X82706380Y-103005047D01*
X82706380Y-102814571D01*
X82658761Y-102719333D01*
X82611142Y-102671714D01*
X82515904Y-102624095D01*
X82277809Y-102624095D01*
X82182571Y-102671714D01*
X82134952Y-102719333D01*
X82087333Y-102814571D01*
X82087333Y-103005047D01*
X82134952Y-103100285D01*
X82182571Y-103147904D01*
X82277809Y-103195523D01*
%TO.C,R17*%
X89013380Y-104528857D02*
X88537190Y-104862190D01*
X89013380Y-105100285D02*
X88013380Y-105100285D01*
X88013380Y-104719333D01*
X88061000Y-104624095D01*
X88108619Y-104576476D01*
X88203857Y-104528857D01*
X88346714Y-104528857D01*
X88441952Y-104576476D01*
X88489571Y-104624095D01*
X88537190Y-104719333D01*
X88537190Y-105100285D01*
X89013380Y-103576476D02*
X89013380Y-104147904D01*
X89013380Y-103862190D02*
X88013380Y-103862190D01*
X88156238Y-103957428D01*
X88251476Y-104052666D01*
X88299095Y-104147904D01*
X88013380Y-103243142D02*
X88013380Y-102576476D01*
X89013380Y-103005047D01*
%TO.C,SJ1*%
X128950761Y-103631857D02*
X128998380Y-103489000D01*
X128998380Y-103250904D01*
X128950761Y-103155666D01*
X128903142Y-103108047D01*
X128807904Y-103060428D01*
X128712666Y-103060428D01*
X128617428Y-103108047D01*
X128569809Y-103155666D01*
X128522190Y-103250904D01*
X128474571Y-103441380D01*
X128426952Y-103536619D01*
X128379333Y-103584238D01*
X128284095Y-103631857D01*
X128188857Y-103631857D01*
X128093619Y-103584238D01*
X128046000Y-103536619D01*
X127998380Y-103441380D01*
X127998380Y-103203285D01*
X128046000Y-103060428D01*
X127998380Y-102346142D02*
X128712666Y-102346142D01*
X128855523Y-102393761D01*
X128950761Y-102489000D01*
X128998380Y-102631857D01*
X128998380Y-102727095D01*
X128998380Y-101346142D02*
X128998380Y-101917571D01*
X128998380Y-101631857D02*
X127998380Y-101631857D01*
X128141238Y-101727095D01*
X128236476Y-101822333D01*
X128284095Y-101917571D01*
%TO.C,SJ2*%
X121794761Y-103631857D02*
X121842380Y-103489000D01*
X121842380Y-103250904D01*
X121794761Y-103155666D01*
X121747142Y-103108047D01*
X121651904Y-103060428D01*
X121556666Y-103060428D01*
X121461428Y-103108047D01*
X121413809Y-103155666D01*
X121366190Y-103250904D01*
X121318571Y-103441380D01*
X121270952Y-103536619D01*
X121223333Y-103584238D01*
X121128095Y-103631857D01*
X121032857Y-103631857D01*
X120937619Y-103584238D01*
X120890000Y-103536619D01*
X120842380Y-103441380D01*
X120842380Y-103203285D01*
X120890000Y-103060428D01*
X120842380Y-102346142D02*
X121556666Y-102346142D01*
X121699523Y-102393761D01*
X121794761Y-102489000D01*
X121842380Y-102631857D01*
X121842380Y-102727095D01*
X120937619Y-101917571D02*
X120890000Y-101869952D01*
X120842380Y-101774714D01*
X120842380Y-101536619D01*
X120890000Y-101441380D01*
X120937619Y-101393761D01*
X121032857Y-101346142D01*
X121128095Y-101346142D01*
X121270952Y-101393761D01*
X121842380Y-101965190D01*
X121842380Y-101346142D01*
%TO.C,SJ3*%
X85897761Y-98297857D02*
X85945380Y-98155000D01*
X85945380Y-97916904D01*
X85897761Y-97821666D01*
X85850142Y-97774047D01*
X85754904Y-97726428D01*
X85659666Y-97726428D01*
X85564428Y-97774047D01*
X85516809Y-97821666D01*
X85469190Y-97916904D01*
X85421571Y-98107380D01*
X85373952Y-98202619D01*
X85326333Y-98250238D01*
X85231095Y-98297857D01*
X85135857Y-98297857D01*
X85040619Y-98250238D01*
X84993000Y-98202619D01*
X84945380Y-98107380D01*
X84945380Y-97869285D01*
X84993000Y-97726428D01*
X84945380Y-97012142D02*
X85659666Y-97012142D01*
X85802523Y-97059761D01*
X85897761Y-97155000D01*
X85945380Y-97297857D01*
X85945380Y-97393095D01*
X84945380Y-96631190D02*
X84945380Y-96012142D01*
X85326333Y-96345476D01*
X85326333Y-96202619D01*
X85373952Y-96107380D01*
X85421571Y-96059761D01*
X85516809Y-96012142D01*
X85754904Y-96012142D01*
X85850142Y-96059761D01*
X85897761Y-96107380D01*
X85945380Y-96202619D01*
X85945380Y-96488333D01*
X85897761Y-96583571D01*
X85850142Y-96631190D01*
%TO.C,TP1*%
X72017095Y-85719380D02*
X72588523Y-85719380D01*
X72302809Y-86719380D02*
X72302809Y-85719380D01*
X72921857Y-86719380D02*
X72921857Y-85719380D01*
X73302809Y-85719380D01*
X73398047Y-85767000D01*
X73445666Y-85814619D01*
X73493285Y-85909857D01*
X73493285Y-86052714D01*
X73445666Y-86147952D01*
X73398047Y-86195571D01*
X73302809Y-86243190D01*
X72921857Y-86243190D01*
X74445666Y-86719380D02*
X73874238Y-86719380D01*
X74159952Y-86719380D02*
X74159952Y-85719380D01*
X74064714Y-85862238D01*
X73969476Y-85957476D01*
X73874238Y-86005095D01*
%TO.C,TP2*%
X72017095Y-80893380D02*
X72588523Y-80893380D01*
X72302809Y-81893380D02*
X72302809Y-80893380D01*
X72921857Y-81893380D02*
X72921857Y-80893380D01*
X73302809Y-80893380D01*
X73398047Y-80941000D01*
X73445666Y-80988619D01*
X73493285Y-81083857D01*
X73493285Y-81226714D01*
X73445666Y-81321952D01*
X73398047Y-81369571D01*
X73302809Y-81417190D01*
X72921857Y-81417190D01*
X73874238Y-80988619D02*
X73921857Y-80941000D01*
X74017095Y-80893380D01*
X74255190Y-80893380D01*
X74350428Y-80941000D01*
X74398047Y-80988619D01*
X74445666Y-81083857D01*
X74445666Y-81179095D01*
X74398047Y-81321952D01*
X73826619Y-81893380D01*
X74445666Y-81893380D01*
%TO.C,U1*%
X85108380Y-85645904D02*
X85917904Y-85645904D01*
X86013142Y-85598285D01*
X86060761Y-85550666D01*
X86108380Y-85455428D01*
X86108380Y-85264952D01*
X86060761Y-85169714D01*
X86013142Y-85122095D01*
X85917904Y-85074476D01*
X85108380Y-85074476D01*
X86108380Y-84074476D02*
X86108380Y-84645904D01*
X86108380Y-84360190D02*
X85108380Y-84360190D01*
X85251238Y-84455428D01*
X85346476Y-84550666D01*
X85394095Y-84645904D01*
%TO.C,Y1*%
X126142809Y-84933190D02*
X126142809Y-85409380D01*
X125809476Y-84409380D02*
X126142809Y-84933190D01*
X126476142Y-84409380D01*
X127333285Y-85409380D02*
X126761857Y-85409380D01*
X127047571Y-85409380D02*
X127047571Y-84409380D01*
X126952333Y-84552238D01*
X126857095Y-84647476D01*
X126761857Y-84695095D01*
%TO.C,U3*%
X117475095Y-75144380D02*
X117475095Y-75953904D01*
X117522714Y-76049142D01*
X117570333Y-76096761D01*
X117665571Y-76144380D01*
X117856047Y-76144380D01*
X117951285Y-76096761D01*
X117998904Y-76049142D01*
X118046523Y-75953904D01*
X118046523Y-75144380D01*
X118427476Y-75144380D02*
X119046523Y-75144380D01*
X118713190Y-75525333D01*
X118856047Y-75525333D01*
X118951285Y-75572952D01*
X118998904Y-75620571D01*
X119046523Y-75715809D01*
X119046523Y-75953904D01*
X118998904Y-76049142D01*
X118951285Y-76096761D01*
X118856047Y-76144380D01*
X118570333Y-76144380D01*
X118475095Y-76096761D01*
X118427476Y-76049142D01*
%TO.C,U2*%
D16*
X95751152Y-88355809D02*
X95751152Y-88971047D01*
X95787342Y-89043428D01*
X95823533Y-89079619D01*
X95895914Y-89115809D01*
X96040676Y-89115809D01*
X96113057Y-89079619D01*
X96149247Y-89043428D01*
X96185438Y-88971047D01*
X96185438Y-88355809D01*
X96511152Y-88428190D02*
X96547342Y-88392000D01*
X96619723Y-88355809D01*
X96800676Y-88355809D01*
X96873057Y-88392000D01*
X96909247Y-88428190D01*
X96945438Y-88500571D01*
X96945438Y-88572952D01*
X96909247Y-88681523D01*
X96474961Y-89115809D01*
X96945438Y-89115809D01*
X97335061Y-100838666D02*
X97696966Y-100838666D01*
X97262680Y-101055809D02*
X97516014Y-100295809D01*
X97769347Y-101055809D01*
X97914109Y-100295809D02*
X98348395Y-100295809D01*
X98131252Y-101055809D02*
X98131252Y-100295809D01*
X98601728Y-101055809D02*
X98601728Y-100295809D01*
X98855061Y-100838666D01*
X99108395Y-100295809D01*
X99108395Y-101055809D01*
X99506490Y-101055809D02*
X99651252Y-101055809D01*
X99723633Y-101019619D01*
X99759823Y-100983428D01*
X99832204Y-100874857D01*
X99868395Y-100730095D01*
X99868395Y-100440571D01*
X99832204Y-100368190D01*
X99796014Y-100332000D01*
X99723633Y-100295809D01*
X99578871Y-100295809D01*
X99506490Y-100332000D01*
X99470300Y-100368190D01*
X99434109Y-100440571D01*
X99434109Y-100621523D01*
X99470300Y-100693904D01*
X99506490Y-100730095D01*
X99578871Y-100766285D01*
X99723633Y-100766285D01*
X99796014Y-100730095D01*
X99832204Y-100693904D01*
X99868395Y-100621523D01*
X100338871Y-100295809D02*
X100411252Y-100295809D01*
X100483633Y-100332000D01*
X100519823Y-100368190D01*
X100556014Y-100440571D01*
X100592204Y-100585333D01*
X100592204Y-100766285D01*
X100556014Y-100911047D01*
X100519823Y-100983428D01*
X100483633Y-101019619D01*
X100411252Y-101055809D01*
X100338871Y-101055809D01*
X100266490Y-101019619D01*
X100230300Y-100983428D01*
X100194109Y-100911047D01*
X100157919Y-100766285D01*
X100157919Y-100585333D01*
X100194109Y-100440571D01*
X100230300Y-100368190D01*
X100266490Y-100332000D01*
X100338871Y-100295809D01*
X100917919Y-100657714D02*
X101171252Y-100657714D01*
X101279823Y-101055809D02*
X100917919Y-101055809D01*
X100917919Y-100295809D01*
X101279823Y-100295809D01*
X101569347Y-100368190D02*
X101605538Y-100332000D01*
X101677919Y-100295809D01*
X101858871Y-100295809D01*
X101931252Y-100332000D01*
X101967442Y-100368190D01*
X102003633Y-100440571D01*
X102003633Y-100512952D01*
X101967442Y-100621523D01*
X101533157Y-101055809D01*
X102003633Y-101055809D01*
X102655061Y-100295809D02*
X102510300Y-100295809D01*
X102437919Y-100332000D01*
X102401728Y-100368190D01*
X102329347Y-100476761D01*
X102293157Y-100621523D01*
X102293157Y-100911047D01*
X102329347Y-100983428D01*
X102365538Y-101019619D01*
X102437919Y-101055809D01*
X102582680Y-101055809D01*
X102655061Y-101019619D01*
X102691252Y-100983428D01*
X102727442Y-100911047D01*
X102727442Y-100730095D01*
X102691252Y-100657714D01*
X102655061Y-100621523D01*
X102582680Y-100585333D01*
X102437919Y-100585333D01*
X102365538Y-100621523D01*
X102329347Y-100657714D01*
X102293157Y-100730095D01*
X103053157Y-100766285D02*
X103632204Y-100766285D01*
X104138871Y-100693904D02*
X104138871Y-101055809D01*
X103885538Y-100295809D02*
X104138871Y-100693904D01*
X104392204Y-100295809D01*
X104645538Y-100295809D02*
X104645538Y-100911047D01*
X104681728Y-100983428D01*
X104717919Y-101019619D01*
X104790300Y-101055809D01*
X104935061Y-101055809D01*
X105007442Y-101019619D01*
X105043633Y-100983428D01*
X105079823Y-100911047D01*
X105079823Y-100295809D01*
X105441728Y-100766285D02*
X106020776Y-100766285D01*
X106636014Y-100657714D02*
X106744585Y-100693904D01*
X106780776Y-100730095D01*
X106816966Y-100802476D01*
X106816966Y-100911047D01*
X106780776Y-100983428D01*
X106744585Y-101019619D01*
X106672204Y-101055809D01*
X106382680Y-101055809D01*
X106382680Y-100295809D01*
X106636014Y-100295809D01*
X106708395Y-100332000D01*
X106744585Y-100368190D01*
X106780776Y-100440571D01*
X106780776Y-100512952D01*
X106744585Y-100585333D01*
X106708395Y-100621523D01*
X106636014Y-100657714D01*
X106382680Y-100657714D01*
%TO.C,J1*%
D12*
X128394666Y-118721380D02*
X128394666Y-119435666D01*
X128347047Y-119578523D01*
X128251809Y-119673761D01*
X128108952Y-119721380D01*
X128013714Y-119721380D01*
X129394666Y-119721380D02*
X128823238Y-119721380D01*
X129108952Y-119721380D02*
X129108952Y-118721380D01*
X129013714Y-118864238D01*
X128918476Y-118959476D01*
X128823238Y-119007095D01*
%TO.C,C1*%
X121981142Y-130722666D02*
X122028761Y-130770285D01*
X122076380Y-130913142D01*
X122076380Y-131008380D01*
X122028761Y-131151238D01*
X121933523Y-131246476D01*
X121838285Y-131294095D01*
X121647809Y-131341714D01*
X121504952Y-131341714D01*
X121314476Y-131294095D01*
X121219238Y-131246476D01*
X121124000Y-131151238D01*
X121076380Y-131008380D01*
X121076380Y-130913142D01*
X121124000Y-130770285D01*
X121171619Y-130722666D01*
X122076380Y-129770285D02*
X122076380Y-130341714D01*
X122076380Y-130056000D02*
X121076380Y-130056000D01*
X121219238Y-130151238D01*
X121314476Y-130246476D01*
X121362095Y-130341714D01*
%TO.C,C2*%
X107656333Y-105090142D02*
X107608714Y-105137761D01*
X107465857Y-105185380D01*
X107370619Y-105185380D01*
X107227761Y-105137761D01*
X107132523Y-105042523D01*
X107084904Y-104947285D01*
X107037285Y-104756809D01*
X107037285Y-104613952D01*
X107084904Y-104423476D01*
X107132523Y-104328238D01*
X107227761Y-104233000D01*
X107370619Y-104185380D01*
X107465857Y-104185380D01*
X107608714Y-104233000D01*
X107656333Y-104280619D01*
X108037285Y-104280619D02*
X108084904Y-104233000D01*
X108180142Y-104185380D01*
X108418238Y-104185380D01*
X108513476Y-104233000D01*
X108561095Y-104280619D01*
X108608714Y-104375857D01*
X108608714Y-104471095D01*
X108561095Y-104613952D01*
X107989666Y-105185380D01*
X108608714Y-105185380D01*
%TO.C,C3*%
X77430333Y-76812142D02*
X77382714Y-76859761D01*
X77239857Y-76907380D01*
X77144619Y-76907380D01*
X77001761Y-76859761D01*
X76906523Y-76764523D01*
X76858904Y-76669285D01*
X76811285Y-76478809D01*
X76811285Y-76335952D01*
X76858904Y-76145476D01*
X76906523Y-76050238D01*
X77001761Y-75955000D01*
X77144619Y-75907380D01*
X77239857Y-75907380D01*
X77382714Y-75955000D01*
X77430333Y-76002619D01*
X77763666Y-75907380D02*
X78382714Y-75907380D01*
X78049380Y-76288333D01*
X78192238Y-76288333D01*
X78287476Y-76335952D01*
X78335095Y-76383571D01*
X78382714Y-76478809D01*
X78382714Y-76716904D01*
X78335095Y-76812142D01*
X78287476Y-76859761D01*
X78192238Y-76907380D01*
X77906523Y-76907380D01*
X77811285Y-76859761D01*
X77763666Y-76812142D01*
%TO.C,C4*%
X112372142Y-69254666D02*
X112419761Y-69302285D01*
X112467380Y-69445142D01*
X112467380Y-69540380D01*
X112419761Y-69683238D01*
X112324523Y-69778476D01*
X112229285Y-69826095D01*
X112038809Y-69873714D01*
X111895952Y-69873714D01*
X111705476Y-69826095D01*
X111610238Y-69778476D01*
X111515000Y-69683238D01*
X111467380Y-69540380D01*
X111467380Y-69445142D01*
X111515000Y-69302285D01*
X111562619Y-69254666D01*
X111800714Y-68397523D02*
X112467380Y-68397523D01*
X111419761Y-68635619D02*
X112134047Y-68873714D01*
X112134047Y-68254666D01*
%TO.C,C5*%
X125580142Y-69508666D02*
X125627761Y-69556285D01*
X125675380Y-69699142D01*
X125675380Y-69794380D01*
X125627761Y-69937238D01*
X125532523Y-70032476D01*
X125437285Y-70080095D01*
X125246809Y-70127714D01*
X125103952Y-70127714D01*
X124913476Y-70080095D01*
X124818238Y-70032476D01*
X124723000Y-69937238D01*
X124675380Y-69794380D01*
X124675380Y-69699142D01*
X124723000Y-69556285D01*
X124770619Y-69508666D01*
X124675380Y-68603904D02*
X124675380Y-69080095D01*
X125151571Y-69127714D01*
X125103952Y-69080095D01*
X125056333Y-68984857D01*
X125056333Y-68746761D01*
X125103952Y-68651523D01*
X125151571Y-68603904D01*
X125246809Y-68556285D01*
X125484904Y-68556285D01*
X125580142Y-68603904D01*
X125627761Y-68651523D01*
X125675380Y-68746761D01*
X125675380Y-68984857D01*
X125627761Y-69080095D01*
X125580142Y-69127714D01*
%TO.C,C6*%
X128880142Y-74842666D02*
X128927761Y-74890285D01*
X128975380Y-75033142D01*
X128975380Y-75128380D01*
X128927761Y-75271238D01*
X128832523Y-75366476D01*
X128737285Y-75414095D01*
X128546809Y-75461714D01*
X128403952Y-75461714D01*
X128213476Y-75414095D01*
X128118238Y-75366476D01*
X128023000Y-75271238D01*
X127975380Y-75128380D01*
X127975380Y-75033142D01*
X128023000Y-74890285D01*
X128070619Y-74842666D01*
X127975380Y-73985523D02*
X127975380Y-74176000D01*
X128023000Y-74271238D01*
X128070619Y-74318857D01*
X128213476Y-74414095D01*
X128403952Y-74461714D01*
X128784904Y-74461714D01*
X128880142Y-74414095D01*
X128927761Y-74366476D01*
X128975380Y-74271238D01*
X128975380Y-74080761D01*
X128927761Y-73985523D01*
X128880142Y-73937904D01*
X128784904Y-73890285D01*
X128546809Y-73890285D01*
X128451571Y-73937904D01*
X128403952Y-73985523D01*
X128356333Y-74080761D01*
X128356333Y-74271238D01*
X128403952Y-74366476D01*
X128451571Y-74414095D01*
X128546809Y-74461714D01*
%TO.C,C7*%
X74255333Y-97003142D02*
X74207714Y-97050761D01*
X74064857Y-97098380D01*
X73969619Y-97098380D01*
X73826761Y-97050761D01*
X73731523Y-96955523D01*
X73683904Y-96860285D01*
X73636285Y-96669809D01*
X73636285Y-96526952D01*
X73683904Y-96336476D01*
X73731523Y-96241238D01*
X73826761Y-96146000D01*
X73969619Y-96098380D01*
X74064857Y-96098380D01*
X74207714Y-96146000D01*
X74255333Y-96193619D01*
X74588666Y-96098380D02*
X75255333Y-96098380D01*
X74826761Y-97098380D01*
%TO.C,C8*%
X117071142Y-107735666D02*
X117118761Y-107783285D01*
X117166380Y-107926142D01*
X117166380Y-108021380D01*
X117118761Y-108164238D01*
X117023523Y-108259476D01*
X116928285Y-108307095D01*
X116737809Y-108354714D01*
X116594952Y-108354714D01*
X116404476Y-108307095D01*
X116309238Y-108259476D01*
X116214000Y-108164238D01*
X116166380Y-108021380D01*
X116166380Y-107926142D01*
X116214000Y-107783285D01*
X116261619Y-107735666D01*
X116594952Y-107164238D02*
X116547333Y-107259476D01*
X116499714Y-107307095D01*
X116404476Y-107354714D01*
X116356857Y-107354714D01*
X116261619Y-107307095D01*
X116214000Y-107259476D01*
X116166380Y-107164238D01*
X116166380Y-106973761D01*
X116214000Y-106878523D01*
X116261619Y-106830904D01*
X116356857Y-106783285D01*
X116404476Y-106783285D01*
X116499714Y-106830904D01*
X116547333Y-106878523D01*
X116594952Y-106973761D01*
X116594952Y-107164238D01*
X116642571Y-107259476D01*
X116690190Y-107307095D01*
X116785428Y-107354714D01*
X116975904Y-107354714D01*
X117071142Y-107307095D01*
X117118761Y-107259476D01*
X117166380Y-107164238D01*
X117166380Y-106973761D01*
X117118761Y-106878523D01*
X117071142Y-106830904D01*
X116975904Y-106783285D01*
X116785428Y-106783285D01*
X116690190Y-106830904D01*
X116642571Y-106878523D01*
X116594952Y-106973761D01*
%TO.C,C9*%
X132182142Y-88431666D02*
X132229761Y-88479285D01*
X132277380Y-88622142D01*
X132277380Y-88717380D01*
X132229761Y-88860238D01*
X132134523Y-88955476D01*
X132039285Y-89003095D01*
X131848809Y-89050714D01*
X131705952Y-89050714D01*
X131515476Y-89003095D01*
X131420238Y-88955476D01*
X131325000Y-88860238D01*
X131277380Y-88717380D01*
X131277380Y-88622142D01*
X131325000Y-88479285D01*
X131372619Y-88431666D01*
X132277380Y-87955476D02*
X132277380Y-87765000D01*
X132229761Y-87669761D01*
X132182142Y-87622142D01*
X132039285Y-87526904D01*
X131848809Y-87479285D01*
X131467857Y-87479285D01*
X131372619Y-87526904D01*
X131325000Y-87574523D01*
X131277380Y-87669761D01*
X131277380Y-87860238D01*
X131325000Y-87955476D01*
X131372619Y-88003095D01*
X131467857Y-88050714D01*
X131705952Y-88050714D01*
X131801190Y-88003095D01*
X131848809Y-87955476D01*
X131896428Y-87860238D01*
X131896428Y-87669761D01*
X131848809Y-87574523D01*
X131801190Y-87526904D01*
X131705952Y-87479285D01*
%TO.C,C10*%
X135103142Y-88907857D02*
X135150761Y-88955476D01*
X135198380Y-89098333D01*
X135198380Y-89193571D01*
X135150761Y-89336428D01*
X135055523Y-89431666D01*
X134960285Y-89479285D01*
X134769809Y-89526904D01*
X134626952Y-89526904D01*
X134436476Y-89479285D01*
X134341238Y-89431666D01*
X134246000Y-89336428D01*
X134198380Y-89193571D01*
X134198380Y-89098333D01*
X134246000Y-88955476D01*
X134293619Y-88907857D01*
X135198380Y-87955476D02*
X135198380Y-88526904D01*
X135198380Y-88241190D02*
X134198380Y-88241190D01*
X134341238Y-88336428D01*
X134436476Y-88431666D01*
X134484095Y-88526904D01*
X134198380Y-87336428D02*
X134198380Y-87241190D01*
X134246000Y-87145952D01*
X134293619Y-87098333D01*
X134388857Y-87050714D01*
X134579333Y-87003095D01*
X134817428Y-87003095D01*
X135007904Y-87050714D01*
X135103142Y-87098333D01*
X135150761Y-87145952D01*
X135198380Y-87241190D01*
X135198380Y-87336428D01*
X135150761Y-87431666D01*
X135103142Y-87479285D01*
X135007904Y-87526904D01*
X134817428Y-87574523D01*
X134579333Y-87574523D01*
X134388857Y-87526904D01*
X134293619Y-87479285D01*
X134246000Y-87431666D01*
X134198380Y-87336428D01*
%TO.C,C11*%
X120498142Y-91701857D02*
X120545761Y-91749476D01*
X120593380Y-91892333D01*
X120593380Y-91987571D01*
X120545761Y-92130428D01*
X120450523Y-92225666D01*
X120355285Y-92273285D01*
X120164809Y-92320904D01*
X120021952Y-92320904D01*
X119831476Y-92273285D01*
X119736238Y-92225666D01*
X119641000Y-92130428D01*
X119593380Y-91987571D01*
X119593380Y-91892333D01*
X119641000Y-91749476D01*
X119688619Y-91701857D01*
X120593380Y-90749476D02*
X120593380Y-91320904D01*
X120593380Y-91035190D02*
X119593380Y-91035190D01*
X119736238Y-91130428D01*
X119831476Y-91225666D01*
X119879095Y-91320904D01*
X120593380Y-89797095D02*
X120593380Y-90368523D01*
X120593380Y-90082809D02*
X119593380Y-90082809D01*
X119736238Y-90178047D01*
X119831476Y-90273285D01*
X119879095Y-90368523D01*
%TO.C,C12*%
X114275142Y-90431857D02*
X114322761Y-90479476D01*
X114370380Y-90622333D01*
X114370380Y-90717571D01*
X114322761Y-90860428D01*
X114227523Y-90955666D01*
X114132285Y-91003285D01*
X113941809Y-91050904D01*
X113798952Y-91050904D01*
X113608476Y-91003285D01*
X113513238Y-90955666D01*
X113418000Y-90860428D01*
X113370380Y-90717571D01*
X113370380Y-90622333D01*
X113418000Y-90479476D01*
X113465619Y-90431857D01*
X114370380Y-89479476D02*
X114370380Y-90050904D01*
X114370380Y-89765190D02*
X113370380Y-89765190D01*
X113513238Y-89860428D01*
X113608476Y-89955666D01*
X113656095Y-90050904D01*
X113465619Y-89098523D02*
X113418000Y-89050904D01*
X113370380Y-88955666D01*
X113370380Y-88717571D01*
X113418000Y-88622333D01*
X113465619Y-88574714D01*
X113560857Y-88527095D01*
X113656095Y-88527095D01*
X113798952Y-88574714D01*
X114370380Y-89146142D01*
X114370380Y-88527095D01*
%TO.C,C13*%
X73779142Y-90909142D02*
X73731523Y-90956761D01*
X73588666Y-91004380D01*
X73493428Y-91004380D01*
X73350571Y-90956761D01*
X73255333Y-90861523D01*
X73207714Y-90766285D01*
X73160095Y-90575809D01*
X73160095Y-90432952D01*
X73207714Y-90242476D01*
X73255333Y-90147238D01*
X73350571Y-90052000D01*
X73493428Y-90004380D01*
X73588666Y-90004380D01*
X73731523Y-90052000D01*
X73779142Y-90099619D01*
X74731523Y-91004380D02*
X74160095Y-91004380D01*
X74445809Y-91004380D02*
X74445809Y-90004380D01*
X74350571Y-90147238D01*
X74255333Y-90242476D01*
X74160095Y-90290095D01*
X75064857Y-90004380D02*
X75683904Y-90004380D01*
X75350571Y-90385333D01*
X75493428Y-90385333D01*
X75588666Y-90432952D01*
X75636285Y-90480571D01*
X75683904Y-90575809D01*
X75683904Y-90813904D01*
X75636285Y-90909142D01*
X75588666Y-90956761D01*
X75493428Y-91004380D01*
X75207714Y-91004380D01*
X75112476Y-90956761D01*
X75064857Y-90909142D01*
%TO.C,C15*%
X73779142Y-99797142D02*
X73731523Y-99844761D01*
X73588666Y-99892380D01*
X73493428Y-99892380D01*
X73350571Y-99844761D01*
X73255333Y-99749523D01*
X73207714Y-99654285D01*
X73160095Y-99463809D01*
X73160095Y-99320952D01*
X73207714Y-99130476D01*
X73255333Y-99035238D01*
X73350571Y-98940000D01*
X73493428Y-98892380D01*
X73588666Y-98892380D01*
X73731523Y-98940000D01*
X73779142Y-98987619D01*
X74731523Y-99892380D02*
X74160095Y-99892380D01*
X74445809Y-99892380D02*
X74445809Y-98892380D01*
X74350571Y-99035238D01*
X74255333Y-99130476D01*
X74160095Y-99178095D01*
X75636285Y-98892380D02*
X75160095Y-98892380D01*
X75112476Y-99368571D01*
X75160095Y-99320952D01*
X75255333Y-99273333D01*
X75493428Y-99273333D01*
X75588666Y-99320952D01*
X75636285Y-99368571D01*
X75683904Y-99463809D01*
X75683904Y-99701904D01*
X75636285Y-99797142D01*
X75588666Y-99844761D01*
X75493428Y-99892380D01*
X75255333Y-99892380D01*
X75160095Y-99844761D01*
X75112476Y-99797142D01*
%TO.C,C16*%
X84049142Y-91828857D02*
X84096761Y-91876476D01*
X84144380Y-92019333D01*
X84144380Y-92114571D01*
X84096761Y-92257428D01*
X84001523Y-92352666D01*
X83906285Y-92400285D01*
X83715809Y-92447904D01*
X83572952Y-92447904D01*
X83382476Y-92400285D01*
X83287238Y-92352666D01*
X83192000Y-92257428D01*
X83144380Y-92114571D01*
X83144380Y-92019333D01*
X83192000Y-91876476D01*
X83239619Y-91828857D01*
X84144380Y-90876476D02*
X84144380Y-91447904D01*
X84144380Y-91162190D02*
X83144380Y-91162190D01*
X83287238Y-91257428D01*
X83382476Y-91352666D01*
X83430095Y-91447904D01*
X83144380Y-90019333D02*
X83144380Y-90209809D01*
X83192000Y-90305047D01*
X83239619Y-90352666D01*
X83382476Y-90447904D01*
X83572952Y-90495523D01*
X83953904Y-90495523D01*
X84049142Y-90447904D01*
X84096761Y-90400285D01*
X84144380Y-90305047D01*
X84144380Y-90114571D01*
X84096761Y-90019333D01*
X84049142Y-89971714D01*
X83953904Y-89924095D01*
X83715809Y-89924095D01*
X83620571Y-89971714D01*
X83572952Y-90019333D01*
X83525333Y-90114571D01*
X83525333Y-90305047D01*
X83572952Y-90400285D01*
X83620571Y-90447904D01*
X83715809Y-90495523D01*
%TO.C,C17*%
X87605142Y-91828857D02*
X87652761Y-91876476D01*
X87700380Y-92019333D01*
X87700380Y-92114571D01*
X87652761Y-92257428D01*
X87557523Y-92352666D01*
X87462285Y-92400285D01*
X87271809Y-92447904D01*
X87128952Y-92447904D01*
X86938476Y-92400285D01*
X86843238Y-92352666D01*
X86748000Y-92257428D01*
X86700380Y-92114571D01*
X86700380Y-92019333D01*
X86748000Y-91876476D01*
X86795619Y-91828857D01*
X87700380Y-90876476D02*
X87700380Y-91447904D01*
X87700380Y-91162190D02*
X86700380Y-91162190D01*
X86843238Y-91257428D01*
X86938476Y-91352666D01*
X86986095Y-91447904D01*
X86700380Y-90543142D02*
X86700380Y-89876476D01*
X87700380Y-90305047D01*
%TO.C,C18*%
X117196142Y-108211857D02*
X117243761Y-108259476D01*
X117291380Y-108402333D01*
X117291380Y-108497571D01*
X117243761Y-108640428D01*
X117148523Y-108735666D01*
X117053285Y-108783285D01*
X116862809Y-108830904D01*
X116719952Y-108830904D01*
X116529476Y-108783285D01*
X116434238Y-108735666D01*
X116339000Y-108640428D01*
X116291380Y-108497571D01*
X116291380Y-108402333D01*
X116339000Y-108259476D01*
X116386619Y-108211857D01*
X117291380Y-107259476D02*
X117291380Y-107830904D01*
X117291380Y-107545190D02*
X116291380Y-107545190D01*
X116434238Y-107640428D01*
X116529476Y-107735666D01*
X116577095Y-107830904D01*
X116719952Y-106688047D02*
X116672333Y-106783285D01*
X116624714Y-106830904D01*
X116529476Y-106878523D01*
X116481857Y-106878523D01*
X116386619Y-106830904D01*
X116339000Y-106783285D01*
X116291380Y-106688047D01*
X116291380Y-106497571D01*
X116339000Y-106402333D01*
X116386619Y-106354714D01*
X116481857Y-106307095D01*
X116529476Y-106307095D01*
X116624714Y-106354714D01*
X116672333Y-106402333D01*
X116719952Y-106497571D01*
X116719952Y-106688047D01*
X116767571Y-106783285D01*
X116815190Y-106830904D01*
X116910428Y-106878523D01*
X117100904Y-106878523D01*
X117196142Y-106830904D01*
X117243761Y-106783285D01*
X117291380Y-106688047D01*
X117291380Y-106497571D01*
X117243761Y-106402333D01*
X117196142Y-106354714D01*
X117100904Y-106307095D01*
X116910428Y-106307095D01*
X116815190Y-106354714D01*
X116767571Y-106402333D01*
X116719952Y-106497571D01*
%TO.C,R2*%
X130008333Y-126816380D02*
X129675000Y-126340190D01*
X129436904Y-126816380D02*
X129436904Y-125816380D01*
X129817857Y-125816380D01*
X129913095Y-125864000D01*
X129960714Y-125911619D01*
X130008333Y-126006857D01*
X130008333Y-126149714D01*
X129960714Y-126244952D01*
X129913095Y-126292571D01*
X129817857Y-126340190D01*
X129436904Y-126340190D01*
X130389285Y-125911619D02*
X130436904Y-125864000D01*
X130532142Y-125816380D01*
X130770238Y-125816380D01*
X130865476Y-125864000D01*
X130913095Y-125911619D01*
X130960714Y-126006857D01*
X130960714Y-126102095D01*
X130913095Y-126244952D01*
X130341666Y-126816380D01*
X130960714Y-126816380D01*
%TO.C,R3*%
X124420333Y-126816380D02*
X124087000Y-126340190D01*
X123848904Y-126816380D02*
X123848904Y-125816380D01*
X124229857Y-125816380D01*
X124325095Y-125864000D01*
X124372714Y-125911619D01*
X124420333Y-126006857D01*
X124420333Y-126149714D01*
X124372714Y-126244952D01*
X124325095Y-126292571D01*
X124229857Y-126340190D01*
X123848904Y-126340190D01*
X124753666Y-125816380D02*
X125372714Y-125816380D01*
X125039380Y-126197333D01*
X125182238Y-126197333D01*
X125277476Y-126244952D01*
X125325095Y-126292571D01*
X125372714Y-126387809D01*
X125372714Y-126625904D01*
X125325095Y-126721142D01*
X125277476Y-126768761D01*
X125182238Y-126816380D01*
X124896523Y-126816380D01*
X124801285Y-126768761D01*
X124753666Y-126721142D01*
%TO.C,R5*%
X92020380Y-106211666D02*
X91544190Y-106545000D01*
X92020380Y-106783095D02*
X91020380Y-106783095D01*
X91020380Y-106402142D01*
X91068000Y-106306904D01*
X91115619Y-106259285D01*
X91210857Y-106211666D01*
X91353714Y-106211666D01*
X91448952Y-106259285D01*
X91496571Y-106306904D01*
X91544190Y-106402142D01*
X91544190Y-106783095D01*
X91020380Y-105306904D02*
X91020380Y-105783095D01*
X91496571Y-105830714D01*
X91448952Y-105783095D01*
X91401333Y-105687857D01*
X91401333Y-105449761D01*
X91448952Y-105354523D01*
X91496571Y-105306904D01*
X91591809Y-105259285D01*
X91829904Y-105259285D01*
X91925142Y-105306904D01*
X91972761Y-105354523D01*
X92020380Y-105449761D01*
X92020380Y-105687857D01*
X91972761Y-105783095D01*
X91925142Y-105830714D01*
%TO.C,R6*%
X100798333Y-109417380D02*
X100465000Y-108941190D01*
X100226904Y-109417380D02*
X100226904Y-108417380D01*
X100607857Y-108417380D01*
X100703095Y-108465000D01*
X100750714Y-108512619D01*
X100798333Y-108607857D01*
X100798333Y-108750714D01*
X100750714Y-108845952D01*
X100703095Y-108893571D01*
X100607857Y-108941190D01*
X100226904Y-108941190D01*
X101655476Y-108417380D02*
X101465000Y-108417380D01*
X101369761Y-108465000D01*
X101322142Y-108512619D01*
X101226904Y-108655476D01*
X101179285Y-108845952D01*
X101179285Y-109226904D01*
X101226904Y-109322142D01*
X101274523Y-109369761D01*
X101369761Y-109417380D01*
X101560238Y-109417380D01*
X101655476Y-109369761D01*
X101703095Y-109322142D01*
X101750714Y-109226904D01*
X101750714Y-108988809D01*
X101703095Y-108893571D01*
X101655476Y-108845952D01*
X101560238Y-108798333D01*
X101369761Y-108798333D01*
X101274523Y-108845952D01*
X101226904Y-108893571D01*
X101179285Y-108988809D01*
%TO.C,R7*%
X100798333Y-103450380D02*
X100465000Y-102974190D01*
X100226904Y-103450380D02*
X100226904Y-102450380D01*
X100607857Y-102450380D01*
X100703095Y-102498000D01*
X100750714Y-102545619D01*
X100798333Y-102640857D01*
X100798333Y-102783714D01*
X100750714Y-102878952D01*
X100703095Y-102926571D01*
X100607857Y-102974190D01*
X100226904Y-102974190D01*
X101131666Y-102450380D02*
X101798333Y-102450380D01*
X101369761Y-103450380D01*
%TO.C,R8*%
X81987380Y-76874666D02*
X81511190Y-77208000D01*
X81987380Y-77446095D02*
X80987380Y-77446095D01*
X80987380Y-77065142D01*
X81035000Y-76969904D01*
X81082619Y-76922285D01*
X81177857Y-76874666D01*
X81320714Y-76874666D01*
X81415952Y-76922285D01*
X81463571Y-76969904D01*
X81511190Y-77065142D01*
X81511190Y-77446095D01*
X81415952Y-76303238D02*
X81368333Y-76398476D01*
X81320714Y-76446095D01*
X81225476Y-76493714D01*
X81177857Y-76493714D01*
X81082619Y-76446095D01*
X81035000Y-76398476D01*
X80987380Y-76303238D01*
X80987380Y-76112761D01*
X81035000Y-76017523D01*
X81082619Y-75969904D01*
X81177857Y-75922285D01*
X81225476Y-75922285D01*
X81320714Y-75969904D01*
X81368333Y-76017523D01*
X81415952Y-76112761D01*
X81415952Y-76303238D01*
X81463571Y-76398476D01*
X81511190Y-76446095D01*
X81606428Y-76493714D01*
X81796904Y-76493714D01*
X81892142Y-76446095D01*
X81939761Y-76398476D01*
X81987380Y-76303238D01*
X81987380Y-76112761D01*
X81939761Y-76017523D01*
X81892142Y-75969904D01*
X81796904Y-75922285D01*
X81606428Y-75922285D01*
X81511190Y-75969904D01*
X81463571Y-76017523D01*
X81415952Y-76112761D01*
%TO.C,R11*%
X131644380Y-94749857D02*
X131168190Y-95083190D01*
X131644380Y-95321285D02*
X130644380Y-95321285D01*
X130644380Y-94940333D01*
X130692000Y-94845095D01*
X130739619Y-94797476D01*
X130834857Y-94749857D01*
X130977714Y-94749857D01*
X131072952Y-94797476D01*
X131120571Y-94845095D01*
X131168190Y-94940333D01*
X131168190Y-95321285D01*
X131644380Y-93797476D02*
X131644380Y-94368904D01*
X131644380Y-94083190D02*
X130644380Y-94083190D01*
X130787238Y-94178428D01*
X130882476Y-94273666D01*
X130930095Y-94368904D01*
X131644380Y-92845095D02*
X131644380Y-93416523D01*
X131644380Y-93130809D02*
X130644380Y-93130809D01*
X130787238Y-93226047D01*
X130882476Y-93321285D01*
X130930095Y-93416523D01*
%TO.C,R12*%
X129104380Y-94749857D02*
X128628190Y-95083190D01*
X129104380Y-95321285D02*
X128104380Y-95321285D01*
X128104380Y-94940333D01*
X128152000Y-94845095D01*
X128199619Y-94797476D01*
X128294857Y-94749857D01*
X128437714Y-94749857D01*
X128532952Y-94797476D01*
X128580571Y-94845095D01*
X128628190Y-94940333D01*
X128628190Y-95321285D01*
X129104380Y-93797476D02*
X129104380Y-94368904D01*
X129104380Y-94083190D02*
X128104380Y-94083190D01*
X128247238Y-94178428D01*
X128342476Y-94273666D01*
X128390095Y-94368904D01*
X128199619Y-93416523D02*
X128152000Y-93368904D01*
X128104380Y-93273666D01*
X128104380Y-93035571D01*
X128152000Y-92940333D01*
X128199619Y-92892714D01*
X128294857Y-92845095D01*
X128390095Y-92845095D01*
X128532952Y-92892714D01*
X129104380Y-93464142D01*
X129104380Y-92845095D01*
%TD*%
%LPC*%
D17*
%TO.C,J11*%
X114066000Y-117866000D03*
D18*
X114066000Y-115326000D03*
%TD*%
D19*
%TO.C,J4*%
X135085000Y-73735000D03*
X135085000Y-71335000D03*
X135085000Y-68585000D03*
X135085000Y-76485000D03*
D20*
X132935000Y-70535000D03*
X132935000Y-74535000D03*
D21*
X132185000Y-71235000D03*
X132185000Y-71885000D03*
X132185000Y-72535000D03*
X132185000Y-73835000D03*
X132185000Y-73185000D03*
%TD*%
D22*
%TO.C,sw1*%
X78095000Y-68693000D03*
X78085000Y-74313000D03*
%TD*%
%TO.C,sw2*%
X74569000Y-68689000D03*
X74559000Y-74309000D03*
%TD*%
%TO.C,D2*%
G36*
G01*
X124374000Y-75575000D02*
X124374000Y-76825000D01*
G75*
G02*
X124124000Y-77075000I-250000J0D01*
G01*
X123199000Y-77075000D01*
G75*
G02*
X122949000Y-76825000I0J250000D01*
G01*
X122949000Y-75575000D01*
G75*
G02*
X123199000Y-75325000I250000J0D01*
G01*
X124124000Y-75325000D01*
G75*
G02*
X124374000Y-75575000I0J-250000D01*
G01*
G37*
G36*
G01*
X121399000Y-75575000D02*
X121399000Y-76825000D01*
G75*
G02*
X121149000Y-77075000I-250000J0D01*
G01*
X120224000Y-77075000D01*
G75*
G02*
X119974000Y-76825000I0J250000D01*
G01*
X119974000Y-75575000D01*
G75*
G02*
X120224000Y-75325000I250000J0D01*
G01*
X121149000Y-75325000D01*
G75*
G02*
X121399000Y-75575000I0J-250000D01*
G01*
G37*
%TD*%
D18*
%TO.C,J3*%
X109911000Y-115326000D03*
D17*
X109911000Y-117866000D03*
%TD*%
D18*
%TO.C,J2*%
X105898000Y-115326000D03*
D17*
X105898000Y-117866000D03*
%TD*%
D18*
%TO.C,J5*%
X97637600Y-117876000D03*
D17*
X97637600Y-115336000D03*
%TD*%
%TO.C,J6*%
X101651000Y-117866000D03*
D18*
X101651000Y-115326000D03*
%TD*%
%TO.C,J10*%
X78994000Y-83693000D03*
D17*
X81534000Y-83693000D03*
%TD*%
%TO.C,J7*%
X112522000Y-82677000D03*
D18*
X109982000Y-82677000D03*
%TD*%
D23*
%TO.C,J8*%
X76983000Y-116205000D03*
D24*
X81383000Y-116205000D03*
D25*
X76883000Y-110705000D03*
X82883000Y-110705000D03*
X82883000Y-121705000D03*
X76883000Y-121705000D03*
%TD*%
D18*
%TO.C,J9*%
X110744000Y-128397000D03*
D17*
X108204000Y-128397000D03*
X105664000Y-128397000D03*
X103124000Y-128397000D03*
X100584000Y-128397000D03*
X98044000Y-128397000D03*
%TD*%
%TO.C,J12*%
X118222000Y-115336000D03*
D18*
X118222000Y-117876000D03*
%TD*%
%TO.C,J13*%
X89344500Y-115326000D03*
D17*
X89344500Y-117866000D03*
%TD*%
D18*
%TO.C,J14*%
X93332300Y-117876000D03*
D17*
X93332300Y-115336000D03*
%TD*%
%TO.C,R1*%
G36*
G01*
X132375000Y-126756000D02*
X132375000Y-128006000D01*
G75*
G02*
X132125000Y-128256000I-250000J0D01*
G01*
X131200000Y-128256000D01*
G75*
G02*
X130950000Y-128006000I0J250000D01*
G01*
X130950000Y-126756000D01*
G75*
G02*
X131200000Y-126506000I250000J0D01*
G01*
X132125000Y-126506000D01*
G75*
G02*
X132375000Y-126756000I0J-250000D01*
G01*
G37*
G36*
G01*
X129400000Y-126756000D02*
X129400000Y-128006000D01*
G75*
G02*
X129150000Y-128256000I-250000J0D01*
G01*
X128225000Y-128256000D01*
G75*
G02*
X127975000Y-128006000I0J250000D01*
G01*
X127975000Y-126756000D01*
G75*
G02*
X128225000Y-126506000I250000J0D01*
G01*
X129150000Y-126506000D01*
G75*
G02*
X129400000Y-126756000I0J-250000D01*
G01*
G37*
%TD*%
%TO.C,R4*%
G36*
G01*
X95260000Y-103845000D02*
X96510000Y-103845000D01*
G75*
G02*
X96760000Y-104095000I0J-250000D01*
G01*
X96760000Y-105020000D01*
G75*
G02*
X96510000Y-105270000I-250000J0D01*
G01*
X95260000Y-105270000D01*
G75*
G02*
X95010000Y-105020000I0J250000D01*
G01*
X95010000Y-104095000D01*
G75*
G02*
X95260000Y-103845000I250000J0D01*
G01*
G37*
G36*
G01*
X95260000Y-106820000D02*
X96510000Y-106820000D01*
G75*
G02*
X96760000Y-107070000I0J-250000D01*
G01*
X96760000Y-107995000D01*
G75*
G02*
X96510000Y-108245000I-250000J0D01*
G01*
X95260000Y-108245000D01*
G75*
G02*
X95010000Y-107995000I0J250000D01*
G01*
X95010000Y-107070000D01*
G75*
G02*
X95260000Y-106820000I250000J0D01*
G01*
G37*
%TD*%
%TO.C,R9*%
G36*
G01*
X82433000Y-71514000D02*
X83683000Y-71514000D01*
G75*
G02*
X83933000Y-71764000I0J-250000D01*
G01*
X83933000Y-72689000D01*
G75*
G02*
X83683000Y-72939000I-250000J0D01*
G01*
X82433000Y-72939000D01*
G75*
G02*
X82183000Y-72689000I0J250000D01*
G01*
X82183000Y-71764000D01*
G75*
G02*
X82433000Y-71514000I250000J0D01*
G01*
G37*
G36*
G01*
X82433000Y-68539000D02*
X83683000Y-68539000D01*
G75*
G02*
X83933000Y-68789000I0J-250000D01*
G01*
X83933000Y-69714000D01*
G75*
G02*
X83683000Y-69964000I-250000J0D01*
G01*
X82433000Y-69964000D01*
G75*
G02*
X82183000Y-69714000I0J250000D01*
G01*
X82183000Y-68789000D01*
G75*
G02*
X82433000Y-68539000I250000J0D01*
G01*
G37*
%TD*%
%TO.C,R10*%
G36*
G01*
X113040000Y-72222000D02*
X114290000Y-72222000D01*
G75*
G02*
X114540000Y-72472000I0J-250000D01*
G01*
X114540000Y-73397000D01*
G75*
G02*
X114290000Y-73647000I-250000J0D01*
G01*
X113040000Y-73647000D01*
G75*
G02*
X112790000Y-73397000I0J250000D01*
G01*
X112790000Y-72472000D01*
G75*
G02*
X113040000Y-72222000I250000J0D01*
G01*
G37*
G36*
G01*
X113040000Y-75197000D02*
X114290000Y-75197000D01*
G75*
G02*
X114540000Y-75447000I0J-250000D01*
G01*
X114540000Y-76372000D01*
G75*
G02*
X114290000Y-76622000I-250000J0D01*
G01*
X113040000Y-76622000D01*
G75*
G02*
X112790000Y-76372000I0J250000D01*
G01*
X112790000Y-75447000D01*
G75*
G02*
X113040000Y-75197000I250000J0D01*
G01*
G37*
%TD*%
%TO.C,R13*%
G36*
G01*
X123838000Y-96383000D02*
X123838000Y-95133000D01*
G75*
G02*
X124088000Y-94883000I250000J0D01*
G01*
X125013000Y-94883000D01*
G75*
G02*
X125263000Y-95133000I0J-250000D01*
G01*
X125263000Y-96383000D01*
G75*
G02*
X125013000Y-96633000I-250000J0D01*
G01*
X124088000Y-96633000D01*
G75*
G02*
X123838000Y-96383000I0J250000D01*
G01*
G37*
G36*
G01*
X120863000Y-96383000D02*
X120863000Y-95133000D01*
G75*
G02*
X121113000Y-94883000I250000J0D01*
G01*
X122038000Y-94883000D01*
G75*
G02*
X122288000Y-95133000I0J-250000D01*
G01*
X122288000Y-96383000D01*
G75*
G02*
X122038000Y-96633000I-250000J0D01*
G01*
X121113000Y-96633000D01*
G75*
G02*
X120863000Y-96383000I0J250000D01*
G01*
G37*
%TD*%
%TO.C,R14*%
G36*
G01*
X121041000Y-91834000D02*
X122291000Y-91834000D01*
G75*
G02*
X122541000Y-92084000I0J-250000D01*
G01*
X122541000Y-93009000D01*
G75*
G02*
X122291000Y-93259000I-250000J0D01*
G01*
X121041000Y-93259000D01*
G75*
G02*
X120791000Y-93009000I0J250000D01*
G01*
X120791000Y-92084000D01*
G75*
G02*
X121041000Y-91834000I250000J0D01*
G01*
G37*
G36*
G01*
X121041000Y-88859000D02*
X122291000Y-88859000D01*
G75*
G02*
X122541000Y-89109000I0J-250000D01*
G01*
X122541000Y-90034000D01*
G75*
G02*
X122291000Y-90284000I-250000J0D01*
G01*
X121041000Y-90284000D01*
G75*
G02*
X120791000Y-90034000I0J250000D01*
G01*
X120791000Y-89109000D01*
G75*
G02*
X121041000Y-88859000I250000J0D01*
G01*
G37*
%TD*%
%TO.C,R15*%
G36*
G01*
X124470000Y-91707000D02*
X125720000Y-91707000D01*
G75*
G02*
X125970000Y-91957000I0J-250000D01*
G01*
X125970000Y-92882000D01*
G75*
G02*
X125720000Y-93132000I-250000J0D01*
G01*
X124470000Y-93132000D01*
G75*
G02*
X124220000Y-92882000I0J250000D01*
G01*
X124220000Y-91957000D01*
G75*
G02*
X124470000Y-91707000I250000J0D01*
G01*
G37*
G36*
G01*
X124470000Y-88732000D02*
X125720000Y-88732000D01*
G75*
G02*
X125970000Y-88982000I0J-250000D01*
G01*
X125970000Y-89907000D01*
G75*
G02*
X125720000Y-90157000I-250000J0D01*
G01*
X124470000Y-90157000D01*
G75*
G02*
X124220000Y-89907000I0J250000D01*
G01*
X124220000Y-88982000D01*
G75*
G02*
X124470000Y-88732000I250000J0D01*
G01*
G37*
%TD*%
%TO.C,R16*%
G36*
G01*
X84699000Y-106086000D02*
X83449000Y-106086000D01*
G75*
G02*
X83199000Y-105836000I0J250000D01*
G01*
X83199000Y-104911000D01*
G75*
G02*
X83449000Y-104661000I250000J0D01*
G01*
X84699000Y-104661000D01*
G75*
G02*
X84949000Y-104911000I0J-250000D01*
G01*
X84949000Y-105836000D01*
G75*
G02*
X84699000Y-106086000I-250000J0D01*
G01*
G37*
G36*
G01*
X84699000Y-103111000D02*
X83449000Y-103111000D01*
G75*
G02*
X83199000Y-102861000I0J250000D01*
G01*
X83199000Y-101936000D01*
G75*
G02*
X83449000Y-101686000I250000J0D01*
G01*
X84699000Y-101686000D01*
G75*
G02*
X84949000Y-101936000I0J-250000D01*
G01*
X84949000Y-102861000D01*
G75*
G02*
X84699000Y-103111000I-250000J0D01*
G01*
G37*
%TD*%
%TO.C,R17*%
G36*
G01*
X86116000Y-104661000D02*
X87366000Y-104661000D01*
G75*
G02*
X87616000Y-104911000I0J-250000D01*
G01*
X87616000Y-105836000D01*
G75*
G02*
X87366000Y-106086000I-250000J0D01*
G01*
X86116000Y-106086000D01*
G75*
G02*
X85866000Y-105836000I0J250000D01*
G01*
X85866000Y-104911000D01*
G75*
G02*
X86116000Y-104661000I250000J0D01*
G01*
G37*
G36*
G01*
X86116000Y-101686000D02*
X87366000Y-101686000D01*
G75*
G02*
X87616000Y-101936000I0J-250000D01*
G01*
X87616000Y-102861000D01*
G75*
G02*
X87366000Y-103111000I-250000J0D01*
G01*
X86116000Y-103111000D01*
G75*
G02*
X85866000Y-102861000I0J250000D01*
G01*
X85866000Y-101936000D01*
G75*
G02*
X86116000Y-101686000I250000J0D01*
G01*
G37*
%TD*%
D26*
%TO.C,SJ1*%
G36*
X125996000Y-101739000D02*
G01*
X125996000Y-101189000D01*
X125996602Y-101189000D01*
X125996602Y-101164466D01*
X126001412Y-101115635D01*
X126010984Y-101067510D01*
X126025228Y-101020555D01*
X126044005Y-100975222D01*
X126067136Y-100931949D01*
X126094396Y-100891150D01*
X126125524Y-100853221D01*
X126160221Y-100818524D01*
X126198150Y-100787396D01*
X126238949Y-100760136D01*
X126282222Y-100737005D01*
X126327555Y-100718228D01*
X126374510Y-100703984D01*
X126422635Y-100694412D01*
X126471466Y-100689602D01*
X126496000Y-100689602D01*
X126496000Y-100689000D01*
X126996000Y-100689000D01*
X126996000Y-100689602D01*
X127020534Y-100689602D01*
X127069365Y-100694412D01*
X127117490Y-100703984D01*
X127164445Y-100718228D01*
X127209778Y-100737005D01*
X127253051Y-100760136D01*
X127293850Y-100787396D01*
X127331779Y-100818524D01*
X127366476Y-100853221D01*
X127397604Y-100891150D01*
X127424864Y-100931949D01*
X127447995Y-100975222D01*
X127466772Y-101020555D01*
X127481016Y-101067510D01*
X127490588Y-101115635D01*
X127495398Y-101164466D01*
X127495398Y-101189000D01*
X127496000Y-101189000D01*
X127496000Y-101739000D01*
X125996000Y-101739000D01*
G37*
G36*
X127495398Y-103789000D02*
G01*
X127495398Y-103813534D01*
X127490588Y-103862365D01*
X127481016Y-103910490D01*
X127466772Y-103957445D01*
X127447995Y-104002778D01*
X127424864Y-104046051D01*
X127397604Y-104086850D01*
X127366476Y-104124779D01*
X127331779Y-104159476D01*
X127293850Y-104190604D01*
X127253051Y-104217864D01*
X127209778Y-104240995D01*
X127164445Y-104259772D01*
X127117490Y-104274016D01*
X127069365Y-104283588D01*
X127020534Y-104288398D01*
X126996000Y-104288398D01*
X126996000Y-104289000D01*
X126496000Y-104289000D01*
X126496000Y-104288398D01*
X126471466Y-104288398D01*
X126422635Y-104283588D01*
X126374510Y-104274016D01*
X126327555Y-104259772D01*
X126282222Y-104240995D01*
X126238949Y-104217864D01*
X126198150Y-104190604D01*
X126160221Y-104159476D01*
X126125524Y-104124779D01*
X126094396Y-104086850D01*
X126067136Y-104046051D01*
X126044005Y-104002778D01*
X126025228Y-103957445D01*
X126010984Y-103910490D01*
X126001412Y-103862365D01*
X125996602Y-103813534D01*
X125996602Y-103789000D01*
X125996000Y-103789000D01*
X125996000Y-103239000D01*
X127496000Y-103239000D01*
X127496000Y-103789000D01*
X127495398Y-103789000D01*
G37*
D27*
X126746000Y-102489000D03*
%TD*%
D26*
%TO.C,SJ2*%
G36*
X123940000Y-103239000D02*
G01*
X123940000Y-103789000D01*
X123939398Y-103789000D01*
X123939398Y-103813534D01*
X123934588Y-103862365D01*
X123925016Y-103910490D01*
X123910772Y-103957445D01*
X123891995Y-104002778D01*
X123868864Y-104046051D01*
X123841604Y-104086850D01*
X123810476Y-104124779D01*
X123775779Y-104159476D01*
X123737850Y-104190604D01*
X123697051Y-104217864D01*
X123653778Y-104240995D01*
X123608445Y-104259772D01*
X123561490Y-104274016D01*
X123513365Y-104283588D01*
X123464534Y-104288398D01*
X123440000Y-104288398D01*
X123440000Y-104289000D01*
X122940000Y-104289000D01*
X122940000Y-104288398D01*
X122915466Y-104288398D01*
X122866635Y-104283588D01*
X122818510Y-104274016D01*
X122771555Y-104259772D01*
X122726222Y-104240995D01*
X122682949Y-104217864D01*
X122642150Y-104190604D01*
X122604221Y-104159476D01*
X122569524Y-104124779D01*
X122538396Y-104086850D01*
X122511136Y-104046051D01*
X122488005Y-104002778D01*
X122469228Y-103957445D01*
X122454984Y-103910490D01*
X122445412Y-103862365D01*
X122440602Y-103813534D01*
X122440602Y-103789000D01*
X122440000Y-103789000D01*
X122440000Y-103239000D01*
X123940000Y-103239000D01*
G37*
G36*
X122440602Y-101189000D02*
G01*
X122440602Y-101164466D01*
X122445412Y-101115635D01*
X122454984Y-101067510D01*
X122469228Y-101020555D01*
X122488005Y-100975222D01*
X122511136Y-100931949D01*
X122538396Y-100891150D01*
X122569524Y-100853221D01*
X122604221Y-100818524D01*
X122642150Y-100787396D01*
X122682949Y-100760136D01*
X122726222Y-100737005D01*
X122771555Y-100718228D01*
X122818510Y-100703984D01*
X122866635Y-100694412D01*
X122915466Y-100689602D01*
X122940000Y-100689602D01*
X122940000Y-100689000D01*
X123440000Y-100689000D01*
X123440000Y-100689602D01*
X123464534Y-100689602D01*
X123513365Y-100694412D01*
X123561490Y-100703984D01*
X123608445Y-100718228D01*
X123653778Y-100737005D01*
X123697051Y-100760136D01*
X123737850Y-100787396D01*
X123775779Y-100818524D01*
X123810476Y-100853221D01*
X123841604Y-100891150D01*
X123868864Y-100931949D01*
X123891995Y-100975222D01*
X123910772Y-101020555D01*
X123925016Y-101067510D01*
X123934588Y-101115635D01*
X123939398Y-101164466D01*
X123939398Y-101189000D01*
X123940000Y-101189000D01*
X123940000Y-101739000D01*
X122440000Y-101739000D01*
X122440000Y-101189000D01*
X122440602Y-101189000D01*
G37*
D27*
X123190000Y-102489000D03*
%TD*%
%TO.C,SJ3*%
X83693000Y-97155000D03*
D26*
G36*
X84442398Y-98455000D02*
G01*
X84442398Y-98479534D01*
X84437588Y-98528365D01*
X84428016Y-98576490D01*
X84413772Y-98623445D01*
X84394995Y-98668778D01*
X84371864Y-98712051D01*
X84344604Y-98752850D01*
X84313476Y-98790779D01*
X84278779Y-98825476D01*
X84240850Y-98856604D01*
X84200051Y-98883864D01*
X84156778Y-98906995D01*
X84111445Y-98925772D01*
X84064490Y-98940016D01*
X84016365Y-98949588D01*
X83967534Y-98954398D01*
X83943000Y-98954398D01*
X83943000Y-98955000D01*
X83443000Y-98955000D01*
X83443000Y-98954398D01*
X83418466Y-98954398D01*
X83369635Y-98949588D01*
X83321510Y-98940016D01*
X83274555Y-98925772D01*
X83229222Y-98906995D01*
X83185949Y-98883864D01*
X83145150Y-98856604D01*
X83107221Y-98825476D01*
X83072524Y-98790779D01*
X83041396Y-98752850D01*
X83014136Y-98712051D01*
X82991005Y-98668778D01*
X82972228Y-98623445D01*
X82957984Y-98576490D01*
X82948412Y-98528365D01*
X82943602Y-98479534D01*
X82943602Y-98455000D01*
X82943000Y-98455000D01*
X82943000Y-97905000D01*
X84443000Y-97905000D01*
X84443000Y-98455000D01*
X84442398Y-98455000D01*
G37*
G36*
X82943000Y-96405000D02*
G01*
X82943000Y-95855000D01*
X82943602Y-95855000D01*
X82943602Y-95830466D01*
X82948412Y-95781635D01*
X82957984Y-95733510D01*
X82972228Y-95686555D01*
X82991005Y-95641222D01*
X83014136Y-95597949D01*
X83041396Y-95557150D01*
X83072524Y-95519221D01*
X83107221Y-95484524D01*
X83145150Y-95453396D01*
X83185949Y-95426136D01*
X83229222Y-95403005D01*
X83274555Y-95384228D01*
X83321510Y-95369984D01*
X83369635Y-95360412D01*
X83418466Y-95355602D01*
X83443000Y-95355602D01*
X83443000Y-95355000D01*
X83943000Y-95355000D01*
X83943000Y-95355602D01*
X83967534Y-95355602D01*
X84016365Y-95360412D01*
X84064490Y-95369984D01*
X84111445Y-95384228D01*
X84156778Y-95403005D01*
X84200051Y-95426136D01*
X84240850Y-95453396D01*
X84278779Y-95484524D01*
X84313476Y-95519221D01*
X84344604Y-95557150D01*
X84371864Y-95597949D01*
X84394995Y-95641222D01*
X84413772Y-95686555D01*
X84428016Y-95733510D01*
X84437588Y-95781635D01*
X84442398Y-95830466D01*
X84442398Y-95855000D01*
X84443000Y-95855000D01*
X84443000Y-96405000D01*
X82943000Y-96405000D01*
G37*
%TD*%
D24*
%TO.C,TP1*%
X73279000Y-88265000D03*
%TD*%
%TO.C,TP2*%
X73279000Y-83439000D03*
%TD*%
D28*
%TO.C,U1*%
X95266000Y-75699000D03*
D29*
X87766000Y-68199000D03*
X87766000Y-69469000D03*
X87766000Y-70739000D03*
X87766000Y-72009000D03*
X87766000Y-73279000D03*
X87766000Y-74549000D03*
X87766000Y-75819000D03*
X87766000Y-77089000D03*
X87766000Y-78359000D03*
X87766000Y-79629000D03*
X87766000Y-80899000D03*
X87766000Y-82169000D03*
X87766000Y-83439000D03*
X87766000Y-84709000D03*
D30*
X90551000Y-85709000D03*
X91821000Y-85709000D03*
X93091000Y-85709000D03*
X94361000Y-85709000D03*
X95631000Y-85709000D03*
X96901000Y-85709000D03*
X98171000Y-85709000D03*
X99441000Y-85709000D03*
X100711000Y-85709000D03*
X101981000Y-85709000D03*
D29*
X104766000Y-84709000D03*
X104766000Y-83439000D03*
X104766000Y-82169000D03*
X104766000Y-80899000D03*
X104766000Y-79629000D03*
X104766000Y-78359000D03*
X104766000Y-77089000D03*
X104766000Y-75819000D03*
X104766000Y-74549000D03*
X104766000Y-73279000D03*
X104766000Y-72009000D03*
X104766000Y-70739000D03*
X104766000Y-69469000D03*
X104766000Y-68199000D03*
%TD*%
D31*
%TO.C,Y1*%
X132556500Y-81407000D03*
X120681500Y-81407000D03*
%TD*%
D32*
%TO.C,U3*%
X123165000Y-70739000D03*
D33*
X116865000Y-70739000D03*
X116865000Y-73039000D03*
X116865000Y-68439000D03*
%TD*%
D34*
%TO.C,U2*%
X103605000Y-89882000D03*
X103605000Y-90532000D03*
X103605000Y-91182000D03*
X103605000Y-91832000D03*
X103605000Y-92482000D03*
X103605000Y-93132000D03*
X103605000Y-93782000D03*
X103605000Y-95082000D03*
X103605000Y-94432000D03*
X103605000Y-95732000D03*
X103605000Y-96382000D03*
X103605000Y-97032000D03*
X103605000Y-97682000D03*
X103605000Y-98332000D03*
X96293000Y-89882000D03*
X96293000Y-90532000D03*
X96293000Y-91182000D03*
X96293000Y-91832000D03*
X96293000Y-92482000D03*
X96293000Y-93132000D03*
X96293000Y-93782000D03*
X96293000Y-94432000D03*
X96293000Y-95082000D03*
X96293000Y-95732000D03*
X96293000Y-96382000D03*
X96293000Y-97032000D03*
X96293000Y-97682000D03*
X96293000Y-98332000D03*
%TD*%
D35*
%TO.C,J1*%
X123853000Y-110669000D03*
X124953000Y-117169000D03*
X128953000Y-117169000D03*
X131953000Y-117169000D03*
D36*
X133553000Y-113919000D03*
X126553000Y-113919000D03*
%TD*%
%TO.C,C1*%
G36*
G01*
X124069000Y-129781000D02*
X122819000Y-129781000D01*
G75*
G02*
X122569000Y-129531000I0J250000D01*
G01*
X122569000Y-128606000D01*
G75*
G02*
X122819000Y-128356000I250000J0D01*
G01*
X124069000Y-128356000D01*
G75*
G02*
X124319000Y-128606000I0J-250000D01*
G01*
X124319000Y-129531000D01*
G75*
G02*
X124069000Y-129781000I-250000J0D01*
G01*
G37*
G36*
G01*
X124069000Y-132756000D02*
X122819000Y-132756000D01*
G75*
G02*
X122569000Y-132506000I0J250000D01*
G01*
X122569000Y-131581000D01*
G75*
G02*
X122819000Y-131331000I250000J0D01*
G01*
X124069000Y-131331000D01*
G75*
G02*
X124319000Y-131581000I0J-250000D01*
G01*
X124319000Y-132506000D01*
G75*
G02*
X124069000Y-132756000I-250000J0D01*
G01*
G37*
%TD*%
%TO.C,C2*%
G36*
G01*
X105623000Y-107178000D02*
X105623000Y-105928000D01*
G75*
G02*
X105873000Y-105678000I250000J0D01*
G01*
X106798000Y-105678000D01*
G75*
G02*
X107048000Y-105928000I0J-250000D01*
G01*
X107048000Y-107178000D01*
G75*
G02*
X106798000Y-107428000I-250000J0D01*
G01*
X105873000Y-107428000D01*
G75*
G02*
X105623000Y-107178000I0J250000D01*
G01*
G37*
G36*
G01*
X108598000Y-107178000D02*
X108598000Y-105928000D01*
G75*
G02*
X108848000Y-105678000I250000J0D01*
G01*
X109773000Y-105678000D01*
G75*
G02*
X110023000Y-105928000I0J-250000D01*
G01*
X110023000Y-107178000D01*
G75*
G02*
X109773000Y-107428000I-250000J0D01*
G01*
X108848000Y-107428000D01*
G75*
G02*
X108598000Y-107178000I0J250000D01*
G01*
G37*
%TD*%
%TO.C,C3*%
G36*
G01*
X75997000Y-78555001D02*
X75997000Y-77654999D01*
G75*
G02*
X76246999Y-77405000I249999J0D01*
G01*
X76897001Y-77405000D01*
G75*
G02*
X77147000Y-77654999I0J-249999D01*
G01*
X77147000Y-78555001D01*
G75*
G02*
X76897001Y-78805000I-249999J0D01*
G01*
X76246999Y-78805000D01*
G75*
G02*
X75997000Y-78555001I0J249999D01*
G01*
G37*
G36*
G01*
X78047000Y-78555001D02*
X78047000Y-77654999D01*
G75*
G02*
X78296999Y-77405000I249999J0D01*
G01*
X78947001Y-77405000D01*
G75*
G02*
X79197000Y-77654999I0J-249999D01*
G01*
X79197000Y-78555001D01*
G75*
G02*
X78947001Y-78805000I-249999J0D01*
G01*
X78296999Y-78805000D01*
G75*
G02*
X78047000Y-78555001I0J249999D01*
G01*
G37*
%TD*%
%TO.C,C4*%
G36*
G01*
X114115001Y-70688000D02*
X113214999Y-70688000D01*
G75*
G02*
X112965000Y-70438001I0J249999D01*
G01*
X112965000Y-69787999D01*
G75*
G02*
X113214999Y-69538000I249999J0D01*
G01*
X114115001Y-69538000D01*
G75*
G02*
X114365000Y-69787999I0J-249999D01*
G01*
X114365000Y-70438001D01*
G75*
G02*
X114115001Y-70688000I-249999J0D01*
G01*
G37*
G36*
G01*
X114115001Y-68638000D02*
X113214999Y-68638000D01*
G75*
G02*
X112965000Y-68388001I0J249999D01*
G01*
X112965000Y-67737999D01*
G75*
G02*
X113214999Y-67488000I249999J0D01*
G01*
X114115001Y-67488000D01*
G75*
G02*
X114365000Y-67737999I0J-249999D01*
G01*
X114365000Y-68388001D01*
G75*
G02*
X114115001Y-68638000I-249999J0D01*
G01*
G37*
%TD*%
%TO.C,C5*%
G36*
G01*
X127323001Y-70942000D02*
X126422999Y-70942000D01*
G75*
G02*
X126173000Y-70692001I0J249999D01*
G01*
X126173000Y-70041999D01*
G75*
G02*
X126422999Y-69792000I249999J0D01*
G01*
X127323001Y-69792000D01*
G75*
G02*
X127573000Y-70041999I0J-249999D01*
G01*
X127573000Y-70692001D01*
G75*
G02*
X127323001Y-70942000I-249999J0D01*
G01*
G37*
G36*
G01*
X127323001Y-68892000D02*
X126422999Y-68892000D01*
G75*
G02*
X126173000Y-68642001I0J249999D01*
G01*
X126173000Y-67991999D01*
G75*
G02*
X126422999Y-67742000I249999J0D01*
G01*
X127323001Y-67742000D01*
G75*
G02*
X127573000Y-67991999I0J-249999D01*
G01*
X127573000Y-68642001D01*
G75*
G02*
X127323001Y-68892000I-249999J0D01*
G01*
G37*
%TD*%
%TO.C,C6*%
G36*
G01*
X126422999Y-75126000D02*
X127323001Y-75126000D01*
G75*
G02*
X127573000Y-75375999I0J-249999D01*
G01*
X127573000Y-76026001D01*
G75*
G02*
X127323001Y-76276000I-249999J0D01*
G01*
X126422999Y-76276000D01*
G75*
G02*
X126173000Y-76026001I0J249999D01*
G01*
X126173000Y-75375999D01*
G75*
G02*
X126422999Y-75126000I249999J0D01*
G01*
G37*
G36*
G01*
X126422999Y-73076000D02*
X127323001Y-73076000D01*
G75*
G02*
X127573000Y-73325999I0J-249999D01*
G01*
X127573000Y-73976001D01*
G75*
G02*
X127323001Y-74226000I-249999J0D01*
G01*
X126422999Y-74226000D01*
G75*
G02*
X126173000Y-73976001I0J249999D01*
G01*
X126173000Y-73325999D01*
G75*
G02*
X126422999Y-73076000I249999J0D01*
G01*
G37*
%TD*%
%TO.C,C7*%
G36*
G01*
X73972000Y-94545999D02*
X73972000Y-95446001D01*
G75*
G02*
X73722001Y-95696000I-249999J0D01*
G01*
X73071999Y-95696000D01*
G75*
G02*
X72822000Y-95446001I0J249999D01*
G01*
X72822000Y-94545999D01*
G75*
G02*
X73071999Y-94296000I249999J0D01*
G01*
X73722001Y-94296000D01*
G75*
G02*
X73972000Y-94545999I0J-249999D01*
G01*
G37*
G36*
G01*
X76022000Y-94545999D02*
X76022000Y-95446001D01*
G75*
G02*
X75772001Y-95696000I-249999J0D01*
G01*
X75121999Y-95696000D01*
G75*
G02*
X74872000Y-95446001I0J249999D01*
G01*
X74872000Y-94545999D01*
G75*
G02*
X75121999Y-94296000I249999J0D01*
G01*
X75772001Y-94296000D01*
G75*
G02*
X76022000Y-94545999I0J-249999D01*
G01*
G37*
%TD*%
%TO.C,C8*%
G36*
G01*
X118814001Y-109169000D02*
X117913999Y-109169000D01*
G75*
G02*
X117664000Y-108919001I0J249999D01*
G01*
X117664000Y-108268999D01*
G75*
G02*
X117913999Y-108019000I249999J0D01*
G01*
X118814001Y-108019000D01*
G75*
G02*
X119064000Y-108268999I0J-249999D01*
G01*
X119064000Y-108919001D01*
G75*
G02*
X118814001Y-109169000I-249999J0D01*
G01*
G37*
G36*
G01*
X118814001Y-107119000D02*
X117913999Y-107119000D01*
G75*
G02*
X117664000Y-106869001I0J249999D01*
G01*
X117664000Y-106218999D01*
G75*
G02*
X117913999Y-105969000I249999J0D01*
G01*
X118814001Y-105969000D01*
G75*
G02*
X119064000Y-106218999I0J-249999D01*
G01*
X119064000Y-106869001D01*
G75*
G02*
X118814001Y-107119000I-249999J0D01*
G01*
G37*
%TD*%
%TO.C,C9*%
G36*
G01*
X129724999Y-88715000D02*
X130625001Y-88715000D01*
G75*
G02*
X130875000Y-88964999I0J-249999D01*
G01*
X130875000Y-89615001D01*
G75*
G02*
X130625001Y-89865000I-249999J0D01*
G01*
X129724999Y-89865000D01*
G75*
G02*
X129475000Y-89615001I0J249999D01*
G01*
X129475000Y-88964999D01*
G75*
G02*
X129724999Y-88715000I249999J0D01*
G01*
G37*
G36*
G01*
X129724999Y-86665000D02*
X130625001Y-86665000D01*
G75*
G02*
X130875000Y-86914999I0J-249999D01*
G01*
X130875000Y-87565001D01*
G75*
G02*
X130625001Y-87815000I-249999J0D01*
G01*
X129724999Y-87815000D01*
G75*
G02*
X129475000Y-87565001I0J249999D01*
G01*
X129475000Y-86914999D01*
G75*
G02*
X129724999Y-86665000I249999J0D01*
G01*
G37*
%TD*%
%TO.C,C10*%
G36*
G01*
X132645999Y-88715000D02*
X133546001Y-88715000D01*
G75*
G02*
X133796000Y-88964999I0J-249999D01*
G01*
X133796000Y-89615001D01*
G75*
G02*
X133546001Y-89865000I-249999J0D01*
G01*
X132645999Y-89865000D01*
G75*
G02*
X132396000Y-89615001I0J249999D01*
G01*
X132396000Y-88964999D01*
G75*
G02*
X132645999Y-88715000I249999J0D01*
G01*
G37*
G36*
G01*
X132645999Y-86665000D02*
X133546001Y-86665000D01*
G75*
G02*
X133796000Y-86914999I0J-249999D01*
G01*
X133796000Y-87565001D01*
G75*
G02*
X133546001Y-87815000I-249999J0D01*
G01*
X132645999Y-87815000D01*
G75*
G02*
X132396000Y-87565001I0J249999D01*
G01*
X132396000Y-86914999D01*
G75*
G02*
X132645999Y-86665000I249999J0D01*
G01*
G37*
%TD*%
%TO.C,C11*%
G36*
G01*
X118040999Y-89459000D02*
X118941001Y-89459000D01*
G75*
G02*
X119191000Y-89708999I0J-249999D01*
G01*
X119191000Y-90359001D01*
G75*
G02*
X118941001Y-90609000I-249999J0D01*
G01*
X118040999Y-90609000D01*
G75*
G02*
X117791000Y-90359001I0J249999D01*
G01*
X117791000Y-89708999D01*
G75*
G02*
X118040999Y-89459000I249999J0D01*
G01*
G37*
G36*
G01*
X118040999Y-91509000D02*
X118941001Y-91509000D01*
G75*
G02*
X119191000Y-91758999I0J-249999D01*
G01*
X119191000Y-92409001D01*
G75*
G02*
X118941001Y-92659000I-249999J0D01*
G01*
X118040999Y-92659000D01*
G75*
G02*
X117791000Y-92409001I0J249999D01*
G01*
X117791000Y-91758999D01*
G75*
G02*
X118040999Y-91509000I249999J0D01*
G01*
G37*
%TD*%
%TO.C,C12*%
G36*
G01*
X111817999Y-90239000D02*
X112718001Y-90239000D01*
G75*
G02*
X112968000Y-90488999I0J-249999D01*
G01*
X112968000Y-91139001D01*
G75*
G02*
X112718001Y-91389000I-249999J0D01*
G01*
X111817999Y-91389000D01*
G75*
G02*
X111568000Y-91139001I0J249999D01*
G01*
X111568000Y-90488999D01*
G75*
G02*
X111817999Y-90239000I249999J0D01*
G01*
G37*
G36*
G01*
X111817999Y-88189000D02*
X112718001Y-88189000D01*
G75*
G02*
X112968000Y-88438999I0J-249999D01*
G01*
X112968000Y-89089001D01*
G75*
G02*
X112718001Y-89339000I-249999J0D01*
G01*
X111817999Y-89339000D01*
G75*
G02*
X111568000Y-89089001I0J249999D01*
G01*
X111568000Y-88438999D01*
G75*
G02*
X111817999Y-88189000I249999J0D01*
G01*
G37*
%TD*%
%TO.C,C13*%
G36*
G01*
X72822000Y-92652001D02*
X72822000Y-91751999D01*
G75*
G02*
X73071999Y-91502000I249999J0D01*
G01*
X73722001Y-91502000D01*
G75*
G02*
X73972000Y-91751999I0J-249999D01*
G01*
X73972000Y-92652001D01*
G75*
G02*
X73722001Y-92902000I-249999J0D01*
G01*
X73071999Y-92902000D01*
G75*
G02*
X72822000Y-92652001I0J249999D01*
G01*
G37*
G36*
G01*
X74872000Y-92652001D02*
X74872000Y-91751999D01*
G75*
G02*
X75121999Y-91502000I249999J0D01*
G01*
X75772001Y-91502000D01*
G75*
G02*
X76022000Y-91751999I0J-249999D01*
G01*
X76022000Y-92652001D01*
G75*
G02*
X75772001Y-92902000I-249999J0D01*
G01*
X75121999Y-92902000D01*
G75*
G02*
X74872000Y-92652001I0J249999D01*
G01*
G37*
%TD*%
%TO.C,C15*%
G36*
G01*
X76022000Y-97339999D02*
X76022000Y-98240001D01*
G75*
G02*
X75772001Y-98490000I-249999J0D01*
G01*
X75121999Y-98490000D01*
G75*
G02*
X74872000Y-98240001I0J249999D01*
G01*
X74872000Y-97339999D01*
G75*
G02*
X75121999Y-97090000I249999J0D01*
G01*
X75772001Y-97090000D01*
G75*
G02*
X76022000Y-97339999I0J-249999D01*
G01*
G37*
G36*
G01*
X73972000Y-97339999D02*
X73972000Y-98240001D01*
G75*
G02*
X73722001Y-98490000I-249999J0D01*
G01*
X73071999Y-98490000D01*
G75*
G02*
X72822000Y-98240001I0J249999D01*
G01*
X72822000Y-97339999D01*
G75*
G02*
X73071999Y-97090000I249999J0D01*
G01*
X73722001Y-97090000D01*
G75*
G02*
X73972000Y-97339999I0J-249999D01*
G01*
G37*
%TD*%
%TO.C,C16*%
G36*
G01*
X81591999Y-91636000D02*
X82492001Y-91636000D01*
G75*
G02*
X82742000Y-91885999I0J-249999D01*
G01*
X82742000Y-92536001D01*
G75*
G02*
X82492001Y-92786000I-249999J0D01*
G01*
X81591999Y-92786000D01*
G75*
G02*
X81342000Y-92536001I0J249999D01*
G01*
X81342000Y-91885999D01*
G75*
G02*
X81591999Y-91636000I249999J0D01*
G01*
G37*
G36*
G01*
X81591999Y-89586000D02*
X82492001Y-89586000D01*
G75*
G02*
X82742000Y-89835999I0J-249999D01*
G01*
X82742000Y-90486001D01*
G75*
G02*
X82492001Y-90736000I-249999J0D01*
G01*
X81591999Y-90736000D01*
G75*
G02*
X81342000Y-90486001I0J249999D01*
G01*
X81342000Y-89835999D01*
G75*
G02*
X81591999Y-89586000I249999J0D01*
G01*
G37*
%TD*%
%TO.C,C17*%
G36*
G01*
X85147999Y-89586000D02*
X86048001Y-89586000D01*
G75*
G02*
X86298000Y-89835999I0J-249999D01*
G01*
X86298000Y-90486001D01*
G75*
G02*
X86048001Y-90736000I-249999J0D01*
G01*
X85147999Y-90736000D01*
G75*
G02*
X84898000Y-90486001I0J249999D01*
G01*
X84898000Y-89835999D01*
G75*
G02*
X85147999Y-89586000I249999J0D01*
G01*
G37*
G36*
G01*
X85147999Y-91636000D02*
X86048001Y-91636000D01*
G75*
G02*
X86298000Y-91885999I0J-249999D01*
G01*
X86298000Y-92536001D01*
G75*
G02*
X86048001Y-92786000I-249999J0D01*
G01*
X85147999Y-92786000D01*
G75*
G02*
X84898000Y-92536001I0J249999D01*
G01*
X84898000Y-91885999D01*
G75*
G02*
X85147999Y-91636000I249999J0D01*
G01*
G37*
%TD*%
%TO.C,C18*%
G36*
G01*
X114738999Y-108019000D02*
X115639001Y-108019000D01*
G75*
G02*
X115889000Y-108268999I0J-249999D01*
G01*
X115889000Y-108919001D01*
G75*
G02*
X115639001Y-109169000I-249999J0D01*
G01*
X114738999Y-109169000D01*
G75*
G02*
X114489000Y-108919001I0J249999D01*
G01*
X114489000Y-108268999D01*
G75*
G02*
X114738999Y-108019000I249999J0D01*
G01*
G37*
G36*
G01*
X114738999Y-105969000D02*
X115639001Y-105969000D01*
G75*
G02*
X115889000Y-106218999I0J-249999D01*
G01*
X115889000Y-106869001D01*
G75*
G02*
X115639001Y-107119000I-249999J0D01*
G01*
X114738999Y-107119000D01*
G75*
G02*
X114489000Y-106869001I0J249999D01*
G01*
X114489000Y-106218999D01*
G75*
G02*
X114738999Y-105969000I249999J0D01*
G01*
G37*
%TD*%
%TO.C,R2*%
G36*
G01*
X129725000Y-124263999D02*
X129725000Y-125164001D01*
G75*
G02*
X129475001Y-125414000I-249999J0D01*
G01*
X128824999Y-125414000D01*
G75*
G02*
X128575000Y-125164001I0J249999D01*
G01*
X128575000Y-124263999D01*
G75*
G02*
X128824999Y-124014000I249999J0D01*
G01*
X129475001Y-124014000D01*
G75*
G02*
X129725000Y-124263999I0J-249999D01*
G01*
G37*
G36*
G01*
X131775000Y-124263999D02*
X131775000Y-125164001D01*
G75*
G02*
X131525001Y-125414000I-249999J0D01*
G01*
X130874999Y-125414000D01*
G75*
G02*
X130625000Y-125164001I0J249999D01*
G01*
X130625000Y-124263999D01*
G75*
G02*
X130874999Y-124014000I249999J0D01*
G01*
X131525001Y-124014000D01*
G75*
G02*
X131775000Y-124263999I0J-249999D01*
G01*
G37*
%TD*%
%TO.C,R3*%
G36*
G01*
X126187000Y-124263999D02*
X126187000Y-125164001D01*
G75*
G02*
X125937001Y-125414000I-249999J0D01*
G01*
X125286999Y-125414000D01*
G75*
G02*
X125037000Y-125164001I0J249999D01*
G01*
X125037000Y-124263999D01*
G75*
G02*
X125286999Y-124014000I249999J0D01*
G01*
X125937001Y-124014000D01*
G75*
G02*
X126187000Y-124263999I0J-249999D01*
G01*
G37*
G36*
G01*
X124137000Y-124263999D02*
X124137000Y-125164001D01*
G75*
G02*
X123887001Y-125414000I-249999J0D01*
G01*
X123236999Y-125414000D01*
G75*
G02*
X122987000Y-125164001I0J249999D01*
G01*
X122987000Y-124263999D01*
G75*
G02*
X123236999Y-124014000I249999J0D01*
G01*
X123887001Y-124014000D01*
G75*
G02*
X124137000Y-124263999I0J-249999D01*
G01*
G37*
%TD*%
%TO.C,R5*%
G36*
G01*
X93668001Y-107645000D02*
X92767999Y-107645000D01*
G75*
G02*
X92518000Y-107395001I0J249999D01*
G01*
X92518000Y-106744999D01*
G75*
G02*
X92767999Y-106495000I249999J0D01*
G01*
X93668001Y-106495000D01*
G75*
G02*
X93918000Y-106744999I0J-249999D01*
G01*
X93918000Y-107395001D01*
G75*
G02*
X93668001Y-107645000I-249999J0D01*
G01*
G37*
G36*
G01*
X93668001Y-105595000D02*
X92767999Y-105595000D01*
G75*
G02*
X92518000Y-105345001I0J249999D01*
G01*
X92518000Y-104694999D01*
G75*
G02*
X92767999Y-104445000I249999J0D01*
G01*
X93668001Y-104445000D01*
G75*
G02*
X93918000Y-104694999I0J-249999D01*
G01*
X93918000Y-105345001D01*
G75*
G02*
X93668001Y-105595000I-249999J0D01*
G01*
G37*
%TD*%
%TO.C,R6*%
G36*
G01*
X100515000Y-106864999D02*
X100515000Y-107765001D01*
G75*
G02*
X100265001Y-108015000I-249999J0D01*
G01*
X99614999Y-108015000D01*
G75*
G02*
X99365000Y-107765001I0J249999D01*
G01*
X99365000Y-106864999D01*
G75*
G02*
X99614999Y-106615000I249999J0D01*
G01*
X100265001Y-106615000D01*
G75*
G02*
X100515000Y-106864999I0J-249999D01*
G01*
G37*
G36*
G01*
X102565000Y-106864999D02*
X102565000Y-107765001D01*
G75*
G02*
X102315001Y-108015000I-249999J0D01*
G01*
X101664999Y-108015000D01*
G75*
G02*
X101415000Y-107765001I0J249999D01*
G01*
X101415000Y-106864999D01*
G75*
G02*
X101664999Y-106615000I249999J0D01*
G01*
X102315001Y-106615000D01*
G75*
G02*
X102565000Y-106864999I0J-249999D01*
G01*
G37*
%TD*%
%TO.C,R7*%
G36*
G01*
X99365000Y-105098001D02*
X99365000Y-104197999D01*
G75*
G02*
X99614999Y-103948000I249999J0D01*
G01*
X100265001Y-103948000D01*
G75*
G02*
X100515000Y-104197999I0J-249999D01*
G01*
X100515000Y-105098001D01*
G75*
G02*
X100265001Y-105348000I-249999J0D01*
G01*
X99614999Y-105348000D01*
G75*
G02*
X99365000Y-105098001I0J249999D01*
G01*
G37*
G36*
G01*
X101415000Y-105098001D02*
X101415000Y-104197999D01*
G75*
G02*
X101664999Y-103948000I249999J0D01*
G01*
X102315001Y-103948000D01*
G75*
G02*
X102565000Y-104197999I0J-249999D01*
G01*
X102565000Y-105098001D01*
G75*
G02*
X102315001Y-105348000I-249999J0D01*
G01*
X101664999Y-105348000D01*
G75*
G02*
X101415000Y-105098001I0J249999D01*
G01*
G37*
%TD*%
%TO.C,R8*%
G36*
G01*
X83635001Y-76258000D02*
X82734999Y-76258000D01*
G75*
G02*
X82485000Y-76008001I0J249999D01*
G01*
X82485000Y-75357999D01*
G75*
G02*
X82734999Y-75108000I249999J0D01*
G01*
X83635001Y-75108000D01*
G75*
G02*
X83885000Y-75357999I0J-249999D01*
G01*
X83885000Y-76008001D01*
G75*
G02*
X83635001Y-76258000I-249999J0D01*
G01*
G37*
G36*
G01*
X83635001Y-78308000D02*
X82734999Y-78308000D01*
G75*
G02*
X82485000Y-78058001I0J249999D01*
G01*
X82485000Y-77407999D01*
G75*
G02*
X82734999Y-77158000I249999J0D01*
G01*
X83635001Y-77158000D01*
G75*
G02*
X83885000Y-77407999I0J-249999D01*
G01*
X83885000Y-78058001D01*
G75*
G02*
X83635001Y-78308000I-249999J0D01*
G01*
G37*
%TD*%
%TO.C,R11*%
G36*
G01*
X133292001Y-95707000D02*
X132391999Y-95707000D01*
G75*
G02*
X132142000Y-95457001I0J249999D01*
G01*
X132142000Y-94806999D01*
G75*
G02*
X132391999Y-94557000I249999J0D01*
G01*
X133292001Y-94557000D01*
G75*
G02*
X133542000Y-94806999I0J-249999D01*
G01*
X133542000Y-95457001D01*
G75*
G02*
X133292001Y-95707000I-249999J0D01*
G01*
G37*
G36*
G01*
X133292001Y-93657000D02*
X132391999Y-93657000D01*
G75*
G02*
X132142000Y-93407001I0J249999D01*
G01*
X132142000Y-92756999D01*
G75*
G02*
X132391999Y-92507000I249999J0D01*
G01*
X133292001Y-92507000D01*
G75*
G02*
X133542000Y-92756999I0J-249999D01*
G01*
X133542000Y-93407001D01*
G75*
G02*
X133292001Y-93657000I-249999J0D01*
G01*
G37*
%TD*%
%TO.C,R12*%
G36*
G01*
X130752001Y-93657000D02*
X129851999Y-93657000D01*
G75*
G02*
X129602000Y-93407001I0J249999D01*
G01*
X129602000Y-92756999D01*
G75*
G02*
X129851999Y-92507000I249999J0D01*
G01*
X130752001Y-92507000D01*
G75*
G02*
X131002000Y-92756999I0J-249999D01*
G01*
X131002000Y-93407001D01*
G75*
G02*
X130752001Y-93657000I-249999J0D01*
G01*
G37*
G36*
G01*
X130752001Y-95707000D02*
X129851999Y-95707000D01*
G75*
G02*
X129602000Y-95457001I0J249999D01*
G01*
X129602000Y-94806999D01*
G75*
G02*
X129851999Y-94557000I249999J0D01*
G01*
X130752001Y-94557000D01*
G75*
G02*
X131002000Y-94806999I0J-249999D01*
G01*
X131002000Y-95457001D01*
G75*
G02*
X130752001Y-95707000I-249999J0D01*
G01*
G37*
%TD*%
M02*
