%TF.GenerationSoftware,KiCad,Pcbnew,(5.1.8)-1*%
%TF.CreationDate,2021-07-11T12:48:12+05:30*%
%TF.ProjectId,AC_RMS_ESP32_ATM90E26,41435f52-4d53-45f4-9553-5033325f4154,V2*%
%TF.SameCoordinates,Original*%
%TF.FileFunction,Copper,L1,Top*%
%TF.FilePolarity,Positive*%
%FSLAX46Y46*%
G04 Gerber Fmt 4.6, Leading zero omitted, Abs format (unit mm)*
G04 Created by KiCad (PCBNEW (5.1.8)-1) date 2021-07-11 12:48:12*
%MOMM*%
%LPD*%
G01*
G04 APERTURE LIST*
%TA.AperFunction,Profile*%
%ADD10C,0.050000*%
%TD*%
%TA.AperFunction,ComponentPad*%
%ADD11O,1.700000X1.700000*%
%TD*%
%TA.AperFunction,ComponentPad*%
%ADD12R,1.700000X1.700000*%
%TD*%
%TA.AperFunction,SMDPad,CuDef*%
%ADD13R,1.900000X1.900000*%
%TD*%
%TA.AperFunction,SMDPad,CuDef*%
%ADD14R,1.800000X0.400000*%
%TD*%
%TA.AperFunction,SMDPad,CuDef*%
%ADD15R,1.500000X1.500000*%
%TD*%
%TA.AperFunction,SMDPad,CuDef*%
%ADD16R,2.000000X3.000000*%
%TD*%
%TA.AperFunction,SMDPad,CuDef*%
%ADD17C,0.100000*%
%TD*%
%TA.AperFunction,SMDPad,CuDef*%
%ADD18R,1.500000X1.000000*%
%TD*%
%TA.AperFunction,SMDPad,CuDef*%
%ADD19C,2.000000*%
%TD*%
%TA.AperFunction,SMDPad,CuDef*%
%ADD20R,5.000000X5.000000*%
%TD*%
%TA.AperFunction,SMDPad,CuDef*%
%ADD21R,2.000000X0.900000*%
%TD*%
%TA.AperFunction,SMDPad,CuDef*%
%ADD22R,0.900000X2.000000*%
%TD*%
%TA.AperFunction,SMDPad,CuDef*%
%ADD23R,7.875000X2.000000*%
%TD*%
%TA.AperFunction,SMDPad,CuDef*%
%ADD24R,2.000000X3.800000*%
%TD*%
%TA.AperFunction,SMDPad,CuDef*%
%ADD25R,2.000000X1.500000*%
%TD*%
%TA.AperFunction,SMDPad,CuDef*%
%ADD26R,1.397000X0.348000*%
%TD*%
%TA.AperFunction,SMDPad,CuDef*%
%ADD27R,1.200000X2.500000*%
%TD*%
%TA.AperFunction,ViaPad*%
%ADD28C,0.800000*%
%TD*%
%TA.AperFunction,Conductor*%
%ADD29C,0.254000*%
%TD*%
G04 APERTURE END LIST*
D10*
X137795000Y-66040000D02*
X137795000Y-133858000D01*
X69977000Y-66040000D02*
X69977000Y-133858000D01*
X134620000Y-102997000D02*
G75*
G03*
X134620000Y-102997000I-1778000J0D01*
G01*
X76585530Y-103124000D02*
G75*
G03*
X76585530Y-103124000I-1782530J0D01*
G01*
X137795000Y-66040000D02*
X122301000Y-66040000D01*
X122301000Y-66040000D02*
X85471000Y-66040000D01*
X85471000Y-66040000D02*
X69977000Y-66040000D01*
X122301000Y-133858000D02*
X137795000Y-133858000D01*
X85471000Y-133858000D02*
X122301000Y-133858000D01*
X69977000Y-133858000D02*
X85471000Y-133858000D01*
D11*
%TO.P,J11,2*%
%TO.N,CS*%
X114066000Y-117866000D03*
D12*
%TO.P,J11,1*%
%TO.N,/I1N_IN*%
X114066000Y-115326000D03*
%TD*%
D13*
%TO.P,J4,6*%
%TO.N,GND*%
X135085000Y-73735000D03*
X135085000Y-71335000D03*
X135085000Y-68585000D03*
X135085000Y-76485000D03*
D14*
%TO.P,J4,5*%
X132185000Y-71235000D03*
%TO.P,J4,4*%
X132185000Y-71885000D03*
%TO.P,J4,3*%
%TO.N,N/C*%
X132185000Y-72535000D03*
%TO.P,J4,1*%
%TO.N,Net-(C5-Pad1)*%
X132185000Y-73835000D03*
%TO.P,J4,2*%
%TO.N,N/C*%
X132185000Y-73185000D03*
%TD*%
D15*
%TO.P,sw1,1*%
%TO.N,GND*%
X78095000Y-68693000D03*
%TO.P,sw1,2*%
%TO.N,GPIO0*%
X78085000Y-74313000D03*
%TD*%
%TO.P,sw2,2*%
%TO.N,GND*%
X74569000Y-68689000D03*
%TO.P,sw2,1*%
%TO.N,Reset*%
X74559000Y-74309000D03*
%TD*%
%TO.P,D2,1*%
%TO.N,GND*%
%TA.AperFunction,SMDPad,CuDef*%
G36*
G01*
X124374000Y-75575000D02*
X124374000Y-76825000D01*
G75*
G02*
X124124000Y-77075000I-250000J0D01*
G01*
X123199000Y-77075000D01*
G75*
G02*
X122949000Y-76825000I0J250000D01*
G01*
X122949000Y-75575000D01*
G75*
G02*
X123199000Y-75325000I250000J0D01*
G01*
X124124000Y-75325000D01*
G75*
G02*
X124374000Y-75575000I0J-250000D01*
G01*
G37*
%TD.AperFunction*%
%TO.P,D2,2*%
%TO.N,Net-(D2-Pad2)*%
%TA.AperFunction,SMDPad,CuDef*%
G36*
G01*
X121399000Y-75575000D02*
X121399000Y-76825000D01*
G75*
G02*
X121149000Y-77075000I-250000J0D01*
G01*
X120224000Y-77075000D01*
G75*
G02*
X119974000Y-76825000I0J250000D01*
G01*
X119974000Y-75575000D01*
G75*
G02*
X120224000Y-75325000I250000J0D01*
G01*
X121149000Y-75325000D01*
G75*
G02*
X121399000Y-75575000I0J-250000D01*
G01*
G37*
%TD.AperFunction*%
%TD*%
D12*
%TO.P,J3,1*%
%TO.N,ADC1*%
X109911000Y-115326000D03*
D11*
%TO.P,J3,2*%
%TO.N,CS*%
X109911000Y-117866000D03*
%TD*%
D12*
%TO.P,J2,1*%
%TO.N,CT*%
X105898000Y-115326000D03*
D11*
%TO.P,J2,2*%
%TO.N,Net-(C1-Pad1)*%
X105898000Y-117866000D03*
%TD*%
D12*
%TO.P,J5,1*%
%TO.N,V2*%
X97637600Y-117876000D03*
D11*
%TO.P,J5,2*%
%TO.N,Net-(C2-Pad1)*%
X97637600Y-115336000D03*
%TD*%
%TO.P,J6,2*%
%TO.N,V1*%
X101651000Y-117866000D03*
D12*
%TO.P,J6,1*%
%TO.N,Net-(J6-Pad1)*%
X101651000Y-115326000D03*
%TD*%
%TO.P,J10,1*%
%TO.N,3V3_ATM*%
X78994000Y-83693000D03*
D11*
%TO.P,J10,2*%
%TO.N,Net-(C4-Pad1)*%
X81534000Y-83693000D03*
%TD*%
%TO.P,J7,2*%
%TO.N,3V3_ESP*%
X112522000Y-82677000D03*
D12*
%TO.P,J7,1*%
%TO.N,Net-(C4-Pad1)*%
X109982000Y-82677000D03*
%TD*%
D16*
%TO.P,J8,1*%
%TO.N,V1*%
X76883000Y-110705000D03*
X82883000Y-110705000D03*
%TO.P,J8,2*%
%TO.N,V2*%
X82883000Y-121705000D03*
%TO.P,J8,3*%
%TO.N,N/C*%
X76883000Y-121705000D03*
%TD*%
D12*
%TO.P,J9,1*%
%TO.N,N/C*%
X110744000Y-128397000D03*
D11*
%TO.P,J9,2*%
%TO.N,RX*%
X108204000Y-128397000D03*
%TO.P,J9,3*%
%TO.N,TX*%
X105664000Y-128397000D03*
%TO.P,J9,4*%
%TO.N,3V3_ESP*%
X103124000Y-128397000D03*
%TO.P,J9,5*%
%TO.N,N/C*%
X100584000Y-128397000D03*
%TO.P,J9,6*%
%TO.N,GND*%
X98044000Y-128397000D03*
%TD*%
%TO.P,J12,2*%
%TO.N,/I1P_IN*%
X118222000Y-115336000D03*
D12*
%TO.P,J12,1*%
%TO.N,CT*%
X118222000Y-117876000D03*
%TD*%
%TO.P,J13,1*%
%TO.N,Net-(J13-Pad1)*%
X89344500Y-115326000D03*
D11*
%TO.P,J13,2*%
%TO.N,V1*%
X89344500Y-117866000D03*
%TD*%
D12*
%TO.P,J14,1*%
%TO.N,V2*%
X93332300Y-117876000D03*
D11*
%TO.P,J14,2*%
%TO.N,Net-(J14-Pad2)*%
X93332300Y-115336000D03*
%TD*%
%TO.P,R1,1*%
%TO.N,ADC1*%
%TA.AperFunction,SMDPad,CuDef*%
G36*
G01*
X132375000Y-126756000D02*
X132375000Y-128006000D01*
G75*
G02*
X132125000Y-128256000I-250000J0D01*
G01*
X131200000Y-128256000D01*
G75*
G02*
X130950000Y-128006000I0J250000D01*
G01*
X130950000Y-126756000D01*
G75*
G02*
X131200000Y-126506000I250000J0D01*
G01*
X132125000Y-126506000D01*
G75*
G02*
X132375000Y-126756000I0J-250000D01*
G01*
G37*
%TD.AperFunction*%
%TO.P,R1,2*%
%TO.N,Net-(C1-Pad1)*%
%TA.AperFunction,SMDPad,CuDef*%
G36*
G01*
X129400000Y-126756000D02*
X129400000Y-128006000D01*
G75*
G02*
X129150000Y-128256000I-250000J0D01*
G01*
X128225000Y-128256000D01*
G75*
G02*
X127975000Y-128006000I0J250000D01*
G01*
X127975000Y-126756000D01*
G75*
G02*
X128225000Y-126506000I250000J0D01*
G01*
X129150000Y-126506000D01*
G75*
G02*
X129400000Y-126756000I0J-250000D01*
G01*
G37*
%TD.AperFunction*%
%TD*%
%TO.P,R4,1*%
%TO.N,ADC2*%
%TA.AperFunction,SMDPad,CuDef*%
G36*
G01*
X95260000Y-103845000D02*
X96510000Y-103845000D01*
G75*
G02*
X96760000Y-104095000I0J-250000D01*
G01*
X96760000Y-105020000D01*
G75*
G02*
X96510000Y-105270000I-250000J0D01*
G01*
X95260000Y-105270000D01*
G75*
G02*
X95010000Y-105020000I0J250000D01*
G01*
X95010000Y-104095000D01*
G75*
G02*
X95260000Y-103845000I250000J0D01*
G01*
G37*
%TD.AperFunction*%
%TO.P,R4,2*%
%TO.N,Net-(J6-Pad1)*%
%TA.AperFunction,SMDPad,CuDef*%
G36*
G01*
X95260000Y-106820000D02*
X96510000Y-106820000D01*
G75*
G02*
X96760000Y-107070000I0J-250000D01*
G01*
X96760000Y-107995000D01*
G75*
G02*
X96510000Y-108245000I-250000J0D01*
G01*
X95260000Y-108245000D01*
G75*
G02*
X95010000Y-107995000I0J250000D01*
G01*
X95010000Y-107070000D01*
G75*
G02*
X95260000Y-106820000I250000J0D01*
G01*
G37*
%TD.AperFunction*%
%TD*%
%TO.P,R9,2*%
%TO.N,GPIO0*%
%TA.AperFunction,SMDPad,CuDef*%
G36*
G01*
X82433000Y-71514000D02*
X83683000Y-71514000D01*
G75*
G02*
X83933000Y-71764000I0J-250000D01*
G01*
X83933000Y-72689000D01*
G75*
G02*
X83683000Y-72939000I-250000J0D01*
G01*
X82433000Y-72939000D01*
G75*
G02*
X82183000Y-72689000I0J250000D01*
G01*
X82183000Y-71764000D01*
G75*
G02*
X82433000Y-71514000I250000J0D01*
G01*
G37*
%TD.AperFunction*%
%TO.P,R9,1*%
%TO.N,3V3_ESP*%
%TA.AperFunction,SMDPad,CuDef*%
G36*
G01*
X82433000Y-68539000D02*
X83683000Y-68539000D01*
G75*
G02*
X83933000Y-68789000I0J-250000D01*
G01*
X83933000Y-69714000D01*
G75*
G02*
X83683000Y-69964000I-250000J0D01*
G01*
X82433000Y-69964000D01*
G75*
G02*
X82183000Y-69714000I0J250000D01*
G01*
X82183000Y-68789000D01*
G75*
G02*
X82433000Y-68539000I250000J0D01*
G01*
G37*
%TD.AperFunction*%
%TD*%
%TO.P,R10,1*%
%TO.N,Net-(C4-Pad1)*%
%TA.AperFunction,SMDPad,CuDef*%
G36*
G01*
X113040000Y-72222000D02*
X114290000Y-72222000D01*
G75*
G02*
X114540000Y-72472000I0J-250000D01*
G01*
X114540000Y-73397000D01*
G75*
G02*
X114290000Y-73647000I-250000J0D01*
G01*
X113040000Y-73647000D01*
G75*
G02*
X112790000Y-73397000I0J250000D01*
G01*
X112790000Y-72472000D01*
G75*
G02*
X113040000Y-72222000I250000J0D01*
G01*
G37*
%TD.AperFunction*%
%TO.P,R10,2*%
%TO.N,Net-(D2-Pad2)*%
%TA.AperFunction,SMDPad,CuDef*%
G36*
G01*
X113040000Y-75197000D02*
X114290000Y-75197000D01*
G75*
G02*
X114540000Y-75447000I0J-250000D01*
G01*
X114540000Y-76372000D01*
G75*
G02*
X114290000Y-76622000I-250000J0D01*
G01*
X113040000Y-76622000D01*
G75*
G02*
X112790000Y-76372000I0J250000D01*
G01*
X112790000Y-75447000D01*
G75*
G02*
X113040000Y-75197000I250000J0D01*
G01*
G37*
%TD.AperFunction*%
%TD*%
%TO.P,R13,2*%
%TO.N,/I1P_IN*%
%TA.AperFunction,SMDPad,CuDef*%
G36*
G01*
X123838000Y-96383000D02*
X123838000Y-95133000D01*
G75*
G02*
X124088000Y-94883000I250000J0D01*
G01*
X125013000Y-94883000D01*
G75*
G02*
X125263000Y-95133000I0J-250000D01*
G01*
X125263000Y-96383000D01*
G75*
G02*
X125013000Y-96633000I-250000J0D01*
G01*
X124088000Y-96633000D01*
G75*
G02*
X123838000Y-96383000I0J250000D01*
G01*
G37*
%TD.AperFunction*%
%TO.P,R13,1*%
%TO.N,/I1N_IN*%
%TA.AperFunction,SMDPad,CuDef*%
G36*
G01*
X120863000Y-96383000D02*
X120863000Y-95133000D01*
G75*
G02*
X121113000Y-94883000I250000J0D01*
G01*
X122038000Y-94883000D01*
G75*
G02*
X122288000Y-95133000I0J-250000D01*
G01*
X122288000Y-96383000D01*
G75*
G02*
X122038000Y-96633000I-250000J0D01*
G01*
X121113000Y-96633000D01*
G75*
G02*
X120863000Y-96383000I0J250000D01*
G01*
G37*
%TD.AperFunction*%
%TD*%
%TO.P,R14,2*%
%TO.N,/I1N_IN*%
%TA.AperFunction,SMDPad,CuDef*%
G36*
G01*
X121041000Y-91834000D02*
X122291000Y-91834000D01*
G75*
G02*
X122541000Y-92084000I0J-250000D01*
G01*
X122541000Y-93009000D01*
G75*
G02*
X122291000Y-93259000I-250000J0D01*
G01*
X121041000Y-93259000D01*
G75*
G02*
X120791000Y-93009000I0J250000D01*
G01*
X120791000Y-92084000D01*
G75*
G02*
X121041000Y-91834000I250000J0D01*
G01*
G37*
%TD.AperFunction*%
%TO.P,R14,1*%
%TO.N,I1N*%
%TA.AperFunction,SMDPad,CuDef*%
G36*
G01*
X121041000Y-88859000D02*
X122291000Y-88859000D01*
G75*
G02*
X122541000Y-89109000I0J-250000D01*
G01*
X122541000Y-90034000D01*
G75*
G02*
X122291000Y-90284000I-250000J0D01*
G01*
X121041000Y-90284000D01*
G75*
G02*
X120791000Y-90034000I0J250000D01*
G01*
X120791000Y-89109000D01*
G75*
G02*
X121041000Y-88859000I250000J0D01*
G01*
G37*
%TD.AperFunction*%
%TD*%
%TO.P,R15,2*%
%TO.N,/I1P_IN*%
%TA.AperFunction,SMDPad,CuDef*%
G36*
G01*
X124470000Y-91707000D02*
X125720000Y-91707000D01*
G75*
G02*
X125970000Y-91957000I0J-250000D01*
G01*
X125970000Y-92882000D01*
G75*
G02*
X125720000Y-93132000I-250000J0D01*
G01*
X124470000Y-93132000D01*
G75*
G02*
X124220000Y-92882000I0J250000D01*
G01*
X124220000Y-91957000D01*
G75*
G02*
X124470000Y-91707000I250000J0D01*
G01*
G37*
%TD.AperFunction*%
%TO.P,R15,1*%
%TO.N,I1P*%
%TA.AperFunction,SMDPad,CuDef*%
G36*
G01*
X124470000Y-88732000D02*
X125720000Y-88732000D01*
G75*
G02*
X125970000Y-88982000I0J-250000D01*
G01*
X125970000Y-89907000D01*
G75*
G02*
X125720000Y-90157000I-250000J0D01*
G01*
X124470000Y-90157000D01*
G75*
G02*
X124220000Y-89907000I0J250000D01*
G01*
X124220000Y-88982000D01*
G75*
G02*
X124470000Y-88732000I250000J0D01*
G01*
G37*
%TD.AperFunction*%
%TD*%
%TO.P,R16,1*%
%TO.N,Net-(J13-Pad1)*%
%TA.AperFunction,SMDPad,CuDef*%
G36*
G01*
X84699000Y-106086000D02*
X83449000Y-106086000D01*
G75*
G02*
X83199000Y-105836000I0J250000D01*
G01*
X83199000Y-104911000D01*
G75*
G02*
X83449000Y-104661000I250000J0D01*
G01*
X84699000Y-104661000D01*
G75*
G02*
X84949000Y-104911000I0J-250000D01*
G01*
X84949000Y-105836000D01*
G75*
G02*
X84699000Y-106086000I-250000J0D01*
G01*
G37*
%TD.AperFunction*%
%TO.P,R16,2*%
%TO.N,VP*%
%TA.AperFunction,SMDPad,CuDef*%
G36*
G01*
X84699000Y-103111000D02*
X83449000Y-103111000D01*
G75*
G02*
X83199000Y-102861000I0J250000D01*
G01*
X83199000Y-101936000D01*
G75*
G02*
X83449000Y-101686000I250000J0D01*
G01*
X84699000Y-101686000D01*
G75*
G02*
X84949000Y-101936000I0J-250000D01*
G01*
X84949000Y-102861000D01*
G75*
G02*
X84699000Y-103111000I-250000J0D01*
G01*
G37*
%TD.AperFunction*%
%TD*%
%TO.P,R17,2*%
%TO.N,Net-(J14-Pad2)*%
%TA.AperFunction,SMDPad,CuDef*%
G36*
G01*
X86116000Y-104661000D02*
X87366000Y-104661000D01*
G75*
G02*
X87616000Y-104911000I0J-250000D01*
G01*
X87616000Y-105836000D01*
G75*
G02*
X87366000Y-106086000I-250000J0D01*
G01*
X86116000Y-106086000D01*
G75*
G02*
X85866000Y-105836000I0J250000D01*
G01*
X85866000Y-104911000D01*
G75*
G02*
X86116000Y-104661000I250000J0D01*
G01*
G37*
%TD.AperFunction*%
%TO.P,R17,1*%
%TO.N,VP*%
%TA.AperFunction,SMDPad,CuDef*%
G36*
G01*
X86116000Y-101686000D02*
X87366000Y-101686000D01*
G75*
G02*
X87616000Y-101936000I0J-250000D01*
G01*
X87616000Y-102861000D01*
G75*
G02*
X87366000Y-103111000I-250000J0D01*
G01*
X86116000Y-103111000D01*
G75*
G02*
X85866000Y-102861000I0J250000D01*
G01*
X85866000Y-101936000D01*
G75*
G02*
X86116000Y-101686000I250000J0D01*
G01*
G37*
%TD.AperFunction*%
%TD*%
%TA.AperFunction,SMDPad,CuDef*%
D17*
%TO.P,SJ1,1*%
%TO.N,GND*%
G36*
X125996000Y-101739000D02*
G01*
X125996000Y-101189000D01*
X125996602Y-101189000D01*
X125996602Y-101164466D01*
X126001412Y-101115635D01*
X126010984Y-101067510D01*
X126025228Y-101020555D01*
X126044005Y-100975222D01*
X126067136Y-100931949D01*
X126094396Y-100891150D01*
X126125524Y-100853221D01*
X126160221Y-100818524D01*
X126198150Y-100787396D01*
X126238949Y-100760136D01*
X126282222Y-100737005D01*
X126327555Y-100718228D01*
X126374510Y-100703984D01*
X126422635Y-100694412D01*
X126471466Y-100689602D01*
X126496000Y-100689602D01*
X126496000Y-100689000D01*
X126996000Y-100689000D01*
X126996000Y-100689602D01*
X127020534Y-100689602D01*
X127069365Y-100694412D01*
X127117490Y-100703984D01*
X127164445Y-100718228D01*
X127209778Y-100737005D01*
X127253051Y-100760136D01*
X127293850Y-100787396D01*
X127331779Y-100818524D01*
X127366476Y-100853221D01*
X127397604Y-100891150D01*
X127424864Y-100931949D01*
X127447995Y-100975222D01*
X127466772Y-101020555D01*
X127481016Y-101067510D01*
X127490588Y-101115635D01*
X127495398Y-101164466D01*
X127495398Y-101189000D01*
X127496000Y-101189000D01*
X127496000Y-101739000D01*
X125996000Y-101739000D01*
G37*
%TD.AperFunction*%
%TA.AperFunction,SMDPad,CuDef*%
%TO.P,SJ1,3*%
%TO.N,3V3_ATM*%
G36*
X127495398Y-103789000D02*
G01*
X127495398Y-103813534D01*
X127490588Y-103862365D01*
X127481016Y-103910490D01*
X127466772Y-103957445D01*
X127447995Y-104002778D01*
X127424864Y-104046051D01*
X127397604Y-104086850D01*
X127366476Y-104124779D01*
X127331779Y-104159476D01*
X127293850Y-104190604D01*
X127253051Y-104217864D01*
X127209778Y-104240995D01*
X127164445Y-104259772D01*
X127117490Y-104274016D01*
X127069365Y-104283588D01*
X127020534Y-104288398D01*
X126996000Y-104288398D01*
X126996000Y-104289000D01*
X126496000Y-104289000D01*
X126496000Y-104288398D01*
X126471466Y-104288398D01*
X126422635Y-104283588D01*
X126374510Y-104274016D01*
X126327555Y-104259772D01*
X126282222Y-104240995D01*
X126238949Y-104217864D01*
X126198150Y-104190604D01*
X126160221Y-104159476D01*
X126125524Y-104124779D01*
X126094396Y-104086850D01*
X126067136Y-104046051D01*
X126044005Y-104002778D01*
X126025228Y-103957445D01*
X126010984Y-103910490D01*
X126001412Y-103862365D01*
X125996602Y-103813534D01*
X125996602Y-103789000D01*
X125996000Y-103789000D01*
X125996000Y-103239000D01*
X127496000Y-103239000D01*
X127496000Y-103789000D01*
X127495398Y-103789000D01*
G37*
%TD.AperFunction*%
D18*
%TO.P,SJ1,2*%
%TO.N,Net-(SJ1-Pad2)*%
X126746000Y-102489000D03*
%TD*%
%TA.AperFunction,SMDPad,CuDef*%
D17*
%TO.P,SJ2,1*%
%TO.N,3V3_ATM*%
G36*
X123940000Y-103239000D02*
G01*
X123940000Y-103789000D01*
X123939398Y-103789000D01*
X123939398Y-103813534D01*
X123934588Y-103862365D01*
X123925016Y-103910490D01*
X123910772Y-103957445D01*
X123891995Y-104002778D01*
X123868864Y-104046051D01*
X123841604Y-104086850D01*
X123810476Y-104124779D01*
X123775779Y-104159476D01*
X123737850Y-104190604D01*
X123697051Y-104217864D01*
X123653778Y-104240995D01*
X123608445Y-104259772D01*
X123561490Y-104274016D01*
X123513365Y-104283588D01*
X123464534Y-104288398D01*
X123440000Y-104288398D01*
X123440000Y-104289000D01*
X122940000Y-104289000D01*
X122940000Y-104288398D01*
X122915466Y-104288398D01*
X122866635Y-104283588D01*
X122818510Y-104274016D01*
X122771555Y-104259772D01*
X122726222Y-104240995D01*
X122682949Y-104217864D01*
X122642150Y-104190604D01*
X122604221Y-104159476D01*
X122569524Y-104124779D01*
X122538396Y-104086850D01*
X122511136Y-104046051D01*
X122488005Y-104002778D01*
X122469228Y-103957445D01*
X122454984Y-103910490D01*
X122445412Y-103862365D01*
X122440602Y-103813534D01*
X122440602Y-103789000D01*
X122440000Y-103789000D01*
X122440000Y-103239000D01*
X123940000Y-103239000D01*
G37*
%TD.AperFunction*%
%TA.AperFunction,SMDPad,CuDef*%
%TO.P,SJ2,3*%
%TO.N,GND*%
G36*
X122440602Y-101189000D02*
G01*
X122440602Y-101164466D01*
X122445412Y-101115635D01*
X122454984Y-101067510D01*
X122469228Y-101020555D01*
X122488005Y-100975222D01*
X122511136Y-100931949D01*
X122538396Y-100891150D01*
X122569524Y-100853221D01*
X122604221Y-100818524D01*
X122642150Y-100787396D01*
X122682949Y-100760136D01*
X122726222Y-100737005D01*
X122771555Y-100718228D01*
X122818510Y-100703984D01*
X122866635Y-100694412D01*
X122915466Y-100689602D01*
X122940000Y-100689602D01*
X122940000Y-100689000D01*
X123440000Y-100689000D01*
X123440000Y-100689602D01*
X123464534Y-100689602D01*
X123513365Y-100694412D01*
X123561490Y-100703984D01*
X123608445Y-100718228D01*
X123653778Y-100737005D01*
X123697051Y-100760136D01*
X123737850Y-100787396D01*
X123775779Y-100818524D01*
X123810476Y-100853221D01*
X123841604Y-100891150D01*
X123868864Y-100931949D01*
X123891995Y-100975222D01*
X123910772Y-101020555D01*
X123925016Y-101067510D01*
X123934588Y-101115635D01*
X123939398Y-101164466D01*
X123939398Y-101189000D01*
X123940000Y-101189000D01*
X123940000Y-101739000D01*
X122440000Y-101739000D01*
X122440000Y-101189000D01*
X122440602Y-101189000D01*
G37*
%TD.AperFunction*%
D18*
%TO.P,SJ2,2*%
%TO.N,Net-(SJ2-Pad2)*%
X123190000Y-102489000D03*
%TD*%
%TO.P,SJ3,2*%
%TO.N,Net-(SJ3-Pad2)*%
X83693000Y-97155000D03*
%TA.AperFunction,SMDPad,CuDef*%
D17*
%TO.P,SJ3,3*%
%TO.N,3V3_ATM*%
G36*
X84442398Y-98455000D02*
G01*
X84442398Y-98479534D01*
X84437588Y-98528365D01*
X84428016Y-98576490D01*
X84413772Y-98623445D01*
X84394995Y-98668778D01*
X84371864Y-98712051D01*
X84344604Y-98752850D01*
X84313476Y-98790779D01*
X84278779Y-98825476D01*
X84240850Y-98856604D01*
X84200051Y-98883864D01*
X84156778Y-98906995D01*
X84111445Y-98925772D01*
X84064490Y-98940016D01*
X84016365Y-98949588D01*
X83967534Y-98954398D01*
X83943000Y-98954398D01*
X83943000Y-98955000D01*
X83443000Y-98955000D01*
X83443000Y-98954398D01*
X83418466Y-98954398D01*
X83369635Y-98949588D01*
X83321510Y-98940016D01*
X83274555Y-98925772D01*
X83229222Y-98906995D01*
X83185949Y-98883864D01*
X83145150Y-98856604D01*
X83107221Y-98825476D01*
X83072524Y-98790779D01*
X83041396Y-98752850D01*
X83014136Y-98712051D01*
X82991005Y-98668778D01*
X82972228Y-98623445D01*
X82957984Y-98576490D01*
X82948412Y-98528365D01*
X82943602Y-98479534D01*
X82943602Y-98455000D01*
X82943000Y-98455000D01*
X82943000Y-97905000D01*
X84443000Y-97905000D01*
X84443000Y-98455000D01*
X84442398Y-98455000D01*
G37*
%TD.AperFunction*%
%TA.AperFunction,SMDPad,CuDef*%
%TO.P,SJ3,1*%
%TO.N,GND*%
G36*
X82943000Y-96405000D02*
G01*
X82943000Y-95855000D01*
X82943602Y-95855000D01*
X82943602Y-95830466D01*
X82948412Y-95781635D01*
X82957984Y-95733510D01*
X82972228Y-95686555D01*
X82991005Y-95641222D01*
X83014136Y-95597949D01*
X83041396Y-95557150D01*
X83072524Y-95519221D01*
X83107221Y-95484524D01*
X83145150Y-95453396D01*
X83185949Y-95426136D01*
X83229222Y-95403005D01*
X83274555Y-95384228D01*
X83321510Y-95369984D01*
X83369635Y-95360412D01*
X83418466Y-95355602D01*
X83443000Y-95355602D01*
X83443000Y-95355000D01*
X83943000Y-95355000D01*
X83943000Y-95355602D01*
X83967534Y-95355602D01*
X84016365Y-95360412D01*
X84064490Y-95369984D01*
X84111445Y-95384228D01*
X84156778Y-95403005D01*
X84200051Y-95426136D01*
X84240850Y-95453396D01*
X84278779Y-95484524D01*
X84313476Y-95519221D01*
X84344604Y-95557150D01*
X84371864Y-95597949D01*
X84394995Y-95641222D01*
X84413772Y-95686555D01*
X84428016Y-95733510D01*
X84437588Y-95781635D01*
X84442398Y-95830466D01*
X84442398Y-95855000D01*
X84443000Y-95855000D01*
X84443000Y-96405000D01*
X82943000Y-96405000D01*
G37*
%TD.AperFunction*%
%TD*%
D19*
%TO.P,TP1,1*%
%TO.N,GND*%
X73279000Y-88265000D03*
%TD*%
%TO.P,TP2,1*%
%TO.N,3V3_ESP*%
X73279000Y-83439000D03*
%TD*%
D20*
%TO.P,U1,39*%
%TO.N,GND*%
X95266000Y-75699000D03*
D21*
%TO.P,U1,1*%
X87766000Y-68199000D03*
%TO.P,U1,2*%
%TO.N,3V3_ESP*%
X87766000Y-69469000D03*
%TO.P,U1,3*%
%TO.N,Reset*%
X87766000Y-70739000D03*
%TO.P,U1,4*%
%TO.N,N/C*%
X87766000Y-72009000D03*
%TO.P,U1,5*%
X87766000Y-73279000D03*
%TO.P,U1,6*%
%TO.N,ADC1*%
X87766000Y-74549000D03*
%TO.P,U1,7*%
%TO.N,ADC2*%
X87766000Y-75819000D03*
%TO.P,U1,8*%
%TO.N,N/C*%
X87766000Y-77089000D03*
%TO.P,U1,9*%
X87766000Y-78359000D03*
%TO.P,U1,10*%
X87766000Y-79629000D03*
%TO.P,U1,11*%
X87766000Y-80899000D03*
%TO.P,U1,12*%
X87766000Y-82169000D03*
%TO.P,U1,13*%
X87766000Y-83439000D03*
%TO.P,U1,14*%
X87766000Y-84709000D03*
D22*
%TO.P,U1,15*%
%TO.N,GND*%
X90551000Y-85709000D03*
%TO.P,U1,16*%
%TO.N,N/C*%
X91821000Y-85709000D03*
%TO.P,U1,17*%
X93091000Y-85709000D03*
%TO.P,U1,18*%
X94361000Y-85709000D03*
%TO.P,U1,19*%
X95631000Y-85709000D03*
%TO.P,U1,20*%
X96901000Y-85709000D03*
%TO.P,U1,21*%
X98171000Y-85709000D03*
%TO.P,U1,22*%
X99441000Y-85709000D03*
%TO.P,U1,23*%
X100711000Y-85709000D03*
%TO.P,U1,24*%
X101981000Y-85709000D03*
D21*
%TO.P,U1,25*%
%TO.N,GPIO0*%
X104766000Y-84709000D03*
%TO.P,U1,26*%
%TO.N,N/C*%
X104766000Y-83439000D03*
%TO.P,U1,27*%
%TO.N,ESP_RX1*%
X104766000Y-82169000D03*
%TO.P,U1,28*%
%TO.N,ESP_TX1*%
X104766000Y-80899000D03*
%TO.P,U1,29*%
%TO.N,N/C*%
X104766000Y-79629000D03*
%TO.P,U1,30*%
X104766000Y-78359000D03*
%TO.P,U1,31*%
X104766000Y-77089000D03*
%TO.P,U1,32*%
X104766000Y-75819000D03*
%TO.P,U1,33*%
X104766000Y-74549000D03*
%TO.P,U1,34*%
%TO.N,RX*%
X104766000Y-73279000D03*
%TO.P,U1,35*%
%TO.N,TX*%
X104766000Y-72009000D03*
%TO.P,U1,36*%
%TO.N,N/C*%
X104766000Y-70739000D03*
%TO.P,U1,37*%
X104766000Y-69469000D03*
%TO.P,U1,38*%
%TO.N,GND*%
X104766000Y-68199000D03*
%TD*%
D23*
%TO.P,Y1,1*%
%TO.N,/OSCI*%
X132556500Y-81407000D03*
%TO.P,Y1,2*%
%TO.N,/OSCO*%
X120681500Y-81407000D03*
%TD*%
D24*
%TO.P,U3,2*%
%TO.N,Net-(C4-Pad1)*%
X123165000Y-70739000D03*
D25*
X116865000Y-70739000D03*
%TO.P,U3,3*%
%TO.N,Net-(C5-Pad1)*%
X116865000Y-73039000D03*
%TO.P,U3,1*%
%TO.N,GND*%
X116865000Y-68439000D03*
%TD*%
D26*
%TO.P,U2,28*%
%TO.N,Net-(SJ3-Pad2)*%
X103605000Y-89882000D03*
%TO.P,U2,27*%
%TO.N,ESP_TX1*%
X103605000Y-90532000D03*
%TO.P,U2,26*%
%TO.N,ESP_RX1*%
X103605000Y-91182000D03*
%TO.P,U2,25*%
%TO.N,N/C*%
X103605000Y-91832000D03*
%TO.P,U2,24*%
X103605000Y-92482000D03*
%TO.P,U2,23*%
%TO.N,/OSCO*%
X103605000Y-93132000D03*
%TO.P,U2,22*%
%TO.N,/OSCI*%
X103605000Y-93782000D03*
%TO.P,U2,20*%
%TO.N,N/C*%
X103605000Y-95082000D03*
%TO.P,U2,21*%
X103605000Y-94432000D03*
%TO.P,U2,19*%
X103605000Y-95732000D03*
%TO.P,U2,18*%
X103605000Y-96382000D03*
%TO.P,U2,17*%
X103605000Y-97032000D03*
%TO.P,U2,16*%
%TO.N,VP*%
X103605000Y-97682000D03*
%TO.P,U2,15*%
%TO.N,VN*%
X103605000Y-98332000D03*
%TO.P,U2,1*%
%TO.N,Net-(SJ2-Pad2)*%
X96293000Y-89882000D03*
%TO.P,U2,2*%
%TO.N,GND*%
X96293000Y-90532000D03*
%TO.P,U2,3*%
%TO.N,3V3_ATM*%
X96293000Y-91182000D03*
%TO.P,U2,4*%
X96293000Y-91832000D03*
%TO.P,U2,5*%
X96293000Y-92482000D03*
%TO.P,U2,6*%
%TO.N,GND*%
X96293000Y-93132000D03*
%TO.P,U2,7*%
%TO.N,N/C*%
X96293000Y-93782000D03*
%TO.P,U2,8*%
X96293000Y-94432000D03*
%TO.P,U2,9*%
%TO.N,GND*%
X96293000Y-95082000D03*
%TO.P,U2,10*%
%TO.N,I1N*%
X96293000Y-95732000D03*
%TO.P,U2,11*%
%TO.N,I1P*%
X96293000Y-96382000D03*
%TO.P,U2,12*%
%TO.N,Net-(SJ1-Pad2)*%
X96293000Y-97032000D03*
%TO.P,U2,13*%
%TO.N,Net-(C16-Pad1)*%
X96293000Y-97682000D03*
%TO.P,U2,14*%
%TO.N,GND*%
X96293000Y-98332000D03*
%TD*%
D27*
%TO.P,J1,S*%
%TO.N,CS*%
X123853000Y-110669000D03*
%TO.P,J1,T*%
%TO.N,CT*%
X124953000Y-117169000D03*
%TO.P,J1,R1*%
%TO.N,N/C*%
X128953000Y-117169000D03*
%TO.P,J1,R2*%
X131953000Y-117169000D03*
%TD*%
%TO.P,C1,2*%
%TO.N,GND*%
%TA.AperFunction,SMDPad,CuDef*%
G36*
G01*
X124069000Y-129781000D02*
X122819000Y-129781000D01*
G75*
G02*
X122569000Y-129531000I0J250000D01*
G01*
X122569000Y-128606000D01*
G75*
G02*
X122819000Y-128356000I250000J0D01*
G01*
X124069000Y-128356000D01*
G75*
G02*
X124319000Y-128606000I0J-250000D01*
G01*
X124319000Y-129531000D01*
G75*
G02*
X124069000Y-129781000I-250000J0D01*
G01*
G37*
%TD.AperFunction*%
%TO.P,C1,1*%
%TO.N,Net-(C1-Pad1)*%
%TA.AperFunction,SMDPad,CuDef*%
G36*
G01*
X124069000Y-132756000D02*
X122819000Y-132756000D01*
G75*
G02*
X122569000Y-132506000I0J250000D01*
G01*
X122569000Y-131581000D01*
G75*
G02*
X122819000Y-131331000I250000J0D01*
G01*
X124069000Y-131331000D01*
G75*
G02*
X124319000Y-131581000I0J-250000D01*
G01*
X124319000Y-132506000D01*
G75*
G02*
X124069000Y-132756000I-250000J0D01*
G01*
G37*
%TD.AperFunction*%
%TD*%
%TO.P,C2,1*%
%TO.N,Net-(C2-Pad1)*%
%TA.AperFunction,SMDPad,CuDef*%
G36*
G01*
X105623000Y-107178000D02*
X105623000Y-105928000D01*
G75*
G02*
X105873000Y-105678000I250000J0D01*
G01*
X106798000Y-105678000D01*
G75*
G02*
X107048000Y-105928000I0J-250000D01*
G01*
X107048000Y-107178000D01*
G75*
G02*
X106798000Y-107428000I-250000J0D01*
G01*
X105873000Y-107428000D01*
G75*
G02*
X105623000Y-107178000I0J250000D01*
G01*
G37*
%TD.AperFunction*%
%TO.P,C2,2*%
%TO.N,GND*%
%TA.AperFunction,SMDPad,CuDef*%
G36*
G01*
X108598000Y-107178000D02*
X108598000Y-105928000D01*
G75*
G02*
X108848000Y-105678000I250000J0D01*
G01*
X109773000Y-105678000D01*
G75*
G02*
X110023000Y-105928000I0J-250000D01*
G01*
X110023000Y-107178000D01*
G75*
G02*
X109773000Y-107428000I-250000J0D01*
G01*
X108848000Y-107428000D01*
G75*
G02*
X108598000Y-107178000I0J250000D01*
G01*
G37*
%TD.AperFunction*%
%TD*%
%TO.P,C3,1*%
%TO.N,GND*%
%TA.AperFunction,SMDPad,CuDef*%
G36*
G01*
X75997000Y-78555001D02*
X75997000Y-77654999D01*
G75*
G02*
X76246999Y-77405000I249999J0D01*
G01*
X76897001Y-77405000D01*
G75*
G02*
X77147000Y-77654999I0J-249999D01*
G01*
X77147000Y-78555001D01*
G75*
G02*
X76897001Y-78805000I-249999J0D01*
G01*
X76246999Y-78805000D01*
G75*
G02*
X75997000Y-78555001I0J249999D01*
G01*
G37*
%TD.AperFunction*%
%TO.P,C3,2*%
%TO.N,3V3_ESP*%
%TA.AperFunction,SMDPad,CuDef*%
G36*
G01*
X78047000Y-78555001D02*
X78047000Y-77654999D01*
G75*
G02*
X78296999Y-77405000I249999J0D01*
G01*
X78947001Y-77405000D01*
G75*
G02*
X79197000Y-77654999I0J-249999D01*
G01*
X79197000Y-78555001D01*
G75*
G02*
X78947001Y-78805000I-249999J0D01*
G01*
X78296999Y-78805000D01*
G75*
G02*
X78047000Y-78555001I0J249999D01*
G01*
G37*
%TD.AperFunction*%
%TD*%
%TO.P,C4,1*%
%TO.N,Net-(C4-Pad1)*%
%TA.AperFunction,SMDPad,CuDef*%
G36*
G01*
X114115001Y-70688000D02*
X113214999Y-70688000D01*
G75*
G02*
X112965000Y-70438001I0J249999D01*
G01*
X112965000Y-69787999D01*
G75*
G02*
X113214999Y-69538000I249999J0D01*
G01*
X114115001Y-69538000D01*
G75*
G02*
X114365000Y-69787999I0J-249999D01*
G01*
X114365000Y-70438001D01*
G75*
G02*
X114115001Y-70688000I-249999J0D01*
G01*
G37*
%TD.AperFunction*%
%TO.P,C4,2*%
%TO.N,GND*%
%TA.AperFunction,SMDPad,CuDef*%
G36*
G01*
X114115001Y-68638000D02*
X113214999Y-68638000D01*
G75*
G02*
X112965000Y-68388001I0J249999D01*
G01*
X112965000Y-67737999D01*
G75*
G02*
X113214999Y-67488000I249999J0D01*
G01*
X114115001Y-67488000D01*
G75*
G02*
X114365000Y-67737999I0J-249999D01*
G01*
X114365000Y-68388001D01*
G75*
G02*
X114115001Y-68638000I-249999J0D01*
G01*
G37*
%TD.AperFunction*%
%TD*%
%TO.P,C5,1*%
%TO.N,Net-(C5-Pad1)*%
%TA.AperFunction,SMDPad,CuDef*%
G36*
G01*
X127323001Y-70942000D02*
X126422999Y-70942000D01*
G75*
G02*
X126173000Y-70692001I0J249999D01*
G01*
X126173000Y-70041999D01*
G75*
G02*
X126422999Y-69792000I249999J0D01*
G01*
X127323001Y-69792000D01*
G75*
G02*
X127573000Y-70041999I0J-249999D01*
G01*
X127573000Y-70692001D01*
G75*
G02*
X127323001Y-70942000I-249999J0D01*
G01*
G37*
%TD.AperFunction*%
%TO.P,C5,2*%
%TO.N,GND*%
%TA.AperFunction,SMDPad,CuDef*%
G36*
G01*
X127323001Y-68892000D02*
X126422999Y-68892000D01*
G75*
G02*
X126173000Y-68642001I0J249999D01*
G01*
X126173000Y-67991999D01*
G75*
G02*
X126422999Y-67742000I249999J0D01*
G01*
X127323001Y-67742000D01*
G75*
G02*
X127573000Y-67991999I0J-249999D01*
G01*
X127573000Y-68642001D01*
G75*
G02*
X127323001Y-68892000I-249999J0D01*
G01*
G37*
%TD.AperFunction*%
%TD*%
%TO.P,C6,2*%
%TO.N,GND*%
%TA.AperFunction,SMDPad,CuDef*%
G36*
G01*
X126422999Y-75126000D02*
X127323001Y-75126000D01*
G75*
G02*
X127573000Y-75375999I0J-249999D01*
G01*
X127573000Y-76026001D01*
G75*
G02*
X127323001Y-76276000I-249999J0D01*
G01*
X126422999Y-76276000D01*
G75*
G02*
X126173000Y-76026001I0J249999D01*
G01*
X126173000Y-75375999D01*
G75*
G02*
X126422999Y-75126000I249999J0D01*
G01*
G37*
%TD.AperFunction*%
%TO.P,C6,1*%
%TO.N,Net-(C5-Pad1)*%
%TA.AperFunction,SMDPad,CuDef*%
G36*
G01*
X126422999Y-73076000D02*
X127323001Y-73076000D01*
G75*
G02*
X127573000Y-73325999I0J-249999D01*
G01*
X127573000Y-73976001D01*
G75*
G02*
X127323001Y-74226000I-249999J0D01*
G01*
X126422999Y-74226000D01*
G75*
G02*
X126173000Y-73976001I0J249999D01*
G01*
X126173000Y-73325999D01*
G75*
G02*
X126422999Y-73076000I249999J0D01*
G01*
G37*
%TD.AperFunction*%
%TD*%
%TO.P,C7,2*%
%TO.N,GND*%
%TA.AperFunction,SMDPad,CuDef*%
G36*
G01*
X73972000Y-94545999D02*
X73972000Y-95446001D01*
G75*
G02*
X73722001Y-95696000I-249999J0D01*
G01*
X73071999Y-95696000D01*
G75*
G02*
X72822000Y-95446001I0J249999D01*
G01*
X72822000Y-94545999D01*
G75*
G02*
X73071999Y-94296000I249999J0D01*
G01*
X73722001Y-94296000D01*
G75*
G02*
X73972000Y-94545999I0J-249999D01*
G01*
G37*
%TD.AperFunction*%
%TO.P,C7,1*%
%TO.N,3V3_ATM*%
%TA.AperFunction,SMDPad,CuDef*%
G36*
G01*
X76022000Y-94545999D02*
X76022000Y-95446001D01*
G75*
G02*
X75772001Y-95696000I-249999J0D01*
G01*
X75121999Y-95696000D01*
G75*
G02*
X74872000Y-95446001I0J249999D01*
G01*
X74872000Y-94545999D01*
G75*
G02*
X75121999Y-94296000I249999J0D01*
G01*
X75772001Y-94296000D01*
G75*
G02*
X76022000Y-94545999I0J-249999D01*
G01*
G37*
%TD.AperFunction*%
%TD*%
%TO.P,C8,1*%
%TO.N,GND*%
%TA.AperFunction,SMDPad,CuDef*%
G36*
G01*
X118814001Y-109169000D02*
X117913999Y-109169000D01*
G75*
G02*
X117664000Y-108919001I0J249999D01*
G01*
X117664000Y-108268999D01*
G75*
G02*
X117913999Y-108019000I249999J0D01*
G01*
X118814001Y-108019000D01*
G75*
G02*
X119064000Y-108268999I0J-249999D01*
G01*
X119064000Y-108919001D01*
G75*
G02*
X118814001Y-109169000I-249999J0D01*
G01*
G37*
%TD.AperFunction*%
%TO.P,C8,2*%
%TO.N,I1N*%
%TA.AperFunction,SMDPad,CuDef*%
G36*
G01*
X118814001Y-107119000D02*
X117913999Y-107119000D01*
G75*
G02*
X117664000Y-106869001I0J249999D01*
G01*
X117664000Y-106218999D01*
G75*
G02*
X117913999Y-105969000I249999J0D01*
G01*
X118814001Y-105969000D01*
G75*
G02*
X119064000Y-106218999I0J-249999D01*
G01*
X119064000Y-106869001D01*
G75*
G02*
X118814001Y-107119000I-249999J0D01*
G01*
G37*
%TD.AperFunction*%
%TD*%
%TO.P,C9,2*%
%TO.N,VN*%
%TA.AperFunction,SMDPad,CuDef*%
G36*
G01*
X129724999Y-88715000D02*
X130625001Y-88715000D01*
G75*
G02*
X130875000Y-88964999I0J-249999D01*
G01*
X130875000Y-89615001D01*
G75*
G02*
X130625001Y-89865000I-249999J0D01*
G01*
X129724999Y-89865000D01*
G75*
G02*
X129475000Y-89615001I0J249999D01*
G01*
X129475000Y-88964999D01*
G75*
G02*
X129724999Y-88715000I249999J0D01*
G01*
G37*
%TD.AperFunction*%
%TO.P,C9,1*%
%TO.N,GND*%
%TA.AperFunction,SMDPad,CuDef*%
G36*
G01*
X129724999Y-86665000D02*
X130625001Y-86665000D01*
G75*
G02*
X130875000Y-86914999I0J-249999D01*
G01*
X130875000Y-87565001D01*
G75*
G02*
X130625001Y-87815000I-249999J0D01*
G01*
X129724999Y-87815000D01*
G75*
G02*
X129475000Y-87565001I0J249999D01*
G01*
X129475000Y-86914999D01*
G75*
G02*
X129724999Y-86665000I249999J0D01*
G01*
G37*
%TD.AperFunction*%
%TD*%
%TO.P,C10,2*%
%TO.N,VP*%
%TA.AperFunction,SMDPad,CuDef*%
G36*
G01*
X132645999Y-88715000D02*
X133546001Y-88715000D01*
G75*
G02*
X133796000Y-88964999I0J-249999D01*
G01*
X133796000Y-89615001D01*
G75*
G02*
X133546001Y-89865000I-249999J0D01*
G01*
X132645999Y-89865000D01*
G75*
G02*
X132396000Y-89615001I0J249999D01*
G01*
X132396000Y-88964999D01*
G75*
G02*
X132645999Y-88715000I249999J0D01*
G01*
G37*
%TD.AperFunction*%
%TO.P,C10,1*%
%TO.N,GND*%
%TA.AperFunction,SMDPad,CuDef*%
G36*
G01*
X132645999Y-86665000D02*
X133546001Y-86665000D01*
G75*
G02*
X133796000Y-86914999I0J-249999D01*
G01*
X133796000Y-87565001D01*
G75*
G02*
X133546001Y-87815000I-249999J0D01*
G01*
X132645999Y-87815000D01*
G75*
G02*
X132396000Y-87565001I0J249999D01*
G01*
X132396000Y-86914999D01*
G75*
G02*
X132645999Y-86665000I249999J0D01*
G01*
G37*
%TD.AperFunction*%
%TD*%
%TO.P,C11,1*%
%TO.N,GND*%
%TA.AperFunction,SMDPad,CuDef*%
G36*
G01*
X118040999Y-89459000D02*
X118941001Y-89459000D01*
G75*
G02*
X119191000Y-89708999I0J-249999D01*
G01*
X119191000Y-90359001D01*
G75*
G02*
X118941001Y-90609000I-249999J0D01*
G01*
X118040999Y-90609000D01*
G75*
G02*
X117791000Y-90359001I0J249999D01*
G01*
X117791000Y-89708999D01*
G75*
G02*
X118040999Y-89459000I249999J0D01*
G01*
G37*
%TD.AperFunction*%
%TO.P,C11,2*%
%TO.N,/OSCI*%
%TA.AperFunction,SMDPad,CuDef*%
G36*
G01*
X118040999Y-91509000D02*
X118941001Y-91509000D01*
G75*
G02*
X119191000Y-91758999I0J-249999D01*
G01*
X119191000Y-92409001D01*
G75*
G02*
X118941001Y-92659000I-249999J0D01*
G01*
X118040999Y-92659000D01*
G75*
G02*
X117791000Y-92409001I0J249999D01*
G01*
X117791000Y-91758999D01*
G75*
G02*
X118040999Y-91509000I249999J0D01*
G01*
G37*
%TD.AperFunction*%
%TD*%
%TO.P,C12,2*%
%TO.N,/OSCO*%
%TA.AperFunction,SMDPad,CuDef*%
G36*
G01*
X111817999Y-90239000D02*
X112718001Y-90239000D01*
G75*
G02*
X112968000Y-90488999I0J-249999D01*
G01*
X112968000Y-91139001D01*
G75*
G02*
X112718001Y-91389000I-249999J0D01*
G01*
X111817999Y-91389000D01*
G75*
G02*
X111568000Y-91139001I0J249999D01*
G01*
X111568000Y-90488999D01*
G75*
G02*
X111817999Y-90239000I249999J0D01*
G01*
G37*
%TD.AperFunction*%
%TO.P,C12,1*%
%TO.N,GND*%
%TA.AperFunction,SMDPad,CuDef*%
G36*
G01*
X111817999Y-88189000D02*
X112718001Y-88189000D01*
G75*
G02*
X112968000Y-88438999I0J-249999D01*
G01*
X112968000Y-89089001D01*
G75*
G02*
X112718001Y-89339000I-249999J0D01*
G01*
X111817999Y-89339000D01*
G75*
G02*
X111568000Y-89089001I0J249999D01*
G01*
X111568000Y-88438999D01*
G75*
G02*
X111817999Y-88189000I249999J0D01*
G01*
G37*
%TD.AperFunction*%
%TD*%
%TO.P,C13,1*%
%TO.N,GND*%
%TA.AperFunction,SMDPad,CuDef*%
G36*
G01*
X72822000Y-92652001D02*
X72822000Y-91751999D01*
G75*
G02*
X73071999Y-91502000I249999J0D01*
G01*
X73722001Y-91502000D01*
G75*
G02*
X73972000Y-91751999I0J-249999D01*
G01*
X73972000Y-92652001D01*
G75*
G02*
X73722001Y-92902000I-249999J0D01*
G01*
X73071999Y-92902000D01*
G75*
G02*
X72822000Y-92652001I0J249999D01*
G01*
G37*
%TD.AperFunction*%
%TO.P,C13,2*%
%TO.N,3V3_ATM*%
%TA.AperFunction,SMDPad,CuDef*%
G36*
G01*
X74872000Y-92652001D02*
X74872000Y-91751999D01*
G75*
G02*
X75121999Y-91502000I249999J0D01*
G01*
X75772001Y-91502000D01*
G75*
G02*
X76022000Y-91751999I0J-249999D01*
G01*
X76022000Y-92652001D01*
G75*
G02*
X75772001Y-92902000I-249999J0D01*
G01*
X75121999Y-92902000D01*
G75*
G02*
X74872000Y-92652001I0J249999D01*
G01*
G37*
%TD.AperFunction*%
%TD*%
%TO.P,C15,1*%
%TO.N,3V3_ATM*%
%TA.AperFunction,SMDPad,CuDef*%
G36*
G01*
X76022000Y-97339999D02*
X76022000Y-98240001D01*
G75*
G02*
X75772001Y-98490000I-249999J0D01*
G01*
X75121999Y-98490000D01*
G75*
G02*
X74872000Y-98240001I0J249999D01*
G01*
X74872000Y-97339999D01*
G75*
G02*
X75121999Y-97090000I249999J0D01*
G01*
X75772001Y-97090000D01*
G75*
G02*
X76022000Y-97339999I0J-249999D01*
G01*
G37*
%TD.AperFunction*%
%TO.P,C15,2*%
%TO.N,GND*%
%TA.AperFunction,SMDPad,CuDef*%
G36*
G01*
X73972000Y-97339999D02*
X73972000Y-98240001D01*
G75*
G02*
X73722001Y-98490000I-249999J0D01*
G01*
X73071999Y-98490000D01*
G75*
G02*
X72822000Y-98240001I0J249999D01*
G01*
X72822000Y-97339999D01*
G75*
G02*
X73071999Y-97090000I249999J0D01*
G01*
X73722001Y-97090000D01*
G75*
G02*
X73972000Y-97339999I0J-249999D01*
G01*
G37*
%TD.AperFunction*%
%TD*%
%TO.P,C16,2*%
%TO.N,GND*%
%TA.AperFunction,SMDPad,CuDef*%
G36*
G01*
X81591999Y-91636000D02*
X82492001Y-91636000D01*
G75*
G02*
X82742000Y-91885999I0J-249999D01*
G01*
X82742000Y-92536001D01*
G75*
G02*
X82492001Y-92786000I-249999J0D01*
G01*
X81591999Y-92786000D01*
G75*
G02*
X81342000Y-92536001I0J249999D01*
G01*
X81342000Y-91885999D01*
G75*
G02*
X81591999Y-91636000I249999J0D01*
G01*
G37*
%TD.AperFunction*%
%TO.P,C16,1*%
%TO.N,Net-(C16-Pad1)*%
%TA.AperFunction,SMDPad,CuDef*%
G36*
G01*
X81591999Y-89586000D02*
X82492001Y-89586000D01*
G75*
G02*
X82742000Y-89835999I0J-249999D01*
G01*
X82742000Y-90486001D01*
G75*
G02*
X82492001Y-90736000I-249999J0D01*
G01*
X81591999Y-90736000D01*
G75*
G02*
X81342000Y-90486001I0J249999D01*
G01*
X81342000Y-89835999D01*
G75*
G02*
X81591999Y-89586000I249999J0D01*
G01*
G37*
%TD.AperFunction*%
%TD*%
%TO.P,C17,1*%
%TO.N,Net-(C16-Pad1)*%
%TA.AperFunction,SMDPad,CuDef*%
G36*
G01*
X85147999Y-89586000D02*
X86048001Y-89586000D01*
G75*
G02*
X86298000Y-89835999I0J-249999D01*
G01*
X86298000Y-90486001D01*
G75*
G02*
X86048001Y-90736000I-249999J0D01*
G01*
X85147999Y-90736000D01*
G75*
G02*
X84898000Y-90486001I0J249999D01*
G01*
X84898000Y-89835999D01*
G75*
G02*
X85147999Y-89586000I249999J0D01*
G01*
G37*
%TD.AperFunction*%
%TO.P,C17,2*%
%TO.N,GND*%
%TA.AperFunction,SMDPad,CuDef*%
G36*
G01*
X85147999Y-91636000D02*
X86048001Y-91636000D01*
G75*
G02*
X86298000Y-91885999I0J-249999D01*
G01*
X86298000Y-92536001D01*
G75*
G02*
X86048001Y-92786000I-249999J0D01*
G01*
X85147999Y-92786000D01*
G75*
G02*
X84898000Y-92536001I0J249999D01*
G01*
X84898000Y-91885999D01*
G75*
G02*
X85147999Y-91636000I249999J0D01*
G01*
G37*
%TD.AperFunction*%
%TD*%
%TO.P,C18,2*%
%TO.N,GND*%
%TA.AperFunction,SMDPad,CuDef*%
G36*
G01*
X114738999Y-108019000D02*
X115639001Y-108019000D01*
G75*
G02*
X115889000Y-108268999I0J-249999D01*
G01*
X115889000Y-108919001D01*
G75*
G02*
X115639001Y-109169000I-249999J0D01*
G01*
X114738999Y-109169000D01*
G75*
G02*
X114489000Y-108919001I0J249999D01*
G01*
X114489000Y-108268999D01*
G75*
G02*
X114738999Y-108019000I249999J0D01*
G01*
G37*
%TD.AperFunction*%
%TO.P,C18,1*%
%TO.N,I1P*%
%TA.AperFunction,SMDPad,CuDef*%
G36*
G01*
X114738999Y-105969000D02*
X115639001Y-105969000D01*
G75*
G02*
X115889000Y-106218999I0J-249999D01*
G01*
X115889000Y-106869001D01*
G75*
G02*
X115639001Y-107119000I-249999J0D01*
G01*
X114738999Y-107119000D01*
G75*
G02*
X114489000Y-106869001I0J249999D01*
G01*
X114489000Y-106218999D01*
G75*
G02*
X114738999Y-105969000I249999J0D01*
G01*
G37*
%TD.AperFunction*%
%TD*%
%TO.P,R2,2*%
%TO.N,Net-(C1-Pad1)*%
%TA.AperFunction,SMDPad,CuDef*%
G36*
G01*
X129725000Y-124263999D02*
X129725000Y-125164001D01*
G75*
G02*
X129475001Y-125414000I-249999J0D01*
G01*
X128824999Y-125414000D01*
G75*
G02*
X128575000Y-125164001I0J249999D01*
G01*
X128575000Y-124263999D01*
G75*
G02*
X128824999Y-124014000I249999J0D01*
G01*
X129475001Y-124014000D01*
G75*
G02*
X129725000Y-124263999I0J-249999D01*
G01*
G37*
%TD.AperFunction*%
%TO.P,R2,1*%
%TO.N,3V3_ESP*%
%TA.AperFunction,SMDPad,CuDef*%
G36*
G01*
X131775000Y-124263999D02*
X131775000Y-125164001D01*
G75*
G02*
X131525001Y-125414000I-249999J0D01*
G01*
X130874999Y-125414000D01*
G75*
G02*
X130625000Y-125164001I0J249999D01*
G01*
X130625000Y-124263999D01*
G75*
G02*
X130874999Y-124014000I249999J0D01*
G01*
X131525001Y-124014000D01*
G75*
G02*
X131775000Y-124263999I0J-249999D01*
G01*
G37*
%TD.AperFunction*%
%TD*%
%TO.P,R3,1*%
%TO.N,Net-(C1-Pad1)*%
%TA.AperFunction,SMDPad,CuDef*%
G36*
G01*
X126187000Y-124263999D02*
X126187000Y-125164001D01*
G75*
G02*
X125937001Y-125414000I-249999J0D01*
G01*
X125286999Y-125414000D01*
G75*
G02*
X125037000Y-125164001I0J249999D01*
G01*
X125037000Y-124263999D01*
G75*
G02*
X125286999Y-124014000I249999J0D01*
G01*
X125937001Y-124014000D01*
G75*
G02*
X126187000Y-124263999I0J-249999D01*
G01*
G37*
%TD.AperFunction*%
%TO.P,R3,2*%
%TO.N,GND*%
%TA.AperFunction,SMDPad,CuDef*%
G36*
G01*
X124137000Y-124263999D02*
X124137000Y-125164001D01*
G75*
G02*
X123887001Y-125414000I-249999J0D01*
G01*
X123236999Y-125414000D01*
G75*
G02*
X122987000Y-125164001I0J249999D01*
G01*
X122987000Y-124263999D01*
G75*
G02*
X123236999Y-124014000I249999J0D01*
G01*
X123887001Y-124014000D01*
G75*
G02*
X124137000Y-124263999I0J-249999D01*
G01*
G37*
%TD.AperFunction*%
%TD*%
%TO.P,R5,1*%
%TO.N,Net-(C2-Pad1)*%
%TA.AperFunction,SMDPad,CuDef*%
G36*
G01*
X93668001Y-107645000D02*
X92767999Y-107645000D01*
G75*
G02*
X92518000Y-107395001I0J249999D01*
G01*
X92518000Y-106744999D01*
G75*
G02*
X92767999Y-106495000I249999J0D01*
G01*
X93668001Y-106495000D01*
G75*
G02*
X93918000Y-106744999I0J-249999D01*
G01*
X93918000Y-107395001D01*
G75*
G02*
X93668001Y-107645000I-249999J0D01*
G01*
G37*
%TD.AperFunction*%
%TO.P,R5,2*%
%TO.N,ADC2*%
%TA.AperFunction,SMDPad,CuDef*%
G36*
G01*
X93668001Y-105595000D02*
X92767999Y-105595000D01*
G75*
G02*
X92518000Y-105345001I0J249999D01*
G01*
X92518000Y-104694999D01*
G75*
G02*
X92767999Y-104445000I249999J0D01*
G01*
X93668001Y-104445000D01*
G75*
G02*
X93918000Y-104694999I0J-249999D01*
G01*
X93918000Y-105345001D01*
G75*
G02*
X93668001Y-105595000I-249999J0D01*
G01*
G37*
%TD.AperFunction*%
%TD*%
%TO.P,R6,2*%
%TO.N,Net-(C2-Pad1)*%
%TA.AperFunction,SMDPad,CuDef*%
G36*
G01*
X100515000Y-106864999D02*
X100515000Y-107765001D01*
G75*
G02*
X100265001Y-108015000I-249999J0D01*
G01*
X99614999Y-108015000D01*
G75*
G02*
X99365000Y-107765001I0J249999D01*
G01*
X99365000Y-106864999D01*
G75*
G02*
X99614999Y-106615000I249999J0D01*
G01*
X100265001Y-106615000D01*
G75*
G02*
X100515000Y-106864999I0J-249999D01*
G01*
G37*
%TD.AperFunction*%
%TO.P,R6,1*%
%TO.N,3V3_ESP*%
%TA.AperFunction,SMDPad,CuDef*%
G36*
G01*
X102565000Y-106864999D02*
X102565000Y-107765001D01*
G75*
G02*
X102315001Y-108015000I-249999J0D01*
G01*
X101664999Y-108015000D01*
G75*
G02*
X101415000Y-107765001I0J249999D01*
G01*
X101415000Y-106864999D01*
G75*
G02*
X101664999Y-106615000I249999J0D01*
G01*
X102315001Y-106615000D01*
G75*
G02*
X102565000Y-106864999I0J-249999D01*
G01*
G37*
%TD.AperFunction*%
%TD*%
%TO.P,R7,1*%
%TO.N,Net-(C2-Pad1)*%
%TA.AperFunction,SMDPad,CuDef*%
G36*
G01*
X99365000Y-105098001D02*
X99365000Y-104197999D01*
G75*
G02*
X99614999Y-103948000I249999J0D01*
G01*
X100265001Y-103948000D01*
G75*
G02*
X100515000Y-104197999I0J-249999D01*
G01*
X100515000Y-105098001D01*
G75*
G02*
X100265001Y-105348000I-249999J0D01*
G01*
X99614999Y-105348000D01*
G75*
G02*
X99365000Y-105098001I0J249999D01*
G01*
G37*
%TD.AperFunction*%
%TO.P,R7,2*%
%TO.N,GND*%
%TA.AperFunction,SMDPad,CuDef*%
G36*
G01*
X101415000Y-105098001D02*
X101415000Y-104197999D01*
G75*
G02*
X101664999Y-103948000I249999J0D01*
G01*
X102315001Y-103948000D01*
G75*
G02*
X102565000Y-104197999I0J-249999D01*
G01*
X102565000Y-105098001D01*
G75*
G02*
X102315001Y-105348000I-249999J0D01*
G01*
X101664999Y-105348000D01*
G75*
G02*
X101415000Y-105098001I0J249999D01*
G01*
G37*
%TD.AperFunction*%
%TD*%
%TO.P,R8,2*%
%TO.N,Reset*%
%TA.AperFunction,SMDPad,CuDef*%
G36*
G01*
X83635001Y-76258000D02*
X82734999Y-76258000D01*
G75*
G02*
X82485000Y-76008001I0J249999D01*
G01*
X82485000Y-75357999D01*
G75*
G02*
X82734999Y-75108000I249999J0D01*
G01*
X83635001Y-75108000D01*
G75*
G02*
X83885000Y-75357999I0J-249999D01*
G01*
X83885000Y-76008001D01*
G75*
G02*
X83635001Y-76258000I-249999J0D01*
G01*
G37*
%TD.AperFunction*%
%TO.P,R8,1*%
%TO.N,3V3_ESP*%
%TA.AperFunction,SMDPad,CuDef*%
G36*
G01*
X83635001Y-78308000D02*
X82734999Y-78308000D01*
G75*
G02*
X82485000Y-78058001I0J249999D01*
G01*
X82485000Y-77407999D01*
G75*
G02*
X82734999Y-77158000I249999J0D01*
G01*
X83635001Y-77158000D01*
G75*
G02*
X83885000Y-77407999I0J-249999D01*
G01*
X83885000Y-78058001D01*
G75*
G02*
X83635001Y-78308000I-249999J0D01*
G01*
G37*
%TD.AperFunction*%
%TD*%
%TO.P,R11,1*%
%TO.N,GND*%
%TA.AperFunction,SMDPad,CuDef*%
G36*
G01*
X133292001Y-95707000D02*
X132391999Y-95707000D01*
G75*
G02*
X132142000Y-95457001I0J249999D01*
G01*
X132142000Y-94806999D01*
G75*
G02*
X132391999Y-94557000I249999J0D01*
G01*
X133292001Y-94557000D01*
G75*
G02*
X133542000Y-94806999I0J-249999D01*
G01*
X133542000Y-95457001D01*
G75*
G02*
X133292001Y-95707000I-249999J0D01*
G01*
G37*
%TD.AperFunction*%
%TO.P,R11,2*%
%TO.N,VP*%
%TA.AperFunction,SMDPad,CuDef*%
G36*
G01*
X133292001Y-93657000D02*
X132391999Y-93657000D01*
G75*
G02*
X132142000Y-93407001I0J249999D01*
G01*
X132142000Y-92756999D01*
G75*
G02*
X132391999Y-92507000I249999J0D01*
G01*
X133292001Y-92507000D01*
G75*
G02*
X133542000Y-92756999I0J-249999D01*
G01*
X133542000Y-93407001D01*
G75*
G02*
X133292001Y-93657000I-249999J0D01*
G01*
G37*
%TD.AperFunction*%
%TD*%
%TO.P,R12,2*%
%TO.N,VN*%
%TA.AperFunction,SMDPad,CuDef*%
G36*
G01*
X130752001Y-93657000D02*
X129851999Y-93657000D01*
G75*
G02*
X129602000Y-93407001I0J249999D01*
G01*
X129602000Y-92756999D01*
G75*
G02*
X129851999Y-92507000I249999J0D01*
G01*
X130752001Y-92507000D01*
G75*
G02*
X131002000Y-92756999I0J-249999D01*
G01*
X131002000Y-93407001D01*
G75*
G02*
X130752001Y-93657000I-249999J0D01*
G01*
G37*
%TD.AperFunction*%
%TO.P,R12,1*%
%TO.N,GND*%
%TA.AperFunction,SMDPad,CuDef*%
G36*
G01*
X130752001Y-95707000D02*
X129851999Y-95707000D01*
G75*
G02*
X129602000Y-95457001I0J249999D01*
G01*
X129602000Y-94806999D01*
G75*
G02*
X129851999Y-94557000I249999J0D01*
G01*
X130752001Y-94557000D01*
G75*
G02*
X131002000Y-94806999I0J-249999D01*
G01*
X131002000Y-95457001D01*
G75*
G02*
X130752001Y-95707000I-249999J0D01*
G01*
G37*
%TD.AperFunction*%
%TD*%
D28*
%TO.N,GND*%
X75393900Y-78139400D03*
X106366500Y-68472200D03*
X83196700Y-91339600D03*
X74419800Y-87124200D03*
X132227200Y-96321300D03*
X126873000Y-67136900D03*
X123444000Y-127720600D03*
X123661500Y-74721600D03*
X113665000Y-66862700D03*
X98385100Y-75606300D03*
X97601900Y-98615100D03*
X86158700Y-68283800D03*
X73397000Y-93599000D03*
X110647400Y-106591700D03*
X103167000Y-104938700D03*
X94938900Y-90638600D03*
X94993400Y-95082000D03*
X89494600Y-85885800D03*
X79491300Y-68618500D03*
X75933000Y-68725300D03*
X136636200Y-74242200D03*
X136669300Y-71642000D03*
X136636200Y-68158000D03*
X136675900Y-76405500D03*
X124562300Y-101189000D03*
X83693000Y-94753000D03*
X116865000Y-67085600D03*
X117026200Y-108338200D03*
X117179500Y-90060200D03*
X128193800Y-75751500D03*
X131635500Y-87240000D03*
X111247500Y-87743500D03*
%TO.N,VP*%
X103098400Y-102869800D03*
X110313700Y-93060200D03*
X105775600Y-97598300D03*
%TO.N,RX*%
X106401200Y-73613100D03*
%TO.N,TX*%
X103020900Y-77566800D03*
%TO.N,I1N*%
X123393100Y-89399200D03*
X116896000Y-99789600D03*
%TO.N,I1P*%
X123049200Y-90586100D03*
X115921800Y-102327500D03*
%TO.N,ADC1*%
X102183500Y-82881900D03*
%TD*%
D29*
%TO.N,GND*%
X75393900Y-78139400D02*
X76537600Y-78139400D01*
X76537600Y-78139400D02*
X76572000Y-78105000D01*
X123444000Y-127720600D02*
X123562000Y-127602600D01*
X123562000Y-127602600D02*
X123562000Y-124714000D01*
X123444000Y-127720600D02*
X123444000Y-129068500D01*
X106366500Y-68472200D02*
X106093300Y-68199000D01*
X104766000Y-68199000D02*
X106093300Y-68199000D01*
X83196700Y-91339600D02*
X84726600Y-91339600D01*
X84726600Y-91339600D02*
X85598000Y-92211000D01*
X82042000Y-92211000D02*
X82913400Y-91339600D01*
X82913400Y-91339600D02*
X83196700Y-91339600D01*
X74419800Y-87124200D02*
X73279000Y-88265000D01*
X132227200Y-96321300D02*
X132227200Y-95132000D01*
X132227200Y-95132000D02*
X132842000Y-95132000D01*
X130302000Y-95132000D02*
X132227200Y-95132000D01*
X126873000Y-67136900D02*
X126873000Y-68317000D01*
X123661500Y-74721600D02*
X123661500Y-76200000D01*
X113665000Y-68063000D02*
X113665000Y-66862700D01*
X98385100Y-75606300D02*
X98186000Y-75606300D01*
X98186000Y-75606300D02*
X98093300Y-75699000D01*
X95266000Y-75699000D02*
X98093300Y-75699000D01*
X97601900Y-98615100D02*
X97318800Y-98332000D01*
X96293000Y-98332000D02*
X97318800Y-98332000D01*
X95267200Y-95082000D02*
X96293000Y-95082000D01*
X94993400Y-95082000D02*
X95267200Y-95082000D01*
X95267200Y-95082000D02*
X95267200Y-93132000D01*
X96293000Y-93132000D02*
X95267200Y-93132000D01*
X86158700Y-68283800D02*
X86353900Y-68283800D01*
X86353900Y-68283800D02*
X86438700Y-68199000D01*
X87766000Y-68199000D02*
X86438700Y-68199000D01*
X73397000Y-93599000D02*
X73397000Y-94996000D01*
X73397000Y-92202000D02*
X73397000Y-93599000D01*
X73397000Y-94996000D02*
X73397000Y-97790000D01*
X133157800Y-71235000D02*
X133412300Y-71489500D01*
X133412300Y-71489500D02*
X133412300Y-71885000D01*
X132798700Y-71235000D02*
X133157800Y-71235000D01*
X133157800Y-71235000D02*
X133412300Y-71235000D01*
X132185000Y-71885000D02*
X133412300Y-71885000D01*
X132185000Y-71235000D02*
X132798700Y-71235000D01*
X117026200Y-108338200D02*
X115444800Y-108338200D01*
X115444800Y-108338200D02*
X115189000Y-108594000D01*
X118364000Y-108594000D02*
X118108200Y-108338200D01*
X118108200Y-108338200D02*
X117026200Y-108338200D01*
X110647400Y-106591700D02*
X109349200Y-106591700D01*
X109349200Y-106591700D02*
X109310500Y-106553000D01*
X103167000Y-104938700D02*
X102280700Y-104938700D01*
X102280700Y-104938700D02*
X101990000Y-104648000D01*
X94938900Y-90638600D02*
X95160600Y-90638600D01*
X95160600Y-90638600D02*
X95267200Y-90532000D01*
X96293000Y-90532000D02*
X95267200Y-90532000D01*
X89494600Y-85885800D02*
X90374200Y-85885800D01*
X90374200Y-85885800D02*
X90551000Y-85709000D01*
X79491300Y-68618500D02*
X79246800Y-68618500D01*
X79246800Y-68618500D02*
X79172300Y-68693000D01*
X78095000Y-68693000D02*
X79172300Y-68693000D01*
X75933000Y-68725300D02*
X75682600Y-68725300D01*
X75682600Y-68725300D02*
X75646300Y-68689000D01*
X74569000Y-68689000D02*
X75646300Y-68689000D01*
X136362300Y-73735000D02*
X136362300Y-73968300D01*
X136362300Y-73968300D02*
X136636200Y-74242200D01*
X135085000Y-73735000D02*
X136362300Y-73735000D01*
X136362300Y-71335000D02*
X136669300Y-71642000D01*
X135085000Y-71335000D02*
X136362300Y-71335000D01*
X136636200Y-68158000D02*
X136362300Y-68431900D01*
X136362300Y-68431900D02*
X136362300Y-68585000D01*
X135085000Y-68585000D02*
X136362300Y-68585000D01*
X136675900Y-76405500D02*
X136441800Y-76405500D01*
X136441800Y-76405500D02*
X136362300Y-76485000D01*
X135085000Y-76485000D02*
X136362300Y-76485000D01*
X135085000Y-71335000D02*
X133512300Y-71335000D01*
X133512300Y-71335000D02*
X133412300Y-71235000D01*
X124562300Y-101189000D02*
X126746000Y-101189000D01*
X123190000Y-101189000D02*
X124562300Y-101189000D01*
X83693000Y-95855000D02*
X83693000Y-94753000D01*
X116865000Y-68439000D02*
X116865000Y-67085600D01*
X117179500Y-90060200D02*
X118464800Y-90060200D01*
X118464800Y-90060200D02*
X118491000Y-90034000D01*
X128193800Y-75751500D02*
X126923500Y-75751500D01*
X126923500Y-75751500D02*
X126873000Y-75701000D01*
X131635500Y-87240000D02*
X133096000Y-87240000D01*
X130175000Y-87240000D02*
X131635500Y-87240000D01*
X111247500Y-87743500D02*
X112268000Y-88764000D01*
%TO.N,VP*%
X103098400Y-102869800D02*
X87212300Y-102869800D01*
X87212300Y-102869800D02*
X86741000Y-102398500D01*
X133096000Y-89290000D02*
X136821400Y-85564600D01*
X136821400Y-85564600D02*
X136821400Y-80253700D01*
X136821400Y-80253700D02*
X136635500Y-80067800D01*
X136635500Y-80067800D02*
X128278800Y-80067800D01*
X128278800Y-80067800D02*
X119315100Y-89031500D01*
X119315100Y-89031500D02*
X115754500Y-89031500D01*
X115754500Y-89031500D02*
X111725800Y-93060200D01*
X111725800Y-93060200D02*
X110313700Y-93060200D01*
X132842000Y-93082000D02*
X132842000Y-89544000D01*
X132842000Y-89544000D02*
X133096000Y-89290000D01*
X103605000Y-97682000D02*
X105691900Y-97682000D01*
X105691900Y-97682000D02*
X105775600Y-97598300D01*
X84074000Y-102398500D02*
X86741000Y-102398500D01*
%TO.N,/OSCO*%
X112268000Y-90814000D02*
X109570900Y-90814000D01*
X109570900Y-90814000D02*
X107252900Y-93132000D01*
X107252900Y-93132000D02*
X103605000Y-93132000D01*
X116416700Y-81407000D02*
X116416700Y-86665300D01*
X116416700Y-86665300D02*
X112268000Y-90814000D01*
X120681500Y-81407000D02*
X116416700Y-81407000D01*
%TO.N,/OSCI*%
X118491000Y-92084000D02*
X119519400Y-91055600D01*
X119519400Y-91055600D02*
X119519400Y-89814200D01*
X119519400Y-89814200D02*
X127926600Y-81407000D01*
X127926600Y-81407000D02*
X132556500Y-81407000D01*
X104630800Y-93782000D02*
X104705100Y-93856300D01*
X104705100Y-93856300D02*
X116718700Y-93856300D01*
X116718700Y-93856300D02*
X118491000Y-92084000D01*
X103605000Y-93782000D02*
X104630800Y-93782000D01*
%TO.N,VN*%
X103605000Y-98332000D02*
X113834400Y-98332000D01*
X113834400Y-98332000D02*
X120806900Y-91359500D01*
X120806900Y-91359500D02*
X130175000Y-91359500D01*
X130302000Y-93082000D02*
X130302000Y-91486500D01*
X130302000Y-91486500D02*
X130175000Y-91359500D01*
X130175000Y-91359500D02*
X130175000Y-89290000D01*
%TO.N,Net-(D2-Pad2)*%
X113665000Y-75909500D02*
X120396000Y-75909500D01*
X120396000Y-75909500D02*
X120686500Y-76200000D01*
%TO.N,/I1N_IN*%
X115243300Y-115326000D02*
X115885800Y-115326000D01*
X115885800Y-115326000D02*
X126090700Y-105121100D01*
X126090700Y-105121100D02*
X127885700Y-105121100D01*
X127885700Y-105121100D02*
X128301400Y-104705400D01*
X128301400Y-104705400D02*
X128301400Y-101297100D01*
X128301400Y-101297100D02*
X127230700Y-100226400D01*
X127230700Y-100226400D02*
X126043900Y-100226400D01*
X126043900Y-100226400D02*
X121575500Y-95758000D01*
X114066000Y-115326000D02*
X115243300Y-115326000D01*
X121666000Y-92546500D02*
X121666000Y-95667500D01*
X121666000Y-95667500D02*
X121575500Y-95758000D01*
%TO.N,/I1P_IN*%
X118222000Y-115336000D02*
X118222000Y-113979800D01*
X118222000Y-113979800D02*
X126626400Y-105575400D01*
X126626400Y-105575400D02*
X128073900Y-105575400D01*
X128073900Y-105575400D02*
X128755700Y-104893600D01*
X128755700Y-104893600D02*
X128755700Y-99963200D01*
X128755700Y-99963200D02*
X124550500Y-95758000D01*
X125095000Y-92419500D02*
X125095000Y-95213500D01*
X125095000Y-95213500D02*
X124550500Y-95758000D01*
%TO.N,Net-(SJ1-Pad2)*%
X126746000Y-102489000D02*
X127823300Y-102489000D01*
X96293000Y-97032000D02*
X97318800Y-97032000D01*
X97318800Y-97032000D02*
X102171900Y-101885100D01*
X102171900Y-101885100D02*
X107887700Y-101885100D01*
X107887700Y-101885100D02*
X113512200Y-107509600D01*
X113512200Y-107509600D02*
X123053000Y-107509600D01*
X123053000Y-107509600D02*
X125896100Y-104666500D01*
X125896100Y-104666500D02*
X127697600Y-104666500D01*
X127697600Y-104666500D02*
X127823300Y-104540800D01*
X127823300Y-104540800D02*
X127823300Y-102489000D01*
%TO.N,Net-(SJ2-Pad2)*%
X123190000Y-102489000D02*
X121266500Y-102489000D01*
X121266500Y-102489000D02*
X117385500Y-98608000D01*
X117385500Y-98608000D02*
X116406600Y-98608000D01*
X116406600Y-98608000D02*
X116181200Y-98833400D01*
X116181200Y-98833400D02*
X102750800Y-98833400D01*
X102750800Y-98833400D02*
X102452200Y-98534800D01*
X102452200Y-98534800D02*
X102452200Y-95015400D01*
X102452200Y-95015400D02*
X97318800Y-89882000D01*
X96293000Y-89882000D02*
X97318800Y-89882000D01*
%TO.N,Net-(SJ3-Pad2)*%
X103605000Y-89882000D02*
X102579200Y-89882000D01*
X102579200Y-89882000D02*
X102077900Y-89380700D01*
X102077900Y-89380700D02*
X93647900Y-89380700D01*
X93647900Y-89380700D02*
X85873600Y-97155000D01*
X85873600Y-97155000D02*
X83693000Y-97155000D01*
%TO.N,Net-(C4-Pad1)*%
X113665000Y-72934500D02*
X109982000Y-76617500D01*
X109982000Y-76617500D02*
X109982000Y-82677000D01*
X114914400Y-71362300D02*
X113665000Y-72611700D01*
X113665000Y-72611700D02*
X113665000Y-72934500D01*
X115651300Y-70739000D02*
X115537700Y-70739000D01*
X115537700Y-70739000D02*
X114914400Y-71362300D01*
X114914400Y-71362300D02*
X113665000Y-70113000D01*
X116865000Y-70739000D02*
X116865000Y-69661700D01*
X123165000Y-70739000D02*
X123165000Y-68511700D01*
X123165000Y-68511700D02*
X119092300Y-68511700D01*
X119092300Y-68511700D02*
X117942300Y-69661700D01*
X117942300Y-69661700D02*
X116865000Y-69661700D01*
X116865000Y-70739000D02*
X115651300Y-70739000D01*
%TO.N,GPIO0*%
X104766000Y-84709000D02*
X103438700Y-84709000D01*
X103438700Y-84709000D02*
X103438700Y-83104000D01*
X103438700Y-83104000D02*
X99961900Y-79627200D01*
X99961900Y-79627200D02*
X99961900Y-74925700D01*
X99961900Y-74925700D02*
X92457900Y-67421700D01*
X92457900Y-67421700D02*
X82981700Y-67421700D01*
X82981700Y-67421700D02*
X81820600Y-68582800D01*
X81820600Y-68582800D02*
X81820600Y-70989100D01*
X81820600Y-70989100D02*
X83058000Y-72226500D01*
X78085000Y-74313000D02*
X79162300Y-74313000D01*
X83058000Y-72226500D02*
X81248800Y-72226500D01*
X81248800Y-72226500D02*
X79162300Y-74313000D01*
%TO.N,RX*%
X104766000Y-73279000D02*
X106093300Y-73279000D01*
X106093300Y-73279000D02*
X106093300Y-73305200D01*
X106093300Y-73305200D02*
X106401200Y-73613100D01*
%TO.N,TX*%
X104766000Y-72009000D02*
X103438700Y-72009000D01*
X103438700Y-72009000D02*
X103438700Y-77149000D01*
X103438700Y-77149000D02*
X103020900Y-77566800D01*
%TO.N,Reset*%
X83185000Y-75683000D02*
X83013800Y-75854200D01*
X83013800Y-75854200D02*
X76912200Y-75854200D01*
X76912200Y-75854200D02*
X75636300Y-74578300D01*
X75636300Y-74578300D02*
X75636300Y-74309000D01*
X86438700Y-70739000D02*
X86438700Y-72429300D01*
X86438700Y-72429300D02*
X83185000Y-75683000D01*
X74559000Y-74309000D02*
X75636300Y-74309000D01*
X87766000Y-70739000D02*
X86438700Y-70739000D01*
%TO.N,Net-(C1-Pad1)*%
X128687500Y-124945200D02*
X125843200Y-124945200D01*
X125843200Y-124945200D02*
X125612000Y-124714000D01*
X129150000Y-124714000D02*
X128918800Y-124945200D01*
X128918800Y-124945200D02*
X128687500Y-124945200D01*
X128687500Y-124945200D02*
X128687500Y-127381000D01*
X107075300Y-117866000D02*
X109726600Y-120517300D01*
X109726600Y-120517300D02*
X121415300Y-120517300D01*
X121415300Y-120517300D02*
X125612000Y-124714000D01*
X105898000Y-117866000D02*
X107075300Y-117866000D01*
X123444000Y-132043500D02*
X128106500Y-127381000D01*
X128106500Y-127381000D02*
X128687500Y-127381000D01*
%TO.N,Net-(C2-Pad1)*%
X93511900Y-107070000D02*
X93511900Y-110033000D01*
X93511900Y-110033000D02*
X97637600Y-114158700D01*
X99940000Y-106482300D02*
X94099600Y-106482300D01*
X94099600Y-106482300D02*
X93511900Y-107070000D01*
X93511900Y-107070000D02*
X93218000Y-107070000D01*
X97637600Y-115336000D02*
X97637600Y-114158700D01*
X99940000Y-106482300D02*
X99940000Y-106286400D01*
X99940000Y-107315000D02*
X99940000Y-106482300D01*
X99940000Y-106286400D02*
X99940000Y-104648000D01*
X106335500Y-106553000D02*
X106068900Y-106286400D01*
X106068900Y-106286400D02*
X99940000Y-106286400D01*
%TO.N,3V3_ESP*%
X84286100Y-70398000D02*
X84204500Y-70398000D01*
X84204500Y-70398000D02*
X83058000Y-69251500D01*
X86438700Y-69469000D02*
X85509700Y-70398000D01*
X85509700Y-70398000D02*
X84286100Y-70398000D01*
X75348500Y-77076600D02*
X73481600Y-75209700D01*
X73481600Y-75209700D02*
X73481600Y-73352100D01*
X73481600Y-73352100D02*
X73602100Y-73231600D01*
X73602100Y-73231600D02*
X75453100Y-73231600D01*
X75453100Y-73231600D02*
X76888600Y-74667100D01*
X76888600Y-74667100D02*
X76888600Y-75187900D01*
X76888600Y-75187900D02*
X77091100Y-75390400D01*
X77091100Y-75390400D02*
X81798200Y-75390400D01*
X81798200Y-75390400D02*
X84286100Y-72902500D01*
X84286100Y-72902500D02*
X84286100Y-70398000D01*
X78622000Y-78105000D02*
X77593600Y-77076600D01*
X77593600Y-77076600D02*
X75348500Y-77076600D01*
X75348500Y-77076600D02*
X73279000Y-79146100D01*
X73279000Y-79146100D02*
X73279000Y-83439000D01*
X87766000Y-69469000D02*
X86438700Y-69469000D01*
X83185000Y-77733000D02*
X78994000Y-77733000D01*
X78994000Y-77733000D02*
X78622000Y-78105000D01*
X103124000Y-128397000D02*
X104301300Y-128397000D01*
X104301300Y-128397000D02*
X104301300Y-128764900D01*
X104301300Y-128764900D02*
X108685600Y-133149200D01*
X108685600Y-133149200D02*
X127810900Y-133149200D01*
X127810900Y-133149200D02*
X132737800Y-128222300D01*
X132737800Y-128222300D02*
X132737800Y-126251800D01*
X132737800Y-126251800D02*
X131200000Y-124714000D01*
X102840500Y-116545700D02*
X103124000Y-116829200D01*
X103124000Y-116829200D02*
X103124000Y-128397000D01*
X73279000Y-83439000D02*
X71910800Y-84807200D01*
X71910800Y-84807200D02*
X71910800Y-97903300D01*
X71910800Y-97903300D02*
X73647100Y-99639600D01*
X73647100Y-99639600D02*
X74853300Y-99639600D01*
X74853300Y-99639600D02*
X87646500Y-112432800D01*
X87646500Y-112432800D02*
X87646500Y-115792300D01*
X87646500Y-115792300D02*
X88399900Y-116545700D01*
X88399900Y-116545700D02*
X102840500Y-116545700D01*
X101990000Y-107315000D02*
X102840500Y-108165500D01*
X102840500Y-108165500D02*
X102840500Y-116545700D01*
%TO.N,Net-(C5-Pad1)*%
X126873000Y-73039000D02*
X126873000Y-70367000D01*
X126873000Y-73651000D02*
X126873000Y-73039000D01*
X126873000Y-73039000D02*
X118192300Y-73039000D01*
X116865000Y-73039000D02*
X118192300Y-73039000D01*
X132185000Y-73835000D02*
X127057000Y-73835000D01*
X127057000Y-73835000D02*
X126873000Y-73651000D01*
%TO.N,3V3_ATM*%
X78994000Y-88655000D02*
X78994000Y-83693000D01*
X75447000Y-92202000D02*
X78994000Y-88655000D01*
X78994000Y-88655000D02*
X85750900Y-88655000D01*
X85750900Y-88655000D02*
X86626400Y-89530500D01*
X86626400Y-89530500D02*
X86626400Y-92814800D01*
X86626400Y-92814800D02*
X85418900Y-94022300D01*
X85418900Y-94022300D02*
X83385200Y-94022300D01*
X83385200Y-94022300D02*
X82615600Y-94791900D01*
X82615600Y-94791900D02*
X82615600Y-97831200D01*
X82615600Y-97831200D02*
X83239400Y-98455000D01*
X83239400Y-98455000D02*
X83693000Y-98455000D01*
X96079500Y-92482000D02*
X96293000Y-92482000D01*
X83693000Y-98455000D02*
X88063500Y-98455000D01*
X88063500Y-98455000D02*
X94036500Y-92482000D01*
X94036500Y-92482000D02*
X96079500Y-92482000D01*
X96079500Y-92482000D02*
X96079500Y-91832000D01*
X123190000Y-103789000D02*
X121924000Y-103789000D01*
X121924000Y-103789000D02*
X117197300Y-99062300D01*
X117197300Y-99062300D02*
X116594800Y-99062300D01*
X116594800Y-99062300D02*
X116343500Y-99313600D01*
X116343500Y-99313600D02*
X102568300Y-99313600D01*
X102568300Y-99313600D02*
X97318800Y-94064100D01*
X97318800Y-94064100D02*
X97318800Y-92482000D01*
X96293000Y-92482000D02*
X97318800Y-92482000D01*
X96079500Y-91832000D02*
X96079500Y-91395500D01*
X96079500Y-91395500D02*
X96293000Y-91182000D01*
X96293000Y-91832000D02*
X96079500Y-91832000D01*
X75447000Y-94996000D02*
X75447000Y-92202000D01*
X126746000Y-103789000D02*
X123190000Y-103789000D01*
X75447000Y-94996000D02*
X75447000Y-97790000D01*
%TO.N,I1N*%
X115666400Y-101019200D02*
X115221900Y-100574800D01*
X115221900Y-100574800D02*
X104027800Y-100574800D01*
X104027800Y-100574800D02*
X103975100Y-100522100D01*
X103975100Y-100522100D02*
X103092100Y-100522100D01*
X103092100Y-100522100D02*
X98302000Y-95732000D01*
X98302000Y-95732000D02*
X96293000Y-95732000D01*
X118364000Y-106544000D02*
X118364000Y-103716900D01*
X118364000Y-103716900D02*
X115666400Y-101019200D01*
X115666400Y-101019200D02*
X116896000Y-99789600D01*
X123393100Y-89399200D02*
X121838300Y-89399200D01*
X121838300Y-89399200D02*
X121666000Y-89571500D01*
%TO.N,Net-(C16-Pad1)*%
X82042000Y-90161000D02*
X80995500Y-91207500D01*
X80995500Y-91207500D02*
X80995500Y-97531900D01*
X80995500Y-97531900D02*
X82817600Y-99354000D01*
X82817600Y-99354000D02*
X93595200Y-99354000D01*
X93595200Y-99354000D02*
X95267200Y-97682000D01*
X82042000Y-90161000D02*
X85598000Y-90161000D01*
X96293000Y-97682000D02*
X95267200Y-97682000D01*
%TO.N,I1P*%
X113447200Y-104802100D02*
X110075700Y-101430700D01*
X110075700Y-101430700D02*
X104241200Y-101430700D01*
X104241200Y-101430700D02*
X103787000Y-100976500D01*
X103787000Y-100976500D02*
X102861800Y-100976500D01*
X102861800Y-100976500D02*
X98494500Y-96609200D01*
X98494500Y-96609200D02*
X97925300Y-96609200D01*
X97925300Y-96609200D02*
X97698100Y-96382000D01*
X97698100Y-96382000D02*
X96293000Y-96382000D01*
X115189000Y-106544000D02*
X113447200Y-104802100D01*
X115921800Y-102327500D02*
X113447200Y-104802100D01*
X123049200Y-90586100D02*
X123953400Y-90586100D01*
X123953400Y-90586100D02*
X125095000Y-89444500D01*
%TO.N,CT*%
X118222000Y-117876000D02*
X119399300Y-117876000D01*
X124953000Y-117169000D02*
X124953000Y-118746300D01*
X124953000Y-118746300D02*
X120269600Y-118746300D01*
X120269600Y-118746300D02*
X119399300Y-117876000D01*
X118222000Y-117876000D02*
X117044700Y-117876000D01*
X105898000Y-115326000D02*
X107075300Y-115326000D01*
X107075300Y-115326000D02*
X108252700Y-114148600D01*
X108252700Y-114148600D02*
X110958200Y-114148600D01*
X110958200Y-114148600D02*
X112456700Y-115647100D01*
X112456700Y-115647100D02*
X112456700Y-117951600D01*
X112456700Y-117951600D02*
X113558400Y-119053300D01*
X113558400Y-119053300D02*
X115867400Y-119053300D01*
X115867400Y-119053300D02*
X117044700Y-117876000D01*
%TO.N,CS*%
X114066000Y-117866000D02*
X115243300Y-117866000D01*
X123853000Y-110669000D02*
X123853000Y-112246300D01*
X123853000Y-112246300D02*
X119400700Y-116698600D01*
X119400700Y-116698600D02*
X116410700Y-116698600D01*
X116410700Y-116698600D02*
X115243300Y-117866000D01*
%TO.N,ADC1*%
X87766000Y-74549000D02*
X89093300Y-74549000D01*
X89093300Y-74549000D02*
X89093300Y-75048600D01*
X89093300Y-75048600D02*
X96926600Y-82881900D01*
X96926600Y-82881900D02*
X102183500Y-82881900D01*
X109911000Y-116503300D02*
X110365800Y-116503300D01*
X110365800Y-116503300D02*
X113803600Y-119941100D01*
X113803600Y-119941100D02*
X125982400Y-119941100D01*
X125982400Y-119941100D02*
X130175000Y-124133700D01*
X130175000Y-124133700D02*
X130175000Y-125893500D01*
X130175000Y-125893500D02*
X131662500Y-127381000D01*
X109911000Y-115326000D02*
X109911000Y-116503300D01*
%TO.N,V1*%
X82833500Y-112532300D02*
X88167200Y-117866000D01*
X76883000Y-112532300D02*
X82833500Y-112532300D01*
X82883000Y-111618600D02*
X82833500Y-111668100D01*
X82833500Y-111668100D02*
X82833500Y-112532300D01*
X89344500Y-117866000D02*
X88167200Y-117866000D01*
X76883000Y-110705000D02*
X76883000Y-112532300D01*
X82883000Y-110705000D02*
X82883000Y-111618600D01*
%TO.N,V2*%
X93332300Y-117876000D02*
X92155000Y-117876000D01*
X82883000Y-121705000D02*
X82883000Y-119877700D01*
X82883000Y-119877700D02*
X90153300Y-119877700D01*
X90153300Y-119877700D02*
X92155000Y-117876000D01*
X93332300Y-117876000D02*
X97637600Y-117876000D01*
%TO.N,Net-(J14-Pad2)*%
X86741000Y-105373500D02*
X93332300Y-111964800D01*
X93332300Y-111964800D02*
X93332300Y-115336000D01*
%TO.N,ADC2*%
X87766000Y-75819000D02*
X86438700Y-75819000D01*
X93218000Y-105020000D02*
X92084000Y-103886000D01*
X92084000Y-103886000D02*
X79912600Y-103886000D01*
X79912600Y-103886000D02*
X74531900Y-98505300D01*
X74531900Y-98505300D02*
X74531900Y-90676500D01*
X74531900Y-90676500D02*
X77798700Y-87409700D01*
X77798700Y-87409700D02*
X77798700Y-82687300D01*
X77798700Y-82687300D02*
X81804200Y-78681800D01*
X81804200Y-78681800D02*
X83861100Y-78681800D01*
X83861100Y-78681800D02*
X86438700Y-76104200D01*
X86438700Y-76104200D02*
X86438700Y-75819000D01*
X95885000Y-104557500D02*
X95422500Y-105020000D01*
X95422500Y-105020000D02*
X93218000Y-105020000D01*
%TO.N,Net-(J6-Pad1)*%
X101651000Y-115326000D02*
X101651000Y-114148700D01*
X101651000Y-114148700D02*
X95885000Y-108382700D01*
X95885000Y-108382700D02*
X95885000Y-107532500D01*
%TO.N,Net-(J13-Pad1)*%
X84074000Y-105373500D02*
X89344500Y-110644000D01*
X89344500Y-110644000D02*
X89344500Y-115326000D01*
%TO.N,ESP_RX1*%
X103438700Y-82169000D02*
X102284700Y-81015000D01*
X102284700Y-81015000D02*
X102284700Y-68767300D01*
X102284700Y-68767300D02*
X103630400Y-67421600D01*
X103630400Y-67421600D02*
X106372200Y-67421600D01*
X106372200Y-67421600D02*
X107163400Y-68212800D01*
X107163400Y-68212800D02*
X107163400Y-88649400D01*
X107163400Y-88649400D02*
X104630800Y-91182000D01*
X104766000Y-82169000D02*
X103438700Y-82169000D01*
X103605000Y-91182000D02*
X104630800Y-91182000D01*
%TO.N,ESP_TX1*%
X104766000Y-80899000D02*
X106093300Y-80899000D01*
X103605000Y-90532000D02*
X104630800Y-90532000D01*
X104630800Y-90532000D02*
X106093300Y-89069500D01*
X106093300Y-89069500D02*
X106093300Y-80899000D01*
%TD*%
M02*
