%TF.GenerationSoftware,KiCad,Pcbnew,(5.1.8)-1*%
%TF.CreationDate,2021-07-11T12:48:12+05:30*%
%TF.ProjectId,AC_RMS_ESP32_ATM90E26,41435f52-4d53-45f4-9553-5033325f4154,V2*%
%TF.SameCoordinates,Original*%
%TF.FileFunction,Soldermask,Top*%
%TF.FilePolarity,Negative*%
%FSLAX46Y46*%
G04 Gerber Fmt 4.6, Leading zero omitted, Abs format (unit mm)*
G04 Created by KiCad (PCBNEW (5.1.8)-1) date 2021-07-11 12:48:12*
%MOMM*%
%LPD*%
G01*
G04 APERTURE LIST*
%TA.AperFunction,Profile*%
%ADD10C,0.050000*%
%TD*%
%ADD11O,1.700000X1.700000*%
%ADD12R,1.700000X1.700000*%
%ADD13R,1.900000X1.900000*%
%ADD14C,0.550000*%
%ADD15R,1.800000X0.400000*%
%ADD16R,1.500000X1.500000*%
%ADD17O,1.500000X2.000000*%
%ADD18C,2.000000*%
%ADD19R,2.000000X3.000000*%
%ADD20C,0.100000*%
%ADD21R,1.500000X1.000000*%
%ADD22R,5.000000X5.000000*%
%ADD23R,2.000000X0.900000*%
%ADD24R,0.900000X2.000000*%
%ADD25R,7.875000X2.000000*%
%ADD26R,2.000000X3.800000*%
%ADD27R,2.000000X1.500000*%
%ADD28R,1.397000X0.348000*%
%ADD29R,1.200000X2.500000*%
%ADD30C,1.500000*%
G04 APERTURE END LIST*
D10*
X137795000Y-66040000D02*
X137795000Y-133858000D01*
X69977000Y-66040000D02*
X69977000Y-133858000D01*
X134620000Y-102997000D02*
G75*
G03*
X134620000Y-102997000I-1778000J0D01*
G01*
X76585530Y-103124000D02*
G75*
G03*
X76585530Y-103124000I-1782530J0D01*
G01*
X137795000Y-66040000D02*
X122301000Y-66040000D01*
X122301000Y-66040000D02*
X85471000Y-66040000D01*
X85471000Y-66040000D02*
X69977000Y-66040000D01*
X122301000Y-133858000D02*
X137795000Y-133858000D01*
X85471000Y-133858000D02*
X122301000Y-133858000D01*
X69977000Y-133858000D02*
X85471000Y-133858000D01*
D11*
%TO.C,J11*%
X114066000Y-117866000D03*
D12*
X114066000Y-115326000D03*
%TD*%
D13*
%TO.C,J4*%
X135085000Y-73735000D03*
X135085000Y-71335000D03*
X135085000Y-68585000D03*
X135085000Y-76485000D03*
D14*
X132935000Y-70535000D03*
X132935000Y-74535000D03*
D15*
X132185000Y-71235000D03*
X132185000Y-71885000D03*
X132185000Y-72535000D03*
X132185000Y-73835000D03*
X132185000Y-73185000D03*
%TD*%
D16*
%TO.C,sw1*%
X78095000Y-68693000D03*
X78085000Y-74313000D03*
%TD*%
%TO.C,sw2*%
X74569000Y-68689000D03*
X74559000Y-74309000D03*
%TD*%
%TO.C,D2*%
G36*
G01*
X124374000Y-75575000D02*
X124374000Y-76825000D01*
G75*
G02*
X124124000Y-77075000I-250000J0D01*
G01*
X123199000Y-77075000D01*
G75*
G02*
X122949000Y-76825000I0J250000D01*
G01*
X122949000Y-75575000D01*
G75*
G02*
X123199000Y-75325000I250000J0D01*
G01*
X124124000Y-75325000D01*
G75*
G02*
X124374000Y-75575000I0J-250000D01*
G01*
G37*
G36*
G01*
X121399000Y-75575000D02*
X121399000Y-76825000D01*
G75*
G02*
X121149000Y-77075000I-250000J0D01*
G01*
X120224000Y-77075000D01*
G75*
G02*
X119974000Y-76825000I0J250000D01*
G01*
X119974000Y-75575000D01*
G75*
G02*
X120224000Y-75325000I250000J0D01*
G01*
X121149000Y-75325000D01*
G75*
G02*
X121399000Y-75575000I0J-250000D01*
G01*
G37*
%TD*%
D12*
%TO.C,J3*%
X109911000Y-115326000D03*
D11*
X109911000Y-117866000D03*
%TD*%
D12*
%TO.C,J2*%
X105898000Y-115326000D03*
D11*
X105898000Y-117866000D03*
%TD*%
D12*
%TO.C,J5*%
X97637600Y-117876000D03*
D11*
X97637600Y-115336000D03*
%TD*%
%TO.C,J6*%
X101651000Y-117866000D03*
D12*
X101651000Y-115326000D03*
%TD*%
%TO.C,J10*%
X78994000Y-83693000D03*
D11*
X81534000Y-83693000D03*
%TD*%
%TO.C,J7*%
X112522000Y-82677000D03*
D12*
X109982000Y-82677000D03*
%TD*%
D17*
%TO.C,J8*%
X76983000Y-116205000D03*
D18*
X81383000Y-116205000D03*
D19*
X76883000Y-110705000D03*
X82883000Y-110705000D03*
X82883000Y-121705000D03*
X76883000Y-121705000D03*
%TD*%
D12*
%TO.C,J9*%
X110744000Y-128397000D03*
D11*
X108204000Y-128397000D03*
X105664000Y-128397000D03*
X103124000Y-128397000D03*
X100584000Y-128397000D03*
X98044000Y-128397000D03*
%TD*%
%TO.C,J12*%
X118222000Y-115336000D03*
D12*
X118222000Y-117876000D03*
%TD*%
%TO.C,J13*%
X89344500Y-115326000D03*
D11*
X89344500Y-117866000D03*
%TD*%
D12*
%TO.C,J14*%
X93332300Y-117876000D03*
D11*
X93332300Y-115336000D03*
%TD*%
%TO.C,R1*%
G36*
G01*
X132375000Y-126756000D02*
X132375000Y-128006000D01*
G75*
G02*
X132125000Y-128256000I-250000J0D01*
G01*
X131200000Y-128256000D01*
G75*
G02*
X130950000Y-128006000I0J250000D01*
G01*
X130950000Y-126756000D01*
G75*
G02*
X131200000Y-126506000I250000J0D01*
G01*
X132125000Y-126506000D01*
G75*
G02*
X132375000Y-126756000I0J-250000D01*
G01*
G37*
G36*
G01*
X129400000Y-126756000D02*
X129400000Y-128006000D01*
G75*
G02*
X129150000Y-128256000I-250000J0D01*
G01*
X128225000Y-128256000D01*
G75*
G02*
X127975000Y-128006000I0J250000D01*
G01*
X127975000Y-126756000D01*
G75*
G02*
X128225000Y-126506000I250000J0D01*
G01*
X129150000Y-126506000D01*
G75*
G02*
X129400000Y-126756000I0J-250000D01*
G01*
G37*
%TD*%
%TO.C,R4*%
G36*
G01*
X95260000Y-103845000D02*
X96510000Y-103845000D01*
G75*
G02*
X96760000Y-104095000I0J-250000D01*
G01*
X96760000Y-105020000D01*
G75*
G02*
X96510000Y-105270000I-250000J0D01*
G01*
X95260000Y-105270000D01*
G75*
G02*
X95010000Y-105020000I0J250000D01*
G01*
X95010000Y-104095000D01*
G75*
G02*
X95260000Y-103845000I250000J0D01*
G01*
G37*
G36*
G01*
X95260000Y-106820000D02*
X96510000Y-106820000D01*
G75*
G02*
X96760000Y-107070000I0J-250000D01*
G01*
X96760000Y-107995000D01*
G75*
G02*
X96510000Y-108245000I-250000J0D01*
G01*
X95260000Y-108245000D01*
G75*
G02*
X95010000Y-107995000I0J250000D01*
G01*
X95010000Y-107070000D01*
G75*
G02*
X95260000Y-106820000I250000J0D01*
G01*
G37*
%TD*%
%TO.C,R9*%
G36*
G01*
X82433000Y-71514000D02*
X83683000Y-71514000D01*
G75*
G02*
X83933000Y-71764000I0J-250000D01*
G01*
X83933000Y-72689000D01*
G75*
G02*
X83683000Y-72939000I-250000J0D01*
G01*
X82433000Y-72939000D01*
G75*
G02*
X82183000Y-72689000I0J250000D01*
G01*
X82183000Y-71764000D01*
G75*
G02*
X82433000Y-71514000I250000J0D01*
G01*
G37*
G36*
G01*
X82433000Y-68539000D02*
X83683000Y-68539000D01*
G75*
G02*
X83933000Y-68789000I0J-250000D01*
G01*
X83933000Y-69714000D01*
G75*
G02*
X83683000Y-69964000I-250000J0D01*
G01*
X82433000Y-69964000D01*
G75*
G02*
X82183000Y-69714000I0J250000D01*
G01*
X82183000Y-68789000D01*
G75*
G02*
X82433000Y-68539000I250000J0D01*
G01*
G37*
%TD*%
%TO.C,R10*%
G36*
G01*
X113040000Y-72222000D02*
X114290000Y-72222000D01*
G75*
G02*
X114540000Y-72472000I0J-250000D01*
G01*
X114540000Y-73397000D01*
G75*
G02*
X114290000Y-73647000I-250000J0D01*
G01*
X113040000Y-73647000D01*
G75*
G02*
X112790000Y-73397000I0J250000D01*
G01*
X112790000Y-72472000D01*
G75*
G02*
X113040000Y-72222000I250000J0D01*
G01*
G37*
G36*
G01*
X113040000Y-75197000D02*
X114290000Y-75197000D01*
G75*
G02*
X114540000Y-75447000I0J-250000D01*
G01*
X114540000Y-76372000D01*
G75*
G02*
X114290000Y-76622000I-250000J0D01*
G01*
X113040000Y-76622000D01*
G75*
G02*
X112790000Y-76372000I0J250000D01*
G01*
X112790000Y-75447000D01*
G75*
G02*
X113040000Y-75197000I250000J0D01*
G01*
G37*
%TD*%
%TO.C,R13*%
G36*
G01*
X123838000Y-96383000D02*
X123838000Y-95133000D01*
G75*
G02*
X124088000Y-94883000I250000J0D01*
G01*
X125013000Y-94883000D01*
G75*
G02*
X125263000Y-95133000I0J-250000D01*
G01*
X125263000Y-96383000D01*
G75*
G02*
X125013000Y-96633000I-250000J0D01*
G01*
X124088000Y-96633000D01*
G75*
G02*
X123838000Y-96383000I0J250000D01*
G01*
G37*
G36*
G01*
X120863000Y-96383000D02*
X120863000Y-95133000D01*
G75*
G02*
X121113000Y-94883000I250000J0D01*
G01*
X122038000Y-94883000D01*
G75*
G02*
X122288000Y-95133000I0J-250000D01*
G01*
X122288000Y-96383000D01*
G75*
G02*
X122038000Y-96633000I-250000J0D01*
G01*
X121113000Y-96633000D01*
G75*
G02*
X120863000Y-96383000I0J250000D01*
G01*
G37*
%TD*%
%TO.C,R14*%
G36*
G01*
X121041000Y-91834000D02*
X122291000Y-91834000D01*
G75*
G02*
X122541000Y-92084000I0J-250000D01*
G01*
X122541000Y-93009000D01*
G75*
G02*
X122291000Y-93259000I-250000J0D01*
G01*
X121041000Y-93259000D01*
G75*
G02*
X120791000Y-93009000I0J250000D01*
G01*
X120791000Y-92084000D01*
G75*
G02*
X121041000Y-91834000I250000J0D01*
G01*
G37*
G36*
G01*
X121041000Y-88859000D02*
X122291000Y-88859000D01*
G75*
G02*
X122541000Y-89109000I0J-250000D01*
G01*
X122541000Y-90034000D01*
G75*
G02*
X122291000Y-90284000I-250000J0D01*
G01*
X121041000Y-90284000D01*
G75*
G02*
X120791000Y-90034000I0J250000D01*
G01*
X120791000Y-89109000D01*
G75*
G02*
X121041000Y-88859000I250000J0D01*
G01*
G37*
%TD*%
%TO.C,R15*%
G36*
G01*
X124470000Y-91707000D02*
X125720000Y-91707000D01*
G75*
G02*
X125970000Y-91957000I0J-250000D01*
G01*
X125970000Y-92882000D01*
G75*
G02*
X125720000Y-93132000I-250000J0D01*
G01*
X124470000Y-93132000D01*
G75*
G02*
X124220000Y-92882000I0J250000D01*
G01*
X124220000Y-91957000D01*
G75*
G02*
X124470000Y-91707000I250000J0D01*
G01*
G37*
G36*
G01*
X124470000Y-88732000D02*
X125720000Y-88732000D01*
G75*
G02*
X125970000Y-88982000I0J-250000D01*
G01*
X125970000Y-89907000D01*
G75*
G02*
X125720000Y-90157000I-250000J0D01*
G01*
X124470000Y-90157000D01*
G75*
G02*
X124220000Y-89907000I0J250000D01*
G01*
X124220000Y-88982000D01*
G75*
G02*
X124470000Y-88732000I250000J0D01*
G01*
G37*
%TD*%
%TO.C,R16*%
G36*
G01*
X84699000Y-106086000D02*
X83449000Y-106086000D01*
G75*
G02*
X83199000Y-105836000I0J250000D01*
G01*
X83199000Y-104911000D01*
G75*
G02*
X83449000Y-104661000I250000J0D01*
G01*
X84699000Y-104661000D01*
G75*
G02*
X84949000Y-104911000I0J-250000D01*
G01*
X84949000Y-105836000D01*
G75*
G02*
X84699000Y-106086000I-250000J0D01*
G01*
G37*
G36*
G01*
X84699000Y-103111000D02*
X83449000Y-103111000D01*
G75*
G02*
X83199000Y-102861000I0J250000D01*
G01*
X83199000Y-101936000D01*
G75*
G02*
X83449000Y-101686000I250000J0D01*
G01*
X84699000Y-101686000D01*
G75*
G02*
X84949000Y-101936000I0J-250000D01*
G01*
X84949000Y-102861000D01*
G75*
G02*
X84699000Y-103111000I-250000J0D01*
G01*
G37*
%TD*%
%TO.C,R17*%
G36*
G01*
X86116000Y-104661000D02*
X87366000Y-104661000D01*
G75*
G02*
X87616000Y-104911000I0J-250000D01*
G01*
X87616000Y-105836000D01*
G75*
G02*
X87366000Y-106086000I-250000J0D01*
G01*
X86116000Y-106086000D01*
G75*
G02*
X85866000Y-105836000I0J250000D01*
G01*
X85866000Y-104911000D01*
G75*
G02*
X86116000Y-104661000I250000J0D01*
G01*
G37*
G36*
G01*
X86116000Y-101686000D02*
X87366000Y-101686000D01*
G75*
G02*
X87616000Y-101936000I0J-250000D01*
G01*
X87616000Y-102861000D01*
G75*
G02*
X87366000Y-103111000I-250000J0D01*
G01*
X86116000Y-103111000D01*
G75*
G02*
X85866000Y-102861000I0J250000D01*
G01*
X85866000Y-101936000D01*
G75*
G02*
X86116000Y-101686000I250000J0D01*
G01*
G37*
%TD*%
D20*
%TO.C,SJ1*%
G36*
X125996000Y-101739000D02*
G01*
X125996000Y-101189000D01*
X125996602Y-101189000D01*
X125996602Y-101164466D01*
X126001412Y-101115635D01*
X126010984Y-101067510D01*
X126025228Y-101020555D01*
X126044005Y-100975222D01*
X126067136Y-100931949D01*
X126094396Y-100891150D01*
X126125524Y-100853221D01*
X126160221Y-100818524D01*
X126198150Y-100787396D01*
X126238949Y-100760136D01*
X126282222Y-100737005D01*
X126327555Y-100718228D01*
X126374510Y-100703984D01*
X126422635Y-100694412D01*
X126471466Y-100689602D01*
X126496000Y-100689602D01*
X126496000Y-100689000D01*
X126996000Y-100689000D01*
X126996000Y-100689602D01*
X127020534Y-100689602D01*
X127069365Y-100694412D01*
X127117490Y-100703984D01*
X127164445Y-100718228D01*
X127209778Y-100737005D01*
X127253051Y-100760136D01*
X127293850Y-100787396D01*
X127331779Y-100818524D01*
X127366476Y-100853221D01*
X127397604Y-100891150D01*
X127424864Y-100931949D01*
X127447995Y-100975222D01*
X127466772Y-101020555D01*
X127481016Y-101067510D01*
X127490588Y-101115635D01*
X127495398Y-101164466D01*
X127495398Y-101189000D01*
X127496000Y-101189000D01*
X127496000Y-101739000D01*
X125996000Y-101739000D01*
G37*
G36*
X127495398Y-103789000D02*
G01*
X127495398Y-103813534D01*
X127490588Y-103862365D01*
X127481016Y-103910490D01*
X127466772Y-103957445D01*
X127447995Y-104002778D01*
X127424864Y-104046051D01*
X127397604Y-104086850D01*
X127366476Y-104124779D01*
X127331779Y-104159476D01*
X127293850Y-104190604D01*
X127253051Y-104217864D01*
X127209778Y-104240995D01*
X127164445Y-104259772D01*
X127117490Y-104274016D01*
X127069365Y-104283588D01*
X127020534Y-104288398D01*
X126996000Y-104288398D01*
X126996000Y-104289000D01*
X126496000Y-104289000D01*
X126496000Y-104288398D01*
X126471466Y-104288398D01*
X126422635Y-104283588D01*
X126374510Y-104274016D01*
X126327555Y-104259772D01*
X126282222Y-104240995D01*
X126238949Y-104217864D01*
X126198150Y-104190604D01*
X126160221Y-104159476D01*
X126125524Y-104124779D01*
X126094396Y-104086850D01*
X126067136Y-104046051D01*
X126044005Y-104002778D01*
X126025228Y-103957445D01*
X126010984Y-103910490D01*
X126001412Y-103862365D01*
X125996602Y-103813534D01*
X125996602Y-103789000D01*
X125996000Y-103789000D01*
X125996000Y-103239000D01*
X127496000Y-103239000D01*
X127496000Y-103789000D01*
X127495398Y-103789000D01*
G37*
D21*
X126746000Y-102489000D03*
%TD*%
D20*
%TO.C,SJ2*%
G36*
X123940000Y-103239000D02*
G01*
X123940000Y-103789000D01*
X123939398Y-103789000D01*
X123939398Y-103813534D01*
X123934588Y-103862365D01*
X123925016Y-103910490D01*
X123910772Y-103957445D01*
X123891995Y-104002778D01*
X123868864Y-104046051D01*
X123841604Y-104086850D01*
X123810476Y-104124779D01*
X123775779Y-104159476D01*
X123737850Y-104190604D01*
X123697051Y-104217864D01*
X123653778Y-104240995D01*
X123608445Y-104259772D01*
X123561490Y-104274016D01*
X123513365Y-104283588D01*
X123464534Y-104288398D01*
X123440000Y-104288398D01*
X123440000Y-104289000D01*
X122940000Y-104289000D01*
X122940000Y-104288398D01*
X122915466Y-104288398D01*
X122866635Y-104283588D01*
X122818510Y-104274016D01*
X122771555Y-104259772D01*
X122726222Y-104240995D01*
X122682949Y-104217864D01*
X122642150Y-104190604D01*
X122604221Y-104159476D01*
X122569524Y-104124779D01*
X122538396Y-104086850D01*
X122511136Y-104046051D01*
X122488005Y-104002778D01*
X122469228Y-103957445D01*
X122454984Y-103910490D01*
X122445412Y-103862365D01*
X122440602Y-103813534D01*
X122440602Y-103789000D01*
X122440000Y-103789000D01*
X122440000Y-103239000D01*
X123940000Y-103239000D01*
G37*
G36*
X122440602Y-101189000D02*
G01*
X122440602Y-101164466D01*
X122445412Y-101115635D01*
X122454984Y-101067510D01*
X122469228Y-101020555D01*
X122488005Y-100975222D01*
X122511136Y-100931949D01*
X122538396Y-100891150D01*
X122569524Y-100853221D01*
X122604221Y-100818524D01*
X122642150Y-100787396D01*
X122682949Y-100760136D01*
X122726222Y-100737005D01*
X122771555Y-100718228D01*
X122818510Y-100703984D01*
X122866635Y-100694412D01*
X122915466Y-100689602D01*
X122940000Y-100689602D01*
X122940000Y-100689000D01*
X123440000Y-100689000D01*
X123440000Y-100689602D01*
X123464534Y-100689602D01*
X123513365Y-100694412D01*
X123561490Y-100703984D01*
X123608445Y-100718228D01*
X123653778Y-100737005D01*
X123697051Y-100760136D01*
X123737850Y-100787396D01*
X123775779Y-100818524D01*
X123810476Y-100853221D01*
X123841604Y-100891150D01*
X123868864Y-100931949D01*
X123891995Y-100975222D01*
X123910772Y-101020555D01*
X123925016Y-101067510D01*
X123934588Y-101115635D01*
X123939398Y-101164466D01*
X123939398Y-101189000D01*
X123940000Y-101189000D01*
X123940000Y-101739000D01*
X122440000Y-101739000D01*
X122440000Y-101189000D01*
X122440602Y-101189000D01*
G37*
D21*
X123190000Y-102489000D03*
%TD*%
%TO.C,SJ3*%
X83693000Y-97155000D03*
D20*
G36*
X84442398Y-98455000D02*
G01*
X84442398Y-98479534D01*
X84437588Y-98528365D01*
X84428016Y-98576490D01*
X84413772Y-98623445D01*
X84394995Y-98668778D01*
X84371864Y-98712051D01*
X84344604Y-98752850D01*
X84313476Y-98790779D01*
X84278779Y-98825476D01*
X84240850Y-98856604D01*
X84200051Y-98883864D01*
X84156778Y-98906995D01*
X84111445Y-98925772D01*
X84064490Y-98940016D01*
X84016365Y-98949588D01*
X83967534Y-98954398D01*
X83943000Y-98954398D01*
X83943000Y-98955000D01*
X83443000Y-98955000D01*
X83443000Y-98954398D01*
X83418466Y-98954398D01*
X83369635Y-98949588D01*
X83321510Y-98940016D01*
X83274555Y-98925772D01*
X83229222Y-98906995D01*
X83185949Y-98883864D01*
X83145150Y-98856604D01*
X83107221Y-98825476D01*
X83072524Y-98790779D01*
X83041396Y-98752850D01*
X83014136Y-98712051D01*
X82991005Y-98668778D01*
X82972228Y-98623445D01*
X82957984Y-98576490D01*
X82948412Y-98528365D01*
X82943602Y-98479534D01*
X82943602Y-98455000D01*
X82943000Y-98455000D01*
X82943000Y-97905000D01*
X84443000Y-97905000D01*
X84443000Y-98455000D01*
X84442398Y-98455000D01*
G37*
G36*
X82943000Y-96405000D02*
G01*
X82943000Y-95855000D01*
X82943602Y-95855000D01*
X82943602Y-95830466D01*
X82948412Y-95781635D01*
X82957984Y-95733510D01*
X82972228Y-95686555D01*
X82991005Y-95641222D01*
X83014136Y-95597949D01*
X83041396Y-95557150D01*
X83072524Y-95519221D01*
X83107221Y-95484524D01*
X83145150Y-95453396D01*
X83185949Y-95426136D01*
X83229222Y-95403005D01*
X83274555Y-95384228D01*
X83321510Y-95369984D01*
X83369635Y-95360412D01*
X83418466Y-95355602D01*
X83443000Y-95355602D01*
X83443000Y-95355000D01*
X83943000Y-95355000D01*
X83943000Y-95355602D01*
X83967534Y-95355602D01*
X84016365Y-95360412D01*
X84064490Y-95369984D01*
X84111445Y-95384228D01*
X84156778Y-95403005D01*
X84200051Y-95426136D01*
X84240850Y-95453396D01*
X84278779Y-95484524D01*
X84313476Y-95519221D01*
X84344604Y-95557150D01*
X84371864Y-95597949D01*
X84394995Y-95641222D01*
X84413772Y-95686555D01*
X84428016Y-95733510D01*
X84437588Y-95781635D01*
X84442398Y-95830466D01*
X84442398Y-95855000D01*
X84443000Y-95855000D01*
X84443000Y-96405000D01*
X82943000Y-96405000D01*
G37*
%TD*%
D18*
%TO.C,TP1*%
X73279000Y-88265000D03*
%TD*%
%TO.C,TP2*%
X73279000Y-83439000D03*
%TD*%
D22*
%TO.C,U1*%
X95266000Y-75699000D03*
D23*
X87766000Y-68199000D03*
X87766000Y-69469000D03*
X87766000Y-70739000D03*
X87766000Y-72009000D03*
X87766000Y-73279000D03*
X87766000Y-74549000D03*
X87766000Y-75819000D03*
X87766000Y-77089000D03*
X87766000Y-78359000D03*
X87766000Y-79629000D03*
X87766000Y-80899000D03*
X87766000Y-82169000D03*
X87766000Y-83439000D03*
X87766000Y-84709000D03*
D24*
X90551000Y-85709000D03*
X91821000Y-85709000D03*
X93091000Y-85709000D03*
X94361000Y-85709000D03*
X95631000Y-85709000D03*
X96901000Y-85709000D03*
X98171000Y-85709000D03*
X99441000Y-85709000D03*
X100711000Y-85709000D03*
X101981000Y-85709000D03*
D23*
X104766000Y-84709000D03*
X104766000Y-83439000D03*
X104766000Y-82169000D03*
X104766000Y-80899000D03*
X104766000Y-79629000D03*
X104766000Y-78359000D03*
X104766000Y-77089000D03*
X104766000Y-75819000D03*
X104766000Y-74549000D03*
X104766000Y-73279000D03*
X104766000Y-72009000D03*
X104766000Y-70739000D03*
X104766000Y-69469000D03*
X104766000Y-68199000D03*
%TD*%
D25*
%TO.C,Y1*%
X132556500Y-81407000D03*
X120681500Y-81407000D03*
%TD*%
D26*
%TO.C,U3*%
X123165000Y-70739000D03*
D27*
X116865000Y-70739000D03*
X116865000Y-73039000D03*
X116865000Y-68439000D03*
%TD*%
D28*
%TO.C,U2*%
X103605000Y-89882000D03*
X103605000Y-90532000D03*
X103605000Y-91182000D03*
X103605000Y-91832000D03*
X103605000Y-92482000D03*
X103605000Y-93132000D03*
X103605000Y-93782000D03*
X103605000Y-95082000D03*
X103605000Y-94432000D03*
X103605000Y-95732000D03*
X103605000Y-96382000D03*
X103605000Y-97032000D03*
X103605000Y-97682000D03*
X103605000Y-98332000D03*
X96293000Y-89882000D03*
X96293000Y-90532000D03*
X96293000Y-91182000D03*
X96293000Y-91832000D03*
X96293000Y-92482000D03*
X96293000Y-93132000D03*
X96293000Y-93782000D03*
X96293000Y-94432000D03*
X96293000Y-95082000D03*
X96293000Y-95732000D03*
X96293000Y-96382000D03*
X96293000Y-97032000D03*
X96293000Y-97682000D03*
X96293000Y-98332000D03*
%TD*%
D29*
%TO.C,J1*%
X123853000Y-110669000D03*
X124953000Y-117169000D03*
X128953000Y-117169000D03*
X131953000Y-117169000D03*
D30*
X133553000Y-113919000D03*
X126553000Y-113919000D03*
%TD*%
%TO.C,C1*%
G36*
G01*
X124069000Y-129781000D02*
X122819000Y-129781000D01*
G75*
G02*
X122569000Y-129531000I0J250000D01*
G01*
X122569000Y-128606000D01*
G75*
G02*
X122819000Y-128356000I250000J0D01*
G01*
X124069000Y-128356000D01*
G75*
G02*
X124319000Y-128606000I0J-250000D01*
G01*
X124319000Y-129531000D01*
G75*
G02*
X124069000Y-129781000I-250000J0D01*
G01*
G37*
G36*
G01*
X124069000Y-132756000D02*
X122819000Y-132756000D01*
G75*
G02*
X122569000Y-132506000I0J250000D01*
G01*
X122569000Y-131581000D01*
G75*
G02*
X122819000Y-131331000I250000J0D01*
G01*
X124069000Y-131331000D01*
G75*
G02*
X124319000Y-131581000I0J-250000D01*
G01*
X124319000Y-132506000D01*
G75*
G02*
X124069000Y-132756000I-250000J0D01*
G01*
G37*
%TD*%
%TO.C,C2*%
G36*
G01*
X105623000Y-107178000D02*
X105623000Y-105928000D01*
G75*
G02*
X105873000Y-105678000I250000J0D01*
G01*
X106798000Y-105678000D01*
G75*
G02*
X107048000Y-105928000I0J-250000D01*
G01*
X107048000Y-107178000D01*
G75*
G02*
X106798000Y-107428000I-250000J0D01*
G01*
X105873000Y-107428000D01*
G75*
G02*
X105623000Y-107178000I0J250000D01*
G01*
G37*
G36*
G01*
X108598000Y-107178000D02*
X108598000Y-105928000D01*
G75*
G02*
X108848000Y-105678000I250000J0D01*
G01*
X109773000Y-105678000D01*
G75*
G02*
X110023000Y-105928000I0J-250000D01*
G01*
X110023000Y-107178000D01*
G75*
G02*
X109773000Y-107428000I-250000J0D01*
G01*
X108848000Y-107428000D01*
G75*
G02*
X108598000Y-107178000I0J250000D01*
G01*
G37*
%TD*%
%TO.C,C3*%
G36*
G01*
X75997000Y-78555001D02*
X75997000Y-77654999D01*
G75*
G02*
X76246999Y-77405000I249999J0D01*
G01*
X76897001Y-77405000D01*
G75*
G02*
X77147000Y-77654999I0J-249999D01*
G01*
X77147000Y-78555001D01*
G75*
G02*
X76897001Y-78805000I-249999J0D01*
G01*
X76246999Y-78805000D01*
G75*
G02*
X75997000Y-78555001I0J249999D01*
G01*
G37*
G36*
G01*
X78047000Y-78555001D02*
X78047000Y-77654999D01*
G75*
G02*
X78296999Y-77405000I249999J0D01*
G01*
X78947001Y-77405000D01*
G75*
G02*
X79197000Y-77654999I0J-249999D01*
G01*
X79197000Y-78555001D01*
G75*
G02*
X78947001Y-78805000I-249999J0D01*
G01*
X78296999Y-78805000D01*
G75*
G02*
X78047000Y-78555001I0J249999D01*
G01*
G37*
%TD*%
%TO.C,C4*%
G36*
G01*
X114115001Y-70688000D02*
X113214999Y-70688000D01*
G75*
G02*
X112965000Y-70438001I0J249999D01*
G01*
X112965000Y-69787999D01*
G75*
G02*
X113214999Y-69538000I249999J0D01*
G01*
X114115001Y-69538000D01*
G75*
G02*
X114365000Y-69787999I0J-249999D01*
G01*
X114365000Y-70438001D01*
G75*
G02*
X114115001Y-70688000I-249999J0D01*
G01*
G37*
G36*
G01*
X114115001Y-68638000D02*
X113214999Y-68638000D01*
G75*
G02*
X112965000Y-68388001I0J249999D01*
G01*
X112965000Y-67737999D01*
G75*
G02*
X113214999Y-67488000I249999J0D01*
G01*
X114115001Y-67488000D01*
G75*
G02*
X114365000Y-67737999I0J-249999D01*
G01*
X114365000Y-68388001D01*
G75*
G02*
X114115001Y-68638000I-249999J0D01*
G01*
G37*
%TD*%
%TO.C,C5*%
G36*
G01*
X127323001Y-70942000D02*
X126422999Y-70942000D01*
G75*
G02*
X126173000Y-70692001I0J249999D01*
G01*
X126173000Y-70041999D01*
G75*
G02*
X126422999Y-69792000I249999J0D01*
G01*
X127323001Y-69792000D01*
G75*
G02*
X127573000Y-70041999I0J-249999D01*
G01*
X127573000Y-70692001D01*
G75*
G02*
X127323001Y-70942000I-249999J0D01*
G01*
G37*
G36*
G01*
X127323001Y-68892000D02*
X126422999Y-68892000D01*
G75*
G02*
X126173000Y-68642001I0J249999D01*
G01*
X126173000Y-67991999D01*
G75*
G02*
X126422999Y-67742000I249999J0D01*
G01*
X127323001Y-67742000D01*
G75*
G02*
X127573000Y-67991999I0J-249999D01*
G01*
X127573000Y-68642001D01*
G75*
G02*
X127323001Y-68892000I-249999J0D01*
G01*
G37*
%TD*%
%TO.C,C6*%
G36*
G01*
X126422999Y-75126000D02*
X127323001Y-75126000D01*
G75*
G02*
X127573000Y-75375999I0J-249999D01*
G01*
X127573000Y-76026001D01*
G75*
G02*
X127323001Y-76276000I-249999J0D01*
G01*
X126422999Y-76276000D01*
G75*
G02*
X126173000Y-76026001I0J249999D01*
G01*
X126173000Y-75375999D01*
G75*
G02*
X126422999Y-75126000I249999J0D01*
G01*
G37*
G36*
G01*
X126422999Y-73076000D02*
X127323001Y-73076000D01*
G75*
G02*
X127573000Y-73325999I0J-249999D01*
G01*
X127573000Y-73976001D01*
G75*
G02*
X127323001Y-74226000I-249999J0D01*
G01*
X126422999Y-74226000D01*
G75*
G02*
X126173000Y-73976001I0J249999D01*
G01*
X126173000Y-73325999D01*
G75*
G02*
X126422999Y-73076000I249999J0D01*
G01*
G37*
%TD*%
%TO.C,C7*%
G36*
G01*
X73972000Y-94545999D02*
X73972000Y-95446001D01*
G75*
G02*
X73722001Y-95696000I-249999J0D01*
G01*
X73071999Y-95696000D01*
G75*
G02*
X72822000Y-95446001I0J249999D01*
G01*
X72822000Y-94545999D01*
G75*
G02*
X73071999Y-94296000I249999J0D01*
G01*
X73722001Y-94296000D01*
G75*
G02*
X73972000Y-94545999I0J-249999D01*
G01*
G37*
G36*
G01*
X76022000Y-94545999D02*
X76022000Y-95446001D01*
G75*
G02*
X75772001Y-95696000I-249999J0D01*
G01*
X75121999Y-95696000D01*
G75*
G02*
X74872000Y-95446001I0J249999D01*
G01*
X74872000Y-94545999D01*
G75*
G02*
X75121999Y-94296000I249999J0D01*
G01*
X75772001Y-94296000D01*
G75*
G02*
X76022000Y-94545999I0J-249999D01*
G01*
G37*
%TD*%
%TO.C,C8*%
G36*
G01*
X118814001Y-109169000D02*
X117913999Y-109169000D01*
G75*
G02*
X117664000Y-108919001I0J249999D01*
G01*
X117664000Y-108268999D01*
G75*
G02*
X117913999Y-108019000I249999J0D01*
G01*
X118814001Y-108019000D01*
G75*
G02*
X119064000Y-108268999I0J-249999D01*
G01*
X119064000Y-108919001D01*
G75*
G02*
X118814001Y-109169000I-249999J0D01*
G01*
G37*
G36*
G01*
X118814001Y-107119000D02*
X117913999Y-107119000D01*
G75*
G02*
X117664000Y-106869001I0J249999D01*
G01*
X117664000Y-106218999D01*
G75*
G02*
X117913999Y-105969000I249999J0D01*
G01*
X118814001Y-105969000D01*
G75*
G02*
X119064000Y-106218999I0J-249999D01*
G01*
X119064000Y-106869001D01*
G75*
G02*
X118814001Y-107119000I-249999J0D01*
G01*
G37*
%TD*%
%TO.C,C9*%
G36*
G01*
X129724999Y-88715000D02*
X130625001Y-88715000D01*
G75*
G02*
X130875000Y-88964999I0J-249999D01*
G01*
X130875000Y-89615001D01*
G75*
G02*
X130625001Y-89865000I-249999J0D01*
G01*
X129724999Y-89865000D01*
G75*
G02*
X129475000Y-89615001I0J249999D01*
G01*
X129475000Y-88964999D01*
G75*
G02*
X129724999Y-88715000I249999J0D01*
G01*
G37*
G36*
G01*
X129724999Y-86665000D02*
X130625001Y-86665000D01*
G75*
G02*
X130875000Y-86914999I0J-249999D01*
G01*
X130875000Y-87565001D01*
G75*
G02*
X130625001Y-87815000I-249999J0D01*
G01*
X129724999Y-87815000D01*
G75*
G02*
X129475000Y-87565001I0J249999D01*
G01*
X129475000Y-86914999D01*
G75*
G02*
X129724999Y-86665000I249999J0D01*
G01*
G37*
%TD*%
%TO.C,C10*%
G36*
G01*
X132645999Y-88715000D02*
X133546001Y-88715000D01*
G75*
G02*
X133796000Y-88964999I0J-249999D01*
G01*
X133796000Y-89615001D01*
G75*
G02*
X133546001Y-89865000I-249999J0D01*
G01*
X132645999Y-89865000D01*
G75*
G02*
X132396000Y-89615001I0J249999D01*
G01*
X132396000Y-88964999D01*
G75*
G02*
X132645999Y-88715000I249999J0D01*
G01*
G37*
G36*
G01*
X132645999Y-86665000D02*
X133546001Y-86665000D01*
G75*
G02*
X133796000Y-86914999I0J-249999D01*
G01*
X133796000Y-87565001D01*
G75*
G02*
X133546001Y-87815000I-249999J0D01*
G01*
X132645999Y-87815000D01*
G75*
G02*
X132396000Y-87565001I0J249999D01*
G01*
X132396000Y-86914999D01*
G75*
G02*
X132645999Y-86665000I249999J0D01*
G01*
G37*
%TD*%
%TO.C,C11*%
G36*
G01*
X118040999Y-89459000D02*
X118941001Y-89459000D01*
G75*
G02*
X119191000Y-89708999I0J-249999D01*
G01*
X119191000Y-90359001D01*
G75*
G02*
X118941001Y-90609000I-249999J0D01*
G01*
X118040999Y-90609000D01*
G75*
G02*
X117791000Y-90359001I0J249999D01*
G01*
X117791000Y-89708999D01*
G75*
G02*
X118040999Y-89459000I249999J0D01*
G01*
G37*
G36*
G01*
X118040999Y-91509000D02*
X118941001Y-91509000D01*
G75*
G02*
X119191000Y-91758999I0J-249999D01*
G01*
X119191000Y-92409001D01*
G75*
G02*
X118941001Y-92659000I-249999J0D01*
G01*
X118040999Y-92659000D01*
G75*
G02*
X117791000Y-92409001I0J249999D01*
G01*
X117791000Y-91758999D01*
G75*
G02*
X118040999Y-91509000I249999J0D01*
G01*
G37*
%TD*%
%TO.C,C12*%
G36*
G01*
X111817999Y-90239000D02*
X112718001Y-90239000D01*
G75*
G02*
X112968000Y-90488999I0J-249999D01*
G01*
X112968000Y-91139001D01*
G75*
G02*
X112718001Y-91389000I-249999J0D01*
G01*
X111817999Y-91389000D01*
G75*
G02*
X111568000Y-91139001I0J249999D01*
G01*
X111568000Y-90488999D01*
G75*
G02*
X111817999Y-90239000I249999J0D01*
G01*
G37*
G36*
G01*
X111817999Y-88189000D02*
X112718001Y-88189000D01*
G75*
G02*
X112968000Y-88438999I0J-249999D01*
G01*
X112968000Y-89089001D01*
G75*
G02*
X112718001Y-89339000I-249999J0D01*
G01*
X111817999Y-89339000D01*
G75*
G02*
X111568000Y-89089001I0J249999D01*
G01*
X111568000Y-88438999D01*
G75*
G02*
X111817999Y-88189000I249999J0D01*
G01*
G37*
%TD*%
%TO.C,C13*%
G36*
G01*
X72822000Y-92652001D02*
X72822000Y-91751999D01*
G75*
G02*
X73071999Y-91502000I249999J0D01*
G01*
X73722001Y-91502000D01*
G75*
G02*
X73972000Y-91751999I0J-249999D01*
G01*
X73972000Y-92652001D01*
G75*
G02*
X73722001Y-92902000I-249999J0D01*
G01*
X73071999Y-92902000D01*
G75*
G02*
X72822000Y-92652001I0J249999D01*
G01*
G37*
G36*
G01*
X74872000Y-92652001D02*
X74872000Y-91751999D01*
G75*
G02*
X75121999Y-91502000I249999J0D01*
G01*
X75772001Y-91502000D01*
G75*
G02*
X76022000Y-91751999I0J-249999D01*
G01*
X76022000Y-92652001D01*
G75*
G02*
X75772001Y-92902000I-249999J0D01*
G01*
X75121999Y-92902000D01*
G75*
G02*
X74872000Y-92652001I0J249999D01*
G01*
G37*
%TD*%
%TO.C,C15*%
G36*
G01*
X76022000Y-97339999D02*
X76022000Y-98240001D01*
G75*
G02*
X75772001Y-98490000I-249999J0D01*
G01*
X75121999Y-98490000D01*
G75*
G02*
X74872000Y-98240001I0J249999D01*
G01*
X74872000Y-97339999D01*
G75*
G02*
X75121999Y-97090000I249999J0D01*
G01*
X75772001Y-97090000D01*
G75*
G02*
X76022000Y-97339999I0J-249999D01*
G01*
G37*
G36*
G01*
X73972000Y-97339999D02*
X73972000Y-98240001D01*
G75*
G02*
X73722001Y-98490000I-249999J0D01*
G01*
X73071999Y-98490000D01*
G75*
G02*
X72822000Y-98240001I0J249999D01*
G01*
X72822000Y-97339999D01*
G75*
G02*
X73071999Y-97090000I249999J0D01*
G01*
X73722001Y-97090000D01*
G75*
G02*
X73972000Y-97339999I0J-249999D01*
G01*
G37*
%TD*%
%TO.C,C16*%
G36*
G01*
X81591999Y-91636000D02*
X82492001Y-91636000D01*
G75*
G02*
X82742000Y-91885999I0J-249999D01*
G01*
X82742000Y-92536001D01*
G75*
G02*
X82492001Y-92786000I-249999J0D01*
G01*
X81591999Y-92786000D01*
G75*
G02*
X81342000Y-92536001I0J249999D01*
G01*
X81342000Y-91885999D01*
G75*
G02*
X81591999Y-91636000I249999J0D01*
G01*
G37*
G36*
G01*
X81591999Y-89586000D02*
X82492001Y-89586000D01*
G75*
G02*
X82742000Y-89835999I0J-249999D01*
G01*
X82742000Y-90486001D01*
G75*
G02*
X82492001Y-90736000I-249999J0D01*
G01*
X81591999Y-90736000D01*
G75*
G02*
X81342000Y-90486001I0J249999D01*
G01*
X81342000Y-89835999D01*
G75*
G02*
X81591999Y-89586000I249999J0D01*
G01*
G37*
%TD*%
%TO.C,C17*%
G36*
G01*
X85147999Y-89586000D02*
X86048001Y-89586000D01*
G75*
G02*
X86298000Y-89835999I0J-249999D01*
G01*
X86298000Y-90486001D01*
G75*
G02*
X86048001Y-90736000I-249999J0D01*
G01*
X85147999Y-90736000D01*
G75*
G02*
X84898000Y-90486001I0J249999D01*
G01*
X84898000Y-89835999D01*
G75*
G02*
X85147999Y-89586000I249999J0D01*
G01*
G37*
G36*
G01*
X85147999Y-91636000D02*
X86048001Y-91636000D01*
G75*
G02*
X86298000Y-91885999I0J-249999D01*
G01*
X86298000Y-92536001D01*
G75*
G02*
X86048001Y-92786000I-249999J0D01*
G01*
X85147999Y-92786000D01*
G75*
G02*
X84898000Y-92536001I0J249999D01*
G01*
X84898000Y-91885999D01*
G75*
G02*
X85147999Y-91636000I249999J0D01*
G01*
G37*
%TD*%
%TO.C,C18*%
G36*
G01*
X114738999Y-108019000D02*
X115639001Y-108019000D01*
G75*
G02*
X115889000Y-108268999I0J-249999D01*
G01*
X115889000Y-108919001D01*
G75*
G02*
X115639001Y-109169000I-249999J0D01*
G01*
X114738999Y-109169000D01*
G75*
G02*
X114489000Y-108919001I0J249999D01*
G01*
X114489000Y-108268999D01*
G75*
G02*
X114738999Y-108019000I249999J0D01*
G01*
G37*
G36*
G01*
X114738999Y-105969000D02*
X115639001Y-105969000D01*
G75*
G02*
X115889000Y-106218999I0J-249999D01*
G01*
X115889000Y-106869001D01*
G75*
G02*
X115639001Y-107119000I-249999J0D01*
G01*
X114738999Y-107119000D01*
G75*
G02*
X114489000Y-106869001I0J249999D01*
G01*
X114489000Y-106218999D01*
G75*
G02*
X114738999Y-105969000I249999J0D01*
G01*
G37*
%TD*%
%TO.C,R2*%
G36*
G01*
X129725000Y-124263999D02*
X129725000Y-125164001D01*
G75*
G02*
X129475001Y-125414000I-249999J0D01*
G01*
X128824999Y-125414000D01*
G75*
G02*
X128575000Y-125164001I0J249999D01*
G01*
X128575000Y-124263999D01*
G75*
G02*
X128824999Y-124014000I249999J0D01*
G01*
X129475001Y-124014000D01*
G75*
G02*
X129725000Y-124263999I0J-249999D01*
G01*
G37*
G36*
G01*
X131775000Y-124263999D02*
X131775000Y-125164001D01*
G75*
G02*
X131525001Y-125414000I-249999J0D01*
G01*
X130874999Y-125414000D01*
G75*
G02*
X130625000Y-125164001I0J249999D01*
G01*
X130625000Y-124263999D01*
G75*
G02*
X130874999Y-124014000I249999J0D01*
G01*
X131525001Y-124014000D01*
G75*
G02*
X131775000Y-124263999I0J-249999D01*
G01*
G37*
%TD*%
%TO.C,R3*%
G36*
G01*
X126187000Y-124263999D02*
X126187000Y-125164001D01*
G75*
G02*
X125937001Y-125414000I-249999J0D01*
G01*
X125286999Y-125414000D01*
G75*
G02*
X125037000Y-125164001I0J249999D01*
G01*
X125037000Y-124263999D01*
G75*
G02*
X125286999Y-124014000I249999J0D01*
G01*
X125937001Y-124014000D01*
G75*
G02*
X126187000Y-124263999I0J-249999D01*
G01*
G37*
G36*
G01*
X124137000Y-124263999D02*
X124137000Y-125164001D01*
G75*
G02*
X123887001Y-125414000I-249999J0D01*
G01*
X123236999Y-125414000D01*
G75*
G02*
X122987000Y-125164001I0J249999D01*
G01*
X122987000Y-124263999D01*
G75*
G02*
X123236999Y-124014000I249999J0D01*
G01*
X123887001Y-124014000D01*
G75*
G02*
X124137000Y-124263999I0J-249999D01*
G01*
G37*
%TD*%
%TO.C,R5*%
G36*
G01*
X93668001Y-107645000D02*
X92767999Y-107645000D01*
G75*
G02*
X92518000Y-107395001I0J249999D01*
G01*
X92518000Y-106744999D01*
G75*
G02*
X92767999Y-106495000I249999J0D01*
G01*
X93668001Y-106495000D01*
G75*
G02*
X93918000Y-106744999I0J-249999D01*
G01*
X93918000Y-107395001D01*
G75*
G02*
X93668001Y-107645000I-249999J0D01*
G01*
G37*
G36*
G01*
X93668001Y-105595000D02*
X92767999Y-105595000D01*
G75*
G02*
X92518000Y-105345001I0J249999D01*
G01*
X92518000Y-104694999D01*
G75*
G02*
X92767999Y-104445000I249999J0D01*
G01*
X93668001Y-104445000D01*
G75*
G02*
X93918000Y-104694999I0J-249999D01*
G01*
X93918000Y-105345001D01*
G75*
G02*
X93668001Y-105595000I-249999J0D01*
G01*
G37*
%TD*%
%TO.C,R6*%
G36*
G01*
X100515000Y-106864999D02*
X100515000Y-107765001D01*
G75*
G02*
X100265001Y-108015000I-249999J0D01*
G01*
X99614999Y-108015000D01*
G75*
G02*
X99365000Y-107765001I0J249999D01*
G01*
X99365000Y-106864999D01*
G75*
G02*
X99614999Y-106615000I249999J0D01*
G01*
X100265001Y-106615000D01*
G75*
G02*
X100515000Y-106864999I0J-249999D01*
G01*
G37*
G36*
G01*
X102565000Y-106864999D02*
X102565000Y-107765001D01*
G75*
G02*
X102315001Y-108015000I-249999J0D01*
G01*
X101664999Y-108015000D01*
G75*
G02*
X101415000Y-107765001I0J249999D01*
G01*
X101415000Y-106864999D01*
G75*
G02*
X101664999Y-106615000I249999J0D01*
G01*
X102315001Y-106615000D01*
G75*
G02*
X102565000Y-106864999I0J-249999D01*
G01*
G37*
%TD*%
%TO.C,R7*%
G36*
G01*
X99365000Y-105098001D02*
X99365000Y-104197999D01*
G75*
G02*
X99614999Y-103948000I249999J0D01*
G01*
X100265001Y-103948000D01*
G75*
G02*
X100515000Y-104197999I0J-249999D01*
G01*
X100515000Y-105098001D01*
G75*
G02*
X100265001Y-105348000I-249999J0D01*
G01*
X99614999Y-105348000D01*
G75*
G02*
X99365000Y-105098001I0J249999D01*
G01*
G37*
G36*
G01*
X101415000Y-105098001D02*
X101415000Y-104197999D01*
G75*
G02*
X101664999Y-103948000I249999J0D01*
G01*
X102315001Y-103948000D01*
G75*
G02*
X102565000Y-104197999I0J-249999D01*
G01*
X102565000Y-105098001D01*
G75*
G02*
X102315001Y-105348000I-249999J0D01*
G01*
X101664999Y-105348000D01*
G75*
G02*
X101415000Y-105098001I0J249999D01*
G01*
G37*
%TD*%
%TO.C,R8*%
G36*
G01*
X83635001Y-76258000D02*
X82734999Y-76258000D01*
G75*
G02*
X82485000Y-76008001I0J249999D01*
G01*
X82485000Y-75357999D01*
G75*
G02*
X82734999Y-75108000I249999J0D01*
G01*
X83635001Y-75108000D01*
G75*
G02*
X83885000Y-75357999I0J-249999D01*
G01*
X83885000Y-76008001D01*
G75*
G02*
X83635001Y-76258000I-249999J0D01*
G01*
G37*
G36*
G01*
X83635001Y-78308000D02*
X82734999Y-78308000D01*
G75*
G02*
X82485000Y-78058001I0J249999D01*
G01*
X82485000Y-77407999D01*
G75*
G02*
X82734999Y-77158000I249999J0D01*
G01*
X83635001Y-77158000D01*
G75*
G02*
X83885000Y-77407999I0J-249999D01*
G01*
X83885000Y-78058001D01*
G75*
G02*
X83635001Y-78308000I-249999J0D01*
G01*
G37*
%TD*%
%TO.C,R11*%
G36*
G01*
X133292001Y-95707000D02*
X132391999Y-95707000D01*
G75*
G02*
X132142000Y-95457001I0J249999D01*
G01*
X132142000Y-94806999D01*
G75*
G02*
X132391999Y-94557000I249999J0D01*
G01*
X133292001Y-94557000D01*
G75*
G02*
X133542000Y-94806999I0J-249999D01*
G01*
X133542000Y-95457001D01*
G75*
G02*
X133292001Y-95707000I-249999J0D01*
G01*
G37*
G36*
G01*
X133292001Y-93657000D02*
X132391999Y-93657000D01*
G75*
G02*
X132142000Y-93407001I0J249999D01*
G01*
X132142000Y-92756999D01*
G75*
G02*
X132391999Y-92507000I249999J0D01*
G01*
X133292001Y-92507000D01*
G75*
G02*
X133542000Y-92756999I0J-249999D01*
G01*
X133542000Y-93407001D01*
G75*
G02*
X133292001Y-93657000I-249999J0D01*
G01*
G37*
%TD*%
%TO.C,R12*%
G36*
G01*
X130752001Y-93657000D02*
X129851999Y-93657000D01*
G75*
G02*
X129602000Y-93407001I0J249999D01*
G01*
X129602000Y-92756999D01*
G75*
G02*
X129851999Y-92507000I249999J0D01*
G01*
X130752001Y-92507000D01*
G75*
G02*
X131002000Y-92756999I0J-249999D01*
G01*
X131002000Y-93407001D01*
G75*
G02*
X130752001Y-93657000I-249999J0D01*
G01*
G37*
G36*
G01*
X130752001Y-95707000D02*
X129851999Y-95707000D01*
G75*
G02*
X129602000Y-95457001I0J249999D01*
G01*
X129602000Y-94806999D01*
G75*
G02*
X129851999Y-94557000I249999J0D01*
G01*
X130752001Y-94557000D01*
G75*
G02*
X131002000Y-94806999I0J-249999D01*
G01*
X131002000Y-95457001D01*
G75*
G02*
X130752001Y-95707000I-249999J0D01*
G01*
G37*
%TD*%
M02*
