%TF.GenerationSoftware,KiCad,Pcbnew,(5.1.8)-1*%
%TF.CreationDate,2021-07-11T12:48:12+05:30*%
%TF.ProjectId,AC_RMS_ESP32_ATM90E26,41435f52-4d53-45f4-9553-5033325f4154,V2*%
%TF.SameCoordinates,Original*%
%TF.FileFunction,Soldermask,Bot*%
%TF.FilePolarity,Negative*%
%FSLAX46Y46*%
G04 Gerber Fmt 4.6, Leading zero omitted, Abs format (unit mm)*
G04 Created by KiCad (PCBNEW (5.1.8)-1) date 2021-07-11 12:48:12*
%MOMM*%
%LPD*%
G01*
G04 APERTURE LIST*
%TA.AperFunction,Profile*%
%ADD10C,0.050000*%
%TD*%
%ADD11O,1.700000X1.700000*%
%ADD12R,1.700000X1.700000*%
%ADD13C,0.550000*%
%ADD14O,1.500000X2.000000*%
%ADD15C,2.000000*%
%ADD16C,1.500000*%
G04 APERTURE END LIST*
D10*
X137795000Y-66040000D02*
X137795000Y-133858000D01*
X69977000Y-66040000D02*
X69977000Y-133858000D01*
X134620000Y-102997000D02*
G75*
G03*
X134620000Y-102997000I-1778000J0D01*
G01*
X76585530Y-103124000D02*
G75*
G03*
X76585530Y-103124000I-1782530J0D01*
G01*
X137795000Y-66040000D02*
X122301000Y-66040000D01*
X122301000Y-66040000D02*
X85471000Y-66040000D01*
X85471000Y-66040000D02*
X69977000Y-66040000D01*
X122301000Y-133858000D02*
X137795000Y-133858000D01*
X85471000Y-133858000D02*
X122301000Y-133858000D01*
X69977000Y-133858000D02*
X85471000Y-133858000D01*
D11*
%TO.C,J11*%
X114066000Y-117866000D03*
D12*
X114066000Y-115326000D03*
%TD*%
D13*
%TO.C,J4*%
X132935000Y-70535000D03*
X132935000Y-74535000D03*
%TD*%
D12*
%TO.C,J3*%
X109911000Y-115326000D03*
D11*
X109911000Y-117866000D03*
%TD*%
D12*
%TO.C,J2*%
X105898000Y-115326000D03*
D11*
X105898000Y-117866000D03*
%TD*%
D12*
%TO.C,J5*%
X97637600Y-117876000D03*
D11*
X97637600Y-115336000D03*
%TD*%
%TO.C,J6*%
X101651000Y-117866000D03*
D12*
X101651000Y-115326000D03*
%TD*%
%TO.C,J10*%
X78994000Y-83693000D03*
D11*
X81534000Y-83693000D03*
%TD*%
%TO.C,J7*%
X112522000Y-82677000D03*
D12*
X109982000Y-82677000D03*
%TD*%
D14*
%TO.C,J8*%
X76983000Y-116205000D03*
D15*
X81383000Y-116205000D03*
%TD*%
D12*
%TO.C,J9*%
X110744000Y-128397000D03*
D11*
X108204000Y-128397000D03*
X105664000Y-128397000D03*
X103124000Y-128397000D03*
X100584000Y-128397000D03*
X98044000Y-128397000D03*
%TD*%
%TO.C,J12*%
X118222000Y-115336000D03*
D12*
X118222000Y-117876000D03*
%TD*%
%TO.C,J13*%
X89344500Y-115326000D03*
D11*
X89344500Y-117866000D03*
%TD*%
D12*
%TO.C,J14*%
X93332300Y-117876000D03*
D11*
X93332300Y-115336000D03*
%TD*%
D16*
%TO.C,J1*%
X133553000Y-113919000D03*
X126553000Y-113919000D03*
%TD*%
M02*
