M48
; DRILL file {KiCad (5.1.8)-1} date 05/25/21 14:35:35
; FORMAT={-:-/ absolute / inch / decimal}
; #@! TF.CreationDate,2021-05-25T14:35:35+05:30
; #@! TF.GenerationSoftware,Kicad,Pcbnew,(5.1.8)-1
; #@! TF.FileFunction,Plated,1,2,PTH
FMAT,2
INCH
T1C0.0157
T2C0.0256
T3C0.0394
T4C0.0512
%
G90
G05
T1
X3.7881Y-4.394
X3.8096Y-3.4118
X3.9379Y-5.4339
X3.97Y-3.6503
X4.0206Y-3.2029
X4.1Y-3.6817
X4.1631Y-3.3441
X4.2294Y-5.3863
X4.515Y-3.903
X4.7385Y-3.9253
X4.864Y-5.4253
X4.9156Y-3.7046
X5.0229Y-5.433
X5.0723Y-4.2763
X5.0727Y-4.4322
X5.0773Y-4.0935
X5.1715Y-4.0173
X5.3349Y-4.4267
X5.369Y-4.1077
X5.4154Y-3.0314
X5.4413Y-3.1798
X5.5151Y-4.6755
X5.5185Y-4.181
X5.5806Y-3.8887
X5.6177Y-4.3686
X5.6189Y-4.0423
X5.7004Y-3.2604
T2
X4.48Y-4.26
X4.48Y-4.31
X4.48Y-4.36
X4.48Y-4.41
X4.48Y-4.46
X4.53Y-4.26
X4.53Y-4.31
X4.53Y-4.36
X4.53Y-4.41
X4.53Y-4.46
T3
X4.74Y-3.235
X4.74Y-3.335
X4.49Y-3.015
X4.59Y-3.015
X3.65Y-3.665
X3.65Y-3.765
X3.835Y-3.075
X3.835Y-3.175
X4.1675Y-5.025
X4.2675Y-5.025
X4.315Y-3.29
X4.315Y-3.3884
X4.975Y-5.115
X4.975Y-5.215
X5.05Y-3.0475
X5.15Y-3.0475
T4
X3.445Y-3.05
X3.445Y-3.25
X3.46Y-4.17
X3.46Y-4.37
T0
M30
