%TF.GenerationSoftware,KiCad,Pcbnew,(5.1.8)-1*%
%TF.CreationDate,2021-05-25T14:35:32+05:30*%
%TF.ProjectId,ATM90_WLR_BOARD,41544d39-305f-4574-9c52-5f424f415244,rev?*%
%TF.SameCoordinates,Original*%
%TF.FileFunction,Soldermask,Top*%
%TF.FilePolarity,Negative*%
%FSLAX46Y46*%
G04 Gerber Fmt 4.6, Leading zero omitted, Abs format (unit mm)*
G04 Created by KiCad (PCBNEW (5.1.8)-1) date 2021-05-25 14:35:32*
%MOMM*%
%LPD*%
G01*
G04 APERTURE LIST*
%TA.AperFunction,Profile*%
%ADD10C,0.050000*%
%TD*%
%ADD11R,1.900000X1.900000*%
%ADD12C,0.550000*%
%ADD13R,1.800000X0.400000*%
%ADD14R,1.500000X1.500000*%
%ADD15O,2.000000X1.700000*%
%ADD16R,1.200000X0.900000*%
%ADD17R,0.900000X1.200000*%
%ADD18R,0.700000X2.000000*%
%ADD19R,0.700000X1.500000*%
%ADD20R,1.500000X0.700000*%
%ADD21R,2.000000X0.700000*%
%ADD22R,3.030000X3.000000*%
%ADD23O,1.500000X2.000000*%
%ADD24C,2.000000*%
%ADD25R,2.000000X3.000000*%
%ADD26R,1.200000X2.500000*%
%ADD27C,1.500000*%
%ADD28C,2.600000*%
%ADD29R,2.600000X2.600000*%
%ADD30R,1.700000X1.700000*%
%ADD31O,1.700000X1.700000*%
%ADD32O,1.000000X1.000000*%
%ADD33R,1.000000X1.000000*%
%ADD34C,0.100000*%
%ADD35R,1.500000X1.000000*%
%ADD36R,0.900000X0.800000*%
%ADD37R,1.560000X0.650000*%
%ADD38R,0.300000X1.400000*%
G04 APERTURE END LIST*
D10*
X80391000Y-135890000D02*
X80391000Y-72517000D01*
X148463000Y-72517000D02*
X148463000Y-135890000D01*
X148463000Y-72517000D02*
X80391000Y-72517000D01*
X132842000Y-135890000D02*
X148463000Y-135890000D01*
X132842000Y-143256000D02*
X132842000Y-135890000D01*
X96012000Y-135890000D02*
X96012000Y-143256000D01*
X80391000Y-135890000D02*
X96012000Y-135890000D01*
X96012000Y-143256000D02*
X132842000Y-143256000D01*
X115951000Y-136906000D02*
G75*
G03*
X115951000Y-136906000I-1524000J0D01*
G01*
X145034000Y-88773000D02*
G75*
G03*
X145034000Y-88773000I-1524000J0D01*
G01*
X86995000Y-88773000D02*
G75*
G03*
X86995000Y-88773000I-1524000J0D01*
G01*
D11*
%TO.C,J6*%
X83140000Y-95410000D03*
X83140000Y-97810000D03*
X83140000Y-100560000D03*
X83140000Y-92660000D03*
D12*
X85290000Y-98610000D03*
X85290000Y-94610000D03*
D13*
X86040000Y-97910000D03*
X86040000Y-97260000D03*
X86040000Y-96610000D03*
X86040000Y-95310000D03*
X86040000Y-95960000D03*
%TD*%
%TO.C,R15*%
G36*
G01*
X96741500Y-112474500D02*
X96741500Y-112949500D01*
G75*
G02*
X96504000Y-113187000I-237500J0D01*
G01*
X95929000Y-113187000D01*
G75*
G02*
X95691500Y-112949500I0J237500D01*
G01*
X95691500Y-112474500D01*
G75*
G02*
X95929000Y-112237000I237500J0D01*
G01*
X96504000Y-112237000D01*
G75*
G02*
X96741500Y-112474500I0J-237500D01*
G01*
G37*
G36*
G01*
X98491500Y-112474500D02*
X98491500Y-112949500D01*
G75*
G02*
X98254000Y-113187000I-237500J0D01*
G01*
X97679000Y-113187000D01*
G75*
G02*
X97441500Y-112949500I0J237500D01*
G01*
X97441500Y-112474500D01*
G75*
G02*
X97679000Y-112237000I237500J0D01*
G01*
X98254000Y-112237000D01*
G75*
G02*
X98491500Y-112474500I0J-237500D01*
G01*
G37*
%TD*%
%TO.C,R14*%
G36*
G01*
X97314500Y-104187500D02*
X97314500Y-103712500D01*
G75*
G02*
X97552000Y-103475000I237500J0D01*
G01*
X98127000Y-103475000D01*
G75*
G02*
X98364500Y-103712500I0J-237500D01*
G01*
X98364500Y-104187500D01*
G75*
G02*
X98127000Y-104425000I-237500J0D01*
G01*
X97552000Y-104425000D01*
G75*
G02*
X97314500Y-104187500I0J237500D01*
G01*
G37*
G36*
G01*
X95564500Y-104187500D02*
X95564500Y-103712500D01*
G75*
G02*
X95802000Y-103475000I237500J0D01*
G01*
X96377000Y-103475000D01*
G75*
G02*
X96614500Y-103712500I0J-237500D01*
G01*
X96614500Y-104187500D01*
G75*
G02*
X96377000Y-104425000I-237500J0D01*
G01*
X95802000Y-104425000D01*
G75*
G02*
X95564500Y-104187500I0J237500D01*
G01*
G37*
%TD*%
%TO.C,R13*%
G36*
G01*
X126080000Y-95424500D02*
X126080000Y-94949500D01*
G75*
G02*
X126317500Y-94712000I237500J0D01*
G01*
X126892500Y-94712000D01*
G75*
G02*
X127130000Y-94949500I0J-237500D01*
G01*
X127130000Y-95424500D01*
G75*
G02*
X126892500Y-95662000I-237500J0D01*
G01*
X126317500Y-95662000D01*
G75*
G02*
X126080000Y-95424500I0J237500D01*
G01*
G37*
G36*
G01*
X124330000Y-95424500D02*
X124330000Y-94949500D01*
G75*
G02*
X124567500Y-94712000I237500J0D01*
G01*
X125142500Y-94712000D01*
G75*
G02*
X125380000Y-94949500I0J-237500D01*
G01*
X125380000Y-95424500D01*
G75*
G02*
X125142500Y-95662000I-237500J0D01*
G01*
X124567500Y-95662000D01*
G75*
G02*
X124330000Y-95424500I0J237500D01*
G01*
G37*
%TD*%
%TO.C,R12*%
G36*
G01*
X126080000Y-91296500D02*
X126080000Y-90821500D01*
G75*
G02*
X126317500Y-90584000I237500J0D01*
G01*
X126892500Y-90584000D01*
G75*
G02*
X127130000Y-90821500I0J-237500D01*
G01*
X127130000Y-91296500D01*
G75*
G02*
X126892500Y-91534000I-237500J0D01*
G01*
X126317500Y-91534000D01*
G75*
G02*
X126080000Y-91296500I0J237500D01*
G01*
G37*
G36*
G01*
X124330000Y-91296500D02*
X124330000Y-90821500D01*
G75*
G02*
X124567500Y-90584000I237500J0D01*
G01*
X125142500Y-90584000D01*
G75*
G02*
X125380000Y-90821500I0J-237500D01*
G01*
X125380000Y-91296500D01*
G75*
G02*
X125142500Y-91534000I-237500J0D01*
G01*
X124567500Y-91534000D01*
G75*
G02*
X124330000Y-91296500I0J237500D01*
G01*
G37*
%TD*%
%TO.C,R11*%
G36*
G01*
X128620000Y-118855500D02*
X128620000Y-118380500D01*
G75*
G02*
X128857500Y-118143000I237500J0D01*
G01*
X129432500Y-118143000D01*
G75*
G02*
X129670000Y-118380500I0J-237500D01*
G01*
X129670000Y-118855500D01*
G75*
G02*
X129432500Y-119093000I-237500J0D01*
G01*
X128857500Y-119093000D01*
G75*
G02*
X128620000Y-118855500I0J237500D01*
G01*
G37*
G36*
G01*
X126870000Y-118855500D02*
X126870000Y-118380500D01*
G75*
G02*
X127107500Y-118143000I237500J0D01*
G01*
X127682500Y-118143000D01*
G75*
G02*
X127920000Y-118380500I0J-237500D01*
G01*
X127920000Y-118855500D01*
G75*
G02*
X127682500Y-119093000I-237500J0D01*
G01*
X127107500Y-119093000D01*
G75*
G02*
X126870000Y-118855500I0J237500D01*
G01*
G37*
%TD*%
%TO.C,R10*%
G36*
G01*
X102647000Y-80026500D02*
X102647000Y-80501500D01*
G75*
G02*
X102409500Y-80739000I-237500J0D01*
G01*
X101834500Y-80739000D01*
G75*
G02*
X101597000Y-80501500I0J237500D01*
G01*
X101597000Y-80026500D01*
G75*
G02*
X101834500Y-79789000I237500J0D01*
G01*
X102409500Y-79789000D01*
G75*
G02*
X102647000Y-80026500I0J-237500D01*
G01*
G37*
G36*
G01*
X104397000Y-80026500D02*
X104397000Y-80501500D01*
G75*
G02*
X104159500Y-80739000I-237500J0D01*
G01*
X103584500Y-80739000D01*
G75*
G02*
X103347000Y-80501500I0J237500D01*
G01*
X103347000Y-80026500D01*
G75*
G02*
X103584500Y-79789000I237500J0D01*
G01*
X104159500Y-79789000D01*
G75*
G02*
X104397000Y-80026500I0J-237500D01*
G01*
G37*
%TD*%
%TO.C,R9*%
G36*
G01*
X100600500Y-91063000D02*
X101075500Y-91063000D01*
G75*
G02*
X101313000Y-91300500I0J-237500D01*
G01*
X101313000Y-91875500D01*
G75*
G02*
X101075500Y-92113000I-237500J0D01*
G01*
X100600500Y-92113000D01*
G75*
G02*
X100363000Y-91875500I0J237500D01*
G01*
X100363000Y-91300500D01*
G75*
G02*
X100600500Y-91063000I237500J0D01*
G01*
G37*
G36*
G01*
X100600500Y-89313000D02*
X101075500Y-89313000D01*
G75*
G02*
X101313000Y-89550500I0J-237500D01*
G01*
X101313000Y-90125500D01*
G75*
G02*
X101075500Y-90363000I-237500J0D01*
G01*
X100600500Y-90363000D01*
G75*
G02*
X100363000Y-90125500I0J237500D01*
G01*
X100363000Y-89550500D01*
G75*
G02*
X100600500Y-89313000I237500J0D01*
G01*
G37*
%TD*%
%TO.C,R8*%
G36*
G01*
X93710000Y-89645500D02*
X93710000Y-89170500D01*
G75*
G02*
X93947500Y-88933000I237500J0D01*
G01*
X94522500Y-88933000D01*
G75*
G02*
X94760000Y-89170500I0J-237500D01*
G01*
X94760000Y-89645500D01*
G75*
G02*
X94522500Y-89883000I-237500J0D01*
G01*
X93947500Y-89883000D01*
G75*
G02*
X93710000Y-89645500I0J237500D01*
G01*
G37*
G36*
G01*
X91960000Y-89645500D02*
X91960000Y-89170500D01*
G75*
G02*
X92197500Y-88933000I237500J0D01*
G01*
X92772500Y-88933000D01*
G75*
G02*
X93010000Y-89170500I0J-237500D01*
G01*
X93010000Y-89645500D01*
G75*
G02*
X92772500Y-89883000I-237500J0D01*
G01*
X92197500Y-89883000D01*
G75*
G02*
X91960000Y-89645500I0J237500D01*
G01*
G37*
%TD*%
%TO.C,R7*%
G36*
G01*
X106903000Y-135937500D02*
X106903000Y-135462500D01*
G75*
G02*
X107140500Y-135225000I237500J0D01*
G01*
X107715500Y-135225000D01*
G75*
G02*
X107953000Y-135462500I0J-237500D01*
G01*
X107953000Y-135937500D01*
G75*
G02*
X107715500Y-136175000I-237500J0D01*
G01*
X107140500Y-136175000D01*
G75*
G02*
X106903000Y-135937500I0J237500D01*
G01*
G37*
G36*
G01*
X105153000Y-135937500D02*
X105153000Y-135462500D01*
G75*
G02*
X105390500Y-135225000I237500J0D01*
G01*
X105965500Y-135225000D01*
G75*
G02*
X106203000Y-135462500I0J-237500D01*
G01*
X106203000Y-135937500D01*
G75*
G02*
X105965500Y-136175000I-237500J0D01*
G01*
X105390500Y-136175000D01*
G75*
G02*
X105153000Y-135937500I0J237500D01*
G01*
G37*
%TD*%
%TO.C,R6*%
G36*
G01*
X106203000Y-131461500D02*
X106203000Y-131936500D01*
G75*
G02*
X105965500Y-132174000I-237500J0D01*
G01*
X105390500Y-132174000D01*
G75*
G02*
X105153000Y-131936500I0J237500D01*
G01*
X105153000Y-131461500D01*
G75*
G02*
X105390500Y-131224000I237500J0D01*
G01*
X105965500Y-131224000D01*
G75*
G02*
X106203000Y-131461500I0J-237500D01*
G01*
G37*
G36*
G01*
X107953000Y-131461500D02*
X107953000Y-131936500D01*
G75*
G02*
X107715500Y-132174000I-237500J0D01*
G01*
X107140500Y-132174000D01*
G75*
G02*
X106903000Y-131936500I0J237500D01*
G01*
X106903000Y-131461500D01*
G75*
G02*
X107140500Y-131224000I237500J0D01*
G01*
X107715500Y-131224000D01*
G75*
G02*
X107953000Y-131461500I0J-237500D01*
G01*
G37*
%TD*%
%TO.C,R5*%
G36*
G01*
X122190500Y-137891000D02*
X122665500Y-137891000D01*
G75*
G02*
X122903000Y-138128500I0J-237500D01*
G01*
X122903000Y-138703500D01*
G75*
G02*
X122665500Y-138941000I-237500J0D01*
G01*
X122190500Y-138941000D01*
G75*
G02*
X121953000Y-138703500I0J237500D01*
G01*
X121953000Y-138128500D01*
G75*
G02*
X122190500Y-137891000I237500J0D01*
G01*
G37*
G36*
G01*
X122190500Y-136141000D02*
X122665500Y-136141000D01*
G75*
G02*
X122903000Y-136378500I0J-237500D01*
G01*
X122903000Y-136953500D01*
G75*
G02*
X122665500Y-137191000I-237500J0D01*
G01*
X122190500Y-137191000D01*
G75*
G02*
X121953000Y-136953500I0J237500D01*
G01*
X121953000Y-136378500D01*
G75*
G02*
X122190500Y-136141000I237500J0D01*
G01*
G37*
%TD*%
%TO.C,R4*%
G36*
G01*
X122190500Y-131033000D02*
X122665500Y-131033000D01*
G75*
G02*
X122903000Y-131270500I0J-237500D01*
G01*
X122903000Y-131845500D01*
G75*
G02*
X122665500Y-132083000I-237500J0D01*
G01*
X122190500Y-132083000D01*
G75*
G02*
X121953000Y-131845500I0J237500D01*
G01*
X121953000Y-131270500D01*
G75*
G02*
X122190500Y-131033000I237500J0D01*
G01*
G37*
G36*
G01*
X122190500Y-129283000D02*
X122665500Y-129283000D01*
G75*
G02*
X122903000Y-129520500I0J-237500D01*
G01*
X122903000Y-130095500D01*
G75*
G02*
X122665500Y-130333000I-237500J0D01*
G01*
X122190500Y-130333000D01*
G75*
G02*
X121953000Y-130095500I0J237500D01*
G01*
X121953000Y-129520500D01*
G75*
G02*
X122190500Y-129283000I237500J0D01*
G01*
G37*
%TD*%
%TO.C,R3*%
G36*
G01*
X99901500Y-130652000D02*
X100376500Y-130652000D01*
G75*
G02*
X100614000Y-130889500I0J-237500D01*
G01*
X100614000Y-131464500D01*
G75*
G02*
X100376500Y-131702000I-237500J0D01*
G01*
X99901500Y-131702000D01*
G75*
G02*
X99664000Y-131464500I0J237500D01*
G01*
X99664000Y-130889500D01*
G75*
G02*
X99901500Y-130652000I237500J0D01*
G01*
G37*
G36*
G01*
X99901500Y-128902000D02*
X100376500Y-128902000D01*
G75*
G02*
X100614000Y-129139500I0J-237500D01*
G01*
X100614000Y-129714500D01*
G75*
G02*
X100376500Y-129952000I-237500J0D01*
G01*
X99901500Y-129952000D01*
G75*
G02*
X99664000Y-129714500I0J237500D01*
G01*
X99664000Y-129139500D01*
G75*
G02*
X99901500Y-128902000I237500J0D01*
G01*
G37*
%TD*%
%TO.C,R2*%
G36*
G01*
X99901500Y-124175000D02*
X100376500Y-124175000D01*
G75*
G02*
X100614000Y-124412500I0J-237500D01*
G01*
X100614000Y-124987500D01*
G75*
G02*
X100376500Y-125225000I-237500J0D01*
G01*
X99901500Y-125225000D01*
G75*
G02*
X99664000Y-124987500I0J237500D01*
G01*
X99664000Y-124412500D01*
G75*
G02*
X99901500Y-124175000I237500J0D01*
G01*
G37*
G36*
G01*
X99901500Y-122425000D02*
X100376500Y-122425000D01*
G75*
G02*
X100614000Y-122662500I0J-237500D01*
G01*
X100614000Y-123237500D01*
G75*
G02*
X100376500Y-123475000I-237500J0D01*
G01*
X99901500Y-123475000D01*
G75*
G02*
X99664000Y-123237500I0J237500D01*
G01*
X99664000Y-122662500D01*
G75*
G02*
X99901500Y-122425000I237500J0D01*
G01*
G37*
%TD*%
%TO.C,D1*%
G36*
G01*
X97224001Y-94546000D02*
X96323999Y-94546000D01*
G75*
G02*
X96074000Y-94296001I0J249999D01*
G01*
X96074000Y-93645999D01*
G75*
G02*
X96323999Y-93396000I249999J0D01*
G01*
X97224001Y-93396000D01*
G75*
G02*
X97474000Y-93645999I0J-249999D01*
G01*
X97474000Y-94296001D01*
G75*
G02*
X97224001Y-94546000I-249999J0D01*
G01*
G37*
G36*
G01*
X97224001Y-96596000D02*
X96323999Y-96596000D01*
G75*
G02*
X96074000Y-96346001I0J249999D01*
G01*
X96074000Y-95695999D01*
G75*
G02*
X96323999Y-95446000I249999J0D01*
G01*
X97224001Y-95446000D01*
G75*
G02*
X97474000Y-95695999I0J-249999D01*
G01*
X97474000Y-96346001D01*
G75*
G02*
X97224001Y-96596000I-249999J0D01*
G01*
G37*
%TD*%
%TO.C,C7*%
G36*
G01*
X115131001Y-100896000D02*
X114230999Y-100896000D01*
G75*
G02*
X113981000Y-100646001I0J249999D01*
G01*
X113981000Y-99995999D01*
G75*
G02*
X114230999Y-99746000I249999J0D01*
G01*
X115131001Y-99746000D01*
G75*
G02*
X115381000Y-99995999I0J-249999D01*
G01*
X115381000Y-100646001D01*
G75*
G02*
X115131001Y-100896000I-249999J0D01*
G01*
G37*
G36*
G01*
X115131001Y-102946000D02*
X114230999Y-102946000D01*
G75*
G02*
X113981000Y-102696001I0J249999D01*
G01*
X113981000Y-102045999D01*
G75*
G02*
X114230999Y-101796000I249999J0D01*
G01*
X115131001Y-101796000D01*
G75*
G02*
X115381000Y-102045999I0J-249999D01*
G01*
X115381000Y-102696001D01*
G75*
G02*
X115131001Y-102946000I-249999J0D01*
G01*
G37*
%TD*%
%TO.C,C6*%
G36*
G01*
X140392999Y-79698000D02*
X141293001Y-79698000D01*
G75*
G02*
X141543000Y-79947999I0J-249999D01*
G01*
X141543000Y-80598001D01*
G75*
G02*
X141293001Y-80848000I-249999J0D01*
G01*
X140392999Y-80848000D01*
G75*
G02*
X140143000Y-80598001I0J249999D01*
G01*
X140143000Y-79947999D01*
G75*
G02*
X140392999Y-79698000I249999J0D01*
G01*
G37*
G36*
G01*
X140392999Y-77648000D02*
X141293001Y-77648000D01*
G75*
G02*
X141543000Y-77897999I0J-249999D01*
G01*
X141543000Y-78548001D01*
G75*
G02*
X141293001Y-78798000I-249999J0D01*
G01*
X140392999Y-78798000D01*
G75*
G02*
X140143000Y-78548001I0J249999D01*
G01*
X140143000Y-77897999D01*
G75*
G02*
X140392999Y-77648000I249999J0D01*
G01*
G37*
%TD*%
%TO.C,C5*%
G36*
G01*
X136975000Y-76142001D02*
X136975000Y-75241999D01*
G75*
G02*
X137224999Y-74992000I249999J0D01*
G01*
X137875001Y-74992000D01*
G75*
G02*
X138125000Y-75241999I0J-249999D01*
G01*
X138125000Y-76142001D01*
G75*
G02*
X137875001Y-76392000I-249999J0D01*
G01*
X137224999Y-76392000D01*
G75*
G02*
X136975000Y-76142001I0J249999D01*
G01*
G37*
G36*
G01*
X134925000Y-76142001D02*
X134925000Y-75241999D01*
G75*
G02*
X135174999Y-74992000I249999J0D01*
G01*
X135825001Y-74992000D01*
G75*
G02*
X136075000Y-75241999I0J-249999D01*
G01*
X136075000Y-76142001D01*
G75*
G02*
X135825001Y-76392000I-249999J0D01*
G01*
X135174999Y-76392000D01*
G75*
G02*
X134925000Y-76142001I0J249999D01*
G01*
G37*
%TD*%
%TO.C,C2*%
G36*
G01*
X99447000Y-137166001D02*
X99447000Y-136265999D01*
G75*
G02*
X99696999Y-136016000I249999J0D01*
G01*
X100347001Y-136016000D01*
G75*
G02*
X100597000Y-136265999I0J-249999D01*
G01*
X100597000Y-137166001D01*
G75*
G02*
X100347001Y-137416000I-249999J0D01*
G01*
X99696999Y-137416000D01*
G75*
G02*
X99447000Y-137166001I0J249999D01*
G01*
G37*
G36*
G01*
X97397000Y-137166001D02*
X97397000Y-136265999D01*
G75*
G02*
X97646999Y-136016000I249999J0D01*
G01*
X98297001Y-136016000D01*
G75*
G02*
X98547000Y-136265999I0J-249999D01*
G01*
X98547000Y-137166001D01*
G75*
G02*
X98297001Y-137416000I-249999J0D01*
G01*
X97646999Y-137416000D01*
G75*
G02*
X97397000Y-137166001I0J249999D01*
G01*
G37*
%TD*%
%TO.C,C1*%
G36*
G01*
X128454999Y-137483000D02*
X129355001Y-137483000D01*
G75*
G02*
X129605000Y-137732999I0J-249999D01*
G01*
X129605000Y-138383001D01*
G75*
G02*
X129355001Y-138633000I-249999J0D01*
G01*
X128454999Y-138633000D01*
G75*
G02*
X128205000Y-138383001I0J249999D01*
G01*
X128205000Y-137732999D01*
G75*
G02*
X128454999Y-137483000I249999J0D01*
G01*
G37*
G36*
G01*
X128454999Y-135433000D02*
X129355001Y-135433000D01*
G75*
G02*
X129605000Y-135682999I0J-249999D01*
G01*
X129605000Y-136333001D01*
G75*
G02*
X129355001Y-136583000I-249999J0D01*
G01*
X128454999Y-136583000D01*
G75*
G02*
X128205000Y-136333001I0J249999D01*
G01*
X128205000Y-135682999D01*
G75*
G02*
X128454999Y-135433000I249999J0D01*
G01*
G37*
%TD*%
D14*
%TO.C,SW1*%
X133096000Y-118554500D03*
X138684000Y-118554500D03*
%TD*%
%TO.C,BT1*%
G36*
G01*
X108851000Y-82716000D02*
X110351000Y-82716000D01*
G75*
G02*
X110601000Y-82966000I0J-250000D01*
G01*
X110601000Y-84166000D01*
G75*
G02*
X110351000Y-84416000I-250000J0D01*
G01*
X108851000Y-84416000D01*
G75*
G02*
X108601000Y-84166000I0J250000D01*
G01*
X108601000Y-82966000D01*
G75*
G02*
X108851000Y-82716000I250000J0D01*
G01*
G37*
D15*
X109601000Y-86066000D03*
%TD*%
%TO.C,C3*%
G36*
G01*
X97340000Y-84893999D02*
X97340000Y-85794001D01*
G75*
G02*
X97090001Y-86044000I-249999J0D01*
G01*
X96439999Y-86044000D01*
G75*
G02*
X96190000Y-85794001I0J249999D01*
G01*
X96190000Y-84893999D01*
G75*
G02*
X96439999Y-84644000I249999J0D01*
G01*
X97090001Y-84644000D01*
G75*
G02*
X97340000Y-84893999I0J-249999D01*
G01*
G37*
G36*
G01*
X99390000Y-84893999D02*
X99390000Y-85794001D01*
G75*
G02*
X99140001Y-86044000I-249999J0D01*
G01*
X98489999Y-86044000D01*
G75*
G02*
X98240000Y-85794001I0J249999D01*
G01*
X98240000Y-84893999D01*
G75*
G02*
X98489999Y-84644000I249999J0D01*
G01*
X99140001Y-84644000D01*
G75*
G02*
X99390000Y-84893999I0J-249999D01*
G01*
G37*
%TD*%
%TO.C,C4*%
G36*
G01*
X103689999Y-89713000D02*
X104590001Y-89713000D01*
G75*
G02*
X104840000Y-89962999I0J-249999D01*
G01*
X104840000Y-90613001D01*
G75*
G02*
X104590001Y-90863000I-249999J0D01*
G01*
X103689999Y-90863000D01*
G75*
G02*
X103440000Y-90613001I0J249999D01*
G01*
X103440000Y-89962999D01*
G75*
G02*
X103689999Y-89713000I249999J0D01*
G01*
G37*
G36*
G01*
X103689999Y-91763000D02*
X104590001Y-91763000D01*
G75*
G02*
X104840000Y-92012999I0J-249999D01*
G01*
X104840000Y-92663001D01*
G75*
G02*
X104590001Y-92913000I-249999J0D01*
G01*
X103689999Y-92913000D01*
G75*
G02*
X103440000Y-92663001I0J249999D01*
G01*
X103440000Y-92012999D01*
G75*
G02*
X103689999Y-91763000I249999J0D01*
G01*
G37*
%TD*%
D16*
%TO.C,D2*%
X115062000Y-84327000D03*
X115062000Y-81027000D03*
%TD*%
%TO.C,D3*%
G36*
G01*
X131768000Y-91382001D02*
X131768000Y-90481999D01*
G75*
G02*
X132017999Y-90232000I249999J0D01*
G01*
X132668001Y-90232000D01*
G75*
G02*
X132918000Y-90481999I0J-249999D01*
G01*
X132918000Y-91382001D01*
G75*
G02*
X132668001Y-91632000I-249999J0D01*
G01*
X132017999Y-91632000D01*
G75*
G02*
X131768000Y-91382001I0J249999D01*
G01*
G37*
G36*
G01*
X129718000Y-91382001D02*
X129718000Y-90481999D01*
G75*
G02*
X129967999Y-90232000I249999J0D01*
G01*
X130618001Y-90232000D01*
G75*
G02*
X130868000Y-90481999I0J-249999D01*
G01*
X130868000Y-91382001D01*
G75*
G02*
X130618001Y-91632000I-249999J0D01*
G01*
X129967999Y-91632000D01*
G75*
G02*
X129718000Y-91382001I0J249999D01*
G01*
G37*
%TD*%
%TO.C,D4*%
G36*
G01*
X129691000Y-95700001D02*
X129691000Y-94799999D01*
G75*
G02*
X129940999Y-94550000I249999J0D01*
G01*
X130591001Y-94550000D01*
G75*
G02*
X130841000Y-94799999I0J-249999D01*
G01*
X130841000Y-95700001D01*
G75*
G02*
X130591001Y-95950000I-249999J0D01*
G01*
X129940999Y-95950000D01*
G75*
G02*
X129691000Y-95700001I0J249999D01*
G01*
G37*
G36*
G01*
X131741000Y-95700001D02*
X131741000Y-94799999D01*
G75*
G02*
X131990999Y-94550000I249999J0D01*
G01*
X132641001Y-94550000D01*
G75*
G02*
X132891000Y-94799999I0J-249999D01*
G01*
X132891000Y-95700001D01*
G75*
G02*
X132641001Y-95950000I-249999J0D01*
G01*
X131990999Y-95950000D01*
G75*
G02*
X131741000Y-95700001I0J249999D01*
G01*
G37*
%TD*%
D17*
%TO.C,D5*%
X123760000Y-77089000D03*
X120460000Y-77089000D03*
%TD*%
D18*
%TO.C,IC1*%
X141746000Y-100405000D03*
X140746000Y-100405000D03*
D19*
X139746000Y-100405000D03*
X138746000Y-100405000D03*
X137746000Y-100405000D03*
X136746000Y-100405000D03*
X135746000Y-100405000D03*
X134746000Y-100405000D03*
X133746000Y-100405000D03*
X132746000Y-100405000D03*
X131746000Y-100405000D03*
D18*
X130746000Y-100405000D03*
D19*
X129746000Y-100405000D03*
D20*
X127326000Y-102655000D03*
D21*
X127326000Y-103655000D03*
D20*
X127326000Y-104655000D03*
X127326000Y-105655000D03*
X127326000Y-106655000D03*
X127326000Y-107655000D03*
X127326000Y-108655000D03*
X127326000Y-109655000D03*
X127326000Y-110655000D03*
D21*
X127326000Y-111655000D03*
D18*
X129746000Y-113905000D03*
D19*
X130746000Y-113905000D03*
X131746000Y-113905000D03*
X132746000Y-113905000D03*
X133746000Y-113905000D03*
X134746000Y-113905000D03*
X135746000Y-113905000D03*
X136746000Y-113905000D03*
X137746000Y-113905000D03*
X138746000Y-113905000D03*
X139746000Y-113905000D03*
D18*
X140746000Y-113905000D03*
X141746000Y-113905000D03*
D21*
X144326000Y-111655000D03*
X144326000Y-110655000D03*
X144326000Y-103655000D03*
X144326000Y-102655000D03*
D22*
X137996000Y-106455000D03*
%TD*%
D23*
%TO.C,J1*%
X86254000Y-127889000D03*
D24*
X90654000Y-127889000D03*
D25*
X86154000Y-122389000D03*
X92154000Y-122389000D03*
X92154000Y-133389000D03*
X86154000Y-133389000D03*
%TD*%
D26*
%TO.C,J2*%
X134331000Y-126861000D03*
X135431000Y-133361000D03*
X139431000Y-133361000D03*
X142431000Y-133361000D03*
D27*
X144031000Y-130111000D03*
X137031000Y-130111000D03*
%TD*%
D28*
%TO.C,J3*%
X87884000Y-110998000D03*
D29*
X87884000Y-105918000D03*
%TD*%
D30*
%TO.C,J4*%
X126365000Y-132461000D03*
D31*
X126365000Y-129921000D03*
%TD*%
%TO.C,J5*%
X108395000Y-127635000D03*
D30*
X105855000Y-127635000D03*
%TD*%
%TO.C,J7*%
X92710000Y-95631000D03*
D31*
X92710000Y-93091000D03*
%TD*%
D29*
%TO.C,J8*%
X87503000Y-77470000D03*
D28*
X87503000Y-82550000D03*
%TD*%
D31*
%TO.C,J9*%
X97409000Y-80645000D03*
D30*
X97409000Y-78105000D03*
%TD*%
%TO.C,J10*%
X120396000Y-82169000D03*
D31*
X120396000Y-84709000D03*
%TD*%
D30*
%TO.C,J11*%
X128270000Y-77406500D03*
D31*
X130810000Y-77406500D03*
%TD*%
%TO.C,J12*%
X116586000Y-76581000D03*
D30*
X114046000Y-76581000D03*
%TD*%
D32*
%TO.C,J13*%
X115062000Y-113284000D03*
X113792000Y-113284000D03*
X115062000Y-112014000D03*
X113792000Y-112014000D03*
X115062000Y-110744000D03*
X113792000Y-110744000D03*
X115062000Y-109474000D03*
X113792000Y-109474000D03*
X115062000Y-108204000D03*
D33*
X113792000Y-108204000D03*
%TD*%
D34*
%TO.C,JP1*%
G36*
X120599000Y-107263000D02*
G01*
X120599000Y-106713000D01*
X120599602Y-106713000D01*
X120599602Y-106688466D01*
X120604412Y-106639635D01*
X120613984Y-106591510D01*
X120628228Y-106544555D01*
X120647005Y-106499222D01*
X120670136Y-106455949D01*
X120697396Y-106415150D01*
X120728524Y-106377221D01*
X120763221Y-106342524D01*
X120801150Y-106311396D01*
X120841949Y-106284136D01*
X120885222Y-106261005D01*
X120930555Y-106242228D01*
X120977510Y-106227984D01*
X121025635Y-106218412D01*
X121074466Y-106213602D01*
X121099000Y-106213602D01*
X121099000Y-106213000D01*
X121599000Y-106213000D01*
X121599000Y-106213602D01*
X121623534Y-106213602D01*
X121672365Y-106218412D01*
X121720490Y-106227984D01*
X121767445Y-106242228D01*
X121812778Y-106261005D01*
X121856051Y-106284136D01*
X121896850Y-106311396D01*
X121934779Y-106342524D01*
X121969476Y-106377221D01*
X122000604Y-106415150D01*
X122027864Y-106455949D01*
X122050995Y-106499222D01*
X122069772Y-106544555D01*
X122084016Y-106591510D01*
X122093588Y-106639635D01*
X122098398Y-106688466D01*
X122098398Y-106713000D01*
X122099000Y-106713000D01*
X122099000Y-107263000D01*
X120599000Y-107263000D01*
G37*
G36*
X122098398Y-109313000D02*
G01*
X122098398Y-109337534D01*
X122093588Y-109386365D01*
X122084016Y-109434490D01*
X122069772Y-109481445D01*
X122050995Y-109526778D01*
X122027864Y-109570051D01*
X122000604Y-109610850D01*
X121969476Y-109648779D01*
X121934779Y-109683476D01*
X121896850Y-109714604D01*
X121856051Y-109741864D01*
X121812778Y-109764995D01*
X121767445Y-109783772D01*
X121720490Y-109798016D01*
X121672365Y-109807588D01*
X121623534Y-109812398D01*
X121599000Y-109812398D01*
X121599000Y-109813000D01*
X121099000Y-109813000D01*
X121099000Y-109812398D01*
X121074466Y-109812398D01*
X121025635Y-109807588D01*
X120977510Y-109798016D01*
X120930555Y-109783772D01*
X120885222Y-109764995D01*
X120841949Y-109741864D01*
X120801150Y-109714604D01*
X120763221Y-109683476D01*
X120728524Y-109648779D01*
X120697396Y-109610850D01*
X120670136Y-109570051D01*
X120647005Y-109526778D01*
X120628228Y-109481445D01*
X120613984Y-109434490D01*
X120604412Y-109386365D01*
X120599602Y-109337534D01*
X120599602Y-109313000D01*
X120599000Y-109313000D01*
X120599000Y-108763000D01*
X122099000Y-108763000D01*
X122099000Y-109313000D01*
X122098398Y-109313000D01*
G37*
D35*
X121349000Y-108013000D03*
%TD*%
D36*
%TO.C,Q1*%
X107585000Y-76581000D03*
X109585000Y-75631000D03*
X109585000Y-77531000D03*
%TD*%
%TO.C,R1*%
G36*
G01*
X129931000Y-131204000D02*
X131181000Y-131204000D01*
G75*
G02*
X131431000Y-131454000I0J-250000D01*
G01*
X131431000Y-132379000D01*
G75*
G02*
X131181000Y-132629000I-250000J0D01*
G01*
X129931000Y-132629000D01*
G75*
G02*
X129681000Y-132379000I0J250000D01*
G01*
X129681000Y-131454000D01*
G75*
G02*
X129931000Y-131204000I250000J0D01*
G01*
G37*
G36*
G01*
X129931000Y-128229000D02*
X131181000Y-128229000D01*
G75*
G02*
X131431000Y-128479000I0J-250000D01*
G01*
X131431000Y-129404000D01*
G75*
G02*
X131181000Y-129654000I-250000J0D01*
G01*
X129931000Y-129654000D01*
G75*
G02*
X129681000Y-129404000I0J250000D01*
G01*
X129681000Y-128479000D01*
G75*
G02*
X129931000Y-128229000I250000J0D01*
G01*
G37*
%TD*%
D24*
%TO.C,TP1*%
X145796000Y-78740000D03*
%TD*%
%TO.C,TP2*%
X145923000Y-83947000D03*
%TD*%
D37*
%TO.C,U1*%
X104347000Y-86040000D03*
X104347000Y-85090000D03*
X104347000Y-84140000D03*
X101647000Y-84140000D03*
X101647000Y-86040000D03*
%TD*%
D36*
%TO.C,U2*%
X137144000Y-80833000D03*
X137144000Y-78933000D03*
X135144000Y-79883000D03*
%TD*%
D38*
%TO.C,U3*%
X121650000Y-98384000D03*
X121150000Y-98384000D03*
X120650000Y-98384000D03*
X120150000Y-98384000D03*
X119650000Y-98384000D03*
X119650000Y-102784000D03*
X120150000Y-102784000D03*
X120650000Y-102784000D03*
X121150000Y-102784000D03*
X121650000Y-102784000D03*
%TD*%
M02*
