%TF.GenerationSoftware,KiCad,Pcbnew,(5.1.8)-1*%
%TF.CreationDate,2021-05-25T14:35:32+05:30*%
%TF.ProjectId,ATM90_WLR_BOARD,41544d39-305f-4574-9c52-5f424f415244,rev?*%
%TF.SameCoordinates,Original*%
%TF.FileFunction,Legend,Top*%
%TF.FilePolarity,Positive*%
%FSLAX46Y46*%
G04 Gerber Fmt 4.6, Leading zero omitted, Abs format (unit mm)*
G04 Created by KiCad (PCBNEW (5.1.8)-1) date 2021-05-25 14:35:32*
%MOMM*%
%LPD*%
G01*
G04 APERTURE LIST*
%ADD10C,0.127000*%
%TA.AperFunction,Profile*%
%ADD11C,0.050000*%
%TD*%
%ADD12C,0.120000*%
%ADD13C,0.100000*%
%ADD14C,0.200000*%
%ADD15C,0.150000*%
%ADD16C,0.254000*%
G04 APERTURE END LIST*
D10*
X122459904Y-83272380D02*
X123078952Y-83272380D01*
X122745619Y-83653333D01*
X122888476Y-83653333D01*
X122983714Y-83700952D01*
X123031333Y-83748571D01*
X123078952Y-83843809D01*
X123078952Y-84081904D01*
X123031333Y-84177142D01*
X122983714Y-84224761D01*
X122888476Y-84272380D01*
X122602761Y-84272380D01*
X122507523Y-84224761D01*
X122459904Y-84177142D01*
X123364666Y-83272380D02*
X123698000Y-84272380D01*
X124031333Y-83272380D01*
X124269428Y-83272380D02*
X124888476Y-83272380D01*
X124555142Y-83653333D01*
X124698000Y-83653333D01*
X124793238Y-83700952D01*
X124840857Y-83748571D01*
X124888476Y-83843809D01*
X124888476Y-84081904D01*
X124840857Y-84177142D01*
X124793238Y-84224761D01*
X124698000Y-84272380D01*
X124412285Y-84272380D01*
X124317047Y-84224761D01*
X124269428Y-84177142D01*
X128825714Y-80462380D02*
X128349523Y-80462380D01*
X128349523Y-79462380D01*
X129159047Y-80462380D02*
X129159047Y-79462380D01*
X129397142Y-79462380D01*
X129540000Y-79510000D01*
X129635238Y-79605238D01*
X129682857Y-79700476D01*
X129730476Y-79890952D01*
X129730476Y-80033809D01*
X129682857Y-80224285D01*
X129635238Y-80319523D01*
X129540000Y-80414761D01*
X129397142Y-80462380D01*
X129159047Y-80462380D01*
X130349523Y-79462380D02*
X130540000Y-79462380D01*
X130635238Y-79510000D01*
X130730476Y-79605238D01*
X130778095Y-79795714D01*
X130778095Y-80129047D01*
X130730476Y-80319523D01*
X130635238Y-80414761D01*
X130540000Y-80462380D01*
X130349523Y-80462380D01*
X130254285Y-80414761D01*
X130159047Y-80319523D01*
X130111428Y-80129047D01*
X130111428Y-79795714D01*
X130159047Y-79605238D01*
X130254285Y-79510000D01*
X130349523Y-79462380D01*
X113212809Y-74493380D02*
X113212809Y-73493380D01*
X113450904Y-73493380D01*
X113593761Y-73541000D01*
X113689000Y-73636238D01*
X113736619Y-73731476D01*
X113784238Y-73921952D01*
X113784238Y-74064809D01*
X113736619Y-74255285D01*
X113689000Y-74350523D01*
X113593761Y-74445761D01*
X113450904Y-74493380D01*
X113212809Y-74493380D01*
X114212809Y-74493380D02*
X114212809Y-73493380D01*
X114879476Y-73493380D02*
X115069952Y-73493380D01*
X115165190Y-73541000D01*
X115260428Y-73636238D01*
X115308047Y-73826714D01*
X115308047Y-74160047D01*
X115260428Y-74350523D01*
X115165190Y-74445761D01*
X115069952Y-74493380D01*
X114879476Y-74493380D01*
X114784238Y-74445761D01*
X114689000Y-74350523D01*
X114641380Y-74160047D01*
X114641380Y-73826714D01*
X114689000Y-73636238D01*
X114784238Y-73541000D01*
X114879476Y-73493380D01*
X115736619Y-74493380D02*
X115736619Y-73493380D01*
X115974714Y-73493380D01*
X116117571Y-73541000D01*
X116212809Y-73636238D01*
X116260428Y-73731476D01*
X116308047Y-73921952D01*
X116308047Y-74064809D01*
X116260428Y-74255285D01*
X116212809Y-74350523D01*
X116117571Y-74445761D01*
X115974714Y-74493380D01*
X115736619Y-74493380D01*
X116736619Y-73969571D02*
X117069952Y-73969571D01*
X117212809Y-74493380D02*
X116736619Y-74493380D01*
X116736619Y-73493380D01*
X117212809Y-73493380D01*
X95321380Y-82422761D02*
X94321380Y-82422761D01*
X94321380Y-82184666D01*
X94369000Y-82041809D01*
X94464238Y-81946571D01*
X94559476Y-81898952D01*
X94749952Y-81851333D01*
X94892809Y-81851333D01*
X95083285Y-81898952D01*
X95178523Y-81946571D01*
X95273761Y-82041809D01*
X95321380Y-82184666D01*
X95321380Y-82422761D01*
X95226142Y-80851333D02*
X95273761Y-80898952D01*
X95321380Y-81041809D01*
X95321380Y-81137047D01*
X95273761Y-81279904D01*
X95178523Y-81375142D01*
X95083285Y-81422761D01*
X94892809Y-81470380D01*
X94749952Y-81470380D01*
X94559476Y-81422761D01*
X94464238Y-81375142D01*
X94369000Y-81279904D01*
X94321380Y-81137047D01*
X94321380Y-81041809D01*
X94369000Y-80898952D01*
X94416619Y-80851333D01*
X95416619Y-80660857D02*
X95416619Y-79898952D01*
X95321380Y-79660857D02*
X94321380Y-79660857D01*
X95321380Y-79184666D02*
X94321380Y-79184666D01*
X95321380Y-78613238D01*
X94321380Y-78613238D01*
X89622380Y-94225904D02*
X90431904Y-94225904D01*
X90527142Y-94178285D01*
X90574761Y-94130666D01*
X90622380Y-94035428D01*
X90622380Y-93844952D01*
X90574761Y-93749714D01*
X90527142Y-93702095D01*
X90431904Y-93654476D01*
X89622380Y-93654476D01*
X90574761Y-93225904D02*
X90622380Y-93083047D01*
X90622380Y-92844952D01*
X90574761Y-92749714D01*
X90527142Y-92702095D01*
X90431904Y-92654476D01*
X90336666Y-92654476D01*
X90241428Y-92702095D01*
X90193809Y-92749714D01*
X90146190Y-92844952D01*
X90098571Y-93035428D01*
X90050952Y-93130666D01*
X90003333Y-93178285D01*
X89908095Y-93225904D01*
X89812857Y-93225904D01*
X89717619Y-93178285D01*
X89670000Y-93130666D01*
X89622380Y-93035428D01*
X89622380Y-92797333D01*
X89670000Y-92654476D01*
X90098571Y-91892571D02*
X90146190Y-91749714D01*
X90193809Y-91702095D01*
X90289047Y-91654476D01*
X90431904Y-91654476D01*
X90527142Y-91702095D01*
X90574761Y-91749714D01*
X90622380Y-91844952D01*
X90622380Y-92225904D01*
X89622380Y-92225904D01*
X89622380Y-91892571D01*
X89670000Y-91797333D01*
X89717619Y-91749714D01*
X89812857Y-91702095D01*
X89908095Y-91702095D01*
X90003333Y-91749714D01*
X90050952Y-91797333D01*
X90098571Y-91892571D01*
X90098571Y-92225904D01*
X126166571Y-127738142D02*
X126118952Y-127785761D01*
X125976095Y-127833380D01*
X125880857Y-127833380D01*
X125738000Y-127785761D01*
X125642761Y-127690523D01*
X125595142Y-127595285D01*
X125547523Y-127404809D01*
X125547523Y-127261952D01*
X125595142Y-127071476D01*
X125642761Y-126976238D01*
X125738000Y-126881000D01*
X125880857Y-126833380D01*
X125976095Y-126833380D01*
X126118952Y-126881000D01*
X126166571Y-126928619D01*
X126452285Y-126833380D02*
X127023714Y-126833380D01*
X126738000Y-127833380D02*
X126738000Y-126833380D01*
X108124714Y-124547380D02*
X108458047Y-125547380D01*
X108791380Y-124547380D01*
X108981857Y-124547380D02*
X109553285Y-124547380D01*
X109267571Y-125547380D02*
X109267571Y-124547380D01*
X81970500Y-82811904D02*
X82018119Y-82716666D01*
X82018119Y-82573809D01*
X81970500Y-82430952D01*
X81875261Y-82335714D01*
X81780023Y-82288095D01*
X81589547Y-82240476D01*
X81446690Y-82240476D01*
X81256214Y-82288095D01*
X81160976Y-82335714D01*
X81065738Y-82430952D01*
X81018119Y-82573809D01*
X81018119Y-82669047D01*
X81065738Y-82811904D01*
X81113357Y-82859523D01*
X81446690Y-82859523D01*
X81446690Y-82669047D01*
X146248404Y-85796500D02*
X146153166Y-85748880D01*
X146010309Y-85748880D01*
X145867452Y-85796500D01*
X145772214Y-85891738D01*
X145724595Y-85986976D01*
X145676976Y-86177452D01*
X145676976Y-86320309D01*
X145724595Y-86510785D01*
X145772214Y-86606023D01*
X145867452Y-86701261D01*
X146010309Y-86748880D01*
X146105547Y-86748880D01*
X146248404Y-86701261D01*
X146296023Y-86653642D01*
X146296023Y-86320309D01*
X146105547Y-86320309D01*
X129166904Y-140978000D02*
X129071666Y-140930380D01*
X128928809Y-140930380D01*
X128785952Y-140978000D01*
X128690714Y-141073238D01*
X128643095Y-141168476D01*
X128595476Y-141358952D01*
X128595476Y-141501809D01*
X128643095Y-141692285D01*
X128690714Y-141787523D01*
X128785952Y-141882761D01*
X128928809Y-141930380D01*
X129024047Y-141930380D01*
X129166904Y-141882761D01*
X129214523Y-141835142D01*
X129214523Y-141501809D01*
X129024047Y-141501809D01*
X102877904Y-138184000D02*
X102782666Y-138136380D01*
X102639809Y-138136380D01*
X102496952Y-138184000D01*
X102401714Y-138279238D01*
X102354095Y-138374476D01*
X102306476Y-138564952D01*
X102306476Y-138707809D01*
X102354095Y-138898285D01*
X102401714Y-138993523D01*
X102496952Y-139088761D01*
X102639809Y-139136380D01*
X102735047Y-139136380D01*
X102877904Y-139088761D01*
X102925523Y-139041142D01*
X102925523Y-138707809D01*
X102735047Y-138707809D01*
X88399904Y-114562000D02*
X88304666Y-114514380D01*
X88161809Y-114514380D01*
X88018952Y-114562000D01*
X87923714Y-114657238D01*
X87876095Y-114752476D01*
X87828476Y-114942952D01*
X87828476Y-115085809D01*
X87876095Y-115276285D01*
X87923714Y-115371523D01*
X88018952Y-115466761D01*
X88161809Y-115514380D01*
X88257047Y-115514380D01*
X88399904Y-115466761D01*
X88447523Y-115419142D01*
X88447523Y-115085809D01*
X88257047Y-115085809D01*
X109862904Y-89289000D02*
X109767666Y-89241380D01*
X109624809Y-89241380D01*
X109481952Y-89289000D01*
X109386714Y-89384238D01*
X109339095Y-89479476D01*
X109291476Y-89669952D01*
X109291476Y-89812809D01*
X109339095Y-90003285D01*
X109386714Y-90098523D01*
X109481952Y-90193761D01*
X109624809Y-90241380D01*
X109720047Y-90241380D01*
X109862904Y-90193761D01*
X109910523Y-90146142D01*
X109910523Y-89812809D01*
X109720047Y-89812809D01*
X97854547Y-119229214D02*
X98045023Y-119895880D01*
X98235500Y-119419690D01*
X98425976Y-119895880D01*
X98616452Y-119229214D01*
X98902166Y-119229214D02*
X99092642Y-119895880D01*
X99283119Y-119419690D01*
X99473595Y-119895880D01*
X99664071Y-119229214D01*
X99949785Y-119229214D02*
X100140261Y-119895880D01*
X100330738Y-119419690D01*
X100521214Y-119895880D01*
X100711690Y-119229214D01*
X101092642Y-119800642D02*
X101140261Y-119848261D01*
X101092642Y-119895880D01*
X101045023Y-119848261D01*
X101092642Y-119800642D01*
X101092642Y-119895880D01*
X101521214Y-119848261D02*
X101616452Y-119895880D01*
X101806928Y-119895880D01*
X101902166Y-119848261D01*
X101949785Y-119753023D01*
X101949785Y-119705404D01*
X101902166Y-119610166D01*
X101806928Y-119562547D01*
X101664071Y-119562547D01*
X101568833Y-119514928D01*
X101521214Y-119419690D01*
X101521214Y-119372071D01*
X101568833Y-119276833D01*
X101664071Y-119229214D01*
X101806928Y-119229214D01*
X101902166Y-119276833D01*
X102521214Y-119895880D02*
X102425976Y-119848261D01*
X102378357Y-119800642D01*
X102330738Y-119705404D01*
X102330738Y-119419690D01*
X102378357Y-119324452D01*
X102425976Y-119276833D01*
X102521214Y-119229214D01*
X102664071Y-119229214D01*
X102759309Y-119276833D01*
X102806928Y-119324452D01*
X102854547Y-119419690D01*
X102854547Y-119705404D01*
X102806928Y-119800642D01*
X102759309Y-119848261D01*
X102664071Y-119895880D01*
X102521214Y-119895880D01*
X103425976Y-119895880D02*
X103330738Y-119848261D01*
X103283119Y-119753023D01*
X103283119Y-118895880D01*
X104235500Y-119895880D02*
X104235500Y-119372071D01*
X104187880Y-119276833D01*
X104092642Y-119229214D01*
X103902166Y-119229214D01*
X103806928Y-119276833D01*
X104235500Y-119848261D02*
X104140261Y-119895880D01*
X103902166Y-119895880D01*
X103806928Y-119848261D01*
X103759309Y-119753023D01*
X103759309Y-119657785D01*
X103806928Y-119562547D01*
X103902166Y-119514928D01*
X104140261Y-119514928D01*
X104235500Y-119467309D01*
X104711690Y-119895880D02*
X104711690Y-119229214D01*
X104711690Y-119419690D02*
X104759309Y-119324452D01*
X104806928Y-119276833D01*
X104902166Y-119229214D01*
X104997404Y-119229214D01*
X105283119Y-119848261D02*
X105378357Y-119895880D01*
X105568833Y-119895880D01*
X105664071Y-119848261D01*
X105711690Y-119753023D01*
X105711690Y-119705404D01*
X105664071Y-119610166D01*
X105568833Y-119562547D01*
X105425976Y-119562547D01*
X105330738Y-119514928D01*
X105283119Y-119419690D01*
X105283119Y-119372071D01*
X105330738Y-119276833D01*
X105425976Y-119229214D01*
X105568833Y-119229214D01*
X105664071Y-119276833D01*
X106568833Y-119229214D02*
X106568833Y-119895880D01*
X106140261Y-119229214D02*
X106140261Y-119753023D01*
X106187880Y-119848261D01*
X106283119Y-119895880D01*
X106425976Y-119895880D01*
X106521214Y-119848261D01*
X106568833Y-119800642D01*
X107045023Y-119895880D02*
X107045023Y-119229214D01*
X107045023Y-119419690D02*
X107092642Y-119324452D01*
X107140261Y-119276833D01*
X107235500Y-119229214D01*
X107330738Y-119229214D01*
X107568833Y-119229214D02*
X107806928Y-119895880D01*
X108045023Y-119229214D01*
X108806928Y-119848261D02*
X108711690Y-119895880D01*
X108521214Y-119895880D01*
X108425976Y-119848261D01*
X108378357Y-119753023D01*
X108378357Y-119372071D01*
X108425976Y-119276833D01*
X108521214Y-119229214D01*
X108711690Y-119229214D01*
X108806928Y-119276833D01*
X108854547Y-119372071D01*
X108854547Y-119467309D01*
X108378357Y-119562547D01*
X109283119Y-119895880D02*
X109283119Y-119229214D01*
X109283119Y-118895880D02*
X109235500Y-118943500D01*
X109283119Y-118991119D01*
X109330738Y-118943500D01*
X109283119Y-118895880D01*
X109283119Y-118991119D01*
X109902166Y-119895880D02*
X109806928Y-119848261D01*
X109759309Y-119753023D01*
X109759309Y-118895880D01*
X110711690Y-119895880D02*
X110711690Y-118895880D01*
X110711690Y-119848261D02*
X110616452Y-119895880D01*
X110425976Y-119895880D01*
X110330738Y-119848261D01*
X110283119Y-119800642D01*
X110235500Y-119705404D01*
X110235500Y-119419690D01*
X110283119Y-119324452D01*
X110330738Y-119276833D01*
X110425976Y-119229214D01*
X110616452Y-119229214D01*
X110711690Y-119276833D01*
X111187880Y-119895880D02*
X111187880Y-118895880D01*
X111187880Y-119276833D02*
X111283119Y-119229214D01*
X111473595Y-119229214D01*
X111568833Y-119276833D01*
X111616452Y-119324452D01*
X111664071Y-119419690D01*
X111664071Y-119705404D01*
X111616452Y-119800642D01*
X111568833Y-119848261D01*
X111473595Y-119895880D01*
X111283119Y-119895880D01*
X111187880Y-119848261D01*
X112092642Y-119895880D02*
X112092642Y-119229214D01*
X112092642Y-118895880D02*
X112045023Y-118943500D01*
X112092642Y-118991119D01*
X112140261Y-118943500D01*
X112092642Y-118895880D01*
X112092642Y-118991119D01*
X112425976Y-119229214D02*
X112806928Y-119229214D01*
X112568833Y-118895880D02*
X112568833Y-119753023D01*
X112616452Y-119848261D01*
X112711690Y-119895880D01*
X112806928Y-119895880D01*
X113140261Y-119800642D02*
X113187880Y-119848261D01*
X113140261Y-119895880D01*
X113092642Y-119848261D01*
X113140261Y-119800642D01*
X113140261Y-119895880D01*
X113616452Y-119895880D02*
X113616452Y-119229214D01*
X113616452Y-118895880D02*
X113568833Y-118943500D01*
X113616452Y-118991119D01*
X113664071Y-118943500D01*
X113616452Y-118895880D01*
X113616452Y-118991119D01*
X114092642Y-119229214D02*
X114092642Y-119895880D01*
X114092642Y-119324452D02*
X114140261Y-119276833D01*
X114235500Y-119229214D01*
X114378357Y-119229214D01*
X114473595Y-119276833D01*
X114521214Y-119372071D01*
X114521214Y-119895880D01*
D11*
X80391000Y-135890000D02*
X80391000Y-72517000D01*
X148463000Y-72517000D02*
X148463000Y-135890000D01*
X148463000Y-72517000D02*
X80391000Y-72517000D01*
X132842000Y-135890000D02*
X148463000Y-135890000D01*
X132842000Y-143256000D02*
X132842000Y-135890000D01*
X96012000Y-135890000D02*
X96012000Y-143256000D01*
X80391000Y-135890000D02*
X96012000Y-135890000D01*
X96012000Y-143256000D02*
X132842000Y-143256000D01*
X115951000Y-136906000D02*
G75*
G03*
X115951000Y-136906000I-1524000J0D01*
G01*
X145034000Y-88773000D02*
G75*
G03*
X145034000Y-88773000I-1524000J0D01*
G01*
X86995000Y-88773000D02*
G75*
G03*
X86995000Y-88773000I-1524000J0D01*
G01*
D12*
%TO.C,J6*%
X84240000Y-92850000D02*
X86050000Y-92850000D01*
X86050000Y-92850000D02*
X86050000Y-94410000D01*
X84240000Y-100370000D02*
X86050000Y-100370000D01*
X86050000Y-100370000D02*
X86050000Y-98810000D01*
X82040000Y-100370000D02*
X81690000Y-100370000D01*
X82040000Y-92850000D02*
X81690000Y-92850000D01*
%TO.C,R15*%
X97262767Y-113222000D02*
X96920233Y-113222000D01*
X97262767Y-112202000D02*
X96920233Y-112202000D01*
%TO.C,R14*%
X96793233Y-103440000D02*
X97135767Y-103440000D01*
X96793233Y-104460000D02*
X97135767Y-104460000D01*
%TO.C,R13*%
X125558733Y-94677000D02*
X125901267Y-94677000D01*
X125558733Y-95697000D02*
X125901267Y-95697000D01*
%TO.C,R12*%
X125558733Y-90549000D02*
X125901267Y-90549000D01*
X125558733Y-91569000D02*
X125901267Y-91569000D01*
%TO.C,R11*%
X128098733Y-118108000D02*
X128441267Y-118108000D01*
X128098733Y-119128000D02*
X128441267Y-119128000D01*
%TO.C,R10*%
X103168267Y-80774000D02*
X102825733Y-80774000D01*
X103168267Y-79754000D02*
X102825733Y-79754000D01*
%TO.C,R9*%
X101348000Y-90541733D02*
X101348000Y-90884267D01*
X100328000Y-90541733D02*
X100328000Y-90884267D01*
%TO.C,R8*%
X93188733Y-88898000D02*
X93531267Y-88898000D01*
X93188733Y-89918000D02*
X93531267Y-89918000D01*
%TO.C,R7*%
X106381733Y-135190000D02*
X106724267Y-135190000D01*
X106381733Y-136210000D02*
X106724267Y-136210000D01*
%TO.C,R6*%
X106724267Y-132209000D02*
X106381733Y-132209000D01*
X106724267Y-131189000D02*
X106381733Y-131189000D01*
%TO.C,R5*%
X122938000Y-137369733D02*
X122938000Y-137712267D01*
X121918000Y-137369733D02*
X121918000Y-137712267D01*
%TO.C,R4*%
X122938000Y-130511733D02*
X122938000Y-130854267D01*
X121918000Y-130511733D02*
X121918000Y-130854267D01*
%TO.C,R3*%
X100649000Y-130130733D02*
X100649000Y-130473267D01*
X99629000Y-130130733D02*
X99629000Y-130473267D01*
%TO.C,R2*%
X100649000Y-123653733D02*
X100649000Y-123996267D01*
X99629000Y-123653733D02*
X99629000Y-123996267D01*
%TO.C,D1*%
X95814000Y-93996000D02*
X95814000Y-96856000D01*
X95814000Y-96856000D02*
X97734000Y-96856000D01*
X97734000Y-96856000D02*
X97734000Y-93996000D01*
%TO.C,C7*%
X113971000Y-101607252D02*
X113971000Y-101084748D01*
X115391000Y-101607252D02*
X115391000Y-101084748D01*
%TO.C,C6*%
X141553000Y-78986748D02*
X141553000Y-79509252D01*
X140133000Y-78986748D02*
X140133000Y-79509252D01*
%TO.C,C5*%
X136263748Y-74982000D02*
X136786252Y-74982000D01*
X136263748Y-76402000D02*
X136786252Y-76402000D01*
%TO.C,C2*%
X98735748Y-136006000D02*
X99258252Y-136006000D01*
X98735748Y-137426000D02*
X99258252Y-137426000D01*
%TO.C,C1*%
X129615000Y-136771748D02*
X129615000Y-137294252D01*
X128195000Y-136771748D02*
X128195000Y-137294252D01*
%TO.C,BT1*%
X106991000Y-80656000D02*
X106991000Y-83156000D01*
X109491000Y-80656000D02*
X106991000Y-80656000D01*
X108791000Y-87676000D02*
X107291000Y-87676000D01*
X108791000Y-88676000D02*
X108791000Y-87676000D01*
X108791000Y-81956000D02*
X107291000Y-81956000D01*
X108791000Y-80956000D02*
X108791000Y-81956000D01*
X109601000Y-88176000D02*
X109601000Y-88676000D01*
X110811000Y-88176000D02*
X109601000Y-88176000D01*
X110811000Y-81456000D02*
X110811000Y-88176000D01*
X109601000Y-81456000D02*
X110811000Y-81456000D01*
X109601000Y-80956000D02*
X109601000Y-81456000D01*
X111311000Y-88676000D02*
X111311000Y-80956000D01*
X107291000Y-88676000D02*
X111311000Y-88676000D01*
X107291000Y-80956000D02*
X107291000Y-88676000D01*
X111311000Y-80956000D02*
X107291000Y-80956000D01*
%TO.C,C3*%
X98051252Y-86054000D02*
X97528748Y-86054000D01*
X98051252Y-84634000D02*
X97528748Y-84634000D01*
%TO.C,C4*%
X103430000Y-91051748D02*
X103430000Y-91574252D01*
X104850000Y-91051748D02*
X104850000Y-91574252D01*
%TO.C,D2*%
X116062000Y-80427000D02*
X114062000Y-80427000D01*
X114062000Y-80427000D02*
X114062000Y-84327000D01*
X116062000Y-80427000D02*
X116062000Y-84327000D01*
%TO.C,D3*%
X132318000Y-89972000D02*
X129458000Y-89972000D01*
X129458000Y-89972000D02*
X129458000Y-91892000D01*
X129458000Y-91892000D02*
X132318000Y-91892000D01*
%TO.C,D4*%
X129431000Y-96210000D02*
X132291000Y-96210000D01*
X129431000Y-94290000D02*
X129431000Y-96210000D01*
X132291000Y-94290000D02*
X129431000Y-94290000D01*
%TO.C,D5*%
X124360000Y-78089000D02*
X120460000Y-78089000D01*
X124360000Y-76089000D02*
X120460000Y-76089000D01*
X124360000Y-78089000D02*
X124360000Y-76089000D01*
D13*
%TO.C,IC1*%
X127326000Y-100405000D02*
X127326000Y-101655000D01*
X128826000Y-100405000D02*
X127326000Y-100405000D01*
X127326000Y-113905000D02*
X127326000Y-112655000D01*
X128826000Y-113905000D02*
X127326000Y-113905000D01*
X144326000Y-113905000D02*
X142826000Y-113905000D01*
X144326000Y-112655000D02*
X144326000Y-113905000D01*
X144326000Y-104655000D02*
X144326000Y-109655000D01*
X144326000Y-100405000D02*
X142826000Y-100405000D01*
X144326000Y-101655000D02*
X144326000Y-100405000D01*
D14*
X141826000Y-98455000D02*
X141826000Y-98455000D01*
X141826000Y-98655000D02*
X141826000Y-98655000D01*
X141826000Y-98455000D02*
G75*
G02*
X141826000Y-98655000I0J-100000D01*
G01*
X141826000Y-98655000D02*
G75*
G02*
X141826000Y-98455000I0J100000D01*
G01*
D12*
%TO.C,J1*%
X84894000Y-120629000D02*
X84894000Y-122529000D01*
X86234000Y-120629000D02*
X84894000Y-120629000D01*
X81044000Y-123329000D02*
X84654000Y-123329000D01*
X95964000Y-132449000D02*
X95964000Y-123329000D01*
X87654000Y-123329000D02*
X90654000Y-123329000D01*
X93654000Y-123329000D02*
X95964000Y-123329000D01*
X93654000Y-132449000D02*
X95964000Y-132449000D01*
X87654000Y-132449000D02*
X90654000Y-132449000D01*
X81044000Y-132449000D02*
X84654000Y-132449000D01*
X81044000Y-132449000D02*
X81044000Y-123329000D01*
X84354000Y-132449000D02*
X84354000Y-123329000D01*
X84354000Y-124889000D02*
X89154000Y-124889000D01*
X84354000Y-130889000D02*
X89154000Y-130889000D01*
X89154000Y-124889000D02*
G75*
G02*
X89154000Y-130889000I0J-3000000D01*
G01*
%TO.C,J2*%
X145631000Y-127611000D02*
X147631000Y-127611000D01*
X145631000Y-132611000D02*
X147631000Y-132611000D01*
X147631000Y-132611000D02*
X147631000Y-127611000D01*
X145631000Y-127611000D02*
X145631000Y-127011000D01*
X145631000Y-133211000D02*
X145631000Y-132611000D01*
X133531000Y-127011000D02*
X133531000Y-133211000D01*
X145631000Y-133211000D02*
X143256000Y-133211000D01*
X141606000Y-133211000D02*
X140256000Y-133211000D01*
X138606000Y-133211000D02*
X136206000Y-133211000D01*
X134656000Y-133211000D02*
X133531000Y-133211000D01*
X135106000Y-127011000D02*
X145631000Y-127011000D01*
X134656000Y-133211000D02*
X134656000Y-134611000D01*
X136206000Y-133211000D02*
X136206000Y-134611000D01*
%TO.C,J3*%
X89564000Y-110998000D02*
G75*
G03*
X89564000Y-110998000I-1680000J0D01*
G01*
X83784000Y-103318000D02*
X83784000Y-113598000D01*
X85284000Y-103318000D02*
X85284000Y-113598000D01*
X90185000Y-103318000D02*
X90185000Y-113598000D01*
X93145000Y-103318000D02*
X93145000Y-113598000D01*
X83224000Y-103318000D02*
X83224000Y-113598000D01*
X93145000Y-103318000D02*
X83224000Y-103318000D01*
X93145000Y-113598000D02*
X83224000Y-113598000D01*
X88953000Y-112273000D02*
X88907000Y-112226000D01*
X86645000Y-109964000D02*
X86610000Y-109929000D01*
X89159000Y-112068000D02*
X89123000Y-112033000D01*
X86861000Y-109771000D02*
X86815000Y-109724000D01*
X83724000Y-103078000D02*
X82984000Y-103078000D01*
X82984000Y-103078000D02*
X82984000Y-103578000D01*
X86203747Y-105946805D02*
G75*
G02*
X86349000Y-105234000I1680253J28805D01*
G01*
X87200958Y-104382574D02*
G75*
G02*
X88568000Y-104383000I683042J-1535426D01*
G01*
X89419426Y-105234958D02*
G75*
G02*
X89419000Y-106602000I-1535426J-683042D01*
G01*
X88567042Y-107453426D02*
G75*
G02*
X87200000Y-107453000I-683042J1535426D01*
G01*
X86349244Y-106601318D02*
G75*
G02*
X86204000Y-105918000I1534756J683318D01*
G01*
%TO.C,J4*%
X127695000Y-133791000D02*
X126365000Y-133791000D01*
X127695000Y-132461000D02*
X127695000Y-133791000D01*
X127695000Y-131191000D02*
X125035000Y-131191000D01*
X125035000Y-131191000D02*
X125035000Y-128591000D01*
X127695000Y-131191000D02*
X127695000Y-128591000D01*
X127695000Y-128591000D02*
X125035000Y-128591000D01*
%TO.C,J5*%
X109725000Y-128965000D02*
X109725000Y-126305000D01*
X107125000Y-128965000D02*
X109725000Y-128965000D01*
X107125000Y-126305000D02*
X109725000Y-126305000D01*
X107125000Y-128965000D02*
X107125000Y-126305000D01*
X105855000Y-128965000D02*
X104525000Y-128965000D01*
X104525000Y-128965000D02*
X104525000Y-127635000D01*
%TO.C,J7*%
X94040000Y-96961000D02*
X92710000Y-96961000D01*
X94040000Y-95631000D02*
X94040000Y-96961000D01*
X94040000Y-94361000D02*
X91380000Y-94361000D01*
X91380000Y-94361000D02*
X91380000Y-91761000D01*
X94040000Y-94361000D02*
X94040000Y-91761000D01*
X94040000Y-91761000D02*
X91380000Y-91761000D01*
%TO.C,J8*%
X82603000Y-74630000D02*
X82603000Y-75130000D01*
X83343000Y-74630000D02*
X82603000Y-74630000D01*
X86480000Y-81323000D02*
X86434000Y-81276000D01*
X88778000Y-83620000D02*
X88742000Y-83585000D01*
X86264000Y-81516000D02*
X86229000Y-81481000D01*
X88572000Y-83825000D02*
X88526000Y-83778000D01*
X92764000Y-85150000D02*
X82843000Y-85150000D01*
X92764000Y-74870000D02*
X82843000Y-74870000D01*
X82843000Y-74870000D02*
X82843000Y-85150000D01*
X92764000Y-74870000D02*
X92764000Y-85150000D01*
X89804000Y-74870000D02*
X89804000Y-85150000D01*
X84903000Y-74870000D02*
X84903000Y-85150000D01*
X83403000Y-74870000D02*
X83403000Y-85150000D01*
X89183000Y-82550000D02*
G75*
G03*
X89183000Y-82550000I-1680000J0D01*
G01*
X85968244Y-78153318D02*
G75*
G02*
X85823000Y-77470000I1534756J683318D01*
G01*
X88186042Y-79005426D02*
G75*
G02*
X86819000Y-79005000I-683042J1535426D01*
G01*
X89038426Y-76786958D02*
G75*
G02*
X89038000Y-78154000I-1535426J-683042D01*
G01*
X86819958Y-75934574D02*
G75*
G02*
X88187000Y-75935000I683042J-1535426D01*
G01*
X85822747Y-77498805D02*
G75*
G02*
X85968000Y-76786000I1680253J28805D01*
G01*
%TO.C,J9*%
X96079000Y-81975000D02*
X98739000Y-81975000D01*
X96079000Y-79375000D02*
X96079000Y-81975000D01*
X98739000Y-79375000D02*
X98739000Y-81975000D01*
X96079000Y-79375000D02*
X98739000Y-79375000D01*
X96079000Y-78105000D02*
X96079000Y-76775000D01*
X96079000Y-76775000D02*
X97409000Y-76775000D01*
%TO.C,J10*%
X119066000Y-80839000D02*
X120396000Y-80839000D01*
X119066000Y-82169000D02*
X119066000Y-80839000D01*
X119066000Y-83439000D02*
X121726000Y-83439000D01*
X121726000Y-83439000D02*
X121726000Y-86039000D01*
X119066000Y-83439000D02*
X119066000Y-86039000D01*
X119066000Y-86039000D02*
X121726000Y-86039000D01*
%TO.C,J11*%
X126940000Y-78736500D02*
X126940000Y-77406500D01*
X128270000Y-78736500D02*
X126940000Y-78736500D01*
X129540000Y-78736500D02*
X129540000Y-76076500D01*
X129540000Y-76076500D02*
X132140000Y-76076500D01*
X129540000Y-78736500D02*
X132140000Y-78736500D01*
X132140000Y-78736500D02*
X132140000Y-76076500D01*
%TO.C,J12*%
X117916000Y-77911000D02*
X117916000Y-75251000D01*
X115316000Y-77911000D02*
X117916000Y-77911000D01*
X115316000Y-75251000D02*
X117916000Y-75251000D01*
X115316000Y-77911000D02*
X115316000Y-75251000D01*
X114046000Y-77911000D02*
X112716000Y-77911000D01*
X112716000Y-77911000D02*
X112716000Y-76581000D01*
%TO.C,J13*%
X112662000Y-113979000D02*
X113484470Y-113979000D01*
X115369530Y-113979000D02*
X116192000Y-113979000D01*
X114099530Y-113979000D02*
X114754470Y-113979000D01*
X112662000Y-108964000D02*
X112662000Y-113979000D01*
X116192000Y-107509000D02*
X116192000Y-113979000D01*
X112662000Y-108964000D02*
X113228529Y-108964000D01*
X114355471Y-108964000D02*
X114498529Y-108964000D01*
X114552000Y-108910529D02*
X114552000Y-108767471D01*
X114552000Y-107640529D02*
X114552000Y-107509000D01*
X114552000Y-107509000D02*
X114754470Y-107509000D01*
X115369530Y-107509000D02*
X116192000Y-107509000D01*
X112662000Y-108204000D02*
X112662000Y-107444000D01*
X112662000Y-107444000D02*
X113792000Y-107444000D01*
%TO.C,JP1*%
X122349000Y-106613000D02*
X122349000Y-109413000D01*
X121649000Y-110063000D02*
X121049000Y-110063000D01*
X120349000Y-109413000D02*
X120349000Y-106613000D01*
X121049000Y-105963000D02*
X121649000Y-105963000D01*
X120149000Y-106813000D02*
X119849000Y-106513000D01*
X119849000Y-106513000D02*
X119849000Y-107113000D01*
X120149000Y-106813000D02*
X119849000Y-107113000D01*
X122349000Y-109363000D02*
G75*
G02*
X121649000Y-110063000I-700000J0D01*
G01*
X121049000Y-110063000D02*
G75*
G02*
X120349000Y-109363000I0J700000D01*
G01*
X120349000Y-106663000D02*
G75*
G02*
X121049000Y-105963000I700000J0D01*
G01*
X121649000Y-105963000D02*
G75*
G02*
X122349000Y-106663000I0J-700000D01*
G01*
%TO.C,Q1*%
X107825000Y-75001000D02*
X107825000Y-75931000D01*
X107825000Y-78161000D02*
X107825000Y-77231000D01*
X107825000Y-78161000D02*
X109985000Y-78161000D01*
X107825000Y-75001000D02*
X109285000Y-75001000D01*
%TO.C,R1*%
X131466000Y-129826936D02*
X131466000Y-131031064D01*
X129646000Y-129826936D02*
X129646000Y-131031064D01*
%TO.C,TP1*%
X146996000Y-78740000D02*
G75*
G03*
X146996000Y-78740000I-1200000J0D01*
G01*
%TO.C,TP2*%
X147123000Y-83947000D02*
G75*
G03*
X147123000Y-83947000I-1200000J0D01*
G01*
%TO.C,U1*%
X102097000Y-86700000D02*
X104547000Y-86700000D01*
X103897000Y-83480000D02*
X102097000Y-83480000D01*
%TO.C,U2*%
X135384000Y-78303000D02*
X136844000Y-78303000D01*
X135384000Y-81463000D02*
X137544000Y-81463000D01*
X135384000Y-81463000D02*
X135384000Y-80533000D01*
X135384000Y-78303000D02*
X135384000Y-79233000D01*
D15*
%TO.C,U3*%
X122100000Y-98909000D02*
X122100000Y-97684000D01*
X118975000Y-98909000D02*
X118975000Y-102259000D01*
X122325000Y-98909000D02*
X122325000Y-102259000D01*
X118975000Y-98909000D02*
X119275000Y-98909000D01*
X118975000Y-102259000D02*
X119275000Y-102259000D01*
X122325000Y-102259000D02*
X122025000Y-102259000D01*
X122325000Y-98909000D02*
X122100000Y-98909000D01*
%TD*%
%TO.C,J6*%
X87492380Y-96943333D02*
X88206666Y-96943333D01*
X88349523Y-96990952D01*
X88444761Y-97086190D01*
X88492380Y-97229047D01*
X88492380Y-97324285D01*
X87492380Y-96038571D02*
X87492380Y-96229047D01*
X87540000Y-96324285D01*
X87587619Y-96371904D01*
X87730476Y-96467142D01*
X87920952Y-96514761D01*
X88301904Y-96514761D01*
X88397142Y-96467142D01*
X88444761Y-96419523D01*
X88492380Y-96324285D01*
X88492380Y-96133809D01*
X88444761Y-96038571D01*
X88397142Y-95990952D01*
X88301904Y-95943333D01*
X88063809Y-95943333D01*
X87968571Y-95990952D01*
X87920952Y-96038571D01*
X87873333Y-96133809D01*
X87873333Y-96324285D01*
X87920952Y-96419523D01*
X87968571Y-96467142D01*
X88063809Y-96514761D01*
%TO.C,R15*%
X96448642Y-114594380D02*
X96115309Y-114118190D01*
X95877214Y-114594380D02*
X95877214Y-113594380D01*
X96258166Y-113594380D01*
X96353404Y-113642000D01*
X96401023Y-113689619D01*
X96448642Y-113784857D01*
X96448642Y-113927714D01*
X96401023Y-114022952D01*
X96353404Y-114070571D01*
X96258166Y-114118190D01*
X95877214Y-114118190D01*
X97401023Y-114594380D02*
X96829595Y-114594380D01*
X97115309Y-114594380D02*
X97115309Y-113594380D01*
X97020071Y-113737238D01*
X96924833Y-113832476D01*
X96829595Y-113880095D01*
X98305785Y-113594380D02*
X97829595Y-113594380D01*
X97781976Y-114070571D01*
X97829595Y-114022952D01*
X97924833Y-113975333D01*
X98162928Y-113975333D01*
X98258166Y-114022952D01*
X98305785Y-114070571D01*
X98353404Y-114165809D01*
X98353404Y-114403904D01*
X98305785Y-114499142D01*
X98258166Y-114546761D01*
X98162928Y-114594380D01*
X97924833Y-114594380D01*
X97829595Y-114546761D01*
X97781976Y-114499142D01*
%TO.C,R14*%
X96321642Y-102972380D02*
X95988309Y-102496190D01*
X95750214Y-102972380D02*
X95750214Y-101972380D01*
X96131166Y-101972380D01*
X96226404Y-102020000D01*
X96274023Y-102067619D01*
X96321642Y-102162857D01*
X96321642Y-102305714D01*
X96274023Y-102400952D01*
X96226404Y-102448571D01*
X96131166Y-102496190D01*
X95750214Y-102496190D01*
X97274023Y-102972380D02*
X96702595Y-102972380D01*
X96988309Y-102972380D02*
X96988309Y-101972380D01*
X96893071Y-102115238D01*
X96797833Y-102210476D01*
X96702595Y-102258095D01*
X98131166Y-102305714D02*
X98131166Y-102972380D01*
X97893071Y-101924761D02*
X97654976Y-102639047D01*
X98274023Y-102639047D01*
%TO.C,R13*%
X125087142Y-94209380D02*
X124753809Y-93733190D01*
X124515714Y-94209380D02*
X124515714Y-93209380D01*
X124896666Y-93209380D01*
X124991904Y-93257000D01*
X125039523Y-93304619D01*
X125087142Y-93399857D01*
X125087142Y-93542714D01*
X125039523Y-93637952D01*
X124991904Y-93685571D01*
X124896666Y-93733190D01*
X124515714Y-93733190D01*
X126039523Y-94209380D02*
X125468095Y-94209380D01*
X125753809Y-94209380D02*
X125753809Y-93209380D01*
X125658571Y-93352238D01*
X125563333Y-93447476D01*
X125468095Y-93495095D01*
X126372857Y-93209380D02*
X126991904Y-93209380D01*
X126658571Y-93590333D01*
X126801428Y-93590333D01*
X126896666Y-93637952D01*
X126944285Y-93685571D01*
X126991904Y-93780809D01*
X126991904Y-94018904D01*
X126944285Y-94114142D01*
X126896666Y-94161761D01*
X126801428Y-94209380D01*
X126515714Y-94209380D01*
X126420476Y-94161761D01*
X126372857Y-94114142D01*
%TO.C,R12*%
X125087142Y-90081380D02*
X124753809Y-89605190D01*
X124515714Y-90081380D02*
X124515714Y-89081380D01*
X124896666Y-89081380D01*
X124991904Y-89129000D01*
X125039523Y-89176619D01*
X125087142Y-89271857D01*
X125087142Y-89414714D01*
X125039523Y-89509952D01*
X124991904Y-89557571D01*
X124896666Y-89605190D01*
X124515714Y-89605190D01*
X126039523Y-90081380D02*
X125468095Y-90081380D01*
X125753809Y-90081380D02*
X125753809Y-89081380D01*
X125658571Y-89224238D01*
X125563333Y-89319476D01*
X125468095Y-89367095D01*
X126420476Y-89176619D02*
X126468095Y-89129000D01*
X126563333Y-89081380D01*
X126801428Y-89081380D01*
X126896666Y-89129000D01*
X126944285Y-89176619D01*
X126991904Y-89271857D01*
X126991904Y-89367095D01*
X126944285Y-89509952D01*
X126372857Y-90081380D01*
X126991904Y-90081380D01*
%TO.C,R11*%
X127627142Y-117640380D02*
X127293809Y-117164190D01*
X127055714Y-117640380D02*
X127055714Y-116640380D01*
X127436666Y-116640380D01*
X127531904Y-116688000D01*
X127579523Y-116735619D01*
X127627142Y-116830857D01*
X127627142Y-116973714D01*
X127579523Y-117068952D01*
X127531904Y-117116571D01*
X127436666Y-117164190D01*
X127055714Y-117164190D01*
X128579523Y-117640380D02*
X128008095Y-117640380D01*
X128293809Y-117640380D02*
X128293809Y-116640380D01*
X128198571Y-116783238D01*
X128103333Y-116878476D01*
X128008095Y-116926095D01*
X129531904Y-117640380D02*
X128960476Y-117640380D01*
X129246190Y-117640380D02*
X129246190Y-116640380D01*
X129150952Y-116783238D01*
X129055714Y-116878476D01*
X128960476Y-116926095D01*
%TO.C,R10*%
X102417642Y-79192380D02*
X102084309Y-78716190D01*
X101846214Y-79192380D02*
X101846214Y-78192380D01*
X102227166Y-78192380D01*
X102322404Y-78240000D01*
X102370023Y-78287619D01*
X102417642Y-78382857D01*
X102417642Y-78525714D01*
X102370023Y-78620952D01*
X102322404Y-78668571D01*
X102227166Y-78716190D01*
X101846214Y-78716190D01*
X103370023Y-79192380D02*
X102798595Y-79192380D01*
X103084309Y-79192380D02*
X103084309Y-78192380D01*
X102989071Y-78335238D01*
X102893833Y-78430476D01*
X102798595Y-78478095D01*
X103989071Y-78192380D02*
X104084309Y-78192380D01*
X104179547Y-78240000D01*
X104227166Y-78287619D01*
X104274785Y-78382857D01*
X104322404Y-78573333D01*
X104322404Y-78811428D01*
X104274785Y-79001904D01*
X104227166Y-79097142D01*
X104179547Y-79144761D01*
X104084309Y-79192380D01*
X103989071Y-79192380D01*
X103893833Y-79144761D01*
X103846214Y-79097142D01*
X103798595Y-79001904D01*
X103750976Y-78811428D01*
X103750976Y-78573333D01*
X103798595Y-78382857D01*
X103846214Y-78287619D01*
X103893833Y-78240000D01*
X103989071Y-78192380D01*
%TO.C,R9*%
X102720380Y-90879666D02*
X102244190Y-91213000D01*
X102720380Y-91451095D02*
X101720380Y-91451095D01*
X101720380Y-91070142D01*
X101768000Y-90974904D01*
X101815619Y-90927285D01*
X101910857Y-90879666D01*
X102053714Y-90879666D01*
X102148952Y-90927285D01*
X102196571Y-90974904D01*
X102244190Y-91070142D01*
X102244190Y-91451095D01*
X102720380Y-90403476D02*
X102720380Y-90213000D01*
X102672761Y-90117761D01*
X102625142Y-90070142D01*
X102482285Y-89974904D01*
X102291809Y-89927285D01*
X101910857Y-89927285D01*
X101815619Y-89974904D01*
X101768000Y-90022523D01*
X101720380Y-90117761D01*
X101720380Y-90308238D01*
X101768000Y-90403476D01*
X101815619Y-90451095D01*
X101910857Y-90498714D01*
X102148952Y-90498714D01*
X102244190Y-90451095D01*
X102291809Y-90403476D01*
X102339428Y-90308238D01*
X102339428Y-90117761D01*
X102291809Y-90022523D01*
X102244190Y-89974904D01*
X102148952Y-89927285D01*
%TO.C,R8*%
X93193333Y-88430380D02*
X92860000Y-87954190D01*
X92621904Y-88430380D02*
X92621904Y-87430380D01*
X93002857Y-87430380D01*
X93098095Y-87478000D01*
X93145714Y-87525619D01*
X93193333Y-87620857D01*
X93193333Y-87763714D01*
X93145714Y-87858952D01*
X93098095Y-87906571D01*
X93002857Y-87954190D01*
X92621904Y-87954190D01*
X93764761Y-87858952D02*
X93669523Y-87811333D01*
X93621904Y-87763714D01*
X93574285Y-87668476D01*
X93574285Y-87620857D01*
X93621904Y-87525619D01*
X93669523Y-87478000D01*
X93764761Y-87430380D01*
X93955238Y-87430380D01*
X94050476Y-87478000D01*
X94098095Y-87525619D01*
X94145714Y-87620857D01*
X94145714Y-87668476D01*
X94098095Y-87763714D01*
X94050476Y-87811333D01*
X93955238Y-87858952D01*
X93764761Y-87858952D01*
X93669523Y-87906571D01*
X93621904Y-87954190D01*
X93574285Y-88049428D01*
X93574285Y-88239904D01*
X93621904Y-88335142D01*
X93669523Y-88382761D01*
X93764761Y-88430380D01*
X93955238Y-88430380D01*
X94050476Y-88382761D01*
X94098095Y-88335142D01*
X94145714Y-88239904D01*
X94145714Y-88049428D01*
X94098095Y-87954190D01*
X94050476Y-87906571D01*
X93955238Y-87858952D01*
%TO.C,R7*%
X106386333Y-134722380D02*
X106053000Y-134246190D01*
X105814904Y-134722380D02*
X105814904Y-133722380D01*
X106195857Y-133722380D01*
X106291095Y-133770000D01*
X106338714Y-133817619D01*
X106386333Y-133912857D01*
X106386333Y-134055714D01*
X106338714Y-134150952D01*
X106291095Y-134198571D01*
X106195857Y-134246190D01*
X105814904Y-134246190D01*
X106719666Y-133722380D02*
X107386333Y-133722380D01*
X106957761Y-134722380D01*
%TO.C,R6*%
X106386333Y-133581380D02*
X106053000Y-133105190D01*
X105814904Y-133581380D02*
X105814904Y-132581380D01*
X106195857Y-132581380D01*
X106291095Y-132629000D01*
X106338714Y-132676619D01*
X106386333Y-132771857D01*
X106386333Y-132914714D01*
X106338714Y-133009952D01*
X106291095Y-133057571D01*
X106195857Y-133105190D01*
X105814904Y-133105190D01*
X107243476Y-132581380D02*
X107053000Y-132581380D01*
X106957761Y-132629000D01*
X106910142Y-132676619D01*
X106814904Y-132819476D01*
X106767285Y-133009952D01*
X106767285Y-133390904D01*
X106814904Y-133486142D01*
X106862523Y-133533761D01*
X106957761Y-133581380D01*
X107148238Y-133581380D01*
X107243476Y-133533761D01*
X107291095Y-133486142D01*
X107338714Y-133390904D01*
X107338714Y-133152809D01*
X107291095Y-133057571D01*
X107243476Y-133009952D01*
X107148238Y-132962333D01*
X106957761Y-132962333D01*
X106862523Y-133009952D01*
X106814904Y-133057571D01*
X106767285Y-133152809D01*
%TO.C,R5*%
X124310380Y-137707666D02*
X123834190Y-138041000D01*
X124310380Y-138279095D02*
X123310380Y-138279095D01*
X123310380Y-137898142D01*
X123358000Y-137802904D01*
X123405619Y-137755285D01*
X123500857Y-137707666D01*
X123643714Y-137707666D01*
X123738952Y-137755285D01*
X123786571Y-137802904D01*
X123834190Y-137898142D01*
X123834190Y-138279095D01*
X123310380Y-136802904D02*
X123310380Y-137279095D01*
X123786571Y-137326714D01*
X123738952Y-137279095D01*
X123691333Y-137183857D01*
X123691333Y-136945761D01*
X123738952Y-136850523D01*
X123786571Y-136802904D01*
X123881809Y-136755285D01*
X124119904Y-136755285D01*
X124215142Y-136802904D01*
X124262761Y-136850523D01*
X124310380Y-136945761D01*
X124310380Y-137183857D01*
X124262761Y-137279095D01*
X124215142Y-137326714D01*
%TO.C,R4*%
X124310380Y-130849666D02*
X123834190Y-131183000D01*
X124310380Y-131421095D02*
X123310380Y-131421095D01*
X123310380Y-131040142D01*
X123358000Y-130944904D01*
X123405619Y-130897285D01*
X123500857Y-130849666D01*
X123643714Y-130849666D01*
X123738952Y-130897285D01*
X123786571Y-130944904D01*
X123834190Y-131040142D01*
X123834190Y-131421095D01*
X123643714Y-129992523D02*
X124310380Y-129992523D01*
X123262761Y-130230619D02*
X123977047Y-130468714D01*
X123977047Y-129849666D01*
%TO.C,R3*%
X102021380Y-130468666D02*
X101545190Y-130802000D01*
X102021380Y-131040095D02*
X101021380Y-131040095D01*
X101021380Y-130659142D01*
X101069000Y-130563904D01*
X101116619Y-130516285D01*
X101211857Y-130468666D01*
X101354714Y-130468666D01*
X101449952Y-130516285D01*
X101497571Y-130563904D01*
X101545190Y-130659142D01*
X101545190Y-131040095D01*
X101021380Y-130135333D02*
X101021380Y-129516285D01*
X101402333Y-129849619D01*
X101402333Y-129706761D01*
X101449952Y-129611523D01*
X101497571Y-129563904D01*
X101592809Y-129516285D01*
X101830904Y-129516285D01*
X101926142Y-129563904D01*
X101973761Y-129611523D01*
X102021380Y-129706761D01*
X102021380Y-129992476D01*
X101973761Y-130087714D01*
X101926142Y-130135333D01*
%TO.C,R2*%
X102021380Y-123991666D02*
X101545190Y-124325000D01*
X102021380Y-124563095D02*
X101021380Y-124563095D01*
X101021380Y-124182142D01*
X101069000Y-124086904D01*
X101116619Y-124039285D01*
X101211857Y-123991666D01*
X101354714Y-123991666D01*
X101449952Y-124039285D01*
X101497571Y-124086904D01*
X101545190Y-124182142D01*
X101545190Y-124563095D01*
X101116619Y-123610714D02*
X101069000Y-123563095D01*
X101021380Y-123467857D01*
X101021380Y-123229761D01*
X101069000Y-123134523D01*
X101116619Y-123086904D01*
X101211857Y-123039285D01*
X101307095Y-123039285D01*
X101449952Y-123086904D01*
X102021380Y-123658333D01*
X102021380Y-123039285D01*
%TO.C,D1*%
X95576380Y-95734095D02*
X94576380Y-95734095D01*
X94576380Y-95496000D01*
X94624000Y-95353142D01*
X94719238Y-95257904D01*
X94814476Y-95210285D01*
X95004952Y-95162666D01*
X95147809Y-95162666D01*
X95338285Y-95210285D01*
X95433523Y-95257904D01*
X95528761Y-95353142D01*
X95576380Y-95496000D01*
X95576380Y-95734095D01*
X95576380Y-94210285D02*
X95576380Y-94781714D01*
X95576380Y-94496000D02*
X94576380Y-94496000D01*
X94719238Y-94591238D01*
X94814476Y-94686476D01*
X94862095Y-94781714D01*
%TO.C,C7*%
X113388142Y-101512666D02*
X113435761Y-101560285D01*
X113483380Y-101703142D01*
X113483380Y-101798380D01*
X113435761Y-101941238D01*
X113340523Y-102036476D01*
X113245285Y-102084095D01*
X113054809Y-102131714D01*
X112911952Y-102131714D01*
X112721476Y-102084095D01*
X112626238Y-102036476D01*
X112531000Y-101941238D01*
X112483380Y-101798380D01*
X112483380Y-101703142D01*
X112531000Y-101560285D01*
X112578619Y-101512666D01*
X112483380Y-101179333D02*
X112483380Y-100512666D01*
X113483380Y-100941238D01*
%TO.C,C6*%
X142850142Y-79414666D02*
X142897761Y-79462285D01*
X142945380Y-79605142D01*
X142945380Y-79700380D01*
X142897761Y-79843238D01*
X142802523Y-79938476D01*
X142707285Y-79986095D01*
X142516809Y-80033714D01*
X142373952Y-80033714D01*
X142183476Y-79986095D01*
X142088238Y-79938476D01*
X141993000Y-79843238D01*
X141945380Y-79700380D01*
X141945380Y-79605142D01*
X141993000Y-79462285D01*
X142040619Y-79414666D01*
X141945380Y-78557523D02*
X141945380Y-78748000D01*
X141993000Y-78843238D01*
X142040619Y-78890857D01*
X142183476Y-78986095D01*
X142373952Y-79033714D01*
X142754904Y-79033714D01*
X142850142Y-78986095D01*
X142897761Y-78938476D01*
X142945380Y-78843238D01*
X142945380Y-78652761D01*
X142897761Y-78557523D01*
X142850142Y-78509904D01*
X142754904Y-78462285D01*
X142516809Y-78462285D01*
X142421571Y-78509904D01*
X142373952Y-78557523D01*
X142326333Y-78652761D01*
X142326333Y-78843238D01*
X142373952Y-78938476D01*
X142421571Y-78986095D01*
X142516809Y-79033714D01*
%TO.C,C5*%
X136358333Y-74399142D02*
X136310714Y-74446761D01*
X136167857Y-74494380D01*
X136072619Y-74494380D01*
X135929761Y-74446761D01*
X135834523Y-74351523D01*
X135786904Y-74256285D01*
X135739285Y-74065809D01*
X135739285Y-73922952D01*
X135786904Y-73732476D01*
X135834523Y-73637238D01*
X135929761Y-73542000D01*
X136072619Y-73494380D01*
X136167857Y-73494380D01*
X136310714Y-73542000D01*
X136358333Y-73589619D01*
X137263095Y-73494380D02*
X136786904Y-73494380D01*
X136739285Y-73970571D01*
X136786904Y-73922952D01*
X136882142Y-73875333D01*
X137120238Y-73875333D01*
X137215476Y-73922952D01*
X137263095Y-73970571D01*
X137310714Y-74065809D01*
X137310714Y-74303904D01*
X137263095Y-74399142D01*
X137215476Y-74446761D01*
X137120238Y-74494380D01*
X136882142Y-74494380D01*
X136786904Y-74446761D01*
X136739285Y-74399142D01*
%TO.C,C2*%
X98830333Y-135423142D02*
X98782714Y-135470761D01*
X98639857Y-135518380D01*
X98544619Y-135518380D01*
X98401761Y-135470761D01*
X98306523Y-135375523D01*
X98258904Y-135280285D01*
X98211285Y-135089809D01*
X98211285Y-134946952D01*
X98258904Y-134756476D01*
X98306523Y-134661238D01*
X98401761Y-134566000D01*
X98544619Y-134518380D01*
X98639857Y-134518380D01*
X98782714Y-134566000D01*
X98830333Y-134613619D01*
X99211285Y-134613619D02*
X99258904Y-134566000D01*
X99354142Y-134518380D01*
X99592238Y-134518380D01*
X99687476Y-134566000D01*
X99735095Y-134613619D01*
X99782714Y-134708857D01*
X99782714Y-134804095D01*
X99735095Y-134946952D01*
X99163666Y-135518380D01*
X99782714Y-135518380D01*
%TO.C,C1*%
X130912142Y-137199666D02*
X130959761Y-137247285D01*
X131007380Y-137390142D01*
X131007380Y-137485380D01*
X130959761Y-137628238D01*
X130864523Y-137723476D01*
X130769285Y-137771095D01*
X130578809Y-137818714D01*
X130435952Y-137818714D01*
X130245476Y-137771095D01*
X130150238Y-137723476D01*
X130055000Y-137628238D01*
X130007380Y-137485380D01*
X130007380Y-137390142D01*
X130055000Y-137247285D01*
X130102619Y-137199666D01*
X131007380Y-136247285D02*
X131007380Y-136818714D01*
X131007380Y-136533000D02*
X130007380Y-136533000D01*
X130150238Y-136628238D01*
X130245476Y-136723476D01*
X130293095Y-136818714D01*
%TO.C,SW1*%
X134556666Y-117117761D02*
X134699523Y-117165380D01*
X134937619Y-117165380D01*
X135032857Y-117117761D01*
X135080476Y-117070142D01*
X135128095Y-116974904D01*
X135128095Y-116879666D01*
X135080476Y-116784428D01*
X135032857Y-116736809D01*
X134937619Y-116689190D01*
X134747142Y-116641571D01*
X134651904Y-116593952D01*
X134604285Y-116546333D01*
X134556666Y-116451095D01*
X134556666Y-116355857D01*
X134604285Y-116260619D01*
X134651904Y-116213000D01*
X134747142Y-116165380D01*
X134985238Y-116165380D01*
X135128095Y-116213000D01*
X135461428Y-116165380D02*
X135699523Y-117165380D01*
X135890000Y-116451095D01*
X136080476Y-117165380D01*
X136318571Y-116165380D01*
X137223333Y-117165380D02*
X136651904Y-117165380D01*
X136937619Y-117165380D02*
X136937619Y-116165380D01*
X136842380Y-116308238D01*
X136747142Y-116403476D01*
X136651904Y-116451095D01*
%TO.C,BT1*%
X112329571Y-85601714D02*
X112377190Y-85458857D01*
X112424809Y-85411238D01*
X112520047Y-85363619D01*
X112662904Y-85363619D01*
X112758142Y-85411238D01*
X112805761Y-85458857D01*
X112853380Y-85554095D01*
X112853380Y-85935047D01*
X111853380Y-85935047D01*
X111853380Y-85601714D01*
X111901000Y-85506476D01*
X111948619Y-85458857D01*
X112043857Y-85411238D01*
X112139095Y-85411238D01*
X112234333Y-85458857D01*
X112281952Y-85506476D01*
X112329571Y-85601714D01*
X112329571Y-85935047D01*
X111853380Y-85077904D02*
X111853380Y-84506476D01*
X112853380Y-84792190D02*
X111853380Y-84792190D01*
X112853380Y-83649333D02*
X112853380Y-84220761D01*
X112853380Y-83935047D02*
X111853380Y-83935047D01*
X111996238Y-84030285D01*
X112091476Y-84125523D01*
X112139095Y-84220761D01*
%TO.C,C3*%
X96480333Y-83923142D02*
X96432714Y-83970761D01*
X96289857Y-84018380D01*
X96194619Y-84018380D01*
X96051761Y-83970761D01*
X95956523Y-83875523D01*
X95908904Y-83780285D01*
X95861285Y-83589809D01*
X95861285Y-83446952D01*
X95908904Y-83256476D01*
X95956523Y-83161238D01*
X96051761Y-83066000D01*
X96194619Y-83018380D01*
X96289857Y-83018380D01*
X96432714Y-83066000D01*
X96480333Y-83113619D01*
X96813666Y-83018380D02*
X97432714Y-83018380D01*
X97099380Y-83399333D01*
X97242238Y-83399333D01*
X97337476Y-83446952D01*
X97385095Y-83494571D01*
X97432714Y-83589809D01*
X97432714Y-83827904D01*
X97385095Y-83923142D01*
X97337476Y-83970761D01*
X97242238Y-84018380D01*
X96956523Y-84018380D01*
X96861285Y-83970761D01*
X96813666Y-83923142D01*
%TO.C,C4*%
X103909833Y-95226142D02*
X103862214Y-95273761D01*
X103719357Y-95321380D01*
X103624119Y-95321380D01*
X103481261Y-95273761D01*
X103386023Y-95178523D01*
X103338404Y-95083285D01*
X103290785Y-94892809D01*
X103290785Y-94749952D01*
X103338404Y-94559476D01*
X103386023Y-94464238D01*
X103481261Y-94369000D01*
X103624119Y-94321380D01*
X103719357Y-94321380D01*
X103862214Y-94369000D01*
X103909833Y-94416619D01*
X104766976Y-94654714D02*
X104766976Y-95321380D01*
X104528880Y-94273761D02*
X104290785Y-94988047D01*
X104909833Y-94988047D01*
%TO.C,D2*%
X117514380Y-83415095D02*
X116514380Y-83415095D01*
X116514380Y-83177000D01*
X116562000Y-83034142D01*
X116657238Y-82938904D01*
X116752476Y-82891285D01*
X116942952Y-82843666D01*
X117085809Y-82843666D01*
X117276285Y-82891285D01*
X117371523Y-82938904D01*
X117466761Y-83034142D01*
X117514380Y-83177000D01*
X117514380Y-83415095D01*
X116609619Y-82462714D02*
X116562000Y-82415095D01*
X116514380Y-82319857D01*
X116514380Y-82081761D01*
X116562000Y-81986523D01*
X116609619Y-81938904D01*
X116704857Y-81891285D01*
X116800095Y-81891285D01*
X116942952Y-81938904D01*
X117514380Y-82510333D01*
X117514380Y-81891285D01*
%TO.C,D3*%
X131595904Y-89542880D02*
X131595904Y-88542880D01*
X131834000Y-88542880D01*
X131976857Y-88590500D01*
X132072095Y-88685738D01*
X132119714Y-88780976D01*
X132167333Y-88971452D01*
X132167333Y-89114309D01*
X132119714Y-89304785D01*
X132072095Y-89400023D01*
X131976857Y-89495261D01*
X131834000Y-89542880D01*
X131595904Y-89542880D01*
X132500666Y-88542880D02*
X133119714Y-88542880D01*
X132786380Y-88923833D01*
X132929238Y-88923833D01*
X133024476Y-88971452D01*
X133072095Y-89019071D01*
X133119714Y-89114309D01*
X133119714Y-89352404D01*
X133072095Y-89447642D01*
X133024476Y-89495261D01*
X132929238Y-89542880D01*
X132643523Y-89542880D01*
X132548285Y-89495261D01*
X132500666Y-89447642D01*
%TO.C,D4*%
X130552904Y-93924380D02*
X130552904Y-92924380D01*
X130791000Y-92924380D01*
X130933857Y-92972000D01*
X131029095Y-93067238D01*
X131076714Y-93162476D01*
X131124333Y-93352952D01*
X131124333Y-93495809D01*
X131076714Y-93686285D01*
X131029095Y-93781523D01*
X130933857Y-93876761D01*
X130791000Y-93924380D01*
X130552904Y-93924380D01*
X131981476Y-93257714D02*
X131981476Y-93924380D01*
X131743380Y-92876761D02*
X131505285Y-93591047D01*
X132124333Y-93591047D01*
%TO.C,D5*%
X121308904Y-75636380D02*
X121308904Y-74636380D01*
X121547000Y-74636380D01*
X121689857Y-74684000D01*
X121785095Y-74779238D01*
X121832714Y-74874476D01*
X121880333Y-75064952D01*
X121880333Y-75207809D01*
X121832714Y-75398285D01*
X121785095Y-75493523D01*
X121689857Y-75588761D01*
X121547000Y-75636380D01*
X121308904Y-75636380D01*
X122785095Y-74636380D02*
X122308904Y-74636380D01*
X122261285Y-75112571D01*
X122308904Y-75064952D01*
X122404142Y-75017333D01*
X122642238Y-75017333D01*
X122737476Y-75064952D01*
X122785095Y-75112571D01*
X122832714Y-75207809D01*
X122832714Y-75445904D01*
X122785095Y-75541142D01*
X122737476Y-75588761D01*
X122642238Y-75636380D01*
X122404142Y-75636380D01*
X122308904Y-75588761D01*
X122261285Y-75541142D01*
%TO.C,IC1*%
D16*
X124526023Y-115793761D02*
X123256023Y-115793761D01*
X124405071Y-114463285D02*
X124465547Y-114523761D01*
X124526023Y-114705190D01*
X124526023Y-114826142D01*
X124465547Y-115007571D01*
X124344595Y-115128523D01*
X124223642Y-115189000D01*
X123981738Y-115249476D01*
X123800309Y-115249476D01*
X123558404Y-115189000D01*
X123437452Y-115128523D01*
X123316500Y-115007571D01*
X123256023Y-114826142D01*
X123256023Y-114705190D01*
X123316500Y-114523761D01*
X123376976Y-114463285D01*
X124526023Y-113253761D02*
X124526023Y-113979476D01*
X124526023Y-113616619D02*
X123256023Y-113616619D01*
X123437452Y-113737571D01*
X123558404Y-113858523D01*
X123618880Y-113979476D01*
%TO.C,J1*%
D15*
X82320666Y-133841380D02*
X82320666Y-134555666D01*
X82273047Y-134698523D01*
X82177809Y-134793761D01*
X82034952Y-134841380D01*
X81939714Y-134841380D01*
X83320666Y-134841380D02*
X82749238Y-134841380D01*
X83034952Y-134841380D02*
X83034952Y-133841380D01*
X82939714Y-133984238D01*
X82844476Y-134079476D01*
X82749238Y-134127095D01*
%TO.C,J2*%
X144192666Y-123785380D02*
X144192666Y-124499666D01*
X144145047Y-124642523D01*
X144049809Y-124737761D01*
X143906952Y-124785380D01*
X143811714Y-124785380D01*
X144621238Y-123880619D02*
X144668857Y-123833000D01*
X144764095Y-123785380D01*
X145002190Y-123785380D01*
X145097428Y-123833000D01*
X145145047Y-123880619D01*
X145192666Y-123975857D01*
X145192666Y-124071095D01*
X145145047Y-124213952D01*
X144573619Y-124785380D01*
X145192666Y-124785380D01*
%TO.C,J3*%
X83359666Y-114387380D02*
X83359666Y-115101666D01*
X83312047Y-115244523D01*
X83216809Y-115339761D01*
X83073952Y-115387380D01*
X82978714Y-115387380D01*
X83740619Y-114387380D02*
X84359666Y-114387380D01*
X84026333Y-114768333D01*
X84169190Y-114768333D01*
X84264428Y-114815952D01*
X84312047Y-114863571D01*
X84359666Y-114958809D01*
X84359666Y-115196904D01*
X84312047Y-115292142D01*
X84264428Y-115339761D01*
X84169190Y-115387380D01*
X83883476Y-115387380D01*
X83788238Y-115339761D01*
X83740619Y-115292142D01*
%TO.C,J4*%
X126031666Y-134243380D02*
X126031666Y-134957666D01*
X125984047Y-135100523D01*
X125888809Y-135195761D01*
X125745952Y-135243380D01*
X125650714Y-135243380D01*
X126936428Y-134576714D02*
X126936428Y-135243380D01*
X126698333Y-134195761D02*
X126460238Y-134910047D01*
X127079285Y-134910047D01*
%TO.C,J5*%
X105838666Y-124547380D02*
X105838666Y-125261666D01*
X105791047Y-125404523D01*
X105695809Y-125499761D01*
X105552952Y-125547380D01*
X105457714Y-125547380D01*
X106791047Y-124547380D02*
X106314857Y-124547380D01*
X106267238Y-125023571D01*
X106314857Y-124975952D01*
X106410095Y-124928333D01*
X106648190Y-124928333D01*
X106743428Y-124975952D01*
X106791047Y-125023571D01*
X106838666Y-125118809D01*
X106838666Y-125356904D01*
X106791047Y-125452142D01*
X106743428Y-125499761D01*
X106648190Y-125547380D01*
X106410095Y-125547380D01*
X106314857Y-125499761D01*
X106267238Y-125452142D01*
%TO.C,J7*%
X92694166Y-98258380D02*
X92694166Y-98972666D01*
X92646547Y-99115523D01*
X92551309Y-99210761D01*
X92408452Y-99258380D01*
X92313214Y-99258380D01*
X93075119Y-98258380D02*
X93741785Y-98258380D01*
X93313214Y-99258380D01*
%TO.C,J8*%
X86661666Y-86066380D02*
X86661666Y-86780666D01*
X86614047Y-86923523D01*
X86518809Y-87018761D01*
X86375952Y-87066380D01*
X86280714Y-87066380D01*
X87280714Y-86494952D02*
X87185476Y-86447333D01*
X87137857Y-86399714D01*
X87090238Y-86304476D01*
X87090238Y-86256857D01*
X87137857Y-86161619D01*
X87185476Y-86114000D01*
X87280714Y-86066380D01*
X87471190Y-86066380D01*
X87566428Y-86114000D01*
X87614047Y-86161619D01*
X87661666Y-86256857D01*
X87661666Y-86304476D01*
X87614047Y-86399714D01*
X87566428Y-86447333D01*
X87471190Y-86494952D01*
X87280714Y-86494952D01*
X87185476Y-86542571D01*
X87137857Y-86590190D01*
X87090238Y-86685428D01*
X87090238Y-86875904D01*
X87137857Y-86971142D01*
X87185476Y-87018761D01*
X87280714Y-87066380D01*
X87471190Y-87066380D01*
X87566428Y-87018761D01*
X87614047Y-86971142D01*
X87661666Y-86875904D01*
X87661666Y-86685428D01*
X87614047Y-86590190D01*
X87566428Y-86542571D01*
X87471190Y-86494952D01*
%TO.C,J9*%
X97075666Y-75227380D02*
X97075666Y-75941666D01*
X97028047Y-76084523D01*
X96932809Y-76179761D01*
X96789952Y-76227380D01*
X96694714Y-76227380D01*
X97599476Y-76227380D02*
X97789952Y-76227380D01*
X97885190Y-76179761D01*
X97932809Y-76132142D01*
X98028047Y-75989285D01*
X98075666Y-75798809D01*
X98075666Y-75417857D01*
X98028047Y-75322619D01*
X97980428Y-75275000D01*
X97885190Y-75227380D01*
X97694714Y-75227380D01*
X97599476Y-75275000D01*
X97551857Y-75322619D01*
X97504238Y-75417857D01*
X97504238Y-75655952D01*
X97551857Y-75751190D01*
X97599476Y-75798809D01*
X97694714Y-75846428D01*
X97885190Y-75846428D01*
X97980428Y-75798809D01*
X98028047Y-75751190D01*
X98075666Y-75655952D01*
%TO.C,J10*%
X119586476Y-79291380D02*
X119586476Y-80005666D01*
X119538857Y-80148523D01*
X119443619Y-80243761D01*
X119300761Y-80291380D01*
X119205523Y-80291380D01*
X120586476Y-80291380D02*
X120015047Y-80291380D01*
X120300761Y-80291380D02*
X120300761Y-79291380D01*
X120205523Y-79434238D01*
X120110285Y-79529476D01*
X120015047Y-79577095D01*
X121205523Y-79291380D02*
X121300761Y-79291380D01*
X121396000Y-79339000D01*
X121443619Y-79386619D01*
X121491238Y-79481857D01*
X121538857Y-79672333D01*
X121538857Y-79910428D01*
X121491238Y-80100904D01*
X121443619Y-80196142D01*
X121396000Y-80243761D01*
X121300761Y-80291380D01*
X121205523Y-80291380D01*
X121110285Y-80243761D01*
X121062666Y-80196142D01*
X121015047Y-80100904D01*
X120967428Y-79910428D01*
X120967428Y-79672333D01*
X121015047Y-79481857D01*
X121062666Y-79386619D01*
X121110285Y-79339000D01*
X121205523Y-79291380D01*
%TO.C,J11*%
X126444476Y-74255380D02*
X126444476Y-74969666D01*
X126396857Y-75112523D01*
X126301619Y-75207761D01*
X126158761Y-75255380D01*
X126063523Y-75255380D01*
X127444476Y-75255380D02*
X126873047Y-75255380D01*
X127158761Y-75255380D02*
X127158761Y-74255380D01*
X127063523Y-74398238D01*
X126968285Y-74493476D01*
X126873047Y-74541095D01*
X128396857Y-75255380D02*
X127825428Y-75255380D01*
X128111142Y-75255380D02*
X128111142Y-74255380D01*
X128015904Y-74398238D01*
X127920666Y-74493476D01*
X127825428Y-74541095D01*
%TO.C,J12*%
X111168380Y-77390523D02*
X111882666Y-77390523D01*
X112025523Y-77438142D01*
X112120761Y-77533380D01*
X112168380Y-77676238D01*
X112168380Y-77771476D01*
X112168380Y-76390523D02*
X112168380Y-76961952D01*
X112168380Y-76676238D02*
X111168380Y-76676238D01*
X111311238Y-76771476D01*
X111406476Y-76866714D01*
X111454095Y-76961952D01*
X111263619Y-76009571D02*
X111216000Y-75961952D01*
X111168380Y-75866714D01*
X111168380Y-75628619D01*
X111216000Y-75533380D01*
X111263619Y-75485761D01*
X111358857Y-75438142D01*
X111454095Y-75438142D01*
X111596952Y-75485761D01*
X112168380Y-76057190D01*
X112168380Y-75438142D01*
%TO.C,J13*%
X113617476Y-105961380D02*
X113617476Y-106675666D01*
X113569857Y-106818523D01*
X113474619Y-106913761D01*
X113331761Y-106961380D01*
X113236523Y-106961380D01*
X114617476Y-106961380D02*
X114046047Y-106961380D01*
X114331761Y-106961380D02*
X114331761Y-105961380D01*
X114236523Y-106104238D01*
X114141285Y-106199476D01*
X114046047Y-106247095D01*
X114950809Y-105961380D02*
X115569857Y-105961380D01*
X115236523Y-106342333D01*
X115379380Y-106342333D01*
X115474619Y-106389952D01*
X115522238Y-106437571D01*
X115569857Y-106532809D01*
X115569857Y-106770904D01*
X115522238Y-106866142D01*
X115474619Y-106913761D01*
X115379380Y-106961380D01*
X115093666Y-106961380D01*
X114998428Y-106913761D01*
X114950809Y-106866142D01*
%TO.C,JP1*%
X122601380Y-108846333D02*
X123315666Y-108846333D01*
X123458523Y-108893952D01*
X123553761Y-108989190D01*
X123601380Y-109132047D01*
X123601380Y-109227285D01*
X123601380Y-108370142D02*
X122601380Y-108370142D01*
X122601380Y-107989190D01*
X122649000Y-107893952D01*
X122696619Y-107846333D01*
X122791857Y-107798714D01*
X122934714Y-107798714D01*
X123029952Y-107846333D01*
X123077571Y-107893952D01*
X123125190Y-107989190D01*
X123125190Y-108370142D01*
X123601380Y-106846333D02*
X123601380Y-107417761D01*
X123601380Y-107132047D02*
X122601380Y-107132047D01*
X122744238Y-107227285D01*
X122839476Y-107322523D01*
X122887095Y-107417761D01*
%TO.C,Q1*%
X108489761Y-79628619D02*
X108394523Y-79581000D01*
X108299285Y-79485761D01*
X108156428Y-79342904D01*
X108061190Y-79295285D01*
X107965952Y-79295285D01*
X108013571Y-79533380D02*
X107918333Y-79485761D01*
X107823095Y-79390523D01*
X107775476Y-79200047D01*
X107775476Y-78866714D01*
X107823095Y-78676238D01*
X107918333Y-78581000D01*
X108013571Y-78533380D01*
X108204047Y-78533380D01*
X108299285Y-78581000D01*
X108394523Y-78676238D01*
X108442142Y-78866714D01*
X108442142Y-79200047D01*
X108394523Y-79390523D01*
X108299285Y-79485761D01*
X108204047Y-79533380D01*
X108013571Y-79533380D01*
X109394523Y-79533380D02*
X108823095Y-79533380D01*
X109108809Y-79533380D02*
X109108809Y-78533380D01*
X109013571Y-78676238D01*
X108918333Y-78771476D01*
X108823095Y-78819095D01*
%TO.C,R1*%
X132828380Y-130595666D02*
X132352190Y-130929000D01*
X132828380Y-131167095D02*
X131828380Y-131167095D01*
X131828380Y-130786142D01*
X131876000Y-130690904D01*
X131923619Y-130643285D01*
X132018857Y-130595666D01*
X132161714Y-130595666D01*
X132256952Y-130643285D01*
X132304571Y-130690904D01*
X132352190Y-130786142D01*
X132352190Y-131167095D01*
X132828380Y-129643285D02*
X132828380Y-130214714D01*
X132828380Y-129929000D02*
X131828380Y-129929000D01*
X131971238Y-130024238D01*
X132066476Y-130119476D01*
X132114095Y-130214714D01*
%TO.C,TP1*%
X144534095Y-76194380D02*
X145105523Y-76194380D01*
X144819809Y-77194380D02*
X144819809Y-76194380D01*
X145438857Y-77194380D02*
X145438857Y-76194380D01*
X145819809Y-76194380D01*
X145915047Y-76242000D01*
X145962666Y-76289619D01*
X146010285Y-76384857D01*
X146010285Y-76527714D01*
X145962666Y-76622952D01*
X145915047Y-76670571D01*
X145819809Y-76718190D01*
X145438857Y-76718190D01*
X146962666Y-77194380D02*
X146391238Y-77194380D01*
X146676952Y-77194380D02*
X146676952Y-76194380D01*
X146581714Y-76337238D01*
X146486476Y-76432476D01*
X146391238Y-76480095D01*
%TO.C,TP2*%
X144851595Y-81113380D02*
X145423023Y-81113380D01*
X145137309Y-82113380D02*
X145137309Y-81113380D01*
X145756357Y-82113380D02*
X145756357Y-81113380D01*
X146137309Y-81113380D01*
X146232547Y-81161000D01*
X146280166Y-81208619D01*
X146327785Y-81303857D01*
X146327785Y-81446714D01*
X146280166Y-81541952D01*
X146232547Y-81589571D01*
X146137309Y-81637190D01*
X145756357Y-81637190D01*
X146708738Y-81208619D02*
X146756357Y-81161000D01*
X146851595Y-81113380D01*
X147089690Y-81113380D01*
X147184928Y-81161000D01*
X147232547Y-81208619D01*
X147280166Y-81303857D01*
X147280166Y-81399095D01*
X147232547Y-81541952D01*
X146661119Y-82113380D01*
X147280166Y-82113380D01*
%TO.C,U1*%
X103505095Y-81875380D02*
X103505095Y-82684904D01*
X103552714Y-82780142D01*
X103600333Y-82827761D01*
X103695571Y-82875380D01*
X103886047Y-82875380D01*
X103981285Y-82827761D01*
X104028904Y-82780142D01*
X104076523Y-82684904D01*
X104076523Y-81875380D01*
X105076523Y-82875380D02*
X104505095Y-82875380D01*
X104790809Y-82875380D02*
X104790809Y-81875380D01*
X104695571Y-82018238D01*
X104600333Y-82113476D01*
X104505095Y-82161095D01*
%TO.C,U2*%
X134493095Y-81875380D02*
X134493095Y-82684904D01*
X134540714Y-82780142D01*
X134588333Y-82827761D01*
X134683571Y-82875380D01*
X134874047Y-82875380D01*
X134969285Y-82827761D01*
X135016904Y-82780142D01*
X135064523Y-82684904D01*
X135064523Y-81875380D01*
X135493095Y-81970619D02*
X135540714Y-81923000D01*
X135635952Y-81875380D01*
X135874047Y-81875380D01*
X135969285Y-81923000D01*
X136016904Y-81970619D01*
X136064523Y-82065857D01*
X136064523Y-82161095D01*
X136016904Y-82303952D01*
X135445476Y-82875380D01*
X136064523Y-82875380D01*
%TO.C,U3*%
X122702380Y-101345904D02*
X123511904Y-101345904D01*
X123607142Y-101298285D01*
X123654761Y-101250666D01*
X123702380Y-101155428D01*
X123702380Y-100964952D01*
X123654761Y-100869714D01*
X123607142Y-100822095D01*
X123511904Y-100774476D01*
X122702380Y-100774476D01*
X122702380Y-100393523D02*
X122702380Y-99774476D01*
X123083333Y-100107809D01*
X123083333Y-99964952D01*
X123130952Y-99869714D01*
X123178571Y-99822095D01*
X123273809Y-99774476D01*
X123511904Y-99774476D01*
X123607142Y-99822095D01*
X123654761Y-99869714D01*
X123702380Y-99964952D01*
X123702380Y-100250666D01*
X123654761Y-100345904D01*
X123607142Y-100393523D01*
%TD*%
M02*
